<?xml version="1.0" encoding="utf-8"?>
<!-- Generator: Adobe Illustrator 15.0.0, SVG Export Plug-In . SVG Version: 6.00 Build 0)  -->
<!DOCTYPE svg PUBLIC "-//W3C//DTD SVG 1.1//EN" "http://www.w3.org/Graphics/SVG/1.1/DTD/svg11.dtd">
<svg version="1.1" id="new" xmlns="http://www.w3.org/2000/svg" xmlns:xlink="http://www.w3.org/1999/xlink" x="0px" y="0px"
	 width="980.662px" height="980.592px" viewBox="0 0 980.662 980.592" enable-background="new 0 0 980.662 980.592"
	 xml:space="preserve">
<g opacity="0.2">
	<g>
		<path fill="#96E9E5" d="M356.528,752.926c-27.493-14.011-52.505-32.2-74.559-54.254l-82.015,82.016
			c0.046,0.046,0.093,0.09,0.139,0.136c2.085,2.083,4.196,4.138,6.325,6.176c0.717,0.686,1.444,1.362,2.165,2.042
			c1.487,1.403,2.981,2.798,4.488,4.178c0.838,0.769,1.681,1.53,2.525,2.291c1.453,1.31,2.916,2.605,4.387,3.894
			c0.837,0.731,1.671,1.467,2.513,2.191c1.67,1.438,3.355,2.857,5.048,4.269c0.638,0.531,1.268,1.072,1.909,1.601
			c2.278,1.876,4.578,3.728,6.898,5.556c0.776,0.611,1.565,1.209,2.345,1.814c1.596,1.239,3.197,2.473,4.811,3.689
			c0.996,0.75,1.999,1.489,3.001,2.23c1.437,1.062,2.881,2.116,4.332,3.159c1.053,0.757,2.107,1.512,3.167,2.259
			c1.477,1.041,2.966,2.068,4.458,3.09c1.015,0.695,2.024,1.397,3.045,2.084c2.046,1.375,4.108,2.729,6.18,4.068
			c1.196,0.773,2.4,1.534,3.604,2.294c1.678,1.06,3.359,2.118,5.053,3.154c1.167,0.714,2.344,1.412,3.519,2.114
			c1.416,0.848,2.835,1.689,4.262,2.521c1.242,0.723,2.489,1.438,3.74,2.149c1.402,0.796,2.812,1.58,4.225,2.361
			c1.246,0.688,2.491,1.379,3.745,2.055c1.558,0.839,3.128,1.658,4.698,2.479c1.11,0.58,2.212,1.171,3.328,1.741L356.528,752.926z"
			/>
	</g>
</g>
<g opacity="0.2">
	<g>
		<path fill="#96E9E5" d="M365.217,615.424l-80.9,80.9l-0.49,0.49l-0.683,0.683c1.657,1.657,3.334,3.294,5.03,4.911
			c5.089,4.852,10.352,9.521,15.779,14.001c3.618,2.985,7.309,5.887,11.07,8.699c3.761,2.812,7.591,5.536,11.489,8.17
			c3.897,2.633,7.861,5.175,11.889,7.622c6.15,3.736,12.451,7.25,18.888,10.535l0.419-0.822l0.302-0.592l51.972-102.002
			C393.377,639.527,378.283,628.49,365.217,615.424z"/>
	</g>
</g>
<g>
	<path fill="#E1CEB0" d="M283.143,697.498L283.143,697.498c1.657,1.657,3.334,3.294,5.03,4.911
		C286.477,700.792,284.8,699.155,283.143,697.498z"/>
</g>
<g>
	<path fill="#E1CEB0" d="M303.952,716.41c-5.427-4.479-10.69-9.149-15.779-14.001C293.262,707.261,298.525,711.931,303.952,716.41z"
		/>
</g>
<g>
	<path fill="#96E9E5" d="M450.714,529.927l-0.586,0.586l-0.605,0.606l-0.567,0.566l-0.587,0.588l-80.804,80.804l-0.587,0.587
		l-0.645,0.645c12.947,12.947,27.91,23.876,44.376,32.283l0.402-0.789l0.377-0.739l51.904-101.869l0.378-0.74l0.367-0.722
		l0.386-0.758l0.376-0.738l25.445-49.94L450.714,529.927z"/>
</g>
<g>
	<g>
		<path fill="#DCA552" d="M205.635,566.584c-6.617-24.721-9.978-50.247-9.978-76.288s3.361-51.565,9.978-76.288L93.61,383.992
			c-5.165,19.348-8.892,39-11.187,58.786c-0.051,0.443-0.103,0.888-0.152,1.333c-0.359,3.188-0.672,6.379-0.957,9.572
			c-0.097,1.098-0.204,2.192-0.292,3.292c-0.119,1.469-0.22,2.938-0.323,4.407c-0.125,1.791-0.24,3.586-0.341,5.383
			c-0.061,1.069-0.13,2.138-0.183,3.206c-0.139,2.841-0.244,5.688-0.325,8.543c-0.024,0.851-0.043,1.701-0.062,2.552
			c-0.067,3.018-0.114,6.04-0.115,9.072c0,0.053-0.001,0.105-0.001,0.157s0.001,0.104,0.001,0.156
			c0.001,3.033,0.048,6.054,0.115,9.071c0.019,0.853,0.038,1.706,0.062,2.559c0.08,2.853,0.186,5.7,0.324,8.539
			c0.053,1.068,0.121,2.136,0.182,3.204c0.102,1.799,0.217,3.594,0.341,5.386c0.103,1.469,0.204,2.938,0.323,4.406
			c0.087,1.086,0.193,2.166,0.289,3.25c0.286,3.211,0.601,6.421,0.962,9.626c0.049,0.438,0.1,0.875,0.15,1.312
			c2.295,19.789,6.022,39.444,11.188,58.796L205.635,566.584z"/>
	</g>
	<g>
		<path fill="#DCA552" d="M313.305,490.296c0-15.842,2.104-31.201,6.025-45.823l-112.078-30.03
			c-6.467,24.195-9.935,49.618-9.935,75.854c0,26.236,3.468,51.658,9.935,75.854l112.078-30.03
			C315.409,521.497,313.305,506.139,313.305,490.296z"/>
	</g>
</g>
<g>
	<path fill="#DCA552" d="M434.576,475.354l-0.794-0.213l-0.802-0.215l-112.07-30.028c-3.871,14.481-5.946,29.696-5.946,45.398
		s2.075,30.918,5.946,45.4l112.07-30.029l0.801-0.215l0.794-0.213l55.768-14.943L434.576,475.354z"/>
</g>
<g opacity="0.2">
	<g>
		<path fill="#FFCE29" d="M762.653,603.09c-0.265,0.636-0.513,1.277-0.781,1.912c-14.842,35.091-36.09,66.606-63.153,93.669
			l82.016,82.015c2.391-2.391,4.742-4.806,7.062-7.239c1.064-1.118,2.104-2.261,3.155-3.391c1.209-1.297,2.428-2.588,3.616-3.896
			c1.479-1.632,2.933-3.289,4.388-4.945c0.715-0.812,1.443-1.619,2.151-2.437c1.698-1.964,3.368-3.953,5.03-5.95
			c0.43-0.515,0.868-1.026,1.295-1.543c1.823-2.212,3.617-4.447,5.395-6.698c0.244-0.309,0.495-0.615,0.738-0.925
			c1.877-2.39,3.724-4.804,5.549-7.237c0.135-0.18,0.273-0.358,0.409-0.54c1.868-2.502,3.709-5.026,5.522-7.571
			c0.091-0.129,0.186-0.256,0.276-0.384c1.806-2.541,3.581-5.105,5.33-7.688c0.105-0.156,0.214-0.312,0.319-0.469
			c1.698-2.516,3.364-5.054,5.009-7.608c0.161-0.252,0.327-0.503,0.488-0.756c1.552-2.422,3.071-4.867,4.572-7.324
			c0.256-0.42,0.517-0.837,0.771-1.258c1.364-2.253,2.7-4.525,4.023-6.806c0.387-0.67,0.78-1.336,1.163-2.007
			c1.151-2.011,2.275-4.038,3.393-6.069c0.538-0.98,1.082-1.958,1.611-2.941c0.92-1.706,1.818-3.426,2.715-5.146
			c0.702-1.35,1.407-2.697,2.094-4.053c0.679-1.338,1.34-2.687,2.004-4.032c0.871-1.771,1.742-3.54,2.587-5.319
			c0.437-0.919,0.86-1.844,1.292-2.766c1.037-2.229,2.065-4.458,3.06-6.701c0.203-0.457,0.4-0.918,0.603-1.376
			c1.186-2.7,2.352-5.406,3.477-8.126L762.653,603.09z"/>
	</g>
</g>
<g>
	<path fill="#FFCE29" d="M545.207,513.021l-0.768-0.318l-0.753-0.312l-53.343-22.095l40.822,40.822l0.567,0.566l0.587,0.587
		l82.035,82.035c16.153-16.153,29.16-35.448,38.05-56.883L545.207,513.021z"/>
</g>
<g opacity="0.2">
	<g>
		<path fill="#FFCE29" d="M869.833,333.107l-107.18,44.395c14.838,35.774,22.378,73.707,22.378,112.794l0,0h115.986
			c0-0.03-0.001-0.06-0.001-0.09c-0.001-3.065-0.049-6.118-0.115-9.167c-0.02-0.834-0.037-1.669-0.062-2.503
			c-0.081-2.869-0.187-5.732-0.326-8.587c-0.052-1.044-0.119-2.086-0.178-3.13c-0.103-1.826-0.22-3.648-0.346-5.469
			c-0.103-1.452-0.202-2.905-0.319-4.357c-0.097-1.203-0.213-2.4-0.319-3.601c-0.278-3.089-0.581-6.176-0.93-9.26
			c-0.052-0.461-0.104-0.922-0.158-1.382c-2.295-19.778-6.021-39.421-11.184-58.761
			C882.475,366.747,876.719,349.749,869.833,333.107z"/>
	</g>
</g>
<g>
	<path fill="#FFCE29" d="M761.12,378.138L653.899,422.55c8.681,20.88,13.484,43.761,13.484,67.746l0,0h115.987l0,0
		C783.371,450.564,775.447,412.688,761.12,378.138z"/>
</g>
<g>
	<path fill="#FFCE29" d="M652.406,423.168l-107.198,44.403l-0.767,0.317l-0.754,0.312l-53.343,22.095h57.731h0.83h0.83h115.987l0,0
		C665.723,466.516,660.981,443.847,652.406,423.168z"/>
</g>
<g opacity="0.2">
	<g>
		<path fill="#FFCE29" d="M785.031,490.296c0,39.087-7.539,77.021-22.378,112.794l107.18,44.396
			c6.886-16.643,12.643-33.641,17.246-50.886c5.164-19.343,8.89-38.989,11.185-58.771c0.053-0.454,0.105-0.908,0.156-1.363
			c0.349-3.102,0.655-6.207,0.934-9.314c0.105-1.183,0.221-2.362,0.315-3.548c0.118-1.456,0.218-2.914,0.321-4.371
			c0.126-1.812,0.243-3.627,0.345-5.446c0.06-1.049,0.128-2.098,0.179-3.148c0.14-2.851,0.245-5.711,0.326-8.577
			c0.024-0.837,0.042-1.674,0.062-2.511c0.067-3.048,0.114-6.1,0.115-9.164c0-0.029,0.001-0.059,0.001-0.089L785.031,490.296
			L785.031,490.296z"/>
	</g>
</g>
<g opacity="0.2">
	<g>
		<path fill="#FFCE29" d="M653.899,558.043l107.221,44.412c14.327-34.55,22.251-72.427,22.251-112.159H667.383
			C667.383,514.282,662.579,537.163,653.899,558.043z"/>
	</g>
</g>
<g>
	<path fill="#FFCE29" d="M549.735,490.296h-0.83h-0.83h-57.731l53.343,22.095l0.753,0.312l0.768,0.318l107.199,44.402
		c8.574-20.679,13.317-43.348,13.317-67.128H549.735L549.735,490.296z"/>
</g>
<g opacity="0.2">
	<g>
		<path fill="#FFCE29" d="M615.471,615.423l82.074,82.074c26.99-26.99,48.723-59.229,63.574-95.042l-107.221-44.412
			C644.914,579.653,631.775,599.119,615.471,615.423z"/>
	</g>
</g>
<g opacity="0.2">
	<g>
		<path fill="#DCA552" d="M261.037,261.101c0.019-0.019,0.038-0.037,0.057-0.055l-61.139-61.139
			c-39.374,39.375-69.058,84.763-89.099,133.201c-6.886,16.642-12.642,33.64-17.246,50.885l83.478,22.368
			c3.839-14.342,8.657-28.443,14.493-42.241C207.904,325.525,231.273,290.865,261.037,261.101z"/>
	</g>
</g>
<g opacity="0.2">
	<g>
		<path fill="#DCA552" d="M178.706,406.793l83.598,22.4c10.548-39.616,31.361-75.938,61.124-105.701
			c0.019-0.02,0.038-0.037,0.057-0.055l-61.218-61.218C222.811,301.657,193.546,351.278,178.706,406.793z"/>
	</g>
</g>
<g>
	<path fill="#DCA552" d="M263.95,429.634l83.87,22.474c6.805-25.357,20.201-48.045,38.244-66.092l-61.405-61.404
		C295.993,353.258,274.731,389.305,263.95,429.634z"/>
</g>
<g>
	<path fill="#DCA552" d="M449.518,449.47l-0.567-0.567l-0.586-0.586l-61.175-61.176c-17.838,17.843-31.069,40.285-37.784,65.392
		l83.574,22.394l0.801,0.215l0.794,0.214l55.77,14.942l0,0L449.518,449.47z"/>
</g>
<g>
	<g>
		<path fill="#DCA552" d="M199.954,780.686l48.739-48.738l0,0c-31.385-31.386-56.026-67.933-73.238-108.627
			c-6.155-14.554-11.237-29.427-15.286-44.554l-66.56,17.835c4.603,17.244,10.36,34.242,17.246,50.886
			c1.125,2.718,2.29,5.423,3.475,8.121c0.203,0.46,0.401,0.923,0.605,1.383c0.993,2.236,2.019,4.463,3.053,6.685
			c0.433,0.93,0.861,1.861,1.301,2.786c0.841,1.772,1.708,3.535,2.576,5.297c0.668,1.354,1.333,2.71,2.015,4.056
			c0.682,1.348,1.384,2.688,2.082,4.029c0.901,1.729,1.803,3.456,2.728,5.169c0.525,0.975,1.063,1.943,1.596,2.913
			c1.123,2.042,2.253,4.079,3.409,6.1c0.378,0.662,0.766,1.319,1.149,1.979c1.326,2.287,2.665,4.565,4.034,6.823
			c0.253,0.417,0.511,0.832,0.766,1.248c1.505,2.463,3.028,4.913,4.583,7.342c0.154,0.24,0.311,0.479,0.466,0.719
			c1.651,2.567,3.325,5.116,5.031,7.644c0.098,0.145,0.198,0.289,0.297,0.434c1.757,2.595,3.539,5.17,5.353,7.722
			c0.083,0.117,0.169,0.234,0.253,0.352c1.821,2.557,3.67,5.093,5.548,7.605c0.124,0.165,0.25,0.328,0.374,0.494
			c1.836,2.449,3.697,4.88,5.586,7.286c0.225,0.287,0.457,0.57,0.683,0.856c1.795,2.273,3.609,4.533,5.45,6.768
			c0.401,0.486,0.813,0.965,1.217,1.45c1.687,2.028,3.384,4.047,5.109,6.042c0.676,0.781,1.371,1.55,2.053,2.326
			c1.486,1.691,2.97,3.385,4.483,5.052c1.138,1.253,2.306,2.489,3.463,3.731c1.103,1.186,2.194,2.384,3.311,3.557
			C195.219,775.887,197.567,778.299,199.954,780.686L199.954,780.686z"/>
	</g>
	<g>
		<path fill="#DCA552" d="M298.607,682.033c-34.22-34.221-58.149-75.982-70.274-121.531l-66.544,17.83
			c15.644,58.531,46.489,110.851,88.078,152.441L298.607,682.033L298.607,682.033z"/>
	</g>
	<g>
		<path fill="#DCA552" d="M348.521,632.12c-25.312-25.312-43.012-56.202-51.98-89.895l-66.556,17.834
			c12.397,46.383,36.84,87.844,69.797,120.801L348.521,632.12L348.521,632.12z"/>
	</g>
	<g>
		<path fill="#DCA552" d="M349.695,630.946l48.783-48.783c-15.896-15.896-27.683-35.889-33.674-58.229l-66.623,17.853
			C307.329,576.02,325.37,606.621,349.695,630.946z"/>
	</g>
</g>
<g>
	<path fill="#DCA552" d="M434.577,505.239l-0.794,0.213l-0.801,0.215L366.39,523.51c5.903,22.084,17.527,41.83,33.219,57.522
		l48.76-48.761l0.587-0.587l0.567-0.566l40.821-40.822l0,0L434.577,505.239z"/>
</g>
<g>
	<g opacity="0.2">
		<g>
			<path fill="#FFCE29" d="M731.995,248.646c31.385,31.385,56.026,67.932,73.238,108.627c0.311,0.735,0.599,1.479,0.904,2.217
				l63.695-26.383c-1.121-2.709-2.283-5.406-3.464-8.097c-0.208-0.473-0.412-0.948-0.622-1.421
				c-0.987-2.225-2.008-4.438-3.037-6.648c-0.438-0.941-0.872-1.885-1.317-2.821c-0.836-1.762-1.697-3.514-2.561-5.267
				c-0.673-1.364-1.342-2.729-2.03-4.084c-0.677-1.338-1.374-2.669-2.066-4.001c-0.906-1.739-1.814-3.476-2.744-5.2
				c-0.52-0.964-1.052-1.922-1.58-2.883c-1.128-2.051-2.263-4.097-3.425-6.126c-0.373-0.653-0.756-1.302-1.134-1.953
				c-1.331-2.298-2.678-4.587-4.053-6.856c-0.244-0.404-0.495-0.805-0.741-1.208c-1.512-2.475-3.043-4.936-4.604-7.376
				c-0.148-0.231-0.3-0.461-0.448-0.692c-1.657-2.578-3.339-5.138-5.052-7.676c-0.087-0.129-0.177-0.258-0.264-0.387
				c-1.766-2.608-3.559-5.197-5.382-7.762c-0.076-0.109-0.156-0.217-0.233-0.325c-1.827-2.565-3.682-5.109-5.565-7.63
				c-0.119-0.159-0.241-0.316-0.359-0.475c-1.842-2.455-3.706-4.891-5.601-7.304c-0.22-0.28-0.445-0.556-0.667-0.836
				c-1.801-2.281-3.62-4.547-5.468-6.789c-0.393-0.476-0.797-0.945-1.192-1.42c-1.693-2.037-3.398-4.065-5.132-6.069
				c-0.669-0.773-1.357-1.535-2.034-2.305c-1.491-1.699-2.982-3.399-4.502-5.073c-1.128-1.242-2.286-2.467-3.432-3.699
				c-1.113-1.197-2.214-2.405-3.341-3.589c-2.315-2.43-4.663-4.841-7.049-7.227L731.995,248.646z"/>
		</g>
	</g>
	<g>
		<path fill="#FFCE29" d="M740.997,386.473l63.608-26.347c-17.236-41.565-42.461-78.981-73.784-110.306l-48.74,48.74
			C707.689,324.167,727.544,353.994,740.997,386.473z"/>
	</g>
	<g>
		<path fill="#FFCE29" d="M632.168,348.473c18.941,18.941,33.627,41.004,43.578,65.027l63.631-26.357
			c-13.659-32.938-33.646-62.588-58.469-87.41L632.168,348.473z"/>
	</g>
	<g>
		<path fill="#FFCE29" d="M610.414,440.562l63.734-26.4c-10.081-24.312-24.834-46.195-43.155-64.515L582.21,398.43
			C594.182,410.4,603.818,424.696,610.414,440.562z"/>
	</g>
</g>
<g>
	<path fill="#FFCE29" d="M581.08,399.56l-48.76,48.761l-0.587,0.587l-0.568,0.567l-40.822,40.822l53.343-22.095l0.754-0.312
		l0.767-0.317l63.703-26.388C602.407,425.502,592.899,411.379,581.08,399.56z"/>
</g>
<g>
	<path fill="#FFFFFF" d="M623.368,175.408c-42.133-17.821-86.89-26.857-133.023-26.857c-46.135,0-90.89,9.036-133.023,26.857
		c-40.301,17.046-76.527,41.387-107.706,72.339l0.7,0.7l0.474,0.474c61.47-61.009,146.106-98.71,239.556-98.71
		s178.086,37.7,239.557,98.71l0.474-0.474l0.7-0.7C699.894,216.795,663.669,192.454,623.368,175.408z"/>
</g>
<g>
	<path fill="#FFFFFF" d="M490.345,219.139c-71.999,0-139.707,27.882-190.816,78.521l0.676,0.676l0.498,0.497
		c48.695-48.236,115.685-78.035,189.642-78.035s140.946,29.799,189.643,78.035l0.498-0.498l0.676-0.676
		C630.051,247.021,562.344,219.139,490.345,219.139z"/>
</g>
<g>
	<path fill="#FFFFFF" d="M490.345,289.728c-53.144,0-103.126,20.539-140.903,57.846l0.653,0.652l0.521,0.521
		c35.921-35.462,85.265-57.36,139.729-57.36s103.809,21.898,139.729,57.36l0.521-0.521l0.653-0.652
		C593.47,310.266,543.489,289.728,490.345,289.728z"/>
</g>
<g>
	<path fill="#FFFFFF" d="M490.345,360.316c-35.374,0-67.476,14.221-90.936,37.225l0.587,0.587l0.544,0.544
		c23.145-22.688,54.833-36.696,89.804-36.696c34.972,0,66.659,14.008,89.805,36.696l0.544-0.545l0.586-0.586
		C557.82,374.537,525.718,360.316,490.345,360.316z"/>
</g>
<g>
	<g opacity="0.2">
		<path fill="#89B9E9" d="M357.321,175.408c42.133-17.821,86.889-26.857,133.023-26.857s90.891,9.036,133.023,26.857
			c40.301,17.046,76.526,41.387,107.706,72.339l48.739-48.74C705.57,125.224,603.286,79.623,490.345,79.623
			c-112.942,0-215.225,45.601-289.47,119.385l48.74,48.739C280.794,216.795,317.02,192.453,357.321,175.408z"/>
	</g>
	<g>
		<path fill="#89B9E9" d="M250.788,248.921l48.74,48.74c51.109-50.639,118.817-78.521,190.816-78.521s139.706,27.882,190.816,78.521
			l48.74-48.74c-61.471-61.01-146.107-98.71-239.557-98.71S312.258,187.911,250.788,248.921z"/>
	</g>
	<g>
		<path fill="#89B9E9" d="M490.345,289.728c53.145,0,103.126,20.539,140.903,57.846l48.74-48.74
			c-48.696-48.236-115.687-78.035-189.643-78.035c-73.957,0-140.947,29.799-189.642,78.035l48.74,48.74
			C387.219,310.266,437.201,289.728,490.345,289.728z"/>
	</g>
	<g>
		<path fill="#89B9E9" d="M350.616,348.748l48.793,48.793c23.46-23.004,55.562-37.225,90.936-37.225s67.476,14.221,90.936,37.225
			l48.794-48.793c-35.921-35.462-85.266-57.36-139.729-57.36S386.536,313.286,350.616,348.748z"/>
	</g>
	<g>
		<path fill="#89B9E9" d="M490.345,361.976c-34.972,0-66.659,14.008-89.804,36.696l48.76,48.76l0.586,0.587l0.568,0.568
			l39.891,39.891l39.892-39.89l0.566-0.568l0.587-0.587l48.761-48.76C557.003,375.983,525.316,361.976,490.345,361.976z"/>
	</g>
</g>
<g opacity="0.2">
	<path fill="#96E9E5" d="M549.335,862.747c-19.377,3.039-39.065,4.589-58.99,4.589c-50.898,0-100.277-9.969-146.761-29.63
		c-8.31-3.515-16.461-7.314-24.451-11.386l-15.235,29.9c8.631,4.407,17.436,8.521,26.407,12.321
		c0.228,0.097,0.458,0.191,0.686,0.287c11.137,4.695,22.533,8.893,34.144,12.607c1.43,0.457,2.857,0.922,4.291,1.362
		c1.93,0.594,3.87,1.163,5.812,1.729c1.681,0.489,3.364,0.972,5.049,1.439c1.845,0.513,3.694,1.016,5.55,1.502
		c1.791,0.47,3.585,0.919,5.381,1.364c1.811,0.449,3.621,0.903,5.442,1.328c1.816,0.424,3.637,0.814,5.458,1.214
		c1.837,0.402,3.667,0.822,5.512,1.2c0.054,0.011,0.107,0.02,0.16,0.031c5.795,1.184,11.642,2.224,17.523,3.159
		c1.002,0.16,2.002,0.333,3.005,0.486c2.663,0.404,5.338,0.769,8.017,1.122c0.854,0.113,1.708,0.231,2.562,0.338
		c2.865,0.359,5.74,0.688,8.626,0.986c0.558,0.058,1.114,0.115,1.673,0.171c3.174,0.315,6.356,0.604,9.552,0.848
		c0.045,0.003,0.09,0.007,0.135,0.011c10.401,0.789,20.91,1.191,31.514,1.191c14.027,0,27.89-0.708,41.556-2.082
		c0.617-0.062,1.234-0.135,1.851-0.201c2.303-0.241,4.598-0.508,6.888-0.786c1.439-0.179,2.88-0.36,4.317-0.554
		c1.351-0.179,2.696-0.373,4.042-0.565c1.848-0.267,3.694-0.527,5.538-0.818L549.335,862.747z"/>
</g>
<g opacity="0.2">
	<path fill="#96E9E5" d="M756.951,756.904c-34.626,34.626-74.948,61.812-119.846,80.802c-28.287,11.964-57.65,20.318-87.771,25.041
		l5.253,33.166c4.967-0.783,9.922-1.664,14.863-2.627c0.411-0.08,0.823-0.155,1.233-0.236c2.129-0.422,4.256-0.868,6.379-1.324
		c0.824-0.177,1.647-0.355,2.47-0.538c1.982-0.438,3.965-0.887,5.942-1.354c1.011-0.24,2.017-0.491,3.024-0.738
		c2.018-0.494,4.036-0.991,6.048-1.516c2.512-0.657,5.018-1.33,7.511-2.032c1.104-0.31,2.202-0.642,3.304-0.962
		c1.961-0.571,3.92-1.146,5.867-1.746c1.003-0.308,2.004-0.625,3.006-0.94c1.787-0.565,3.567-1.147,5.345-1.735
		c1.912-0.632,3.818-1.285,5.724-1.946c1.675-0.582,3.352-1.163,5.016-1.767c1.57-0.568,3.132-1.162,4.695-1.749
		c1.946-0.733,3.898-1.455,5.83-2.216c0.484-0.19,0.964-0.396,1.448-0.588c8.714-3.472,17.285-7.225,25.694-11.264
		c0.211-0.101,0.423-0.2,0.635-0.302c2.855-1.378,5.692-2.788,8.512-4.229c0.146-0.074,0.289-0.148,0.434-0.223
		c17.581-9.018,34.428-19.266,50.424-30.631c0.119-0.085,0.237-0.171,0.356-0.255c7.733-5.507,15.263-11.28,22.586-17.297
		c0.255-0.21,0.516-0.412,0.77-0.623c1.667-1.376,3.306-2.784,4.95-4.186c1.291-1.102,2.582-2.202,3.863-3.323
		c1.365-1.193,2.719-2.399,4.068-3.609c1.664-1.496,3.318-3.009,4.964-4.537c1.043-0.967,2.09-1.929,3.122-2.905
		c2.712-2.57,5.406-5.169,8.064-7.826L756.951,756.904z"/>
</g>
<g opacity="0.2">
	<path fill="#96E9E5" d="M490.344,832.042c-46.135,0-90.89-9.036-133.023-26.857c-7.532-3.186-14.921-6.629-22.162-10.319
		l-15.267,29.963c51.151,26.115,109.08,40.848,170.452,40.848c19.981,0,39.592-1.577,58.729-4.584l-5.26-33.21
		C526.249,830.637,508.405,832.042,490.344,832.042z"/>
</g>
<g opacity="0.2">
	<path fill="#96E9E5" d="M731.995,731.947c-31.385,31.385-67.933,56.025-108.627,73.237c-25.64,10.845-52.254,18.415-79.556,22.697
		l5.261,33.21c80.14-12.592,151.869-50.525,206.705-105.361L731.995,731.947z"/>
</g>
<g opacity="0.2">
	<path fill="#96E9E5" d="M543.551,826.229l-5.26-33.211c-15.749,2.471-31.751,3.73-47.946,3.73
		c-41.37,0-81.503-8.104-119.285-24.083c-6.754-2.857-13.38-5.945-19.873-9.254l-15.267,29.964
		c46.341,23.659,98.824,37.007,154.426,37.007C508.447,830.382,526.214,828.953,543.551,826.229z"/>
</g>
<g opacity="0.2">
	<path fill="#96E9E5" d="M609.629,772.664c-22.991,9.724-46.856,16.514-71.339,20.353l5.26,33.212
		c72.605-11.409,137.59-45.775,187.271-95.456l-23.783-23.783C678.894,735.133,646.122,757.229,609.629,772.664z"/>
</g>
<g opacity="0.2">
	<path fill="#96E9E5" d="M490.345,761.446c-43.526,0-85.481-10.2-123.155-29.445l-15.245,29.92
		c41.532,21.204,88.568,33.167,138.4,33.167c16.225,0,32.147-1.28,47.686-3.722l-5.261-33.216
		C518.86,760.322,504.69,761.446,490.345,761.446z"/>
</g>
<g>
	<path fill="#96E9E5" d="M532.768,758.149l5.262,33.216c65.069-10.226,123.31-41.025,167.835-85.549l-23.787-23.787
		C641.007,723.098,589.078,749.354,532.768,758.149z"/>
</g>
<g>
	<path fill="#96E9E5" d="M490.345,726.151c-37.86,0-74.354-8.872-107.124-25.612l-15.246,29.922
		c36.722,18.748,78.31,29.324,122.37,29.324c14.345,0,28.423-1.132,42.161-3.291l-5.26-33.211
		C515.149,725.174,502.823,726.151,490.345,726.151z"/>
</g>
<g>
	<path fill="#96E9E5" d="M527.246,723.284l5.26,33.211c57.534-9.04,109.029-36.272,148.398-75.639l-23.783-23.783
		C621.396,692.796,576.226,715.633,527.246,723.284z"/>
</g>
<g>
	<path fill="#96E9E5" d="M490.345,690.857c-32.195,0-63.228-7.545-91.094-21.779l-15.25,29.929
		c31.913,16.292,68.054,25.484,106.344,25.484c12.466,0,24.701-0.984,36.641-2.86l-5.261-33.213
		C511.438,690.026,500.955,690.857,490.345,690.857z"/>
</g>
<g>
	<path fill="#96E9E5" d="M632.164,632.116c-30.379,30.377-68.789,49.797-110.44,56.303l5.261,33.213
		c49.999-7.855,94.75-31.521,128.963-65.732L632.164,632.116z"/>
</g>
<g>
	<path fill="#96E9E5" d="M521.462,686.768l-5.263-33.231c-8.428,1.33-17.061,2.026-25.854,2.026
		c-26.993,0-52.494-6.506-75.021-18.029l-15.297,30.021c27.103,13.837,57.798,21.644,90.317,21.644
		C500.932,689.197,511.323,688.361,521.462,686.768z"/>
</g>
<g>
	<path fill="#96E9E5" d="M516.199,653.536l5.263,33.231c42.464-6.672,80.471-26.771,109.528-55.825l-23.838-23.839
		C583.002,631.253,551.431,647.977,516.199,653.536z"/>
</g>
<g>
	<path fill="#96E9E5" d="M490.345,620.269c-21.229,0-41.267-5.148-58.982-14.212l-15.31,30.043
		c22.294,11.381,47.542,17.804,74.291,17.804c8.708,0,17.256-0.688,25.597-1.998l-5.265-33.238
		C504.049,619.713,497.261,620.269,490.345,620.269z"/>
</g>
<g>
	<path fill="#96E9E5" d="M510.676,618.668l5.265,33.238c34.929-5.488,66.191-22.021,90.093-45.92l-23.826-23.826
		C563.214,601.151,538.384,614.296,510.676,618.668z"/>
</g>
<g>
	<path fill="#96E9E5" d="M490.345,584.975c-15.464,0-30.061-3.75-42.966-10.353l-15.282,29.993
		c17.485,8.927,37.27,13.994,58.248,13.994c6.83,0,13.532-0.547,20.073-1.573l-5.263-33.228
		C500.328,584.57,495.383,584.975,490.345,584.975z"/>
</g>
<g>
	<path fill="#96E9E5" d="M505.155,583.808l5.263,33.228c27.393-4.305,51.914-17.264,70.659-36.007l-23.814-23.814
		C543.427,571.048,525.339,580.624,505.155,583.808z"/>
</g>
<g>
	<polygon fill="#FFFFFF" points="490.344,490.296 490.344,490.297 490.344,490.297 	"/>
</g>
<g>
	<path fill="#FFFFFF" d="M449.526,531.115l-0.568,0.567l-0.586,0.586c0.029,0.029,0.061,0.055,0.09,0.083l1.152-1.155
		C449.586,531.167,449.554,531.143,449.526,531.115z"/>
</g>
<g>
	<path fill="#96E9E5" d="M490.344,490.296L490.344,490.296l14.553,91.878c19.857-3.12,37.634-12.515,51.223-26.102L490.344,490.296z
		"/>
</g>
<g>
	<path fill="#96E9E5" d="M499.634,548.948l-0.259-1.636l0,0l-9.03-57.016l0,0l0,0l0,0l-42.226,82.873
		c12.676,6.471,27.018,10.145,42.227,10.145c4.951,0,9.811-0.396,14.553-1.142L499.634,548.948z"/>
</g>
<g>
	<path fill="#FFFFFF" d="M549.073,861.092c-19.136,3.007-38.747,4.584-58.729,4.584c-61.372,0-119.302-14.732-170.452-40.848
		l-0.76,1.492c7.99,4.071,16.141,7.871,24.451,11.386c46.484,19.661,95.862,29.63,146.761,29.63c19.926,0,39.613-1.55,58.99-4.589
		l0,0L549.073,861.092L549.073,861.092z"/>
</g>
<g>
	<path fill="#FFFFFF" d="M756.951,756.904l-0.587-0.587l-0.587-0.587c-54.836,54.836-126.565,92.77-206.705,105.361l0.262,1.655
		c30.121-4.724,59.484-13.077,87.771-25.041C682.003,818.715,722.325,791.53,756.951,756.904z"/>
</g>
<g>
	<path fill="#FFFFFF" d="M543.551,826.229c-17.337,2.725-35.104,4.153-53.206,4.153c-55.602,0-108.084-13.348-154.426-37.007
		l-0.76,1.491c7.242,3.689,14.63,7.134,22.162,10.319c42.133,17.821,86.889,26.857,133.023,26.857
		c18.061,0,35.905-1.405,53.469-4.16l0,0L543.551,826.229L543.551,826.229z"/>
</g>
<path fill="#FFFFFF" d="M731.995,731.947l-0.7-0.7l-0.474-0.474c-49.681,49.68-114.665,84.047-187.271,95.455l0.262,1.653
	c27.302-4.282,53.916-11.853,79.556-22.697C664.062,787.972,700.61,763.332,731.995,731.947z"/>
<g>
	<path fill="#FFFFFF" d="M707.038,706.99l-0.688-0.688l-0.485-0.485c-44.525,44.524-102.766,75.324-167.835,85.549l0.262,1.651
		c24.482-3.839,48.347-10.629,71.339-20.353C646.122,757.229,678.894,735.133,707.038,706.99z"/>
</g>
<g>
	<path fill="#FFFFFF" d="M538.029,791.365c-15.538,2.44-31.461,3.722-47.686,3.722c-49.831,0-96.867-11.963-138.399-33.167
		l-0.759,1.489c6.494,3.309,13.119,6.396,19.873,9.254c37.782,15.979,77.915,24.083,119.285,24.083
		c16.195,0,32.197-1.26,47.946-3.73l0,0L538.029,791.365L538.029,791.365z"/>
</g>
<g>
	<path fill="#FFFFFF" d="M681.401,681.354l-0.497-0.497c-39.368,39.366-90.863,66.599-148.397,75.639l0.262,1.654
		c56.311-8.797,108.239-35.052,149.31-76.119L681.401,681.354z"/>
</g>
<g>
	<path fill="#FFFFFF" d="M532.506,756.495c-13.738,2.159-27.816,3.291-42.161,3.291c-44.06,0-85.647-10.577-122.37-29.324
		l-0.785,1.54c37.673,19.245,79.628,29.445,123.155,29.445c14.346,0,28.517-1.124,42.423-3.297l0,0L532.506,756.495L532.506,756.495
		z"/>
</g>
<g>
	<path fill="#FFFFFF" d="M656.456,656.408l-0.509-0.509c-34.213,34.211-78.964,57.877-128.962,65.732l0.262,1.652
		c48.979-7.651,94.15-30.488,129.875-66.211L656.456,656.408z"/>
</g>
<g>
	<path fill="#FFFFFF" d="M526.984,721.632c-11.939,1.876-24.175,2.86-36.641,2.86c-38.29,0-74.431-9.192-106.344-25.484
		l-0.781,1.532c32.77,16.74,69.264,25.612,107.124,25.612c12.479,0,24.804-0.979,36.901-2.868l0,0L526.984,721.632L526.984,721.632z
		"/>
</g>
<g>
	<path fill="#FFFFFF" d="M521.462,686.768c-10.14,1.594-20.531,2.43-31.118,2.43c-32.519,0-63.214-7.807-90.316-21.644l-0.777,1.524
		c27.866,14.234,58.898,21.779,91.094,21.779c10.611,0,21.092-0.832,31.379-2.438l0,0L521.462,686.768L521.462,686.768z"/>
</g>
<g>
	<path fill="#FFFFFF" d="M631.511,631.463l-0.521-0.521c-29.058,29.055-67.064,49.153-109.528,55.825l0.261,1.651
		c41.651-6.506,80.062-25.925,110.44-56.303L631.511,631.463z"/>
</g>
<g>
	<path fill="#FFFFFF" d="M515.941,651.905c-8.341,1.31-16.889,1.998-25.597,1.998c-26.749,0-51.997-6.421-74.291-17.804
		l-0.729,1.433c22.526,11.523,48.027,18.03,75.021,18.03c8.794,0,17.429-0.698,25.854-2.027l0,0L515.941,651.905L515.941,651.905z"
		/>
</g>
<g>
	<path fill="#FFFFFF" d="M606.566,606.518l-0.533-0.532c-23.901,23.898-55.164,40.432-90.094,45.92l0.259,1.631
		c35.231-5.56,66.803-22.283,90.953-46.431L606.566,606.518z"/>
</g>
<g>
	<path fill="#FFFFFF" d="M581.621,581.573l-0.544-0.544c-18.745,18.742-43.266,31.703-70.659,36.007l0.258,1.632
		c27.708-4.372,52.538-17.517,71.531-36.508L581.621,581.573z"/>
</g>
<g>
	<path fill="#FFFFFF" d="M510.418,617.035c-6.542,1.027-13.243,1.573-20.073,1.573c-20.979,0-40.763-5.067-58.248-13.994
		l-0.734,1.441c17.716,9.064,37.754,14.212,58.982,14.212c6.917,0,13.704-0.556,20.332-1.601l0,0L510.418,617.035L510.418,617.035z"
		/>
</g>
<g>
	<path fill="#FFFFFF" d="M556.676,556.628l-0.556-0.556c-13.589,13.587-31.365,22.981-51.223,26.102l0.259,1.634
		c20.184-3.185,38.271-12.76,52.106-26.594L556.676,556.628z"/>
</g>
<g>
	<path fill="#FFFFFF" d="M504.896,582.174c-4.742,0.745-9.601,1.142-14.553,1.142c-15.208,0-29.551-3.674-42.226-10.145l-0.74,1.452
		c12.906,6.602,27.502,10.354,42.966,10.354c5.038,0,9.983-0.405,14.812-1.166l0,0L504.896,582.174L504.896,582.174z"/>
</g>
<g>
	<g>
		<path fill="#FFFFFF" d="M326.51,733.279c-3.897-2.633-7.728-5.357-11.489-8.17s-7.452-5.713-11.07-8.699
			c-5.427-4.479-10.69-9.149-15.779-14.001c-1.696-1.617-3.373-3.254-5.03-4.911l-0.49,0.49l-0.684,0.684
			c22.054,22.055,47.066,40.243,74.559,54.254l0.424-0.833l0.334-0.655c-6.436-3.286-12.737-6.8-18.888-10.536
			C334.372,738.453,330.407,735.911,326.51,733.279z"/>
	</g>
	<g>
		<path fill="#FFFFFF" d="M366.332,614.309l-0.529,0.529l-0.587,0.587c13.066,13.066,28.16,24.104,44.763,32.597l0.378-0.738
			l0.351-0.69C394.242,638.185,379.279,627.255,366.332,614.309z"/>
	</g>
</g>
<g>
	<path fill="#FFFFFF" d="M161.031,578.536l-0.862,0.23c4.049,15.128,9.13,30,15.286,44.554
		c17.213,40.694,41.853,77.242,73.238,108.627l0,0l0.7-0.7l0.474-0.474c-41.589-41.59-72.434-93.91-88.078-152.441L161.031,578.536z
		"/>
</g>
<g>
	<path fill="#FFFFFF" d="M229.218,560.265l-0.885,0.237c12.125,45.549,36.054,87.311,70.274,121.531l0,0l0.677-0.677l0.497-0.497
		c-32.957-32.957-57.4-74.418-69.797-120.801L229.218,560.265z"/>
</g>
<g>
	<path fill="#FFFFFF" d="M297.403,541.995l-0.863,0.23c8.969,33.692,26.669,64.582,51.98,89.895l0,0l0.653-0.653l0.521-0.521
		c-24.325-24.325-42.365-54.927-51.515-89.159L297.403,541.995z"/>
</g>
<g>
	<path fill="#FFFFFF" d="M365.604,523.721l-0.801,0.215c5.992,22.34,17.778,42.332,33.674,58.229l0.587-0.586l0.544-0.544
		c-15.692-15.692-27.316-35.438-33.219-57.522L365.604,523.721z"/>
</g>
<g>
	<path fill="#FFFFFF" d="M206.489,414.238l-0.854-0.229c-6.617,24.722-9.978,50.247-9.978,76.288s3.361,51.566,9.978,76.288
		l0.854-0.229l0.764-0.205c-6.467-24.197-9.935-49.619-9.935-75.854c0-26.234,3.468-51.658,9.935-75.854L206.489,414.238z"/>
</g>
<g>
	<path fill="#FFFFFF" d="M320.911,444.897l-0.779-0.21l-0.802-0.215c-3.922,14.622-6.025,29.98-6.025,45.823
		s2.104,31.201,6.025,45.823l0.802-0.215l0.779-0.209c-3.871-14.482-5.946-29.697-5.946-45.4
		C314.965,474.594,317.04,459.379,320.911,444.897z"/>
</g>
<g>
	<path fill="#FFFFFF" d="M261.093,261.046c-0.019,0.019-0.038,0.037-0.057,0.055c-29.764,29.764-53.133,64.424-69.456,103.018
		c-5.836,13.798-10.654,27.897-14.493,42.241l0.859,0.229l0.76,0.204c14.84-55.515,44.105-105.136,83.561-144.574l-0.48-0.48
		L261.093,261.046z"/>
</g>
<g>
	<path fill="#FFFFFF" d="M323.485,323.438c-0.019,0.019-0.038,0.036-0.057,0.055c-29.763,29.763-50.577,66.085-61.124,105.701
		l0.874,0.233l0.771,0.207c10.782-40.329,32.043-76.376,60.709-105.022l-0.509-0.51L323.485,323.438z"/>
</g>
<g>
	<path fill="#FFFFFF" d="M386.064,386.016c-18.043,18.047-31.438,40.735-38.244,66.092l0.802,0.215l0.782,0.21
		c6.715-25.106,19.946-47.548,37.784-65.392l-0.538-0.538L386.064,386.016z"/>
</g>
<g>
	<path fill="#FFFFFF" d="M805.233,357.273c-17.214-40.695-41.854-77.242-73.238-108.627l-0.7,0.7l-0.474,0.474
		c31.323,31.324,56.548,68.74,73.784,110.306l0.688-0.285l0.846-0.35C805.832,358.752,805.544,358.009,805.233,357.273z"/>
</g>
<g>
	<path fill="#FFFFFF" d="M681.405,299.236l-0.498,0.498c24.823,24.823,44.811,54.473,58.469,87.41l0.704-0.292l0.916-0.379
		c-13.453-32.479-33.308-62.306-58.915-87.913L681.405,299.236z"/>
</g>
<g>
	<path fill="#FFFFFF" d="M631.515,349.126l-0.521,0.521c18.321,18.32,33.073,40.204,43.155,64.515l0.721-0.299l0.877-0.363
		c-9.951-24.024-24.637-46.086-43.578-65.027L631.515,349.126z"/>
</g>
<g>
	<path fill="#FFFFFF" d="M581.625,399.016l-0.544,0.545c11.819,11.819,21.326,25.941,27.83,41.624l0.738-0.306l0.766-0.316
		c-6.596-15.866-16.233-30.162-28.203-42.133L581.625,399.016z"/>
</g>
<g>
	<g>
		<path fill="#FFFFFF" d="M762.653,377.503l-0.835,0.346l-0.698,0.289c14.327,34.55,22.251,72.428,22.251,112.159l0,0h0.83h0.831
			l0,0C785.031,451.21,777.491,413.276,762.653,377.503z"/>
	</g>
	<g>
		<path fill="#FFFFFF" d="M653.131,422.868l-0.726,0.301c8.575,20.679,13.316,43.348,13.316,67.128l0,0h0.829h0.831l0,0
			c0-23.984-4.804-46.867-13.485-67.746L653.131,422.868z"/>
	</g>
</g>
<g>
	<g>
		<path fill="#FFFFFF" d="M761.818,602.745l-0.699-0.289c-14.852,35.813-36.585,68.052-63.574,95.042l0.49,0.49l0.684,0.684
			c27.063-27.062,48.312-58.578,63.153-93.669c0.269-0.635,0.517-1.276,0.781-1.912L761.818,602.745z"/>
	</g>
	<g>
		<path fill="#FFFFFF" d="M652.406,557.424c-8.89,21.436-21.896,40.73-38.05,56.883l0.528,0.529l0.587,0.587
			c16.305-16.304,29.443-35.77,38.428-57.38l-0.768-0.318L652.406,557.424z"/>
	</g>
</g>
<g>
	<path fill="#FFFFFF" d="M784.2,490.296h-0.83c0,39.732-7.924,77.609-22.251,112.159l0.699,0.289l0.835,0.346
		c14.838-35.773,22.378-73.707,22.378-112.794H784.2L784.2,490.296z"/>
</g>
<g>
	<path fill="#FFFFFF" d="M665.723,490.296c0,23.78-4.741,46.449-13.317,67.128l0.726,0.301l0.768,0.318
		c8.681-20.88,13.484-43.761,13.484-67.746h-0.831L665.723,490.296L665.723,490.296z"/>
</g>
<g>
	<polygon fill="#88A032" points="490.344,490.296 490.344,490.296 490.344,490.296 	"/>
</g>
<g>
	<polygon fill="#88A032" points="490.344,490.296 490.344,490.296 490.344,490.296 	"/>
</g>
<g>
	<polygon fill="#88A032" points="490.344,490.296 490.344,490.296 490.344,490.296 	"/>
</g>
<g>
	<polygon fill="#88A032" points="490.344,490.296 490.344,490.296 490.344,490.296 	"/>
</g>
<g>
	<path fill="#88A032" d="M490.344,490.296L490.344,490.296L490.344,490.296z"/>
</g>
<g>
	<path fill="#88A032" d="M490.344,490.296L490.344,490.296L490.344,490.296z"/>
</g>
<g>
	<polygon fill="#88A032" points="490.344,490.296 490.344,490.296 490.344,490.296 	"/>
</g>
<g>
	<path fill="#88A032" d="M490.344,490.296L490.344,490.296L490.344,490.296z"/>
</g>
<g>
	<path fill="#88A032" d="M490.344,490.296L490.344,490.296L490.344,490.296z"/>
</g>
<g>
	<path fill="#88A032" d="M490.344,490.296L490.344,490.296L490.344,490.296z"/>
</g>
<g>
	<polygon fill="#88A032" points="490.344,490.296 490.344,490.296 490.344,490.296 	"/>
</g>
<g>
	<path fill="#88A032" d="M490.344,490.296L490.344,490.296L490.344,490.296z"/>
</g>
<g>
	<path fill="#88A032" d="M490.344,490.296L490.344,490.296L490.344,490.296z"/>
</g>
<g>
	<path fill="#88A032" d="M490.344,490.296L490.344,490.296L490.344,490.296z"/>
</g>
<g>
	<path fill="#88A032" d="M490.344,490.296L490.344,490.296L490.344,490.296z"/>
</g>
<g>
	<path fill="#88A032" d="M490.344,490.296L490.344,490.296L490.344,490.296z"/>
</g>
<g>
	<path fill="#88A032" d="M490.344,490.296L490.344,490.296L490.344,490.296z"/>
</g>
<g>
	<path fill="#88A032" d="M490.344,490.296L490.344,490.296L490.344,490.296z"/>
</g>
<g>
	<path fill="#88A032" d="M490.344,490.296L490.344,490.296L490.344,490.296z"/>
</g>
<g>
	<path fill="#88A032" d="M490.344,490.296L490.344,490.296L490.344,490.296z"/>
</g>
<g>
	<path fill="#88A032" d="M490.344,490.296L490.344,490.296L490.344,490.296z"/>
</g>
<g>
	<polygon fill="#88A032" points="490.344,490.296 490.344,490.296 490.344,490.296 	"/>
</g>
<g>
	<polygon fill="#88A032" points="490.344,490.296 490.344,490.296 490.344,490.296 	"/>
</g>
<g>
	<path fill="#88A032" d="M490.344,490.296L490.344,490.296L490.344,490.296z"/>
</g>
<g>
	<path fill="#FFFFFF" d="M901.005,491.144c0.001-0.282,0.011-0.562,0.011-0.846s-0.01-0.563-0.011-0.848h-404.23h-2.176l8.008-3.317
		l367.545-152.242c-0.216-0.521-0.423-1.047-0.641-1.567L493.954,487.884l287.37-287.37c-0.398-0.4-0.797-0.799-1.197-1.197
		L493.523,485.921l-2.332,2.332l-1.693-0.001l-0.397-0.396l-0.65-0.651L200.562,199.317c-0.4,0.398-0.799,0.797-1.197,1.197
		l287.371,287.371l0.774,0.775l-9.428-2.526L93.818,383.17c-0.147,0.545-0.298,1.089-0.442,1.635L483.914,489.45l3.157,0.846
		l-3.163,0.848L93.374,595.787c0.145,0.546,0.296,1.09,0.443,1.636l384.265-102.964l9.43-2.527l-0.774,0.775L199.363,780.08
		c0.398,0.4,0.797,0.799,1.197,1.197l286.602-286.603L303.111,855.898c0.502,0.257,1.009,0.505,1.512,0.76l184.874-362.836
		l0.418-0.82l1.276,8.054l62.566,395.037c0.56-0.087,1.113-0.188,1.671-0.276l-62.565-395.028l-1.275-8.051l0.652,0.651
		l287.888,287.889c0.4-0.398,0.799-0.797,1.197-1.197L493.953,492.707l375.559,155.562c0.217-0.521,0.425-1.046,0.642-1.567
		L502.606,494.459l-8.004-3.315h2.178H901.005z"/>
</g>
<g>
	<path fill="#FFFFFF" d="M490.344,79.623c226.81,0,410.674,183.865,410.674,410.674c0,226.809-183.864,410.673-410.674,410.673
		c-226.809,0-410.673-183.864-410.673-410.674C79.671,263.487,263.536,79.623,490.344,79.623 M490.344,69.662
		c-56.781,0-111.869,11.123-163.733,33.06c-50.09,21.186-95.073,51.514-133.701,90.141c-38.627,38.627-68.955,83.611-90.142,133.7
		c-21.937,51.865-33.06,106.952-33.06,163.733s11.123,111.869,33.06,163.733c21.186,50.09,51.514,95.072,90.142,133.699
		c38.627,38.628,83.61,68.955,133.701,90.142c51.864,21.937,106.952,33.06,163.733,33.06s111.869-11.123,163.733-33.06
		c50.09-21.187,95.073-51.514,133.701-90.142c38.627-38.627,68.955-83.61,90.141-133.699c21.938-51.865,33.06-106.952,33.06-163.733
		s-11.122-111.869-33.06-163.733c-21.186-50.089-51.514-95.072-90.141-133.7c-38.627-38.627-83.61-68.955-133.701-90.141
		C602.213,80.785,547.125,69.662,490.344,69.662L490.344,69.662z"/>
</g>
<path opacity="0.2" fill="#89B9E9" enable-background="new    " d="M325.64,100.449c11.401-4.822,22.965-9.093,34.66-12.873
	c20.996-6.786,42.435-11.897,64.23-15.294c21.621-3.371,43.585-5.088,65.812-5.088h0.001c57.114,0,112.528,11.188,164.702,33.255
	c8.973,3.795,17.776,7.892,26.416,12.266c38.652,19.567,73.899,44.873,105.108,75.487l47.514-47.514
	c-36.5-35.9-77.641-65.399-122.058-87.958C644.164,18.263,568.661,0,490.344,0h-0.001c-25.807,0-51.301,2.012-76.326,5.901
	c-25.392,3.946-50.292,9.848-74.52,17.649c-71.78,23.112-137.653,62.798-192.896,117.134l47.52,47.52
	C232.303,150.748,276.525,121.225,325.64,100.449z"/>
<path opacity="0.2" fill="#FFCE29" enable-background="new    " d="M880.213,325.616c0.084,0.199,0.161,0.399,0.245,0.599
	c7.192,17.078,13.201,34.506,18.053,52.223c9.705,35.431,14.712,72.028,14.927,109.367c0.006,0.839,0.031,1.674,0.031,2.515
	c0,36.562-4.609,72.425-13.699,107.19c-4.666,17.848-10.527,35.4-17.557,52.612c-0.667,1.633-1.312,3.271-2,4.897
	c-20.772,49.112-50.296,93.334-87.754,131.521l47.514,47.513c45.446-46.205,80.658-99.837,104.484-158.149
	c8.1-19.822,14.861-40.191,20.285-60.985c10.481-40.185,15.92-81.972,15.92-124.6c0-0.84-0.026-1.675-0.03-2.515
	c-0.217-43.417-6.03-85.954-17.118-126.786c-5.611-20.666-12.587-40.887-20.851-60.57c-23.79-56.664-58.372-108.815-102.712-153.889
	l-47.515,47.514C829.905,232.264,859.436,276.496,880.213,325.616z"/>
<path opacity="0.2" fill="#DCA552" enable-background="new    " d="M100.475,655.021c-0.688-1.627-1.333-3.266-2-4.898
	c-7.029-17.212-12.89-34.766-17.557-52.612c-9.09-34.766-13.699-70.627-13.699-107.19c0-0.84,0.026-1.676,0.031-2.515
	c0.215-37.339,5.222-73.937,14.927-109.368l0,0c4.909-17.923,10.994-35.553,18.298-52.821
	c20.779-49.124,50.309-93.355,87.777-131.544l-47.519-47.519C80.99,207.287,38.941,280.863,17.174,361.02l0,0
	C6.086,401.852,0.273,444.389,0.056,487.806c-0.004,0.839-0.03,1.675-0.03,2.515c0,42.628,5.438,84.415,15.92,124.6
	c5.425,20.794,12.186,41.163,20.285,60.985c23.827,58.312,59.039,111.945,104.484,158.151l47.514-47.514
	C150.77,748.356,121.248,704.133,100.475,655.021z"/>
<path opacity="0.2" fill="#96E9E5" enable-background="new    " d="M655.046,880.189c-10.921,4.618-21.991,8.731-33.182,12.395
	c-21.217,6.945-42.893,12.168-64.933,15.646c-21.871,3.45-44.094,5.214-66.588,5.214h-0.001
	c-57.119,0-112.532-11.188-164.703-33.255c-9.677-4.094-19.159-8.537-28.448-13.304c-37.864-19.425-72.43-44.385-103.097-74.471
	l-47.514,47.514c35.948,35.361,76.404,64.504,120.053,86.933c11.885,6.106,23.995,11.737,36.328,16.835
	c0.428,0.176,0.854,0.355,1.282,0.53c2.886,1.184,5.788,2.326,8.696,3.453c1.468,0.567,2.939,1.126,4.414,1.68
	c1.261,0.475,2.528,0.936,3.794,1.399c3.479,1.272,6.971,2.516,10.486,3.71c0.194,0.066,0.387,0.134,0.581,0.198
	c49.635,16.808,102.816,25.926,158.129,25.926c26.231,0,51.976-2.069,77.098-6.018c25.793-4.053,50.912-10.12,75.213-18.01
	c13.026-4.23,25.811-8.999,38.338-14.259c1.62-0.683,3.24-1.363,4.852-2.064c1.052-0.455,2.102-0.912,3.149-1.373
	c53.278-23.617,102.374-56.9,145.113-98.942l-47.516-47.515C748.396,829.882,704.166,859.413,655.046,880.189z"/>
<g>
	<path fill="#444232" d="M841.977,195.97c2.718-2.237,6.153-1.928,8.533,0.965c0.841,1.021,1.193,1.86,1.29,2.638l-1.869,1.539
		c-0.094-1.073-0.394-1.933-1.113-2.806c-1.386-1.681-3.367-1.652-5.103-0.224c-1.855,1.529-2.188,3.426-0.816,5.094
		c0.73,0.888,1.606,1.432,2.472,1.689l-1.763,1.449c-0.944-0.327-1.781-1.015-2.535-1.929
		C838.77,201.586,839.179,198.273,841.977,195.97z"/>
	<path fill="#444232" d="M857.974,206.526l1.621,2.074l-5.643,4.415c-2.333,1.825-4.794,1.537-6.61-0.783
		c-1.813-2.32-1.543-4.745,0.736-6.529l5.739-4.489l1.62,2.072l-5.779,4.522c-1.167,0.914-1.396,2.065-0.601,3.082
		c0.794,1.015,1.967,1.072,3.148,0.148L857.974,206.526z"/>
	<path fill="#444232" d="M863.055,218.048c-0.136-1.029-0.412-1.955-1.078-2.85c-0.624-0.838-1.227-0.976-1.731-0.601
		c-0.476,0.353-0.567,0.901-0.138,2.558c0.52,1.983,0.553,3.458-1.068,4.666c-1.678,1.248-3.849,0.757-5.391-1.313
		c-0.885-1.188-1.243-2.226-1.376-3.192l1.971-1.467c0.023,1.287,0.383,2.323,1.06,3.233c0.624,0.838,1.389,1.075,1.976,0.637
		c0.587-0.436,0.657-1.099,0.194-2.861c-0.506-1.905-0.371-3.332,1.026-4.372c1.511-1.124,3.664-0.684,5.256,1.456
		c0.751,1.007,1.018,1.655,1.229,2.67L863.055,218.048z"/>
	<path fill="#444232" d="M869.771,226.328l-1.76-2.472l-7.759,5.519l-1.526-2.146l7.76-5.519l-1.77-2.487l1.819-1.294l5.053,7.106
		L869.771,226.328z"/>
	<path fill="#444232" d="M865.448,237.124c-1.937-2.858-1.218-5.809,1.931-7.941c3.104-2.103,6.096-1.663,8.032,1.195
		c1.936,2.858,1.231,5.799-1.873,7.902C870.391,240.411,867.383,239.983,865.448,237.124z M873.606,231.6
		c-0.969-1.43-2.715-1.49-4.692-0.151c-2.007,1.36-2.63,3.024-1.662,4.454c0.968,1.428,2.743,1.469,4.75,0.11
		C873.982,234.674,874.574,233.03,873.606,231.6z"/>
	<path fill="#444232" d="M880.126,237.676l1.762,2.785l-2.887,3.724c-1.568,2.025-2.121,2.456-2.743,2.973
		c0.715-0.37,1.376-0.663,3.844-1.232l4.583-1.042l1.642,2.596l-9.33,7.242l-1.437-2.271l3.661-2.727
		c1.715-1.271,2.241-1.748,3.18-2.382c-1.014,0.517-1.915,0.757-3.926,1.201l-4.23,0.944l-1.091-1.725l2.646-3.45
		c1.061-1.393,1.885-2.305,2.759-3.045c-0.938,0.636-1.988,1.258-3.43,1.983l-4.09,2.051l-1.436-2.271L880.126,237.676z"/>
	<path fill="#444232" d="M883.868,261.98l-1.919,1.138l-3.727-6.282l10.108-5.994l3.689,6.224l-1.919,1.138l-2.348-3.959
		l-2.01,1.192l2.099,3.539l-1.92,1.138l-2.099-3.539l-2.339,1.388L883.868,261.98z"/>
	<path fill="#444232" d="M885.992,270.261l2.397-4.204l-0.094-0.167l-0.273-0.486l-3.617,2.031l-1.289-2.296l10.245-5.754
		l1.723,3.071c1.503,2.675,1.198,4.945-0.838,6.089c-1.398,0.785-2.811,0.658-4.09-0.342l-2.592,4.856L885.992,270.261z
		 M889.967,264.311l0.504,0.897c0.623,1.109,1.53,1.479,2.443,0.966c0.806-0.452,0.916-1.394,0.292-2.503l-0.503-0.897
		L889.967,264.311z"/>
	<path fill="#444232" d="M899.404,276.427c0.021-1.038-0.112-1.992-0.636-2.977c-0.49-0.922-1.064-1.149-1.619-0.854
		c-0.522,0.277-0.695,0.804-0.521,2.506c0.216,2.036,0.026,3.497-1.757,4.447c-1.845,0.981-3.915,0.169-5.126-2.106
		c-0.695-1.308-0.894-2.385-0.88-3.359l2.169-1.154c-0.17,1.274,0.027,2.352,0.559,3.351c0.491,0.922,1.209,1.271,1.855,0.927
		c0.646-0.344,0.816-0.987,0.623-2.797c-0.212-1.958,0.135-3.346,1.671-4.165c1.66-0.884,3.721-0.125,4.974,2.228
		c0.589,1.107,0.754,1.788,0.812,2.823L899.404,276.427z"/>
</g>
<g>
	<path fill="#444232" d="M932.082,346.848c1.224,3.801-0.242,6.47-3.693,7.581c-3.533,1.139-6.378-0.526-7.5-4.013l-1.23-3.815
		l11.183-3.604L932.082,346.848z M923.001,349.7c0.652,2.024,2.352,2.812,4.543,2.107c2.158-0.695,3.045-2.316,2.388-4.357
		l-0.406-1.261l-6.937,2.233L923.001,349.7z"/>
	<path fill="#444232" d="M934.711,355.235l0.757,2.521l-11.251,3.38l-0.757-2.521L934.711,355.235z"/>
	<path fill="#444232" d="M935.368,367.84c0.24-1.008,0.312-1.971,0.01-3.045c-0.285-1.005-0.798-1.349-1.402-1.179
		c-0.57,0.16-0.851,0.639-1.041,2.339c-0.222,2.036-0.717,3.426-2.661,3.975c-2.013,0.569-3.863-0.665-4.564-3.146
		c-0.404-1.425-0.368-2.521-0.148-3.472l2.364-0.668c-0.436,1.209-0.472,2.308-0.164,3.396c0.285,1.005,0.913,1.498,1.616,1.3
		c0.705-0.199,1.008-0.793,1.203-2.604c0.208-1.96,0.84-3.244,2.518-3.718c1.812-0.511,3.664,0.668,4.39,3.233
		c0.342,1.208,0.357,1.91,0.194,2.933L935.368,367.84z"/>
	<path fill="#444232" d="M938.68,377.914l-0.762-2.934l-9.212,2.393l-0.661-2.549l9.212-2.394l-0.767-2.952l2.158-0.561l2.19,8.435
		L938.68,377.914z"/>
	<path fill="#444232" d="M931.302,388l3.468-3.379l-0.045-0.188l-0.126-0.543l-4.04,0.953l-0.604-2.562l11.439-2.698l0.809,3.429
		c0.704,2.986-0.217,5.086-2.49,5.621c-1.561,0.37-2.883-0.144-3.839-1.459l-3.834,3.949L931.302,388z M936.77,383.377l0.235,1.002
		c0.292,1.239,1.062,1.845,2.082,1.605c0.898-0.211,1.266-1.086,0.974-2.325l-0.236-1.002L936.77,383.377z"/>
	<path fill="#444232" d="M943.943,390.663l0.556,2.575l-11.491,2.476l-0.554-2.575L943.943,390.663z"/>
	<path fill="#444232" d="M945.912,400.18c0.54,2.737-0.321,4.594-2.322,4.987c-1.111,0.219-2.098-0.279-2.706-1.295
		c-0.018,1.44-0.862,2.479-2.229,2.748c-2.104,0.415-3.662-1.089-4.238-4.015l-0.788-4.001l11.524-2.271L945.912,400.18z
		 M936.628,402.276c0.229,1.161,0.828,1.773,1.615,1.617c0.819-0.161,1.2-0.946,0.969-2.108l-0.303-1.539l-2.581,0.509
		L936.628,402.276z M943.474,399.346l-2.444,0.482l0.256,1.3c0.203,1.025,0.799,1.529,1.534,1.385
		c0.77-0.15,1.113-0.841,0.918-1.832L943.474,399.346z"/>
	<path fill="#444232" d="M948.414,413.942l0.443,2.592l-7.06,1.208c-2.92,0.499-4.948-0.921-5.444-3.823
		c-0.497-2.904,0.893-4.909,3.743-5.395l7.18-1.229l0.443,2.594l-7.23,1.237c-1.461,0.25-2.206,1.154-1.989,2.425
		c0.217,1.271,1.222,1.877,2.699,1.624L948.414,413.942z"/>
	<path fill="#444232" d="M948.242,427.679l-0.437-3.003l-9.419,1.37l-0.378-2.604l9.418-1.37l-0.438-3.02l2.208-0.321l1.253,8.628
		L948.242,427.679z"/>
	<path fill="#444232" d="M950.742,429.589l0.337,2.612l-11.661,1.503l-0.337-2.613L950.742,429.589z"/>
	<path fill="#444232" d="M940.197,441.604c-0.371-3.431,1.644-5.699,5.421-6.108c3.726-0.404,6.162,1.385,6.534,4.814
		c0.372,3.431-1.628,5.699-5.353,6.102C943.023,446.819,940.569,445.034,940.197,441.604z M949.986,440.543
		c-0.186-1.715-1.699-2.586-4.073-2.328c-2.409,0.261-3.737,1.438-3.55,3.153c0.185,1.715,1.732,2.583,4.142,2.322
		C948.879,443.434,950.173,442.26,949.986,440.543z"/>
	<path fill="#444232" d="M952.854,448.594l0.244,3.111l-4.647,2.936c-1.949,1.237-3.087,1.659-3.612,1.858
		c0.55-0.113,1.706-0.31,3.722-0.469l4.848-0.381l0.208,2.625l-11.713,0.921l-0.245-3.109l4.642-3.006
		c1.848-1.195,3.189-1.702,3.683-1.882c-0.499,0.109-1.874,0.41-3.786,0.561l-4.848,0.381l-0.208-2.623L952.854,448.594z"/>
</g>
<g>
	<path fill="#444232" d="M947.751,522.506c3.51,0.281,5.767,2.893,5.467,6.629c-0.104,1.32-0.436,2.169-0.906,2.795l-2.416-0.192
		c0.68-0.838,1.061-1.665,1.151-2.793c0.175-2.173-1.273-3.531-3.515-3.709c-2.398-0.193-3.957,0.939-4.131,3.097
		c-0.093,1.146,0.159,2.146,0.604,2.933l-2.276-0.182c-0.453-0.894-0.576-1.97-0.482-3.152
		C941.537,524.315,944.135,522.216,947.751,522.506z"/>
	<path fill="#444232" d="M940.301,537.971c0.362-3.432,2.812-5.224,6.587-4.826c3.727,0.393,5.731,2.654,5.37,6.084
		c-0.361,3.431-2.793,5.225-6.517,4.831C941.963,543.663,939.941,541.401,940.301,537.971z M950.092,539
		c0.18-1.715-1.115-2.886-3.489-3.135c-2.408-0.253-3.953,0.618-4.136,2.333c-0.18,1.715,1.151,2.889,3.56,3.142
		C948.401,541.591,949.912,540.716,950.092,539z"/>
	<path fill="#444232" d="M951.172,547.857l-0.443,3.265l-4.606,0.992c-2.502,0.538-3.202,0.512-4.011,0.507
		c0.786,0.178,1.479,0.378,3.733,1.53l4.177,2.152l-0.415,3.041l-11.798-0.465l0.362-2.66l4.557,0.27
		c2.13,0.131,2.837,0.104,3.966,0.224c-1.109-0.256-1.954-0.652-3.776-1.604l-3.846-2.004l0.275-2.021l4.246-0.935
		c1.706-0.384,2.925-0.552,4.069-0.554c-1.127-0.117-2.331-0.317-3.901-0.69l-4.446-1.064l0.362-2.66L951.172,547.857z"/>
	<path fill="#444232" d="M948.404,566.696c-0.504,3.026-2.232,4.596-4.641,4.193c-2.511-0.417-3.705-2.489-3.191-5.568l0.135-0.808
		l-3.75-0.624l0.433-2.597l11.593,1.929L948.404,566.696z M942.74,565.895c-0.209,1.256,0.336,2.125,1.47,2.312
		c1.033,0.172,1.761-0.485,1.97-1.74l0.169-1.015l-3.439-0.572L942.74,565.895z"/>
	<path fill="#444232" d="M936.436,579.37l-2.191-0.415l1.358-7.176l11.542,2.185l-1.346,7.107l-2.191-0.415l0.855-4.522
		l-2.294-0.435l-0.765,4.042l-2.192-0.415l0.765-4.042l-2.672-0.506L936.436,579.37z"/>
	<path fill="#444232" d="M941.469,590.824l0.629-2.967l-9.307-1.979l0.546-2.573l9.31,1.979l0.634-2.985l2.182,0.464l-1.811,8.524
		L941.469,590.824z"/>
	<path fill="#444232" d="M943.156,593.462l-0.589,2.566l-11.457-2.63l0.59-2.566L943.156,593.462z"/>
	<path fill="#444232" d="M937.796,606.15l0.731-2.944l-9.238-2.297l0.634-2.555l9.239,2.297l0.736-2.962l2.166,0.538l-2.104,8.461
		L937.796,606.15z"/>
	<path fill="#444232" d="M939.38,608.856l-0.678,2.544l-11.354-3.022l0.679-2.544L939.38,608.856z"/>
	<path fill="#444232" d="M925.075,615.999c0.958-3.315,3.683-4.65,7.334-3.596c3.599,1.041,5.177,3.62,4.218,6.934
		c-0.957,3.315-3.667,4.656-7.266,3.615C925.71,621.898,924.117,619.314,925.075,615.999z M934.534,618.732
		c0.479-1.657-0.592-3.037-2.886-3.7c-2.326-0.673-4.004-0.086-4.481,1.57c-0.478,1.659,0.626,3.049,2.952,3.722
		C932.414,620.987,934.056,620.391,934.534,618.732z"/>
	<path fill="#444232" d="M934.173,627.223l-0.948,2.976l-5.415,0.965c-2.271,0.412-3.485,0.373-4.048,0.358
		c0.554,0.102,1.697,0.356,3.625,0.971l4.638,1.477l-0.8,2.51l-11.2-3.567l0.947-2.976l5.437-1.03
		c2.161-0.41,3.596-0.375,4.12-0.354c-0.503-0.088-1.891-0.328-3.718-0.909l-4.637-1.479l0.799-2.508L934.173,627.223z"/>
</g>
<g>
	<path fill="#444232" d="M890.025,726.894c-1.422,2.399-3.303,3.212-5.058,2.172c-0.974-0.577-1.378-1.607-1.152-2.771
		c-0.977,1.063-2.297,1.273-3.495,0.562c-1.846-1.094-2.002-3.255-0.483-5.819l2.082-3.508l10.107,5.991L890.025,726.894z
		 M881.704,722.265c-0.605,1.021-0.564,1.874,0.126,2.283c0.72,0.428,1.525,0.094,2.13-0.926l0.799-1.349l-2.263-1.345
		L881.704,722.265z M888.764,724.646l-2.145-1.271l-0.676,1.14c-0.533,0.9-0.426,1.674,0.22,2.057
		c0.674,0.399,1.391,0.115,1.907-0.755L888.764,724.646z"/>
	<path fill="#444232" d="M873.098,732.03l4.842,0.094l0.102-0.162l0.297-0.472l-3.515-2.206l1.398-2.231l9.954,6.25l-1.872,2.983
		c-1.633,2.599-3.772,3.418-5.752,2.174c-1.358-0.853-1.921-2.153-1.655-3.756l-5.504,0.044L873.098,732.03z M880.229,732.677
		l-0.549,0.871c-0.676,1.078-0.566,2.052,0.318,2.609c0.783,0.491,1.663,0.139,2.341-0.939l0.546-0.872L880.229,732.677z"/>
	<path fill="#444232" d="M868.489,743.412l2.297-3.455l-1.582-1.869l1.524-2.292l7.641,9.728l-1.882,2.828l-11.927-3.28l1.574-2.367
		L868.489,743.412z M870.632,744.062l0.493,0.14c3.646,1.127,4.141,1.329,4.575,1.493c-0.319-0.34-0.692-0.691-3.147-3.642
		l-0.329-0.386L870.632,744.062z"/>
	<path fill="#444232" d="M872.926,753.629l-1.8,2.547l-5.451-0.712c-2.289-0.295-3.434-0.699-3.966-0.882
		c0.496,0.266,1.509,0.854,3.161,2.02l3.972,2.807l-1.519,2.15l-9.594-6.778l1.8-2.549l5.491,0.656
		c2.184,0.262,3.538,0.729,4.031,0.906c-0.452-0.235-1.702-0.882-3.268-1.989L861.812,749l1.519-2.15L872.926,753.629z"/>
	<path fill="#444232" d="M862.964,767.476c-2.39,3.195-5.415,3.547-8.317,1.375c-2.973-2.223-3.26-5.506-1.067-8.437l2.398-3.21
		l9.408,7.034L862.964,767.476z M855.385,761.723c-1.272,1.702-0.932,3.547,0.911,4.925c1.814,1.356,3.651,1.141,4.936-0.576
		l0.793-1.061l-5.835-4.362L855.385,761.723z"/>
</g>
<g>
	<path fill="#444232" d="M682.043,903.032c-1.034-0.084-1.996-0.014-3.011,0.451c-0.952,0.434-1.214,0.991-0.955,1.562
		c0.246,0.541,0.76,0.746,2.471,0.674c2.046-0.088,3.494,0.191,4.332,2.03c0.866,1.903-0.073,3.92-2.419,4.987
		c-1.349,0.616-2.437,0.746-3.409,0.671l-1.018-2.234c1.263,0.25,2.351,0.117,3.382-0.353c0.952-0.432,1.342-1.128,1.039-1.793
		c-0.303-0.668-0.934-0.875-2.754-0.794c-1.968,0.091-3.332-0.341-4.055-1.927c-0.78-1.712,0.104-3.722,2.53-4.828
		c1.144-0.519,1.834-0.642,2.87-0.635L682.043,903.032z"/>
	<path fill="#444232" d="M693.074,904.974l-3.732,1.81l0.413,2.412l-2.477,1.199l-1.642-12.253l3.059-1.481l8.602,8.881
		l-2.555,1.239L693.074,904.974z M691.558,903.327l-0.353-0.37c-2.568-2.824-2.891-3.249-3.182-3.609
		c0.104,0.454,0.245,0.944,0.86,4.734l0.088,0.499L691.558,903.327z"/>
	<path fill="#444232" d="M704.452,899.371l1.018,1.984l-6.248,3.206l-5.36-10.449l2.341-1.2l4.343,8.463L704.452,899.371z"/>
	<path fill="#444232" d="M712.673,894.965l1.058,1.965l-6.434,3.46l-5.565-10.347l6.369-3.427l1.058,1.965l-4.051,2.179l1.105,2.06
		l3.623-1.949l1.057,1.965l-3.623,1.949l1.289,2.393L712.673,894.965z"/>
	<path fill="#444232" d="M717.093,884.842c-1.039,0.006-1.991,0.165-2.962,0.717c-0.911,0.517-1.124,1.097-0.813,1.642
		c0.292,0.516,0.823,0.678,2.522,0.457c2.031-0.27,3.499-0.117,4.496,1.644c1.029,1.819,0.271,3.91-1.975,5.182
		c-1.29,0.729-2.364,0.955-3.338,0.969l-1.211-2.141c1.278,0.137,2.352-0.091,3.34-0.647c0.908-0.517,1.238-1.242,0.879-1.881
		c-0.362-0.636-1.008-0.791-2.816-0.548c-1.954,0.263-3.351-0.05-4.21-1.563c-0.927-1.641-0.222-3.722,2.1-5.036
		c1.093-0.619,1.77-0.801,2.805-0.885L717.093,884.842z"/>
</g>
<g>
	<path fill="#444232" d="M383.242,931.898l-2.939-0.741l-2.323,9.225l-2.552-0.642l2.323-9.226l-2.957-0.746l0.545-2.163l8.448,2.13
		L383.242,931.898z"/>
	<path fill="#444232" d="M390.533,941.048l-0.499,2.176l-7.122-1.636l2.628-11.456l7.054,1.62l-0.499,2.176l-4.486-1.03
		l-0.524,2.277l4.011,0.921l-0.499,2.177l-4.011-0.921l-0.608,2.651L390.533,941.048z"/>
	<path fill="#444232" d="M392.885,937.805c0.712-3.449,3.581-5.367,7.252-4.61c1.297,0.268,2.099,0.699,2.662,1.242l-0.49,2.373
		c-0.746-0.776-1.521-1.256-2.63-1.484c-2.134-0.441-3.659,0.828-4.115,3.032c-0.485,2.355,0.447,4.043,2.565,4.479
		c1.127,0.233,2.15,0.105,2.986-0.238l-0.46,2.237c-0.942,0.339-2.027,0.329-3.188,0.089
		C393.916,944.195,392.152,941.356,392.885,937.805z"/>
	<path fill="#444232" d="M414.438,936.024l-2.081,11.559l-2.592-0.467l0.888-4.922l-4.355-0.785l-0.888,4.922l-2.589-0.467
		l2.083-11.56l2.589,0.468l-0.799,4.441l4.354,0.785l0.801-4.442L414.438,936.024z"/>
	<path fill="#444232" d="M417.117,936.471l3.084,0.471l1.796,5.193c0.76,2.18,0.911,3.382,0.984,3.94
		c0.016-0.562,0.089-1.731,0.394-3.729l0.736-4.807l2.6,0.398l-1.775,11.61l-3.084-0.472l-1.865-5.204
		c-0.741-2.07-0.93-3.49-0.991-4.011c-0.008,0.509-0.029,1.916-0.319,3.811l-0.733,4.805l-2.601-0.396L417.117,936.471z"/>
	<path fill="#444232" d="M429.427,938.282l2.609,0.345l-1.535,11.644l-2.61-0.345L429.427,938.282z"/>
	<path fill="#444232" d="M433.631,944.73c0.4-3.5,3.087-5.67,6.812-5.245c1.315,0.15,2.152,0.509,2.764,1l-0.274,2.408
		c-0.814-0.708-1.629-1.116-2.754-1.244c-2.166-0.246-3.571,1.153-3.828,3.39c-0.271,2.391,0.81,3.99,2.957,4.235
		c1.146,0.13,2.153-0.09,2.954-0.507l-0.258,2.271c-0.908,0.423-1.989,0.511-3.168,0.376
		C435.233,951.002,433.221,948.334,433.631,944.73z"/>
	<path fill="#444232" d="M451.257,950.128l-4.129-0.368l-0.887,2.283L443.5,951.8l4.894-11.353l3.384,0.302l2.811,12.039
		l-2.829-0.253L451.257,950.128z M450.805,947.938l-0.112-0.5c-0.751-3.739-0.81-4.27-0.872-4.729
		c-0.145,0.441-0.276,0.937-1.696,4.5l-0.182,0.473L450.805,947.938z"/>
	<path fill="#444232" d="M463.935,951.158l-0.146,2.228l-7.013-0.459l0.768-11.729l2.628,0.172l-0.623,9.502L463.935,951.158z"/>
</g>
<g>
	<path fill="#444232" d="M191.702,842.142l-3.147-2.7l-2.048,1.342l-2.09-1.793l10.585-6.392l2.579,2.211l-4.715,11.434
		l-2.155-1.852L191.702,842.142z M192.61,840.096l0.198-0.473c1.564-3.479,1.826-3.943,2.041-4.355
		c-0.374,0.276-0.77,0.601-3.998,2.676l-0.423,0.281L192.61,840.096z"/>
	<path fill="#444232" d="M205.144,841.104c3.098,2.517,3.325,5.555,1.038,8.369c-2.341,2.879-5.634,3.035-8.474,0.727l-3.111-2.529
		l7.409-9.118L205.144,841.104z M199.087,848.445c1.65,1.342,3.507,1.076,4.958-0.71c1.428-1.758,1.287-3.603-0.376-4.954
		l-1.028-0.837l-4.596,5.654L199.087,848.445z"/>
	<path fill="#444232" d="M208.824,858.98l-2.691-2.072l4.105-11.67l2.25,1.734l-1.842,4.873c-1.378,3.561-1.615,4.037-1.808,4.462
		c0.36-0.295,0.738-0.642,3.852-2.886l4.188-3.064l2.182,1.681L208.824,858.98z"/>
	<path fill="#444232" d="M220.659,853.195l2.116,1.568l-7,9.442l-2.116-1.569L220.659,853.195z"/>
	<path fill="#444232" d="M228.658,862.553c-0.444-0.939-0.989-1.737-1.897-2.39c-0.851-0.61-1.467-0.554-1.832-0.045
		c-0.345,0.482-0.268,1.031,0.647,2.479c1.099,1.731,1.581,3.129,0.402,4.773c-1.219,1.702-3.437,1.896-5.536,0.392
		c-1.206-0.861-1.864-1.744-2.286-2.623l1.433-2.001c0.413,1.22,1.072,2.099,1.994,2.76c0.851,0.609,1.65,0.603,2.077,0.006
		c0.426-0.598,0.293-1.248-0.686-2.789c-1.064-1.663-1.37-3.062-0.353-4.481c1.096-1.53,3.283-1.767,5.454-0.214
		c1.021,0.733,1.474,1.268,1.984,2.172L228.658,862.553z"/>
	<path fill="#444232" d="M229.809,874.304c-2.853-1.938-3.275-4.947-1.138-8.09c2.108-3.097,5.048-3.797,7.902-1.854
		c2.855,1.941,3.286,4.932,1.179,8.031C235.615,875.533,232.663,876.246,229.809,874.304z M235.347,866.162
		c-1.427-0.973-3.071-0.383-4.413,1.592c-1.363,2.004-1.326,3.777,0.101,4.75c1.427,0.969,3.09,0.35,4.454-1.654
		C236.831,868.876,236.776,867.131,235.347,866.162z"/>
	<path fill="#444232" d="M241.432,881.794l0.144-4.841l-0.161-0.104l-0.47-0.302l-2.242,3.492l-2.215-1.423l6.35-9.886l2.964,1.902
		c2.581,1.66,3.377,3.808,2.114,5.775c-0.867,1.349-2.172,1.896-3.774,1.615l-0.013,5.502L241.432,881.794z M242.152,874.67
		l0.866,0.558c1.07,0.688,2.046,0.591,2.612-0.292c0.499-0.774,0.156-1.659-0.916-2.348l-0.866-0.558L242.152,874.67z"/>
	<path fill="#444232" d="M252.111,883.535l-2.172,3.554l-2.291-1.401l2.138-3.494l0.645-8.573l2.602,1.592l-0.162,1.903
		c-0.199,2.328-0.37,3.142-0.537,3.716c0.42-0.418,1.109-0.976,2.975-2.224l1.561-1.052l2.527,1.547L252.111,883.535z"/>
</g>
<g>
	<path fill="#444232" d="M87.664,278.538l1.984,1.021l-3.217,6.248l-10.449-5.379l1.205-2.339l8.464,4.356L87.664,278.538z"/>
	<path fill="#444232" d="M92.135,270.261l1.962,1.064l-3.482,6.422l-10.329-5.6l3.448-6.36l1.962,1.064l-2.194,4.045l2.054,1.114
		l1.96-3.617l1.962,1.064l-1.96,3.617l2.39,1.297L92.135,270.261z"/>
	<path fill="#444232" d="M99.071,260.388c0.073,1.206-0.146,2.709-1.081,4.342c-1.837,3.207-5.083,3.998-8.228,2.197
		c-3.054-1.751-3.983-5.074-2.121-8.325c0.702-1.226,1.436-1.91,2.129-2.276l2.101,1.203c-0.971,0.469-1.749,1.127-2.348,2.171
		c-1.083,1.89-0.352,3.735,1.599,4.852c2.087,1.196,3.982,0.835,5.055-1.041c0.269-0.469,0.46-0.942,0.572-1.419l-1.678-0.963
		l-0.935,1.634l-1.936-1.109l2.244-3.917L99.071,260.388z"/>
	<path fill="#444232" d="M102.895,251.648l-2.164,3.539l1.654,1.808l-1.438,2.349l-8.002-9.431l1.774-2.9l12.041,2.829l-1.483,2.424
		L102.895,251.648z M100.729,251.079l-0.498-0.12c-3.687-0.989-4.188-1.172-4.629-1.32c0.332,0.326,0.718,0.665,3.283,3.52
		l0.344,0.374L100.729,251.079z"/>
	<path fill="#444232" d="M109.884,240.882l1.874,1.209l-3.808,5.901l-9.868-6.368l1.427-2.211l7.994,5.159L109.884,240.882z"/>
</g>
<g>
	<path fill="#444232" d="M32.894,570.468l-0.527-3.252l4.111-2.289c2.236-1.245,2.912-1.425,3.687-1.657
		c-0.803,0.061-1.524,0.071-4.014-0.372l-4.62-0.841l-0.49-3.027l11.412-2.996l0.428,2.648l-4.432,1.072
		c-2.074,0.495-2.743,0.727-3.855,0.942c1.135-0.078,2.057,0.055,4.077,0.435l4.259,0.793l0.326,2.013l-3.786,2.132
		c-1.519,0.862-2.634,1.38-3.729,1.715c1.114-0.216,2.323-0.376,3.93-0.479l4.562-0.278l0.43,2.648L32.894,570.468z"/>
	<path fill="#444232" d="M38.973,546.654l2.211-0.295l0.965,7.238l-11.644,1.554l-0.957-7.169l2.211-0.295l0.608,4.561l2.315-0.308
		l-0.543-4.077l2.211-0.295l0.543,4.076l2.696-0.359L38.973,546.654z"/>
	<path fill="#444232" d="M30.59,537.34l0.336,3.014l9.46-1.051l0.29,2.617l-9.46,1.051l0.337,3.033l-2.218,0.246l-0.963-8.664
		L30.59,537.34z"/>
	<path fill="#444232" d="M39.341,528.427l-3.914,2.845l0.018,0.19l0.049,0.554l4.129-0.361l0.23,2.62l-11.696,1.024l-0.308-3.505
		c-0.268-3.054,0.945-4.997,3.27-5.199c1.595-0.139,2.829,0.557,3.585,1.994l4.356-3.354L39.341,528.427z M33.273,532.211
		l-0.091-1.023c-0.11-1.268-0.785-1.978-1.826-1.885c-0.919,0.079-1.409,0.893-1.297,2.158l0.089,1.025L33.273,532.211z"/>
	<path fill="#444232" d="M27.218,524.028l-0.183-2.625l11.713-0.819l0.183,2.623L27.218,524.028z"/>
	<path fill="#444232" d="M32.67,518.399c-3.515,0.18-6.091-2.114-6.282-5.856c-0.068-1.323,0.149-2.206,0.533-2.889l2.419-0.123
		c-0.564,0.919-0.833,1.788-0.777,2.918c0.112,2.176,1.723,3.333,3.969,3.218c2.401-0.122,3.799-1.449,3.688-3.607
		c-0.058-1.148-0.438-2.107-0.981-2.828l2.279-0.117c0.566,0.827,0.828,1.877,0.888,3.061
		C38.592,515.796,36.29,518.216,32.67,518.399z"/>
	<path fill="#444232" d="M28.969,500.483c-0.48,0.921-0.785,1.837-0.752,2.951c0.031,1.047,0.444,1.505,1.073,1.487
		c0.592-0.018,0.981-0.413,1.581-2.018c0.712-1.921,1.53-3.148,3.552-3.207c2.091-0.062,3.586,1.587,3.662,4.167
		c0.042,1.481-0.258,2.537-0.704,3.404l-2.458,0.071c0.718-1.066,1.02-2.122,0.987-3.255c-0.031-1.046-0.52-1.676-1.252-1.655
		c-0.733,0.021-1.172,0.522-1.803,2.232c-0.678,1.851-1.605,2.943-3.348,2.993c-1.882,0.055-3.395-1.542-3.473-4.207
		c-0.036-1.255,0.118-1.941,0.527-2.895L28.969,500.483z"/>
	<path fill="#444232" d="M37.751,485.57l-0.786,0.801c0.59,0.924,0.918,2.059,0.914,3.313c-0.008,2.893-1.355,4.562-3.359,4.557
		c-1.342-0.003-2.317-0.755-3.043-2.239c-0.699,0.626-1.537,1.111-2.497,1.107c-1.898-0.006-3.132-1.542-3.126-3.757
		c0.006-2.386,1.352-3.586,2.939-3.581c1.446,0.006,2.331,0.948,3.199,2.484l1.923-1.945c-0.504-0.245-1.096-0.387-1.759-0.389
		l0.006-2.283c1.237,0.003,2.386,0.409,3.325,1.107l2.273-2.294L37.751,485.57z M28.953,490.529
		c0.629,0.002,1.169-0.379,1.694-0.885c-0.52-0.96-1.112-1.432-1.74-1.435c-0.644-0.002-1.046,0.433-1.049,1.148
		C27.857,489.986,28.187,490.527,28.953,490.529z M33.312,490.09c-0.139,0.156-0.315,0.329-0.472,0.521
		c0.381,0.768,0.867,1.03,1.495,1.032c0.906,0.003,1.537-0.779,1.54-2.174c0.002-0.576-0.136-1.133-0.378-1.604L33.312,490.09z"/>
	<path fill="#444232" d="M26.18,476.118l0.139-3.289l4.488-1.414c2.438-0.768,3.137-0.809,3.943-0.88
		c-0.798-0.103-1.508-0.237-3.857-1.174l-4.353-1.753l0.128-3.062l11.778-0.635l-0.113,2.68l-4.557,0.156
		c-2.129,0.065-2.831,0.159-3.964,0.146c1.127,0.152,2.004,0.47,3.906,1.247l4.011,1.635l-0.086,2.035l-4.136,1.325
		c-1.662,0.54-2.86,0.82-3.996,0.93c1.132,0.013,2.349,0.099,3.943,0.323l4.523,0.645l-0.113,2.68L26.18,476.118z"/>
	<path fill="#444232" d="M39.127,456.714c-0.256,3.44-2.649,5.306-6.438,5.026c-3.735-0.279-5.809-2.478-5.553-5.917
		c0.255-3.442,2.631-5.311,6.367-5.031C37.292,451.072,39.382,453.272,39.127,456.714z M29.309,455.982
		c-0.128,1.722,1.203,2.85,3.583,3.027c2.416,0.179,3.935-0.738,4.063-2.459c0.128-1.72-1.239-2.853-3.654-3.032
		C30.921,453.341,29.436,454.262,29.309,455.982z"/>
	<path fill="#444232" d="M28.332,443.572c0.405-3.975,2.823-5.832,6.431-5.462c3.696,0.378,5.632,3.048,5.261,6.691l-0.409,3.99
		l-11.696-1.195L28.332,443.572z M37.798,444.609c0.217-2.117-1.025-3.525-3.315-3.759c-2.255-0.229-3.721,0.9-3.94,3.033
		l-0.135,1.32l7.253,0.741L37.798,444.609z"/>
	<path fill="#444232" d="M39.658,428.746l2.215,0.282l-0.924,7.25l-11.661-1.487l0.914-7.179l2.215,0.282l-0.582,4.566l2.318,0.295
		l0.52-4.082l2.215,0.282l-0.52,4.082l2.699,0.344L39.658,428.746z"/>
	<path fill="#444232" d="M41.027,419.377l2.208,0.327l-1.031,6.952l-11.626-1.726l0.386-2.604l9.419,1.396L41.027,419.377z"/>
	<path fill="#444232" d="M35.89,409.823c-0.65,0.811-1.128,1.648-1.315,2.75c-0.175,1.033,0.143,1.562,0.762,1.668
		c0.584,0.099,1.044-0.212,1.945-1.67c1.075-1.746,2.117-2.79,4.113-2.453c2.064,0.35,3.208,2.26,2.779,4.805
		c-0.248,1.462-0.751,2.44-1.357,3.204l-2.425-0.41c0.914-0.908,1.415-1.884,1.605-3.003c0.175-1.031-0.182-1.746-0.905-1.869
		c-0.721-0.122-1.25,0.284-2.203,1.838c-1.029,1.685-2.153,2.573-3.873,2.281c-1.858-0.314-3.028-2.176-2.583-4.807
		c0.209-1.239,0.496-1.881,1.083-2.737L35.89,409.823z"/>
</g>
<g>
	<g>
		<g>
			<path fill="#444232" d="M611.601,42.016c3.853,1.055,5.285,3.745,4.325,7.244c-0.981,3.583-3.935,5.052-7.467,4.084l-3.868-1.06
				l3.108-11.337L611.601,42.016z M609.017,51.18c2.052,0.563,3.644-0.43,4.253-2.649c0.598-2.188-0.274-3.818-2.344-4.385
				l-1.278-0.35l-1.927,7.03L609.017,51.18z"/>
			<path fill="#444232" d="M624.31,55.616l-0.642,2.137l-6.996-2.101l3.38-11.251l6.93,2.082l-0.643,2.137l-4.408-1.325
				l-0.671,2.237l3.94,1.183l-0.643,2.137l-3.939-1.183l-0.783,2.604L624.31,55.616z"/>
			<path fill="#444232" d="M632.087,60.481l-3.231-1.062l-0.007-12.375l2.699,0.888l-0.115,5.211
				c-0.116,3.818-0.182,4.347-0.224,4.81c0.242-0.397,0.482-0.851,2.675-4.003l2.933-4.287l2.618,0.861L632.087,60.481z"/>
			<path fill="#444232" d="M645.467,62.775l-0.749,2.101l-6.879-2.451l3.944-11.063l6.812,2.429l-0.749,2.101l-4.334-1.545
				l-0.785,2.198l3.875,1.381l-0.749,2.101l-3.875-1.381l-0.913,2.562L645.467,62.775z"/>
			<path fill="#444232" d="M654.291,66.107l-0.791,2.085l-6.562-2.492l4.164-10.977l2.459,0.932l-3.374,8.894L654.291,66.107z"/>
			<path fill="#444232" d="M659.311,70.677c-3.194-1.299-4.235-4.147-2.806-7.665c1.41-3.469,4.137-4.768,7.333-3.468
				c3.195,1.299,4.243,4.131,2.832,7.6C665.239,70.663,662.504,71.978,659.311,70.677z M663.017,61.561
				c-1.597-0.65-3.079,0.271-3.979,2.48c-0.911,2.244-0.504,3.969,1.094,4.619c1.598,0.65,3.093-0.303,4.006-2.545
				C665.035,63.904,664.615,62.21,663.017,61.561z"/>
			<path fill="#444232" d="M674.618,64.241c2.81,1.231,3.906,3.288,2.926,5.524c-1.021,2.33-3.32,2.977-6.178,1.725l-0.749-0.329
				l-1.524,3.479l-2.411-1.055l4.713-10.757L674.618,64.241z M672.454,69.531c1.164,0.511,2.14,0.196,2.6-0.858
				c0.42-0.958-0.037-1.824-1.203-2.335l-0.941-0.412l-1.398,3.191L672.454,69.531z"/>
			<path fill="#444232" d="M681.63,67.328l2.979,1.409l-0.443,4.687c-0.24,2.547-0.475,3.207-0.723,3.975
				c0.404-0.694,0.806-1.295,2.583-3.097l3.309-3.332l2.774,1.31l-3.996,11.104l-2.425-1.146l1.628-4.262
				c0.767-1.989,0.955-2.672,1.406-3.709c-0.579,0.979-1.211,1.663-2.667,3.114l-3.066,3.061l-1.844-0.871l0.388-4.329
				c0.148-1.741,0.356-2.954,0.699-4.045c-0.452,1.039-1.006,2.127-1.832,3.51l-2.354,3.918l-2.427-1.148L681.63,67.328z"/>
			<path fill="#444232" d="M697.82,85.829l-1.013,1.991l-6.516-3.312l5.326-10.483l6.456,3.28l-1.013,1.991l-4.106-2.087
				l-1.06,2.085l3.671,1.864l-1.013,1.991l-3.67-1.864l-1.233,2.425L697.82,85.829z"/>
			<path fill="#444232" d="M704.462,78.543l2.748,1.483l-0.055,5.499c-0.019,2.31-0.28,3.497-0.399,4.047
				c0.203-0.524,0.666-1.602,1.628-3.383l2.311-4.283l2.317,1.252l-5.583,10.347l-2.748-1.483l-0.006-5.533
				c-0.002-2.202,0.3-3.604,0.417-4.116c-0.178,0.478-0.673,1.798-1.584,3.487l-2.31,4.282l-2.318-1.25L704.462,78.543z"/>
			<path fill="#444232" d="M721.47,90.562l-2.631-1.508l-4.729,8.257l-2.284-1.308l4.73-8.257l-2.646-1.516l1.109-1.936l7.561,4.332
				L721.47,90.562z"/>
		</g>
	</g>
	<g>
		<g>
			<path fill="#444232" d="M248.933,94.145l2.824-1.693l3.653,2.97c1.984,1.615,2.404,2.176,2.905,2.81
				c-0.352-0.723-0.631-1.389-1.141-3.867l-0.932-4.604l2.63-1.579l7.017,9.491l-2.302,1.381l-2.639-3.722
				c-1.229-1.741-1.693-2.276-2.305-3.229c0.494,1.025,0.712,1.929,1.109,3.948l0.843,4.251l-1.748,1.049l-3.383-2.727
				c-1.367-1.089-2.26-1.936-2.978-2.827c0.613,0.953,1.211,2.018,1.902,3.474l1.952,4.134l-2.302,1.38L248.933,94.145z"/>
			<path fill="#444232" d="M272.78,91.129l-3.623,2.018l0.553,2.386l-2.406,1.341l-2.339-12.146l2.968-1.654l9.1,8.377l-2.482,1.383
				L272.78,91.129z M271.173,89.569l-0.375-0.35c-2.727-2.672-3.072-3.077-3.383-3.421c0.128,0.446,0.298,0.931,1.13,4.677
				l0.117,0.494L271.173,89.569z"/>
			<path fill="#444232" d="M273.511,80.014l2.766-1.441l4.518,3.127c1.9,1.308,2.733,2.19,3.122,2.597
				c-0.319-0.464-0.952-1.449-1.885-3.242l-2.249-4.311l2.335-1.218l5.429,10.415l-2.767,1.443l-4.58-3.095
				c-1.821-1.231-2.813-2.268-3.171-2.651c0.297,0.415,1.111,1.563,1.997,3.264l2.247,4.311l-2.333,1.216L273.511,80.014z"/>
			<path fill="#444232" d="M291.085,71.112l2.369-1.153l3.134,6.446c1.295,2.665,0.498,5.011-2.151,6.3
				c-2.651,1.289-4.966,0.516-6.232-2.088l-3.187-6.555l2.369-1.151l3.21,6.6c0.648,1.333,1.727,1.798,2.887,1.234
				c1.159-0.564,1.461-1.699,0.806-3.048L291.085,71.112z"/>
			<path fill="#444232" d="M299.647,69.563l1.044,2.283l3.742-1.709l0.927,2.03l-3.742,1.709l1.984,4.345l-2.395,1.094
				l-4.883-10.689l6.582-3.006l0.927,2.03L299.647,69.563z"/>
			<path fill="#444232" d="M314.128,71l-3.81,1.639l0.305,2.43l-2.529,1.089l-1.089-12.321l3.121-1.342l8.199,9.26l-2.609,1.122
				L314.128,71z M312.688,69.285l-0.337-0.386c-2.44-2.934-2.743-3.374-3.017-3.748c0.083,0.457,0.203,0.957,0.647,4.768
				l0.065,0.504L312.688,69.285z"/>
			<path fill="#444232" d="M316.871,65.977c-1.31-3.268,0.026-6.452,3.507-7.847c1.229-0.493,2.137-0.574,2.907-0.433l0.901,2.25
				c-1.052-0.235-1.962-0.209-3.014,0.212c-2.025,0.811-2.596,2.711-1.759,4.799c0.895,2.234,2.604,3.127,4.612,2.323
				c1.068-0.428,1.851-1.099,2.359-1.847l0.85,2.121c-0.598,0.803-1.508,1.393-2.609,1.834
				C321.258,70.739,318.22,69.345,316.871,65.977z"/>
			<path fill="#444232" d="M333.608,55.627l-2.839,1.064l3.333,8.907l-2.464,0.921l-3.333-8.907l-2.855,1.068l-0.781-2.088
				l8.158-3.053L333.608,55.627z"/>
			<path fill="#444232" d="M341.281,50.572l2.485-0.862l2.343,6.769c0.969,2.8-0.102,5.032-2.884,5.995
				c-2.784,0.963-4.989-0.079-5.934-2.813l-2.383-6.884l2.487-0.861l2.399,6.932c0.485,1.399,1.5,1.989,2.717,1.568
				c1.219-0.422,1.654-1.514,1.162-2.93L341.281,50.572z"/>
			<path fill="#444232" d="M355.983,58.116l-3.63-3.202l-0.183,0.058l-0.532,0.169l1.255,3.956l-2.51,0.794l-3.55-11.199
				l3.356-1.064c2.925-0.927,5.086-0.169,5.793,2.059c0.485,1.527,0.073,2.883-1.167,3.935l4.227,3.525L355.983,58.116z
				 M350.963,53.014l0.981-0.311c1.213-0.384,1.761-1.196,1.445-2.195c-0.28-0.88-1.18-1.18-2.393-0.794l-0.981,0.31L350.963,53.014
				z"/>
			<path fill="#444232" d="M357.623,45.313l2.524-0.749l3.346,11.268l-2.524,0.751L357.623,45.313z"/>
			<path fill="#444232" d="M363.252,43.648l3.006-0.83l3.763,4.004c1.584,1.678,2.213,2.716,2.508,3.194
				c-0.216-0.519-0.627-1.616-1.164-3.565l-1.294-4.685l2.536-0.7l3.124,11.319l-3.006,0.83l-3.829-3.985
				c-1.522-1.586-2.275-2.808-2.544-3.257c0.201,0.469,0.757,1.762,1.268,3.609l1.292,4.687l-2.536,0.699L363.252,43.648z"/>
			<path fill="#444232" d="M387.82,48.275c-0.824,0.884-2.062,1.762-3.889,2.21c-3.588,0.882-6.399-0.921-7.263-4.442
				c-0.838-3.418,0.927-6.381,4.565-7.274c1.372-0.336,2.372-0.277,3.114-0.028l0.579,2.351c-1.008-0.379-2.023-0.49-3.191-0.204
				c-2.116,0.519-2.947,2.322-2.411,4.504c0.574,2.335,2.14,3.456,4.24,2.943c0.524-0.128,0.999-0.316,1.422-0.566l-0.462-1.877
				l-1.827,0.449l-0.532-2.166l4.384-1.075L387.82,48.275z"/>
		</g>
	</g>
</g>
<path fill="none" d="M834.061,140.712C745.575,53.69,624.208,0,490.296,0C356.409,0,235.062,53.671,146.58,140.664l343.765,343.764
	L834.061,140.712z"/>
<path fill="none" d="M839.928,834.012c86.993-88.48,140.664-209.829,140.664-343.716c0-133.886-53.67-255.233-140.663-343.715
	L496.213,490.297L839.928,834.012z"/>
<path fill="none" d="M140.711,146.533C53.69,235.018,0,356.385,0,490.296c0,133.912,53.69,255.279,140.712,343.765l343.763-343.763
	L140.711,146.533z"/>
<path fill="none" d="M146.581,839.929c88.481,86.993,209.828,140.663,343.715,140.663c133.911,0,255.278-53.689,343.763-140.711
	L490.345,496.166L146.581,839.929z"/>
<path fill="#FFFFFF" d="M484.476,490.297L140.712,834.061c1.94,1.974,3.896,3.93,5.869,5.869l343.763-343.763L484.476,490.297z"/>
<path fill="#FFFFFF" d="M496.213,490.297l343.716-343.716c-1.939-1.973-3.896-3.929-5.869-5.869L490.345,484.428L496.213,490.297z"
	/>
<path fill="#FFFFFF" d="M839.928,834.012L496.213,490.297l-5.869,5.869l343.715,343.715
	C836.032,837.941,837.988,835.985,839.928,834.012z"/>
<path fill="#FFFFFF" d="M490.345,484.428L146.58,140.664c-1.973,1.94-3.929,3.896-5.869,5.869l343.765,343.765L490.345,484.428z"/>
<rect x="486.194" y="486.154" transform="matrix(0.707 0.7072 -0.7072 0.707 490.3732 -203.1188)" fill="#FFFFFF" width="8.3" height="8.3"/>
<g>
	<g>
		<g>
			<path fill="#EF4527" d="M490.345,545.537c-30.46,0-55.242-24.78-55.242-55.24s24.782-55.242,55.242-55.242
				s55.24,24.782,55.24,55.242S520.804,545.537,490.345,545.537z"/>
		</g>
		<g>
			<g>
				<path fill="#FFFFFF" d="M490.344,437.546c29.087,0,52.751,23.664,52.751,52.751s-23.664,52.751-52.751,52.751
					s-52.751-23.664-52.751-52.751S461.257,437.546,490.344,437.546 M490.344,432.565c-31.884,0-57.73,25.847-57.73,57.73
					s25.847,57.731,57.73,57.731s57.731-25.848,57.731-57.731S522.229,432.565,490.344,432.565L490.344,432.565z"/>
			</g>
		</g>
	</g>
	<g>
		<g id="Bulb_2_3_">
			<g>
				<path fill="#FFFFFF" d="M506.244,466.632c-3.625-5.198-9.563-8.296-15.9-8.296s-12.274,3.098-15.899,8.296
					s-4.481,11.84-2.291,17.787c2.082,5.654,7.969,8.836,9.656,15.412c0.18,0.698,0.891,1.118,1.589,0.938
					c0.697-0.179,1.117-0.89,0.938-1.588c-0.091-0.355-0.195-0.71-0.309-1.059c-0.112-0.341-0.235-0.678-0.368-1.011
					c-0.13-0.324-0.27-0.646-0.418-0.961c-0.146-0.309-0.299-0.612-0.46-0.912c-0.158-0.293-0.323-0.581-0.495-0.866
					c-0.104-0.173-0.211-0.345-0.32-0.514c-0.173-0.271-0.352-0.537-0.536-0.801c-0.18-0.257-0.362-0.512-0.551-0.763
					c-0.182-0.245-0.368-0.487-0.557-0.727c-0.185-0.235-0.371-0.468-0.561-0.699c-0.184-0.227-0.37-0.45-0.557-0.674
					c-0.209-0.25-0.418-0.499-0.628-0.749c-0.2-0.237-0.4-0.476-0.599-0.714c-0.172-0.206-0.343-0.412-0.512-0.62
					c-0.165-0.203-0.328-0.407-0.488-0.613c-0.156-0.2-0.311-0.401-0.462-0.605c-0.091-0.122-0.181-0.246-0.269-0.37
					c-0.139-0.196-0.275-0.396-0.407-0.598c-0.128-0.195-0.251-0.395-0.37-0.596c-0.115-0.196-0.226-0.396-0.331-0.598
					c-0.103-0.198-0.199-0.4-0.291-0.604c-0.09-0.202-0.173-0.406-0.249-0.613c-1.895-5.146-1.153-10.895,1.983-15.393
					c3.137-4.499,8.275-7.18,13.76-7.18c5.485,0,10.623,2.681,13.761,7.179c3.137,4.498,3.878,10.246,1.982,15.393
					c-0.107,0.294-0.23,0.583-0.365,0.866c-0.137,0.289-0.286,0.572-0.446,0.848c-0.165,0.287-0.342,0.567-0.525,0.844
					c-0.191,0.287-0.391,0.568-0.597,0.846c-0.215,0.289-0.437,0.574-0.66,0.856c-0.234,0.294-0.473,0.584-0.713,0.872
					c-0.124,0.149-0.248,0.298-0.373,0.446c-0.242,0.288-0.485,0.576-0.727,0.864c-0.265,0.316-0.528,0.633-0.788,0.953
					c-0.27,0.331-0.535,0.664-0.795,1.003c-0.268,0.349-0.528,0.702-0.781,1.062c-0.262,0.371-0.513,0.749-0.752,1.135
					c-0.248,0.397-0.483,0.804-0.703,1.218c-0.229,0.428-0.44,0.865-0.633,1.31c-0.201,0.462-0.382,0.933-0.541,1.409
					c-0.166,0.497-0.309,1.001-0.427,1.512c-0.124,0.533-0.221,1.072-0.293,1.614c-0.045,0.342,0.018,0.609,0.209,0.896
					c-5.279,1.319-10.56,2.64-15.84,3.96c-0.699,0.175-1.124,0.883-0.949,1.582c0.176,0.698,0.884,1.124,1.582,0.948
					c6.462-1.614,12.924-3.23,19.386-4.846c0.698-0.175,1.124-0.883,0.948-1.582c-0.175-0.699-0.883-1.124-1.582-0.949
					c-0.387,0.098-0.773,0.194-1.161,0.29c1.043-7.727,7.729-10.95,9.977-17.055C510.725,478.472,509.869,471.83,506.244,466.632z"
					/>
			</g>
			<g>
				<path fill="#FFFFFF" d="M499.72,510.69c-6.462,1.614-12.923,3.23-19.385,4.846c-0.699,0.175-1.124,0.883-0.949,1.582
					s0.883,1.124,1.582,0.949c6.462-1.615,12.923-3.231,19.385-4.847c0.699-0.175,1.124-0.883,0.949-1.582
					S500.419,510.515,499.72,510.69z"/>
			</g>
			<g>
				<path fill="#FFFFFF" d="M493.267,518.363c-1.571,1.714-4.273,1.714-5.846,0c-0.487-0.531-1.312-0.567-1.843-0.08
					c-0.531,0.486-0.567,1.312-0.08,1.843c1.245,1.358,3.004,2.132,4.846,2.132c1.844,0,3.602-0.772,4.847-2.132
					c0.486-0.531,0.45-1.356-0.08-1.843C494.579,517.796,493.754,517.832,493.267,518.363z"/>
			</g>
			<g>
				<path fill="#FFFFFF" d="M499.72,505.938c-6.462,1.614-12.923,3.23-19.385,4.846c-0.699,0.175-1.124,0.883-0.949,1.582
					s0.883,1.124,1.582,0.949c6.462-1.615,12.923-3.231,19.385-4.847c0.699-0.175,1.124-0.883,0.949-1.582
					C501.127,506.188,500.419,505.762,499.72,505.938z"/>
			</g>
			<g>
				<path fill="#FFFFFF" d="M493.144,485.46c-0.081,0.162-0.158,0.327-0.231,0.493c-0.076,0.173-0.148,0.348-0.217,0.523
					c-0.071,0.185-0.14,0.369-0.203,0.557c-0.067,0.194-0.13,0.391-0.19,0.588c-0.062,0.206-0.121,0.413-0.177,0.621
					c-0.058,0.217-0.113,0.435-0.165,0.654c-0.054,0.229-0.104,0.457-0.154,0.688c-0.05,0.24-0.098,0.481-0.143,0.722
					c-0.047,0.252-0.091,0.504-0.132,0.756c-0.043,0.264-0.083,0.527-0.121,0.791c-0.026,0.183-0.051,0.364-0.075,0.548
					c-0.037,0.282-0.072,0.565-0.104,0.849c-0.034,0.295-0.065,0.59-0.095,0.885c-0.029,0.308-0.058,0.613-0.084,0.92
					c-0.055,0.649-0.1,1.298-0.138,1.947c-0.042,0.719,0.506,1.337,1.226,1.379s1.337-0.506,1.379-1.226
					c0.028-0.476,0.061-0.95,0.098-1.426c0.035-0.446,0.074-0.893,0.118-1.339c0.041-0.418,0.087-0.835,0.138-1.252
					c0.037-0.305,0.078-0.608,0.122-0.914c0.053-0.365,0.11-0.731,0.174-1.096c0.059-0.337,0.123-0.673,0.193-1.008
					c0.032-0.157,0.066-0.314,0.104-0.47c0.034-0.149,0.07-0.3,0.108-0.447c0.036-0.143,0.073-0.284,0.111-0.425
					c0.037-0.135,0.076-0.269,0.116-0.402c0.038-0.127,0.078-0.253,0.12-0.378c0.039-0.119,0.081-0.237,0.124-0.355
					c0.04-0.11,0.083-0.222,0.127-0.331c0.041-0.103,0.084-0.205,0.129-0.307c0.042-0.095,0.086-0.189,0.131-0.283
					c0.038-0.078,0.077-0.154,0.118-0.231c0.043-0.08,0.087-0.159,0.133-0.238c0.043-0.072,0.088-0.143,0.134-0.213
					c0.043-0.064,0.087-0.127,0.133-0.189c0.042-0.056,0.085-0.111,0.13-0.166c0.041-0.049,0.083-0.096,0.127-0.142
					c0.04-0.042,0.081-0.082,0.123-0.121c0.038-0.035,0.078-0.068,0.119-0.1c0.839-0.653,0.587-1.981-0.434-2.281
					c-0.466-0.137-0.938-0.259-1.413-0.363c-0.469-0.103-0.941-0.19-1.417-0.26c-0.471-0.069-0.944-0.122-1.42-0.157
					c-0.473-0.035-0.946-0.052-1.421-0.052c-0.474,0-0.947,0.017-1.421,0.052c-0.475,0.035-0.948,0.087-1.42,0.157
					c-0.475,0.07-0.948,0.157-1.417,0.26c-0.475,0.105-0.946,0.227-1.413,0.363c-1.02,0.3-1.271,1.629-0.433,2.281
					c0.041,0.031,0.08,0.064,0.119,0.1c0.043,0.039,0.084,0.079,0.123,0.121c0.044,0.046,0.086,0.094,0.127,0.142
					c0.045,0.055,0.089,0.109,0.13,0.166c0.046,0.062,0.09,0.125,0.133,0.189c0.046,0.07,0.091,0.141,0.133,0.213
					c0.046,0.078,0.091,0.158,0.133,0.238c0.041,0.076,0.08,0.153,0.118,0.231c0.046,0.095,0.089,0.188,0.131,0.283
					c0.045,0.103,0.088,0.204,0.129,0.307c0.044,0.11,0.086,0.221,0.127,0.331c0.044,0.118,0.085,0.236,0.124,0.355
					c0.042,0.126,0.082,0.252,0.12,0.378c0.083,0.274,0.158,0.549,0.229,0.826c0.077,0.304,0.146,0.609,0.211,0.918
					c0.07,0.335,0.134,0.671,0.192,1.008c0.064,0.365,0.121,0.73,0.175,1.096c0.044,0.305,0.084,0.609,0.122,0.914
					c0.051,0.417,0.097,0.834,0.138,1.252c0.044,0.446,0.083,0.893,0.118,1.339c0.037,0.476,0.068,0.95,0.097,1.426
					c0.042,0.719,0.66,1.268,1.379,1.226s1.269-0.66,1.227-1.379c-0.038-0.65-0.084-1.299-0.139-1.947
					c-0.051-0.602-0.109-1.204-0.178-1.805c-0.053-0.466-0.113-0.932-0.18-1.396c-0.038-0.264-0.078-0.527-0.121-0.79
					c-0.041-0.254-0.085-0.506-0.132-0.757c-0.045-0.24-0.093-0.481-0.144-0.722c-0.048-0.23-0.1-0.459-0.153-0.688
					c-0.053-0.22-0.107-0.438-0.165-0.654c-0.057-0.208-0.115-0.415-0.178-0.621c-0.06-0.197-0.123-0.393-0.189-0.588
					c-0.064-0.188-0.131-0.372-0.203-0.557c-0.069-0.176-0.142-0.351-0.217-0.523c-0.073-0.166-0.151-0.331-0.232-0.493
					c-0.036-0.071-0.073-0.142-0.11-0.212c-0.028-0.054-0.059-0.108-0.089-0.161c0.18-0.032,0.358-0.061,0.538-0.088
					c0.409-0.06,0.819-0.105,1.231-0.136c0.409-0.03,0.818-0.045,1.229-0.045s0.821,0.015,1.23,0.045
					c0.412,0.029,0.823,0.076,1.23,0.136c0.181,0.027,0.359,0.056,0.537,0.088c-0.029,0.053-0.06,0.107-0.089,0.161
					C493.216,485.318,493.18,485.389,493.144,485.46z"/>
			</g>
		</g>
	</g>
</g>
<g>
	<path fill="#444232" d="M151.888,806.314c-2.097-2.24-2.293-4.566-0.511-6.236c1.861-1.739,4.232-1.426,6.362,0.85l0.562,0.6
		l2.774-2.6l1.797,1.926l-8.579,8.031L151.888,806.314z M155.968,802.305c-0.873-0.93-1.893-1.027-2.733-0.239
		c-0.764,0.715-0.684,1.693,0.187,2.621l0.703,0.75l2.547-2.381L155.968,802.305z"/>
	<path fill="#444232" d="M151.735,788.715l-1.435,4.627l0.128,0.141l0.372,0.418l3.101-2.766l1.754,1.963l-8.771,7.833l-2.345-2.629
		c-2.045-2.287-2.237-4.572-0.492-6.129c1.197-1.07,2.605-1.253,4.07-0.548l1.486-5.305L151.735,788.715z M149.134,795.388
		l-0.685-0.771c-0.849-0.948-1.816-1.113-2.596-0.415c-0.689,0.615-0.594,1.562,0.253,2.511l0.686,0.768L149.134,795.388z"/>
	<path fill="#444232" d="M145.368,781.168c2.235,2.632,1.844,5.645-1.057,8.106c-2.857,2.429-5.88,2.317-8.116-0.317
		c-2.238-2.63-1.857-5.632,1.004-8.061C140.098,778.436,143.132,778.536,145.368,781.168z M137.857,787.549
		c1.118,1.319,2.861,1.186,4.682-0.361c1.849-1.568,2.285-3.292,1.167-4.608s-2.886-1.165-4.733,0.406
		C137.148,784.531,136.738,786.232,137.857,787.549z"/>
	<path fill="#444232" d="M135.914,779.318c-2.742,2.208-6.177,1.864-8.53-1.058c-0.833-1.031-1.175-1.879-1.265-2.652l1.888-1.522
		c0.083,1.075,0.373,1.939,1.086,2.825c1.367,1.695,3.352,1.687,5.101,0.277c1.878-1.514,2.228-3.407,0.87-5.094
		c-0.722-0.896-1.593-1.449-2.453-1.717l1.775-1.434c0.944,0.335,1.776,1.035,2.52,1.959
		C139.183,773.726,138.742,777.04,135.914,779.318z"/>
	<path fill="#444232" d="M127.18,762.247l1.771-1.359l4.448,5.799l-9.33,7.156l-4.407-5.743l1.771-1.359l2.803,3.652l1.855-1.421
		l-2.509-3.268l1.771-1.359l2.509,3.269l2.157-1.662L127.18,762.247z"/>
	<path fill="#444232" d="M116.547,759.015c0.126,1.029,0.4,1.956,1.056,2.854c0.62,0.847,1.223,0.986,1.725,0.617
		c0.479-0.351,0.573-0.896,0.156-2.556c-0.506-1.985-0.53-3.463,1.098-4.658c1.686-1.238,3.853-0.729,5.382,1.347
		c0.878,1.196,1.229,2.23,1.352,3.197l-1.981,1.454c-0.015-1.285-0.365-2.324-1.034-3.238c-0.621-0.846-1.382-1.085-1.974-0.651
		c-0.592,0.435-0.665,1.093-0.209,2.86c0.49,1.909,0.348,3.334-1.059,4.362c-1.516,1.116-3.668,0.659-5.248-1.486
		c-0.744-1.011-1.003-1.662-1.208-2.68L116.547,759.015z"/>
	<path fill="#444232" d="M111.04,751.26c0.108,1.03,0.36,1.967,1.002,2.875c0.602,0.858,1.202,1.009,1.714,0.647
		c0.483-0.341,0.592-0.886,0.204-2.555c-0.47-1.995-0.462-3.473,1.194-4.632c1.707-1.208,3.868-0.656,5.354,1.455
		c0.853,1.208,1.182,2.255,1.29,3.228l-2.01,1.414c0.011-1.285-0.323-2.334-0.977-3.261c-0.6-0.855-1.36-1.115-1.958-0.692
		c-0.596,0.422-0.689,1.085-0.268,2.857c0.456,1.918,0.287,3.34-1.14,4.342c-1.54,1.087-3.682,0.587-5.22-1.594
		c-0.72-1.026-0.969-1.681-1.157-2.705L111.04,751.26z"/>
	<path fill="#444232" d="M110.126,733.926l-0.217,1.102c1.005,0.444,1.904,1.213,2.589,2.266c1.592,2.423,1.381,4.56-0.293,5.657
		c-1.123,0.738-2.353,0.646-3.777-0.191c-0.236,0.907-0.671,1.774-1.474,2.301c-1.591,1.044-3.47,0.438-4.683-1.415
		c-1.314-1.999-0.849-3.742,0.481-4.609c1.209-0.794,2.47-0.494,4.042,0.312l0.535-2.682c-0.556,0.071-1.132,0.279-1.685,0.643
		l-1.25-1.91c1.038-0.68,2.224-0.974,3.389-0.91l0.638-3.167L110.126,733.926z M105.508,742.918c0.525-0.343,0.77-0.96,0.929-1.671
		c-0.964-0.516-1.717-0.585-2.246-0.239c-0.539,0.354-0.636,0.939-0.244,1.536C104.295,743.068,104.869,743.339,105.508,742.918z
		 M108.909,740.149c-0.033,0.206-0.086,0.452-0.105,0.699c0.739,0.431,1.293,0.38,1.816,0.036c0.761-0.496,0.855-1.5,0.089-2.667
		c-0.315-0.479-0.738-0.87-1.202-1.13L108.909,740.149z"/>
	<path fill="#444232" d="M93.764,729.936c-1.595-2.625-1.304-4.938,0.778-6.208c2.176-1.321,4.436-0.532,6.056,2.137l0.426,0.7
		l3.251-1.972l1.369,2.248l-10.042,6.109L93.764,729.936z M98.583,726.843c-0.665-1.088-1.644-1.393-2.624-0.793
		c-0.896,0.541-1.018,1.515-0.356,2.603l0.536,0.879l2.979-1.813L98.583,726.843z"/>
	<path fill="#444232" d="M97.247,712.681l-2.353,4.225l0.094,0.171l0.277,0.482l3.598-2.067l1.314,2.283l-10.186,5.853l-1.753-3.051
		c-1.529-2.657-1.246-4.932,0.778-6.096c1.391-0.799,2.801-0.688,4.092,0.302l2.546-4.88L97.247,712.681z M93.331,718.672
		l-0.514-0.892c-0.633-1.104-1.545-1.462-2.454-0.945c-0.796,0.465-0.902,1.403-0.269,2.508l0.513,0.893L93.331,718.672z"/>
	<path fill="#444232" d="M92.597,703.992c1.638,3.038,0.625,5.904-2.718,7.709c-3.302,1.78-6.234,1.043-7.877-1.993
		c-1.638-3.039-0.644-5.895,2.655-7.676C88.004,700.225,90.954,700.953,92.597,703.992z M83.922,708.671
		c0.822,1.52,2.554,1.755,4.656,0.62c2.131-1.151,2.916-2.745,2.098-4.265c-0.82-1.522-2.582-1.737-4.715-0.584
		C83.855,705.574,83.102,707.152,83.922,708.671z"/>
	<path fill="#444232" d="M76.432,698.764c-1.8-3.563-0.766-6.429,2.468-8.063c3.316-1.674,6.384-0.469,8.034,2.799l1.806,3.58
		l-10.482,5.294L76.432,698.764z M84.958,694.534c-0.958-1.897-2.76-2.411-4.816-1.375c-2.022,1.021-2.646,2.764-1.68,4.677
		l0.598,1.184l6.503-3.285L84.958,694.534z"/>
	<path fill="#444232" d="M69.646,684.814l-1.119-2.381l6.481-3.054c2.681-1.261,5.016-0.438,6.274,2.228
		c1.255,2.665,0.454,4.972-2.167,6.203l-6.589,3.106l-1.12-2.378l6.635-3.127c1.34-0.631,1.818-1.705,1.27-2.871
		c-0.55-1.168-1.682-1.483-3.036-0.845L69.646,684.814z"/>
	<path fill="#444232" d="M72.769,677.649c-3.221,1.42-6.449,0.194-7.958-3.233c-0.539-1.211-0.648-2.116-0.532-2.893l2.216-0.973
		c-0.196,1.06-0.139,1.968,0.315,3.003c0.881,1.994,2.799,2.5,4.855,1.595c2.201-0.969,3.035-2.707,2.167-4.687
		c-0.467-1.053-1.164-1.812-1.926-2.294l2.087-0.918c0.824,0.573,1.443,1.458,1.925,2.544
		C77.379,673.106,76.088,676.19,72.769,677.649z"/>
	<path fill="#444232" d="M61.869,661.271l1.158,2.803l8.795-3.633l1.004,2.434l-8.796,3.633l1.165,2.82l-2.062,0.851l-3.325-8.057
		L61.869,661.271z"/>
	<path fill="#444232" d="M58.97,660.003l-0.965-2.451l10.948-4.297l0.961,2.454L58.97,660.003z"/>
	<path fill="#444232" d="M51.299,639.171l-2.736-8.275l2.12-0.699l0.956,2.895l9.037-2.98l0.827,2.498l-9.037,2.981l0.951,2.881
		L51.299,639.171z"/>
	<path fill="#444232" d="M63.146,637.438l0.868,2.488l-11.101,3.882l-0.867-2.485L63.146,637.438z"/>
	<path fill="#444232" d="M65.619,644.426l1.181,3.188l-9.675,7.703l-0.984-2.663l4.148-3.149c3.055-2.283,3.513-2.564,3.902-2.817
		c-0.459,0.059-0.969,0.151-4.799,0.398l-5.178,0.371l-0.954-2.582L65.619,644.426z"/>
	<path fill="#444232" d="M53.802,621.762l3.998-1.176l0.752,2.579l-3.931,1.152l-6.244,5.915l-0.854-2.929l1.396-1.301
		c1.714-1.59,2.387-2.08,2.896-2.392c-0.588,0.027-1.48-0.02-3.699-0.35l-1.861-0.271l-0.835-2.846L53.802,621.762z"/>
</g>
</svg>
