<?xml version="1.0" encoding="utf-8"?>
<!-- Generator: Adobe Illustrator 17.0.0, SVG Export Plug-In . SVG Version: 6.00 Build 0)  -->
<!DOCTYPE svg PUBLIC "-//W3C//DTD SVG 1.1//EN" "http://www.w3.org/Graphics/SVG/1.1/DTD/svg11.dtd">
<svg version="1.1" xmlns="http://www.w3.org/2000/svg" xmlns:xlink="http://www.w3.org/1999/xlink" x="0px" y="0px" width="21px"
	 height="21px" viewBox="0 0 21 21" enable-background="new 0 0 21 21" xml:space="preserve">
<g id="Layer_1" display="none">
	<rect x="-82.188" y="-82.368" display="inline" fill="#6D6E70" width="20" height="20"/>
	<rect x="-54.625" y="-82.368" display="inline" fill="#6D6E70" width="20" height="20"/>
	<rect x="-27.042" y="-82.368" display="inline" fill="#6D6E70" width="20" height="20"/>
	<rect x="0.5" y="-82.368" display="inline" fill="#6D6E70" width="20" height="20"/>
	<rect x="-82.188" y="-54.743" display="inline" fill="#6D6E70" width="20" height="20"/>
	<rect x="-54.625" y="-54.743" display="inline" fill="#6D6E70" width="20" height="20"/>
	<rect x="-27.042" y="-54.743" display="inline" fill="#6D6E70" width="20" height="20"/>
	<rect x="0.5" y="-54.743" display="inline" fill="#6D6E70" width="20" height="20"/>
	<rect x="-82.188" y="-27.136" display="inline" fill="#6D6E70" width="20" height="20"/>
	<rect x="-54.625" y="-27.136" display="inline" fill="#6D6E70" width="20" height="20"/>
	<rect x="-27.042" y="-27.136" display="inline" fill="#6D6E70" width="20" height="20"/>
	<rect x="0.5" y="-27.136" display="inline" fill="#6D6E70" width="20" height="20"/>
	<rect x="-82.188" y="0.5" display="inline" fill="#6D6E70" width="20" height="20"/>
	<rect x="-54.625" y="0.5" display="inline" fill="#6D6E70" width="20" height="20"/>
	<rect x="-27.042" y="0.5" display="inline" fill="#6D6E70" width="20" height="20"/>
	<rect x="-82.188" y="28.125" display="inline" fill="#6D6E70" width="20" height="20"/>
	<rect x="-54.625" y="28.125" display="inline" fill="#6D6E70" width="20" height="20"/>
	<rect x="-27.042" y="28.125" display="inline" fill="#6D6E70" width="20" height="20"/>
</g>
<g id="Layer_2">
	<path d="M-41.876-72.007c-0.199-0.199-0.199-0.524,0-0.722l7.107-7.107c0.199-0.199,0.199-0.524,0-0.722l-1.661-1.661
		c-0.199-0.199-0.524-0.199-0.722,0l-7.474,7.474l-7.474-7.474c-0.199-0.199-0.524-0.199-0.722,0l-1.661,1.661
		c-0.199,0.199-0.199,0.524,0,0.722l7.107,7.107c0.199,0.199,0.199,0.524,0,0.722l-7.107,7.107c-0.199,0.199-0.199,0.524,0,0.722
		l1.661,1.661c0.199,0.199,0.524,0.199,0.722,0l7.474-7.474l7.474,7.474c0.199,0.199,0.524,0.199,0.722,0l1.661-1.661
		c0.199-0.199,0.199-0.524,0-0.722L-41.876-72.007z"/>
	<path d="M-62.385-77.727l-2.229-2.229c-0.264-0.264-0.692-0.264-0.955,0l-9.286,9.286l-3.949-3.949
		c-0.264-0.264-0.692-0.264-0.955,0l-2.229,2.229c-0.264,0.264-0.264,0.692,0,0.955l6.656,6.656
		c0.132,0.132,0.305,0.198,0.478,0.198s0.346-0.066,0.478-0.198l11.993-11.993c0.127-0.127,0.198-0.299,0.198-0.478
		S-62.259-77.601-62.385-77.727L-62.385-77.727z M-62.385-77.727"/>
	<path d="M-14.597-79.021l4.082,4.082l-10.334,10.334l-4.08-4.082L-14.597-79.021z M-7.416-80.005l-1.821-1.821
		c-0.704-0.704-1.846-0.704-2.552,0l-1.744,1.744l4.082,4.082l2.034-2.034C-6.871-78.579-6.871-79.459-7.416-80.005L-7.416-80.005z
		 M-27.065-62.949c-0.074,0.334,0.228,0.634,0.562,0.553l4.549-1.103l-4.08-4.082L-27.065-62.949z M-27.065-62.949"/>
	<g>
		<path d="M7.02-82.014c-0.194-0.194-0.513-0.194-0.707,0l-1.626,1.626c-0.194,0.194-0.194,0.513,0,0.707l6.96,6.96
			c0.194,0.194,0.194,0.513,0,0.707l-6.96,6.96c-0.194,0.194-0.194,0.513,0,0.707l1.626,1.626c0.194,0.194,0.513,0.194,0.707,0
			l9.293-9.293c0.194-0.194,0.194-0.513,0-0.707L7.02-82.014z"/>
	</g>
	<g>
		<path d="M-72.321-54.742c-5.522,0.074-9.939,4.611-9.866,10.134c0.074,5.52,4.611,9.938,10.133,9.865
			c5.521-0.074,9.939-4.612,9.865-10.134C-62.262-50.398-66.799-54.816-72.321-54.742z M-72.351-38.656l-0.055-0.001
			c-0.85-0.025-1.45-0.652-1.426-1.49c0.024-0.823,0.638-1.421,1.46-1.421l0.049,0.001c0.874,0.026,1.467,0.646,1.442,1.508
			C-70.904-39.233-71.509-38.656-72.351-38.656z M-68.773-45.756c-0.2,0.284-0.64,0.637-1.194,1.069l-0.61,0.421
			c-0.335,0.26-0.537,0.505-0.613,0.747c-0.06,0.19-0.089,0.24-0.094,0.626l-0.001,0.098h-2.33l0.007-0.197
			c0.028-0.81,0.048-1.287,0.384-1.681c0.527-0.619,1.689-1.367,1.739-1.399c0.167-0.125,0.307-0.268,0.412-0.421
			c0.245-0.337,0.353-0.603,0.353-0.863c0-0.362-0.107-0.697-0.32-0.995c-0.204-0.288-0.592-0.433-1.153-0.433
			c-0.556,0-0.937,0.177-1.165,0.539c-0.234,0.372-0.353,0.763-0.353,1.163v0.099h-2.402l0.004-0.104
			c0.062-1.472,0.587-2.531,1.56-3.149c0.612-0.394,1.372-0.593,2.26-0.593c1.162,0,2.143,0.282,2.916,0.839
			c0.783,0.564,1.18,1.41,1.18,2.512C-68.194-46.862-68.389-46.282-68.773-45.756z"/>
	</g>
	<g>
		<path d="M-35.495-47.765l-5.508-0.521c-0.347-0.032-0.647-0.253-0.789-0.584l-1.973-4.782c-0.316-0.789-1.436-0.789-1.752,0
			l-1.957,4.782c-0.126,0.331-0.442,0.552-0.789,0.584l-5.508,0.521c-0.821,0.079-1.152,1.105-0.537,1.657l4.151,3.646
			c0.268,0.237,0.379,0.584,0.3,0.931l-1.247,5.113c-0.189,0.805,0.679,1.468,1.405,1.042l4.592-2.699
			c0.3-0.174,0.663-0.174,0.963,0l4.593,2.699c0.726,0.426,1.594-0.221,1.404-1.042l-1.231-5.113
			c-0.079-0.347,0.032-0.694,0.3-0.931l4.151-3.646C-34.327-46.661-34.675-47.687-35.495-47.765z"/>
	</g>
	<g>
		<path d="M-17.054-51.18l1.237,2.998c0.394,0.921,1.252,1.548,2.233,1.637l3.688,0.349l-2.756,2.42
			c-0.743,0.656-1.068,1.664-0.843,2.653l0.79,3.282l-2.978-1.75c-0.413-0.239-0.883-0.366-1.358-0.366s-0.945,0.126-1.368,0.371
			l-2.962,1.74l0.804-3.3c0.22-0.967-0.105-1.975-0.851-2.634l-2.756-2.42l3.653-0.345c1.018-0.093,1.907-0.761,2.25-1.664
			L-17.054-51.18 M-17.057-54.244c-0.359,0-0.718,0.197-0.876,0.592l-1.957,4.782c-0.126,0.331-0.442,0.552-0.789,0.584
			l-5.508,0.521c-0.821,0.079-1.152,1.105-0.537,1.657l4.151,3.646c0.268,0.237,0.379,0.584,0.3,0.931l-1.247,5.113
			c-0.148,0.631,0.353,1.175,0.927,1.175c0.158,0,0.321-0.041,0.478-0.133l4.592-2.699c0.15-0.087,0.316-0.13,0.481-0.13
			s0.331,0.043,0.481,0.13l4.593,2.699c0.159,0.093,0.324,0.135,0.484,0.135c0.571,0,1.069-0.535,0.921-1.177l-1.231-5.113
			c-0.079-0.347,0.032-0.694,0.3-0.931l4.151-3.646c0.6-0.552,0.253-1.578-0.568-1.657l-5.508-0.521
			c-0.347-0.032-0.647-0.253-0.789-0.584l-1.973-4.782C-16.339-54.047-16.698-54.244-17.057-54.244L-17.057-54.244z"/>
	</g>
	<g>
		<path d="M20.22,17.685l-4.788-4.947c-0.343-0.355-0.773-0.497-0.958-0.316c-0.187,0.18-0.616,0.038-0.959-0.316l-0.068-0.071
			c2.143-2.819,1.935-6.854-0.638-9.428c-2.809-2.809-7.363-2.809-10.171,0c-2.809,2.809-2.809,7.362,0,10.171
			c2.617,2.618,6.749,2.793,9.573,0.532l0.03,0.031c0.343,0.355,0.47,0.789,0.283,0.969c-0.186,0.181-0.06,0.614,0.284,0.969
			l4.786,4.949c0.343,0.354,0.909,0.364,1.264,0.021l1.343-1.3C20.553,18.606,20.563,18.041,20.22,17.685z M11.226,11.197
			c-1.933,1.933-5.078,1.933-7.011,0.001c-1.933-1.933-1.933-5.079,0-7.011c1.933-1.933,5.078-1.933,7.01,0
			C13.159,6.119,13.159,9.265,11.226,11.197z"/>
	</g>
	<g>
		<g id="Bulb_2">
			<path d="M15.475-52.147c-1.134-1.626-2.992-2.596-4.975-2.596s-3.841,0.969-4.975,2.596c-1.134,1.626-1.402,3.704-0.717,5.565
				c0.651,1.769,2.493,2.765,3.021,4.822c0.056,0.218,0.278,0.35,0.497,0.294c0.218-0.056,0.35-0.278,0.294-0.497
				c-0.029-0.112-0.061-0.222-0.097-0.331c-0.035-0.107-0.073-0.212-0.115-0.316c-0.041-0.101-0.084-0.202-0.131-0.301
				c-0.045-0.096-0.093-0.192-0.144-0.285c-0.049-0.092-0.101-0.182-0.155-0.271c-0.033-0.054-0.066-0.108-0.1-0.161
				c-0.054-0.085-0.11-0.168-0.168-0.25c-0.056-0.081-0.114-0.16-0.172-0.239c-0.057-0.077-0.115-0.152-0.174-0.227
				c-0.058-0.073-0.116-0.146-0.175-0.219c-0.058-0.071-0.116-0.141-0.174-0.211c-0.065-0.078-0.131-0.156-0.197-0.234
				c-0.063-0.074-0.125-0.149-0.187-0.223c-0.054-0.064-0.107-0.129-0.16-0.194c-0.052-0.063-0.103-0.127-0.153-0.192
				c-0.049-0.062-0.097-0.126-0.144-0.189c-0.028-0.038-0.057-0.077-0.084-0.116c-0.044-0.061-0.086-0.124-0.127-0.187
				c-0.04-0.061-0.079-0.123-0.116-0.187c-0.036-0.061-0.071-0.124-0.104-0.187c-0.032-0.062-0.063-0.125-0.091-0.189
				c-0.028-0.063-0.054-0.127-0.078-0.192c-0.593-1.61-0.361-3.409,0.62-4.816c0.982-1.408,2.589-2.246,4.305-2.246
				s3.324,0.839,4.305,2.246c0.982,1.407,1.213,3.206,0.62,4.816c-0.034,0.092-0.072,0.182-0.114,0.271
				c-0.043,0.09-0.09,0.179-0.14,0.265c-0.052,0.09-0.107,0.178-0.164,0.264c-0.06,0.09-0.122,0.178-0.187,0.265
				c-0.067,0.091-0.136,0.18-0.207,0.268c-0.073,0.092-0.148,0.183-0.223,0.273c-0.039,0.047-0.078,0.093-0.117,0.139
				c-0.076,0.09-0.152,0.18-0.227,0.27c-0.083,0.099-0.165,0.198-0.247,0.298c-0.084,0.103-0.167,0.208-0.249,0.314
				c-0.084,0.109-0.166,0.22-0.245,0.332c-0.082,0.116-0.16,0.234-0.235,0.355c-0.078,0.125-0.151,0.252-0.22,0.381
				c-0.071,0.134-0.138,0.271-0.198,0.41c-0.063,0.144-0.119,0.292-0.169,0.441c-0.052,0.155-0.096,0.313-0.133,0.473
				c-0.039,0.167-0.069,0.335-0.092,0.505c-0.014,0.107,0.005,0.191,0.065,0.28c-1.652,0.413-3.304,0.826-4.956,1.239
				c-0.219,0.055-0.352,0.276-0.297,0.495c0.055,0.219,0.276,0.352,0.495,0.297c2.022-0.505,4.043-1.011,6.065-1.516
				c0.219-0.055,0.352-0.276,0.297-0.495c-0.055-0.219-0.276-0.352-0.495-0.297c-0.121,0.03-0.242,0.061-0.363,0.091
				c0.326-2.418,2.418-3.426,3.122-5.336C16.877-48.443,16.609-50.521,15.475-52.147z"/>
			<path d="M13.434-38.362c-2.022,0.505-4.043,1.011-6.065,1.516c-0.219,0.055-0.352,0.276-0.297,0.495
				c0.055,0.219,0.276,0.352,0.495,0.297c2.022-0.505,4.043-1.011,6.065-1.516c0.219-0.055,0.352-0.276,0.297-0.495
				C13.874-38.284,13.652-38.417,13.434-38.362z"/>
			<path d="M11.415-35.962c-0.492,0.536-1.337,0.536-1.829,0c-0.152-0.166-0.411-0.177-0.577-0.025
				c-0.166,0.152-0.177,0.411-0.025,0.577c0.39,0.425,0.94,0.667,1.516,0.667c0.577,0,1.127-0.242,1.516-0.667
				c0.152-0.166,0.141-0.424-0.025-0.577C11.825-36.139,11.567-36.128,11.415-35.962z"/>
			<path d="M13.434-39.849c-2.022,0.505-4.043,1.011-6.065,1.516c-0.219,0.055-0.352,0.276-0.297,0.495
				c0.055,0.219,0.276,0.352,0.495,0.297c2.022-0.505,4.043-1.011,6.065-1.516c0.219-0.055,0.352-0.276,0.297-0.495
				C13.874-39.771,13.652-39.904,13.434-39.849z"/>
			<path d="M11.376-46.256c-0.026,0.051-0.05,0.102-0.073,0.154c-0.024,0.054-0.046,0.109-0.068,0.164
				c-0.022,0.058-0.043,0.116-0.063,0.174c-0.021,0.061-0.041,0.122-0.059,0.184c-0.02,0.064-0.038,0.129-0.055,0.194
				c-0.018,0.068-0.035,0.136-0.052,0.205c-0.017,0.072-0.033,0.143-0.048,0.215c-0.016,0.075-0.031,0.15-0.045,0.226
				c-0.015,0.079-0.028,0.158-0.041,0.237c-0.013,0.082-0.026,0.165-0.038,0.248c-0.008,0.057-0.016,0.114-0.024,0.171
				c-0.012,0.088-0.022,0.177-0.033,0.266c-0.011,0.092-0.02,0.184-0.029,0.277c-0.009,0.096-0.018,0.192-0.026,0.288
				c-0.017,0.203-0.031,0.406-0.043,0.609c-0.013,0.225,0.158,0.418,0.383,0.431c0.225,0.013,0.418-0.158,0.431-0.383
				c0.009-0.149,0.019-0.297,0.03-0.446c0.011-0.14,0.023-0.279,0.037-0.419c0.013-0.131,0.027-0.261,0.043-0.392
				c0.012-0.095,0.024-0.191,0.038-0.286c0.017-0.115,0.035-0.229,0.054-0.343c0.018-0.105,0.038-0.211,0.06-0.315
				c0.01-0.049,0.021-0.098,0.032-0.147c0.011-0.047,0.022-0.093,0.034-0.14c0.011-0.044,0.023-0.089,0.035-0.133
				c0.012-0.042,0.024-0.084,0.036-0.126c0.012-0.04,0.024-0.079,0.038-0.118c0.012-0.037,0.025-0.074,0.039-0.111
				c0.013-0.035,0.026-0.069,0.04-0.104c0.013-0.032,0.026-0.064,0.04-0.096c0.013-0.03,0.027-0.059,0.041-0.089
				c0.012-0.024,0.024-0.049,0.037-0.072c0.013-0.025,0.027-0.05,0.042-0.074c0.013-0.023,0.027-0.045,0.042-0.067
				c0.013-0.02,0.027-0.04,0.041-0.059c0.013-0.018,0.027-0.035,0.041-0.052c0.013-0.015,0.026-0.03,0.04-0.045
				c0.012-0.013,0.025-0.026,0.039-0.038c0.012-0.011,0.024-0.021,0.037-0.031c0.263-0.204,0.184-0.62-0.135-0.714
				c-0.146-0.043-0.293-0.081-0.442-0.114c-0.147-0.032-0.295-0.06-0.443-0.081c-0.147-0.022-0.296-0.038-0.444-0.049
				c-0.148-0.011-0.296-0.016-0.445-0.016c-0.148,0-0.297,0.005-0.445,0.016c-0.149,0.011-0.297,0.027-0.444,0.049
				c-0.149,0.022-0.297,0.049-0.443,0.081c-0.149,0.033-0.296,0.071-0.442,0.114c-0.319,0.094-0.398,0.51-0.135,0.714
				c0.013,0.01,0.025,0.02,0.037,0.031c0.013,0.012,0.026,0.025,0.039,0.038c0.014,0.014,0.027,0.029,0.04,0.045
				c0.014,0.017,0.028,0.034,0.041,0.052c0.014,0.019,0.028,0.039,0.041,0.059c0.014,0.022,0.028,0.044,0.042,0.067
				c0.014,0.024,0.028,0.049,0.042,0.074c0.013,0.024,0.025,0.048,0.037,0.072c0.014,0.029,0.028,0.059,0.041,0.089
				c0.014,0.032,0.028,0.064,0.04,0.096c0.014,0.034,0.027,0.069,0.04,0.104c0.013,0.037,0.026,0.074,0.039,0.111
				c0.013,0.039,0.026,0.079,0.038,0.118c0.026,0.086,0.05,0.172,0.071,0.259c0.024,0.095,0.046,0.191,0.066,0.287
				c0.022,0.105,0.042,0.21,0.06,0.315c0.02,0.114,0.038,0.228,0.054,0.343c0.014,0.095,0.026,0.19,0.038,0.286
				c0.016,0.13,0.03,0.261,0.043,0.392c0.014,0.14,0.026,0.279,0.037,0.419c0.012,0.149,0.022,0.297,0.03,0.446
				c0.013,0.225,0.206,0.397,0.431,0.383c0.225-0.013,0.397-0.206,0.383-0.431c-0.012-0.203-0.026-0.406-0.043-0.609
				c-0.016-0.188-0.034-0.377-0.056-0.565c-0.017-0.146-0.035-0.292-0.056-0.437c-0.012-0.083-0.025-0.165-0.038-0.248
				c-0.013-0.079-0.027-0.158-0.041-0.237c-0.014-0.075-0.029-0.151-0.045-0.226c-0.015-0.072-0.031-0.144-0.048-0.215
				c-0.016-0.068-0.033-0.137-0.052-0.205c-0.017-0.065-0.036-0.13-0.055-0.194c-0.019-0.062-0.038-0.123-0.059-0.184
				c-0.02-0.058-0.041-0.116-0.063-0.174c-0.021-0.055-0.044-0.11-0.068-0.164c-0.023-0.052-0.047-0.103-0.073-0.154
				c-0.011-0.022-0.023-0.044-0.034-0.066c-0.009-0.017-0.018-0.034-0.028-0.05c0.056-0.01,0.112-0.019,0.168-0.027
				c0.128-0.019,0.256-0.033,0.385-0.042c0.128-0.009,0.256-0.014,0.385-0.014s0.257,0.005,0.385,0.014
				c0.129,0.009,0.257,0.024,0.385,0.042c0.056,0.008,0.112,0.017,0.168,0.027c-0.009,0.017-0.019,0.034-0.028,0.05
				C11.399-46.301,11.387-46.279,11.376-46.256z"/>
		</g>
	</g>
	<path d="M-62.188-23.636c0,0.275-0.225,0.5-0.5,0.5h-19c-0.275,0-0.5-0.225-0.5-0.5v-3c0-0.275,0.225-0.5,0.5-0.5h19
		c0.275,0,0.5,0.225,0.5,0.5V-23.636z"/>
	<path d="M-62.188-7.636c0,0.275-0.225,0.5-0.5,0.5h-19c-0.275,0-0.5-0.225-0.5-0.5v-3c0-0.275,0.225-0.5,0.5-0.5h19
		c0.275,0,0.5,0.225,0.5,0.5V-7.636z"/>
	<path d="M-62.188-15.636c0,0.275-0.225,0.5-0.5,0.5h-19c-0.275,0-0.5-0.225-0.5-0.5v-3c0-0.275,0.225-0.5,0.5-0.5h19
		c0.275,0,0.5,0.225,0.5,0.5V-15.636z"/>
	<path d="M-51.621-25.366c0.636,0,1.154,0.518,1.154,1.154s-0.518,1.154-1.154,1.154s-1.154-0.518-1.154-1.154
		S-52.257-25.366-51.621-25.366 M-51.621-27.136c-1.615,0-2.924,1.309-2.924,2.924c0,1.615,1.309,2.924,2.924,2.924
		c1.615,0,2.924-1.309,2.924-2.924C-48.697-25.827-50.006-27.136-51.621-27.136L-51.621-27.136z"/>
	<path d="M-51.621-18.29c0.636,0,1.154,0.518,1.154,1.154s-0.518,1.154-1.154,1.154s-1.154-0.518-1.154-1.154
		S-52.257-18.29-51.621-18.29 M-51.621-20.06c-1.615,0-2.924,1.309-2.924,2.924s1.309,2.924,2.924,2.924
		c1.615,0,2.924-1.309,2.924-2.924S-50.006-20.06-51.621-20.06L-51.621-20.06z"/>
	<path d="M-51.621-11.214c0.636,0,1.154,0.518,1.154,1.154s-0.518,1.154-1.154,1.154s-1.154-0.518-1.154-1.154
		S-52.257-11.214-51.621-11.214 M-51.621-12.984c-1.615,0-2.924,1.309-2.924,2.924s1.309,2.924,2.924,2.924
		c1.615,0,2.924-1.309,2.924-2.924S-50.006-12.984-51.621-12.984L-51.621-12.984z"/>
	<path d="M-34.625-25.323c0,0.275-0.225,0.5-0.5,0.5h-11.349c-0.275,0-0.5-0.225-0.5-0.5v-0.771c0-0.275,0.225-0.5,0.5-0.5h11.349
		c0.275,0,0.5,0.225,0.5,0.5V-25.323z"/>
	<path d="M-38.225-22.331c0,0.275-0.225,0.5-0.5,0.5h-7.749c-0.275,0-0.5-0.225-0.5-0.5v-0.771c0-0.275,0.225-0.5,0.5-0.5h7.749
		c0.275,0,0.5,0.225,0.5,0.5V-22.331z"/>
	<path d="M-34.625-11.171c0,0.275-0.225,0.5-0.5,0.5h-11.349c-0.275,0-0.5-0.225-0.5-0.5v-0.771c0-0.275,0.225-0.5,0.5-0.5h11.349
		c0.275,0,0.5,0.225,0.5,0.5V-11.171z"/>
	<path d="M-38.225-8.179c0,0.275-0.225,0.5-0.5,0.5h-7.749c-0.275,0-0.5-0.225-0.5-0.5v-0.771c0-0.275,0.225-0.5,0.5-0.5h7.749
		c0.275,0,0.5,0.225,0.5,0.5V-8.179z"/>
	<path d="M-34.625-16.751c0,0.275-0.225,0.5-0.5,0.5h-11.349c-0.275,0-0.5-0.225-0.5-0.5v-0.771c0-0.275,0.225-0.5,0.5-0.5h11.349
		c0.275,0,0.5,0.225,0.5,0.5V-16.751z"/>
	<path d="M-18.065-8.889c-0.135-0.017-0.268-0.038-0.401-0.061C-18.332-8.927-18.2-8.905-18.065-8.889z"/>
	<path d="M-18.756-7.278c-0.182-0.032-0.364-0.067-0.544-0.109C-19.12-7.345-18.939-7.31-18.756-7.278z"/>
	<path d="M-17.727-7.155c-0.181-0.012-0.362-0.026-0.545-0.049C-18.092-7.182-17.91-7.168-17.727-7.155z"/>
	<path d="M-17.432-7.129l0.088,0.003l0-0.01c-0.128-0.004-0.256-0.011-0.383-0.019C-17.629-7.149-17.529-7.132-17.432-7.129z"/>
	<path d="M-18.272-7.204c-0.163-0.02-0.323-0.046-0.484-0.074C-18.593-7.25-18.434-7.224-18.272-7.204z"/>
	<path d="M-19.53-7.433c0.076,0.019,0.153,0.028,0.23,0.046c-0.076-0.018-0.151-0.039-0.227-0.058L-19.53-7.433z"/>
	<path d="M-17.593-8.847c-0.158-0.01-0.315-0.022-0.472-0.042C-17.909-8.869-17.752-8.857-17.593-8.847z"/>
	<path d="M-18.466-8.95c-0.148-0.026-0.296-0.054-0.442-0.088C-18.762-9.004-18.614-8.976-18.466-8.95z"/>
	<g>
		<path d="M-17.339-22.654h-0.597c-0.274,0-0.498,0.224-0.498,0.498v5.194v0.498c0,0.318,0.189,0.606,0.481,0.732l0.457,0.197l0,0
			l2.68,1.158l2.68,1.158c0.252,0.109,0.546-0.008,0.655-0.26l0.237-0.549c0.109-0.251-0.008-0.546-0.26-0.655l0,0l-2.44-1.054
			l-2.44-1.054c-0.251-0.109-0.457-0.422-0.457-0.696v-4.67C-16.841-22.43-17.065-22.654-17.339-22.654z"/>
		<path d="M-18.062-8.911c-0.134-0.016-0.267-0.038-0.4-0.061c-0.148-0.026-0.295-0.054-0.441-0.088
			c-3.68-0.848-6.434-4.143-6.434-8.077c0-4.574,3.721-8.295,8.295-8.295c1.131,0,2.21,0.229,3.193,0.641
			c0.097,0.041,0.189,0.089,0.284,0.133c0.401,0.185,0.789,0.396,1.154,0.642l-0.624,0.902c-0.174,0.252-0.067,0.435,0.238,0.408
			l2.718-0.243c0.305-0.027,0.487-0.291,0.405-0.586l-0.73-2.63c-0.082-0.295-0.291-0.33-0.465-0.079l-0.579,0.837
			c-0.005-0.003-0.009-0.007-0.014-0.01c-0.009-0.006-0.019-0.011-0.028-0.017c-0.411-0.276-0.847-0.513-1.298-0.726
			c-0.14-0.066-0.277-0.137-0.419-0.197c-0.032-0.013-0.066-0.023-0.098-0.036c-1.156-0.469-2.416-0.733-3.739-0.733
			c-5.508,0-9.989,4.481-9.989,9.989c0,4.651,3.2,8.558,7.511,9.665c0.075,0.019,0.15,0.041,0.226,0.058
			c0.18,0.042,0.361,0.077,0.543,0.108c0.16,0.028,0.32,0.054,0.482,0.074c0.183,0.022,0.363,0.037,0.544,0.049
			c0.127,0.009,0.254,0.016,0.382,0.019l0.012-1.683c-0.087-0.003-0.173-0.017-0.26-0.023C-17.75-8.88-17.907-8.892-18.062-8.911z"
			/>
		<path d="M-9.698-20.973l0.34,0.735c0.101,0.255,0.397,0.392,0.656,0.305l0.661-0.221c0.26-0.087,0.39-0.366,0.289-0.621
			l-0.495-1.072c-0.128-0.242-0.425-0.324-0.66-0.183l-0.597,0.36C-9.739-21.529-9.826-21.215-9.698-20.973z"/>
		<path d="M-11.264-10.508c-0.18-0.206-0.504-0.237-0.72-0.069l-0.665,0.463c-0.233,0.144-0.316,0.459-0.185,0.699l0.334,0.613
			c0.131,0.24,0.429,0.319,0.662,0.175L-10.87-9.3c0.216-0.169,0.245-0.476,0.065-0.682L-11.264-10.508z"/>
		<path d="M-8.734-12.543l-0.61-0.338c-0.24-0.133-0.555-0.052-0.701,0.18l-0.468,0.663c-0.17,0.215-0.141,0.539,0.065,0.72
			l0.523,0.462c0.205,0.181,0.512,0.154,0.682-0.061l0.68-0.962C-8.418-12.112-8.494-12.41-8.734-12.543z"/>
		<path d="M-7.664-15.661l-0.69-0.108c-0.271-0.042-0.539,0.142-0.596,0.41l-0.212,0.782c-0.086,0.26,0.052,0.555,0.307,0.655
			l0.649,0.255c0.255,0.1,0.534-0.031,0.62-0.291l0.309-1.14C-7.219-15.365-7.394-15.619-7.664-15.661z"/>
		<path d="M-7.054-17.313c-0.002-0.118-0.006-0.234-0.013-0.351c-0.024-0.465-0.092-0.893-0.092-0.893
			c-0.043-0.271-0.298-0.449-0.567-0.397l-0.685,0.133c-0.269,0.052-0.462,0.267-0.429,0.477c0.033,0.21,0.083,0.836,0.086,0.917
			c0.003,0.081,0.006,0.201,0.006,0.266c0.001,0.065,0.222,0.24,0.496,0.247l0.697,0.019c0.274,0.007,0.5-0.115,0.503-0.272
			C-7.051-17.168-7.051-17.168-7.054-17.313z"/>
		<path d="M-13.876-8.931c-0.099-0.256-0.393-0.396-0.653-0.311l-0.782,0.207c-0.268,0.055-0.455,0.323-0.414,0.593l0.104,0.69
			c0.041,0.271,0.293,0.447,0.562,0.392l1.141-0.302c0.261-0.084,0.393-0.363,0.295-0.618L-13.876-8.931z"/>
	</g>
	<path d="M-17.042-29.576"/>
	<path d="M-66.188,3c0.813,0,1.5,0.687,1.5,1.5v12c0,0.813-0.687,1.5-1.5,1.5h-12c-0.813,0-1.5-0.687-1.5-1.5v-12
		c0-0.813,0.687-1.5,1.5-1.5H-66.188 M-66.188,0.5h-12c-2.2,0-4,1.8-4,4v12c0,2.2,1.8,4,4,4h12c2.2,0,4-1.8,4-4v-12
		C-62.188,2.3-63.988,0.5-66.188,0.5L-66.188,0.5z"/>
	<path d="M-38.625,3c0.813,0,1.5,0.687,1.5,1.5v12c0,0.813-0.687,1.5-1.5,1.5h-12c-0.813,0-1.5-0.687-1.5-1.5v-12
		c0-0.813,0.687-1.5,1.5-1.5H-38.625 M-38.625,0.5h-12c-2.2,0-4,1.8-4,4v12c0,2.2,1.8,4,4,4h12c2.2,0,4-1.8,4-4v-12
		C-34.625,2.3-36.425,0.5-38.625,0.5L-38.625,0.5z"/>
	<rect x="-47.625" y="7.5" opacity="0.3" width="6" height="6"/>
	<path d="M-11.042,3c0.813,0,1.5,0.687,1.5,1.5v12c0,0.813-0.687,1.5-1.5,1.5h-12c-0.813,0-1.5-0.687-1.5-1.5v-12
		c0-0.813,0.687-1.5,1.5-1.5H-11.042 M-11.042,0.5h-12c-2.2,0-4,1.8-4,4v12c0,2.2,1.8,4,4,4h12c2.2,0,4-1.8,4-4v-12
		C-7.042,2.3-8.842,0.5-11.042,0.5L-11.042,0.5z"/>
	<rect x="-20.042" y="7.5" width="6" height="6"/>
	<g>
		<path d="M-72.188,30.625c4.136,0,7.5,3.364,7.5,7.5s-3.364,7.5-7.5,7.5s-7.5-3.364-7.5-7.5S-76.323,30.625-72.188,30.625
			 M-72.188,28.125c-5.523,0-10,4.477-10,10c0,5.523,4.477,10,10,10c5.523,0,10-4.477,10-10
			C-62.188,32.602-66.665,28.125-72.188,28.125L-72.188,28.125z"/>
	</g>
	<g>
		<path d="M-44.625,30.625c4.136,0,7.5,3.364,7.5,7.5s-3.364,7.5-7.5,7.5s-7.5-3.364-7.5-7.5S-48.76,30.625-44.625,30.625
			 M-44.625,28.125c-5.523,0-10,4.477-10,10c0,5.523,4.477,10,10,10c5.523,0,10-4.477,10-10
			C-34.625,32.602-39.102,28.125-44.625,28.125L-44.625,28.125z"/>
	</g>
	<circle opacity="0.3" cx="-44.625" cy="38.125" r="3"/>
	<g>
		<path d="M-17.042,30.625c4.136,0,7.5,3.364,7.5,7.5s-3.364,7.5-7.5,7.5s-7.5-3.364-7.5-7.5S-21.177,30.625-17.042,30.625
			 M-17.042,28.125c-5.523,0-10,4.477-10,10c0,5.523,4.477,10,10,10c5.523,0,10-4.477,10-10
			C-7.042,32.602-11.519,28.125-17.042,28.125L-17.042,28.125z"/>
	</g>
	<circle cx="-17.042" cy="38.125" r="3"/>
	<g>
		<path d="M4.629-24.12l5.774,5.774c0.026,0.026,0.062,0.039,0.097,0.039c0.036,0,0.071-0.013,0.097-0.039l5.774-5.774l0.039-0.039
			c0.093-0.102,0.153-0.235,0.153-0.383c0-0.147-0.059-0.278-0.15-0.38c-0.027-0.024-0.055-0.047-0.083-0.07
			c-1.636-1.38-3.684-2.143-5.829-2.143h0c0,0,0,0,0,0c-2.146,0-4.194,0.763-5.83,2.143c-0.028,0.023-0.055,0.047-0.083,0.07
			c-0.091,0.102-0.15,0.233-0.15,0.38c0,0.149,0.06,0.281,0.153,0.383L4.629-24.12z M6.505-24.541
			c1.192-0.737,2.573-1.127,3.994-1.127c0,0,0,0,0,0l0,0c1.421,0,2.802,0.39,3.994,1.127c0.033,0.02,0.054,0.055,0.059,0.093
			c0.004,0.039-0.009,0.077-0.036,0.104l-3.928,3.928c-0.025,0.025-0.057,0.037-0.089,0.037c-0.033,0-0.065-0.012-0.089-0.037
			l-3.928-3.928c-0.027-0.027-0.041-0.066-0.036-0.104C6.451-24.486,6.473-24.521,6.505-24.541z"/>
		<path d="M9.329-17.136c0-0.036-0.013-0.071-0.039-0.097l-5.774-5.774l-0.039-0.039c-0.102-0.093-0.235-0.153-0.383-0.153
			c-0.147,0-0.278,0.059-0.38,0.15c-0.024,0.027-0.047,0.055-0.07,0.083C1.263-21.331,0.5-19.283,0.5-17.137v0v0
			c0,2.146,0.763,4.194,2.143,5.829c0.023,0.028,0.047,0.055,0.07,0.083c0.102,0.091,0.233,0.15,0.38,0.15
			c0.149,0,0.281-0.06,0.383-0.153l0.039-0.039l5.774-5.774C9.316-17.065,9.329-17.101,9.329-17.136z M7.221-17.047l-3.928,3.928
			c-0.027,0.027-0.066,0.041-0.104,0.036c-0.038-0.004-0.073-0.026-0.093-0.059c-0.737-1.192-1.127-2.573-1.127-3.994l0,0l0,0
			c0-1.421,0.39-2.802,1.127-3.994c0.02-0.033,0.055-0.054,0.093-0.059c0.039-0.004,0.077,0.009,0.104,0.036l3.928,3.928
			c0.025,0.025,0.037,0.057,0.037,0.089C7.258-17.104,7.245-17.072,7.221-17.047z"/>
		<path d="M16.371-10.152l-5.774-5.774c-0.026-0.026-0.062-0.039-0.097-0.039c-0.036,0-0.071,0.013-0.097,0.039l-5.774,5.774
			L4.59-10.113C4.497-10.011,4.437-9.879,4.437-9.73c0,0.147,0.059,0.278,0.15,0.38C4.615-9.327,4.642-9.303,4.67-9.28
			C6.306-7.9,8.354-7.136,10.5-7.136c0,0,0,0,0,0h0c2.146,0,4.194-0.763,5.829-2.143c0.028-0.023,0.055-0.047,0.083-0.07
			c0.091-0.102,0.15-0.233,0.15-0.38c0-0.149-0.06-0.281-0.153-0.383L16.371-10.152z M14.495-9.732
			c-1.192,0.737-2.573,1.127-3.994,1.127l0,0c0,0,0,0,0,0c-1.421,0-2.802-0.39-3.994-1.127c-0.033-0.02-0.054-0.055-0.059-0.093
			C6.442-9.863,6.455-9.902,6.482-9.929l3.928-3.928c0.025-0.025,0.057-0.037,0.089-0.037c0.033,0,0.065,0.012,0.089,0.037
			l3.928,3.928c0.027,0.027,0.041,0.066,0.036,0.104C14.549-9.787,14.527-9.752,14.495-9.732z"/>
		<path d="M18.357-22.966c-0.023-0.028-0.047-0.055-0.07-0.083c-0.102-0.091-0.233-0.15-0.38-0.15c-0.149,0-0.281,0.06-0.383,0.153
			l-0.039,0.039l-5.774,5.774c-0.026,0.026-0.039,0.062-0.039,0.097c0,0.036,0.013,0.071,0.039,0.097l5.774,5.774l0.039,0.039
			c0.102,0.093,0.235,0.153,0.383,0.153c0.147,0,0.278-0.059,0.38-0.15c0.024-0.027,0.047-0.055,0.07-0.083
			c1.38-1.636,2.143-3.684,2.143-5.829v0v0C20.5-19.283,19.737-21.331,18.357-22.966z M19.032-17.136
			c0,1.421-0.39,2.802-1.127,3.994c-0.02,0.033-0.055,0.054-0.093,0.059c-0.039,0.004-0.077-0.009-0.104-0.036l-3.928-3.928
			c-0.025-0.025-0.037-0.057-0.037-0.09c0-0.033,0.012-0.065,0.037-0.089l3.928-3.928c0.027-0.027,0.066-0.041,0.104-0.036
			c0.038,0.004,0.073,0.026,0.093,0.059C18.642-19.939,19.032-18.558,19.032-17.136L19.032-17.136L19.032-17.136z"/>
	</g>
</g>
</svg>
