<?xml version="1.0" encoding="utf-8"?>
<!-- Generator: Adobe Illustrator 17.0.0, SVG Export Plug-In . SVG Version: 6.00 Build 0)  -->
<!DOCTYPE svg PUBLIC "-//W3C//DTD SVG 1.1//EN" "http://www.w3.org/Graphics/SVG/1.1/DTD/svg11.dtd">
<svg version="1.1" xmlns="http://www.w3.org/2000/svg" xmlns:xlink="http://www.w3.org/1999/xlink" x="0px" y="0px" width="21px"
	 height="21px" viewBox="0 0 21 21" enable-background="new 0 0 21 21" xml:space="preserve">
<g id="Layer_1" display="none">
	<rect x="-27.062" y="-27.125" display="inline" fill="#6D6E70" width="20" height="20"/>
	<rect x="0.5" y="-27.125" display="inline" fill="#6D6E70" width="20" height="20"/>
	<rect x="28.083" y="-27.125" display="inline" fill="#6D6E70" width="20" height="20"/>
	<rect x="55.625" y="-27.125" display="inline" fill="#6D6E70" width="20" height="20"/>
	<rect x="-27.062" y="0.5" display="inline" fill="#6D6E70" width="20" height="20"/>
	<rect x="0.5" y="0.5" display="inline" fill="#6D6E70" width="20" height="20"/>
	<rect x="28.083" y="0.5" display="inline" fill="#6D6E70" width="20" height="20"/>
	<rect x="55.625" y="0.5" display="inline" fill="#6D6E70" width="20" height="20"/>
	<rect x="-27.062" y="28.106" display="inline" fill="#6D6E70" width="20" height="20"/>
	<rect x="0.5" y="28.106" display="inline" fill="#6D6E70" width="20" height="20"/>
	<rect x="28.083" y="28.106" display="inline" fill="#6D6E70" width="20" height="20"/>
	<rect x="55.625" y="28.106" display="inline" fill="#6D6E70" width="20" height="20"/>
	<rect x="-27.062" y="55.743" display="inline" fill="#6D6E70" width="20" height="20"/>
	<rect x="0.5" y="55.743" display="inline" fill="#6D6E70" width="20" height="20"/>
	<rect x="28.083" y="55.743" display="inline" fill="#6D6E70" width="20" height="20"/>
	<rect x="-27.062" y="83.368" display="inline" fill="#6D6E70" width="20" height="20"/>
	<rect x="0.5" y="83.368" display="inline" fill="#6D6E70" width="20" height="20"/>
	<rect x="28.083" y="83.368" display="inline" fill="#6D6E70" width="20" height="20"/>
</g>
<g id="Layer_2">
	<path d="M13.249-16.764c-0.199-0.199-0.199-0.524,0-0.722l7.107-7.107c0.199-0.199,0.199-0.524,0-0.722l-1.661-1.661
		c-0.199-0.199-0.524-0.199-0.722,0L10.5-19.503l-7.474-7.474c-0.199-0.199-0.524-0.199-0.722,0l-1.661,1.661
		c-0.199,0.199-0.199,0.524,0,0.722l7.107,7.107c0.199,0.199,0.199,0.524,0,0.722L0.644-9.657c-0.199,0.199-0.199,0.524,0,0.722
		l1.661,1.661c0.199,0.199,0.524,0.199,0.722,0l7.474-7.474l7.474,7.474c0.199,0.199,0.524,0.199,0.722,0l1.661-1.661
		c0.199-0.199,0.199-0.524,0-0.722L13.249-16.764z"/>
	<path d="M-7.26-22.485l-2.229-2.229c-0.264-0.264-0.692-0.264-0.955,0l-9.286,9.286l-3.949-3.949c-0.264-0.264-0.692-0.264-0.955,0
		l-2.229,2.229c-0.264,0.264-0.264,0.692,0,0.955l6.656,6.656c0.132,0.132,0.305,0.198,0.478,0.198c0.173,0,0.346-0.066,0.478-0.198
		L-7.26-21.529c0.127-0.127,0.198-0.299,0.198-0.478C-7.062-22.186-7.134-22.358-7.26-22.485L-7.26-22.485z M-7.26-22.485"/>
	<path d="M40.528-23.778l4.082,4.082L34.277-9.361l-4.08-4.082L40.528-23.778z M47.709-24.762l-1.821-1.821
		c-0.704-0.704-1.846-0.704-2.552,0l-1.744,1.744l4.082,4.082l2.034-2.034C48.254-23.336,48.254-24.217,47.709-24.762L47.709-24.762
		z M28.06-7.706c-0.074,0.334,0.228,0.634,0.562,0.553l4.549-1.103l-4.08-4.082L28.06-7.706z M28.06-7.706"/>
	<g>
		<path d="M62.145-26.771c-0.194-0.194-0.513-0.194-0.707,0l-1.626,1.626c-0.194,0.194-0.194,0.513,0,0.707l6.96,6.96
			c0.194,0.194,0.194,0.513,0,0.707l-6.96,6.96c-0.194,0.194-0.194,0.513,0,0.707l1.626,1.626c0.194,0.194,0.513,0.194,0.707,0
			l9.293-9.293c0.194-0.194,0.194-0.513,0-0.707L62.145-26.771z"/>
	</g>
	<g>
		<path d="M-17.196,0.501c-5.522,0.074-9.939,4.611-9.866,10.134c0.074,5.52,4.611,9.938,10.133,9.865
			c5.521-0.074,9.939-4.612,9.865-10.134C-7.137,4.845-11.674,0.427-17.196,0.501z M-17.226,16.587l-0.055-0.001
			c-0.85-0.025-1.45-0.652-1.426-1.49c0.024-0.823,0.638-1.421,1.46-1.421l0.049,0.001c0.874,0.026,1.467,0.646,1.442,1.508
			C-15.779,16.01-16.384,16.587-17.226,16.587z M-13.648,9.487c-0.2,0.284-0.64,0.637-1.194,1.069l-0.61,0.421
			c-0.335,0.26-0.537,0.505-0.613,0.747c-0.06,0.19-0.089,0.24-0.094,0.626l-0.001,0.098h-2.33l0.007-0.197
			c0.028-0.81,0.048-1.287,0.384-1.681c0.527-0.619,1.689-1.367,1.739-1.399c0.167-0.125,0.307-0.268,0.412-0.421
			c0.245-0.337,0.353-0.603,0.353-0.863c0-0.362-0.107-0.697-0.32-0.995c-0.204-0.288-0.592-0.433-1.153-0.433
			c-0.556,0-0.937,0.177-1.165,0.539c-0.234,0.372-0.353,0.763-0.353,1.163v0.099h-2.402l0.004-0.104
			c0.062-1.472,0.587-2.531,1.56-3.149c0.612-0.394,1.372-0.593,2.26-0.593c1.162,0,2.143,0.282,2.916,0.839
			c0.783,0.564,1.18,1.41,1.18,2.512C-13.069,8.381-13.264,8.961-13.648,9.487z"/>
	</g>
	<g>
		<path d="M19.63,7.477l-5.508-0.521c-0.347-0.032-0.647-0.253-0.789-0.584L11.36,1.591c-0.316-0.789-1.436-0.789-1.752,0
			L7.651,6.373C7.525,6.704,7.21,6.925,6.862,6.957L1.355,7.477C0.534,7.556,0.202,8.582,0.818,9.134l4.151,3.646
			c0.268,0.237,0.379,0.584,0.3,0.931l-1.247,5.113c-0.189,0.805,0.679,1.468,1.405,1.042l4.592-2.699
			c0.3-0.174,0.663-0.174,0.963,0l4.593,2.699c0.726,0.426,1.594-0.221,1.404-1.042l-1.231-5.113
			c-0.079-0.347,0.032-0.694,0.3-0.931l4.151-3.646C20.798,8.582,20.45,7.556,19.63,7.477z"/>
	</g>
	<g>
		<path d="M38.071,4.063l1.237,2.998c0.394,0.921,1.252,1.548,2.233,1.637l3.688,0.349l-2.756,2.42
			c-0.743,0.656-1.068,1.664-0.843,2.653l0.79,3.282l-2.978-1.75c-0.413-0.239-0.883-0.366-1.358-0.366s-0.945,0.126-1.368,0.371
			l-2.962,1.74l0.804-3.3c0.22-0.967-0.105-1.975-0.851-2.634l-2.756-2.42l3.653-0.345c1.018-0.093,1.907-0.761,2.25-1.664
			L38.071,4.063 M38.068,0.999c-0.359,0-0.718,0.197-0.876,0.592l-1.957,4.782c-0.126,0.331-0.442,0.552-0.789,0.584l-5.508,0.521
			c-0.821,0.079-1.152,1.105-0.537,1.657l4.151,3.646c0.268,0.237,0.379,0.584,0.3,0.931l-1.247,5.113
			c-0.148,0.631,0.353,1.175,0.927,1.175c0.158,0,0.321-0.041,0.478-0.133l4.592-2.699c0.15-0.087,0.316-0.13,0.481-0.13
			s0.331,0.043,0.481,0.13l4.593,2.699c0.159,0.093,0.324,0.135,0.484,0.135c0.571,0,1.069-0.535,0.921-1.177l-1.231-5.113
			c-0.079-0.347,0.032-0.694,0.3-0.931l4.151-3.646c0.6-0.552,0.253-1.578-0.568-1.657l-5.508-0.521
			c-0.347-0.032-0.647-0.253-0.789-0.584l-1.973-4.782C38.786,1.196,38.427,0.999,38.068,0.999L38.068,0.999z"/>
	</g>
	<g>
		<path d="M75.345,72.927l-4.788-4.947c-0.343-0.355-0.773-0.497-0.958-0.316c-0.187,0.18-0.616,0.038-0.959-0.316l-0.068-0.071
			c2.143-2.819,1.935-6.854-0.638-9.428c-2.809-2.809-7.363-2.809-10.171,0c-2.809,2.809-2.809,7.362,0,10.171
			c2.617,2.618,6.749,2.793,9.573,0.532l0.03,0.031c0.343,0.355,0.47,0.789,0.283,0.969c-0.186,0.181-0.06,0.614,0.284,0.969
			l4.786,4.949c0.343,0.354,0.909,0.364,1.264,0.021l1.343-1.3C75.678,73.849,75.688,73.284,75.345,72.927z M66.351,66.44
			c-1.933,1.933-5.078,1.933-7.011,0.001c-1.933-1.933-1.933-5.079,0-7.011c1.933-1.933,5.078-1.933,7.01,0
			C68.284,61.362,68.284,64.507,66.351,66.44z"/>
	</g>
	<g>
		<g id="Bulb_2">
			<path d="M70.6,3.096C69.465,1.469,67.608,0.5,65.625,0.5c-1.983,0-3.841,0.969-4.975,2.596c-1.134,1.626-1.402,3.704-0.717,5.565
				c0.651,1.769,2.493,2.765,3.021,4.822c0.056,0.218,0.278,0.35,0.497,0.294c0.218-0.056,0.35-0.278,0.294-0.497
				c-0.029-0.112-0.061-0.222-0.097-0.331c-0.035-0.107-0.073-0.212-0.115-0.316c-0.041-0.101-0.084-0.202-0.131-0.301
				c-0.045-0.096-0.093-0.192-0.144-0.285c-0.049-0.092-0.101-0.182-0.155-0.271c-0.033-0.054-0.066-0.108-0.1-0.161
				c-0.054-0.085-0.11-0.168-0.168-0.25c-0.056-0.081-0.114-0.16-0.172-0.239c-0.057-0.077-0.115-0.152-0.174-0.227
				c-0.058-0.073-0.116-0.146-0.175-0.219c-0.058-0.071-0.116-0.141-0.174-0.211c-0.065-0.078-0.131-0.156-0.197-0.234
				c-0.063-0.074-0.125-0.149-0.187-0.223c-0.054-0.064-0.107-0.129-0.16-0.194c-0.052-0.063-0.103-0.127-0.153-0.192
				c-0.049-0.062-0.097-0.126-0.144-0.189c-0.028-0.038-0.057-0.077-0.084-0.116c-0.044-0.061-0.086-0.124-0.127-0.187
				c-0.04-0.061-0.079-0.123-0.116-0.187c-0.036-0.061-0.071-0.124-0.104-0.187c-0.032-0.062-0.063-0.125-0.091-0.189
				c-0.028-0.063-0.054-0.127-0.078-0.192c-0.593-1.61-0.361-3.409,0.62-4.816c0.982-1.408,2.589-2.246,4.305-2.246
				c1.716,0,3.324,0.839,4.305,2.246c0.982,1.407,1.213,3.206,0.62,4.816c-0.034,0.092-0.072,0.182-0.114,0.271
				c-0.043,0.09-0.09,0.179-0.14,0.265c-0.052,0.09-0.107,0.178-0.164,0.264c-0.06,0.09-0.122,0.178-0.187,0.265
				c-0.067,0.091-0.136,0.18-0.207,0.268c-0.073,0.092-0.148,0.183-0.223,0.273c-0.039,0.047-0.078,0.093-0.117,0.139
				c-0.076,0.09-0.152,0.18-0.227,0.27c-0.083,0.099-0.165,0.198-0.247,0.298c-0.084,0.103-0.167,0.208-0.249,0.314
				c-0.084,0.109-0.166,0.22-0.245,0.332c-0.082,0.116-0.16,0.234-0.235,0.355c-0.078,0.125-0.151,0.252-0.22,0.381
				c-0.071,0.134-0.138,0.271-0.198,0.41c-0.063,0.144-0.119,0.292-0.169,0.441c-0.052,0.155-0.096,0.313-0.133,0.473
				c-0.039,0.167-0.069,0.335-0.092,0.505c-0.014,0.107,0.005,0.191,0.065,0.28c-1.652,0.413-3.304,0.826-4.956,1.239
				c-0.219,0.055-0.352,0.276-0.297,0.495c0.055,0.219,0.276,0.352,0.495,0.297c2.022-0.505,4.043-1.011,6.065-1.516
				c0.219-0.055,0.352-0.276,0.297-0.495c-0.055-0.219-0.276-0.352-0.495-0.297c-0.121,0.03-0.242,0.061-0.363,0.091
				c0.326-2.418,2.418-3.426,3.122-5.336C72.002,6.8,71.734,4.722,70.6,3.096z"/>
			<path d="M68.559,16.881c-2.022,0.505-4.043,1.011-6.065,1.516c-0.219,0.055-0.352,0.276-0.297,0.495
				c0.055,0.219,0.276,0.352,0.495,0.297c2.022-0.505,4.043-1.011,6.065-1.516c0.219-0.055,0.352-0.276,0.297-0.495
				C68.999,16.959,68.777,16.826,68.559,16.881z"/>
			<path d="M66.54,19.281c-0.492,0.536-1.337,0.536-1.829,0c-0.152-0.166-0.411-0.177-0.577-0.025
				c-0.166,0.152-0.177,0.411-0.025,0.577c0.39,0.425,0.94,0.667,1.516,0.667s1.127-0.242,1.516-0.667
				c0.152-0.166,0.141-0.424-0.025-0.577C66.95,19.104,66.692,19.115,66.54,19.281z"/>
			<path d="M68.559,15.393c-2.022,0.505-4.043,1.011-6.065,1.516c-0.219,0.055-0.352,0.276-0.297,0.495
				c0.055,0.219,0.276,0.352,0.495,0.297c2.022-0.505,4.043-1.011,6.065-1.516c0.219-0.055,0.352-0.276,0.297-0.495
				C68.999,15.472,68.777,15.339,68.559,15.393z"/>
			<path d="M66.501,8.987c-0.026,0.051-0.05,0.102-0.073,0.154c-0.024,0.054-0.046,0.109-0.068,0.164
				c-0.022,0.058-0.043,0.116-0.063,0.174c-0.021,0.061-0.041,0.122-0.059,0.184c-0.02,0.064-0.038,0.129-0.055,0.194
				c-0.018,0.068-0.035,0.136-0.052,0.205c-0.017,0.072-0.033,0.143-0.048,0.215c-0.016,0.075-0.031,0.15-0.045,0.226
				c-0.015,0.079-0.028,0.158-0.041,0.237c-0.013,0.082-0.026,0.165-0.038,0.248c-0.008,0.057-0.016,0.114-0.024,0.171
				c-0.012,0.088-0.022,0.177-0.033,0.266c-0.011,0.092-0.02,0.184-0.029,0.277c-0.009,0.096-0.018,0.192-0.026,0.288
				c-0.017,0.203-0.031,0.406-0.043,0.609c-0.013,0.225,0.158,0.418,0.383,0.431s0.418-0.158,0.431-0.383
				c0.009-0.149,0.019-0.297,0.03-0.446c0.011-0.14,0.023-0.279,0.037-0.419c0.013-0.131,0.027-0.261,0.043-0.392
				c0.012-0.095,0.024-0.191,0.038-0.286c0.017-0.115,0.035-0.229,0.054-0.343c0.018-0.105,0.038-0.211,0.06-0.315
				c0.01-0.049,0.021-0.098,0.032-0.147c0.011-0.047,0.022-0.093,0.034-0.14c0.011-0.044,0.023-0.089,0.035-0.133
				c0.012-0.042,0.024-0.084,0.036-0.126c0.012-0.04,0.024-0.079,0.038-0.118c0.012-0.037,0.025-0.074,0.039-0.111
				c0.013-0.035,0.026-0.069,0.04-0.104c0.013-0.032,0.026-0.064,0.04-0.096c0.013-0.03,0.027-0.059,0.041-0.089
				c0.012-0.024,0.024-0.049,0.037-0.072c0.013-0.025,0.027-0.05,0.042-0.074c0.013-0.023,0.027-0.045,0.042-0.067
				c0.013-0.02,0.027-0.04,0.041-0.059c0.013-0.018,0.027-0.035,0.041-0.052c0.013-0.015,0.026-0.03,0.04-0.045
				C67.471,9,67.484,8.987,67.497,8.975c0.012-0.011,0.024-0.021,0.037-0.031c0.263-0.204,0.184-0.62-0.135-0.714
				c-0.146-0.043-0.293-0.081-0.442-0.114c-0.147-0.032-0.295-0.06-0.443-0.081c-0.147-0.022-0.296-0.038-0.444-0.049
				c-0.148-0.011-0.296-0.016-0.445-0.016c-0.148,0-0.297,0.005-0.445,0.016c-0.149,0.011-0.297,0.027-0.444,0.049
				c-0.149,0.022-0.297,0.049-0.443,0.081c-0.149,0.033-0.296,0.071-0.442,0.114c-0.319,0.094-0.398,0.51-0.135,0.714
				c0.013,0.01,0.025,0.02,0.037,0.031C63.766,8.987,63.779,9,63.791,9.013c0.014,0.014,0.027,0.029,0.04,0.045
				c0.014,0.017,0.028,0.034,0.041,0.052c0.014,0.019,0.028,0.039,0.041,0.059c0.014,0.022,0.028,0.044,0.042,0.067
				c0.014,0.024,0.028,0.049,0.042,0.074c0.013,0.024,0.025,0.048,0.037,0.072c0.014,0.029,0.028,0.059,0.041,0.089
				c0.014,0.032,0.028,0.064,0.04,0.096c0.014,0.034,0.027,0.069,0.04,0.104c0.013,0.037,0.026,0.074,0.039,0.111
				c0.013,0.039,0.026,0.079,0.038,0.118c0.026,0.086,0.05,0.172,0.071,0.259c0.024,0.095,0.046,0.191,0.066,0.287
				c0.022,0.105,0.042,0.21,0.06,0.315c0.02,0.114,0.038,0.228,0.054,0.343c0.014,0.095,0.026,0.19,0.038,0.286
				c0.016,0.13,0.03,0.261,0.043,0.392c0.014,0.14,0.026,0.279,0.037,0.419c0.012,0.149,0.022,0.297,0.03,0.446
				c0.013,0.225,0.206,0.397,0.431,0.383c0.225-0.013,0.397-0.206,0.383-0.431c-0.012-0.203-0.026-0.406-0.043-0.609
				c-0.016-0.188-0.034-0.377-0.056-0.565c-0.017-0.146-0.035-0.292-0.056-0.437c-0.012-0.083-0.025-0.165-0.038-0.248
				c-0.013-0.079-0.027-0.158-0.041-0.237c-0.014-0.075-0.029-0.151-0.045-0.226c-0.015-0.072-0.031-0.144-0.048-0.215
				c-0.016-0.068-0.033-0.137-0.052-0.205c-0.017-0.065-0.036-0.13-0.055-0.194c-0.019-0.062-0.038-0.123-0.059-0.184
				c-0.02-0.058-0.041-0.116-0.063-0.174c-0.021-0.055-0.044-0.11-0.068-0.164c-0.023-0.052-0.047-0.103-0.073-0.154
				c-0.011-0.022-0.023-0.044-0.034-0.066c-0.009-0.017-0.018-0.034-0.028-0.05c0.056-0.01,0.112-0.019,0.168-0.027
				c0.128-0.019,0.256-0.033,0.385-0.042c0.128-0.009,0.256-0.014,0.385-0.014c0.128,0,0.257,0.005,0.385,0.014
				c0.129,0.009,0.257,0.024,0.385,0.042c0.056,0.008,0.112,0.017,0.168,0.027c-0.009,0.017-0.019,0.034-0.028,0.05
				C66.524,8.942,66.512,8.964,66.501,8.987z"/>
		</g>
	</g>
	<path d="M-7.062,31.606c0,0.275-0.225,0.5-0.5,0.5h-19c-0.275,0-0.5-0.225-0.5-0.5v-3c0-0.275,0.225-0.5,0.5-0.5h19
		c0.275,0,0.5,0.225,0.5,0.5V31.606z"/>
	<path d="M-7.062,47.606c0,0.275-0.225,0.5-0.5,0.5h-19c-0.275,0-0.5-0.225-0.5-0.5v-3c0-0.275,0.225-0.5,0.5-0.5h19
		c0.275,0,0.5,0.225,0.5,0.5V47.606z"/>
	<path d="M-7.062,39.606c0,0.275-0.225,0.5-0.5,0.5h-19c-0.275,0-0.5-0.225-0.5-0.5v-3c0-0.275,0.225-0.5,0.5-0.5h19
		c0.275,0,0.5,0.225,0.5,0.5V39.606z"/>
	<path d="M3.504,29.877c0.636,0,1.154,0.518,1.154,1.154s-0.518,1.154-1.154,1.154S2.35,31.667,2.35,31.03
		S2.868,29.877,3.504,29.877 M3.504,28.106c-1.615,0-2.924,1.309-2.924,2.924c0,1.615,1.309,2.924,2.924,2.924
		c1.615,0,2.924-1.309,2.924-2.924C6.428,29.416,5.119,28.106,3.504,28.106L3.504,28.106z"/>
	<path d="M3.504,36.952c0.636,0,1.154,0.518,1.154,1.154S4.14,39.26,3.504,39.26S2.35,38.743,2.35,38.106S2.868,36.952,3.504,36.952
		 M3.504,35.182c-1.615,0-2.924,1.309-2.924,2.924s1.309,2.924,2.924,2.924c1.615,0,2.924-1.309,2.924-2.924
		S5.119,35.182,3.504,35.182L3.504,35.182z"/>
	<path d="M3.504,44.028c0.636,0,1.154,0.518,1.154,1.154s-0.518,1.154-1.154,1.154S2.35,45.819,2.35,45.182
		S2.868,44.028,3.504,44.028 M3.504,42.258c-1.615,0-2.924,1.309-2.924,2.924s1.309,2.924,2.924,2.924
		c1.615,0,2.924-1.309,2.924-2.924S5.119,42.258,3.504,42.258L3.504,42.258z"/>
	<path d="M20.5,29.92c0,0.275-0.225,0.5-0.5,0.5H8.651c-0.275,0-0.5-0.225-0.5-0.5v-0.771c0-0.275,0.225-0.5,0.5-0.5H20
		c0.275,0,0.5,0.225,0.5,0.5V29.92z"/>
	<path d="M16.9,32.912c0,0.275-0.225,0.5-0.5,0.5H8.651c-0.275,0-0.5-0.225-0.5-0.5v-0.771c0-0.275,0.225-0.5,0.5-0.5H16.4
		c0.275,0,0.5,0.225,0.5,0.5V32.912z"/>
	<path d="M20.5,44.071c0,0.275-0.225,0.5-0.5,0.5H8.651c-0.275,0-0.5-0.225-0.5-0.5v-0.771c0-0.275,0.225-0.5,0.5-0.5H20
		c0.275,0,0.5,0.225,0.5,0.5V44.071z"/>
	<path d="M16.9,47.064c0,0.275-0.225,0.5-0.5,0.5H8.651c-0.275,0-0.5-0.225-0.5-0.5v-0.771c0-0.275,0.225-0.5,0.5-0.5H16.4
		c0.275,0,0.5,0.225,0.5,0.5V47.064z"/>
	<path d="M20.5,38.492c0,0.275-0.225,0.5-0.5,0.5H8.651c-0.275,0-0.5-0.225-0.5-0.5v-0.771c0-0.275,0.225-0.5,0.5-0.5H20
		c0.275,0,0.5,0.225,0.5,0.5V38.492z"/>
	<path d="M37.06,46.354c-0.135-0.017-0.268-0.038-0.401-0.061C36.793,46.316,36.925,46.338,37.06,46.354z"/>
	<path d="M36.369,47.965c-0.182-0.032-0.364-0.067-0.544-0.109C36.005,47.898,36.186,47.933,36.369,47.965z"/>
	<path d="M37.398,48.088c-0.181-0.012-0.362-0.026-0.545-0.049C37.033,48.061,37.215,48.075,37.398,48.088z"/>
	<path d="M37.693,48.114l0.088,0.003l0-0.01c-0.128-0.004-0.256-0.011-0.383-0.019C37.496,48.094,37.596,48.111,37.693,48.114z"/>
	<path d="M36.853,48.039c-0.163-0.02-0.323-0.046-0.484-0.074C36.532,47.993,36.691,48.019,36.853,48.039z"/>
	<path d="M35.595,47.81c0.076,0.019,0.153,0.028,0.23,0.046c-0.076-0.018-0.151-0.039-0.227-0.058L35.595,47.81z"/>
	<path d="M37.532,46.396c-0.158-0.01-0.315-0.022-0.472-0.042C37.216,46.373,37.373,46.385,37.532,46.396z"/>
	<path d="M36.659,46.293c-0.148-0.026-0.296-0.054-0.442-0.088C36.363,46.239,36.511,46.267,36.659,46.293z"/>
	<g>
		<path d="M37.786,32.589h-0.597c-0.274,0-0.498,0.224-0.498,0.498v5.194v0.498c0,0.318,0.189,0.606,0.481,0.732l0.457,0.197l0,0
			l2.68,1.158l2.68,1.158c0.252,0.109,0.546-0.008,0.655-0.26l0.237-0.549c0.109-0.251-0.008-0.546-0.26-0.655l0,0l-2.44-1.054
			l-2.44-1.054c-0.251-0.109-0.457-0.422-0.457-0.696v-4.67C38.284,32.813,38.06,32.589,37.786,32.589z"/>
		<path d="M37.063,46.332c-0.134-0.016-0.267-0.038-0.4-0.061c-0.148-0.026-0.295-0.054-0.441-0.088
			c-3.68-0.848-6.434-4.143-6.434-8.077c0-4.574,3.721-8.295,8.295-8.295c1.131,0,2.21,0.229,3.193,0.641
			c0.097,0.041,0.189,0.089,0.284,0.133c0.401,0.185,0.789,0.396,1.154,0.642l-0.624,0.902c-0.174,0.252-0.067,0.435,0.238,0.408
			l2.718-0.243c0.305-0.027,0.487-0.291,0.405-0.586l-0.73-2.63c-0.082-0.295-0.291-0.33-0.465-0.079l-0.579,0.837
			c-0.005-0.003-0.009-0.007-0.014-0.01c-0.009-0.006-0.019-0.011-0.028-0.017c-0.411-0.276-0.847-0.513-1.298-0.726
			c-0.14-0.066-0.277-0.137-0.419-0.197c-0.032-0.013-0.066-0.023-0.098-0.036c-1.156-0.469-2.416-0.733-3.739-0.733
			c-5.508,0-9.989,4.481-9.989,9.989c0,4.651,3.2,8.558,7.511,9.665c0.075,0.019,0.15,0.041,0.226,0.058
			c0.18,0.042,0.361,0.077,0.543,0.108c0.16,0.028,0.32,0.054,0.482,0.074c0.183,0.022,0.363,0.037,0.544,0.049
			c0.127,0.009,0.254,0.016,0.382,0.019l0.012-1.683c-0.087-0.003-0.173-0.017-0.26-0.023
			C37.375,46.363,37.218,46.351,37.063,46.332z"/>
		<path d="M45.427,34.27l0.34,0.735c0.101,0.255,0.397,0.392,0.656,0.305l0.661-0.221c0.26-0.087,0.39-0.366,0.289-0.621
			l-0.495-1.072c-0.128-0.242-0.425-0.324-0.66-0.183l-0.597,0.36C45.386,33.714,45.299,34.028,45.427,34.27z"/>
		<path d="M43.861,44.735c-0.18-0.206-0.504-0.237-0.72-0.069l-0.665,0.463c-0.233,0.144-0.316,0.459-0.185,0.699l0.334,0.613
			c0.131,0.24,0.429,0.319,0.662,0.175l0.966-0.674c0.216-0.169,0.245-0.476,0.065-0.682L43.861,44.735z"/>
		<path d="M46.391,42.699l-0.61-0.338c-0.24-0.133-0.555-0.052-0.701,0.18l-0.468,0.663c-0.17,0.215-0.141,0.539,0.065,0.72
			l0.523,0.462c0.205,0.181,0.512,0.154,0.682-0.061l0.68-0.962C46.707,43.131,46.631,42.832,46.391,42.699z"/>
		<path d="M47.461,39.581l-0.69-0.108c-0.271-0.042-0.539,0.142-0.596,0.41l-0.212,0.782c-0.086,0.26,0.052,0.555,0.307,0.655
			l0.649,0.255c0.255,0.1,0.534-0.031,0.62-0.291l0.309-1.14C47.906,39.877,47.731,39.624,47.461,39.581z"/>
		<path d="M48.071,37.93c-0.002-0.118-0.006-0.234-0.013-0.351c-0.024-0.465-0.092-0.893-0.092-0.893
			c-0.043-0.271-0.298-0.449-0.567-0.397l-0.685,0.133c-0.269,0.052-0.462,0.267-0.429,0.477c0.033,0.21,0.083,0.836,0.086,0.917
			c0.003,0.081,0.006,0.201,0.006,0.266c0.001,0.065,0.222,0.24,0.496,0.247l0.697,0.019c0.274,0.007,0.5-0.115,0.503-0.272
			C48.074,38.075,48.074,38.075,48.071,37.93z"/>
		<path d="M41.249,46.312c-0.099-0.256-0.393-0.396-0.653-0.311l-0.782,0.207c-0.268,0.055-0.455,0.323-0.414,0.593l0.104,0.69
			c0.041,0.271,0.293,0.447,0.562,0.392l1.141-0.302c0.261-0.084,0.393-0.363,0.295-0.618L41.249,46.312z"/>
	</g>
	<path d="M38.083,25.667"/>
	<path d="M-11.062,58.243c0.813,0,1.5,0.687,1.5,1.5v12c0,0.813-0.687,1.5-1.5,1.5h-12c-0.813,0-1.5-0.687-1.5-1.5v-12
		c0-0.813,0.687-1.5,1.5-1.5H-11.062 M-11.062,55.743h-12c-2.2,0-4,1.8-4,4v12c0,2.2,1.8,4,4,4h12c2.2,0,4-1.8,4-4v-12
		C-7.062,57.543-8.863,55.743-11.062,55.743L-11.062,55.743z"/>
	<path d="M16.5,58.243c0.813,0,1.5,0.687,1.5,1.5v12c0,0.813-0.687,1.5-1.5,1.5h-12c-0.813,0-1.5-0.687-1.5-1.5v-12
		c0-0.813,0.687-1.5,1.5-1.5H16.5 M16.5,55.743h-12c-2.2,0-4,1.8-4,4v12c0,2.2,1.8,4,4,4h12c2.2,0,4-1.8,4-4v-12
		C20.5,57.543,18.7,55.743,16.5,55.743L16.5,55.743z"/>
	<rect x="7.5" y="62.743" opacity="0.3" width="6" height="6"/>
	<path d="M44.083,58.243c0.813,0,1.5,0.687,1.5,1.5v12c0,0.813-0.687,1.5-1.5,1.5h-12c-0.813,0-1.5-0.687-1.5-1.5v-12
		c0-0.813,0.687-1.5,1.5-1.5H44.083 M44.083,55.743h-12c-2.2,0-4,1.8-4,4v12c0,2.2,1.8,4,4,4h12c2.2,0,4-1.8,4-4v-12
		C48.083,57.543,46.283,55.743,44.083,55.743L44.083,55.743z"/>
	<rect x="35.083" y="62.743" width="6" height="6"/>
	<g>
		<path d="M-17.063,85.868c4.136,0,7.5,3.364,7.5,7.5s-3.364,7.5-7.5,7.5s-7.5-3.364-7.5-7.5S-21.198,85.868-17.063,85.868
			 M-17.063,83.368c-5.523,0-10,4.477-10,10c0,5.523,4.477,10,10,10c5.523,0,10-4.477,10-10
			C-7.063,87.845-11.54,83.368-17.063,83.368L-17.063,83.368z"/>
	</g>
	<g>
		<path d="M10.5,85.868c4.136,0,7.5,3.364,7.5,7.5s-3.364,7.5-7.5,7.5S3,97.503,3,93.368S6.365,85.868,10.5,85.868 M10.5,83.368
			c-5.523,0-10,4.477-10,10c0,5.523,4.477,10,10,10c5.523,0,10-4.477,10-10C20.5,87.845,16.023,83.368,10.5,83.368L10.5,83.368z"/>
	</g>
	<circle opacity="0.3" cx="10.5" cy="93.368" r="3"/>
	<g>
		<path d="M38.083,85.868c4.136,0,7.5,3.364,7.5,7.5s-3.364,7.5-7.5,7.5s-7.5-3.364-7.5-7.5S33.948,85.868,38.083,85.868
			 M38.083,83.368c-5.523,0-10,4.477-10,10c0,5.523,4.477,10,10,10c5.523,0,10-4.477,10-10
			C48.083,87.845,43.606,83.368,38.083,83.368L38.083,83.368z"/>
	</g>
	<circle cx="38.083" cy="93.368" r="3"/>
	<g>
		<path d="M59.754,31.122l5.774,5.774c0.026,0.026,0.062,0.039,0.097,0.039c0.036,0,0.071-0.013,0.097-0.039l5.774-5.774
			l0.039-0.039c0.093-0.102,0.153-0.235,0.153-0.383c0-0.147-0.059-0.278-0.15-0.38c-0.027-0.024-0.055-0.047-0.083-0.07
			c-1.636-1.38-3.684-2.143-5.829-2.143h0c0,0,0,0,0,0c-2.146,0-4.194,0.763-5.83,2.143c-0.028,0.023-0.055,0.047-0.083,0.07
			c-0.091,0.102-0.15,0.233-0.15,0.38c0,0.149,0.06,0.281,0.153,0.383L59.754,31.122z M61.63,30.702
			c1.192-0.737,2.573-1.127,3.994-1.127c0,0,0,0,0,0l0,0c1.421,0,2.802,0.39,3.994,1.127c0.033,0.02,0.054,0.055,0.059,0.093
			c0.004,0.039-0.009,0.077-0.036,0.104l-3.928,3.928c-0.025,0.025-0.057,0.037-0.089,0.037c-0.033,0-0.065-0.012-0.089-0.037
			l-3.928-3.928c-0.027-0.027-0.041-0.066-0.036-0.104C61.576,30.757,61.598,30.722,61.63,30.702z"/>
		<path d="M64.454,38.106c0-0.036-0.013-0.071-0.039-0.097l-5.774-5.774l-0.039-0.039c-0.102-0.093-0.235-0.153-0.383-0.153
			c-0.147,0-0.278,0.059-0.38,0.15c-0.024,0.027-0.047,0.055-0.07,0.083c-1.38,1.636-2.143,3.684-2.143,5.829v0v0
			c0,2.146,0.763,4.194,2.143,5.829c0.023,0.028,0.047,0.055,0.07,0.083c0.102,0.091,0.233,0.15,0.38,0.15
			c0.149,0,0.281-0.06,0.383-0.153l0.039-0.039l5.774-5.774C64.441,38.178,64.454,38.142,64.454,38.106z M62.346,38.196
			l-3.928,3.928c-0.027,0.027-0.066,0.041-0.104,0.036c-0.038-0.004-0.073-0.026-0.093-0.059c-0.737-1.192-1.127-2.573-1.127-3.994
			l0,0l0,0c0-1.421,0.39-2.802,1.127-3.994c0.02-0.033,0.055-0.054,0.093-0.059c0.039-0.004,0.077,0.009,0.104,0.036l3.928,3.928
			c0.025,0.025,0.037,0.057,0.037,0.089C62.383,38.139,62.37,38.171,62.346,38.196z"/>
		<path d="M71.496,45.09l-5.774-5.774c-0.026-0.026-0.062-0.039-0.097-0.039c-0.036,0-0.071,0.013-0.097,0.039l-5.774,5.774
			l-0.039,0.039c-0.093,0.102-0.153,0.235-0.153,0.383c0,0.147,0.059,0.278,0.15,0.38c0.027,0.024,0.055,0.047,0.083,0.07
			c1.636,1.38,3.684,2.143,5.829,2.143c0,0,0,0,0,0h0c2.146,0,4.194-0.763,5.829-2.143c0.028-0.023,0.055-0.047,0.083-0.07
			c0.091-0.102,0.15-0.233,0.15-0.38c0-0.149-0.06-0.281-0.153-0.383L71.496,45.09z M69.62,45.511
			c-1.192,0.737-2.573,1.127-3.994,1.127l0,0c0,0,0,0,0,0c-1.421,0-2.802-0.39-3.994-1.127c-0.033-0.02-0.054-0.055-0.059-0.093
			c-0.004-0.039,0.009-0.077,0.036-0.104l3.928-3.928c0.025-0.025,0.057-0.037,0.089-0.037c0.033,0,0.065,0.012,0.089,0.037
			l3.928,3.928c0.027,0.027,0.041,0.066,0.036,0.104C69.674,45.456,69.652,45.491,69.62,45.511z"/>
		<path d="M73.482,32.276c-0.023-0.028-0.047-0.055-0.07-0.083c-0.102-0.091-0.233-0.15-0.38-0.15c-0.149,0-0.281,0.06-0.383,0.153
			l-0.039,0.039l-5.774,5.774c-0.026,0.026-0.039,0.062-0.039,0.097c0,0.036,0.013,0.071,0.039,0.097l5.774,5.774l0.039,0.039
			c0.102,0.093,0.235,0.153,0.383,0.153c0.147,0,0.278-0.059,0.38-0.15c0.024-0.027,0.047-0.055,0.07-0.083
			c1.38-1.636,2.143-3.684,2.143-5.829v0v0C75.625,35.96,74.862,33.912,73.482,32.276z M74.157,38.107
			c0,1.421-0.39,2.802-1.127,3.994c-0.02,0.033-0.055,0.054-0.093,0.059c-0.039,0.004-0.077-0.009-0.104-0.036l-3.928-3.928
			c-0.025-0.025-0.037-0.057-0.037-0.09c0-0.033,0.012-0.065,0.037-0.089l3.928-3.928c0.027-0.027,0.066-0.041,0.104-0.036
			c0.038,0.004,0.073,0.026,0.093,0.059C73.767,35.304,74.157,36.685,74.157,38.107L74.157,38.107L74.157,38.107z"/>
	</g>
</g>
</svg>
