<?xml version="1.0" encoding="utf-8"?>
<!-- Generator: Adobe Illustrator 15.0.0, SVG Export Plug-In . SVG Version: 6.00 Build 0)  -->
<!DOCTYPE svg PUBLIC "-//W3C//DTD SVG 1.1//EN" "http://www.w3.org/Graphics/SVG/1.1/DTD/svg11.dtd">
<svg version="1.1" id="Layer_1" xmlns="http://www.w3.org/2000/svg" xmlns:xlink="http://www.w3.org/1999/xlink" x="0px" y="0px"
	 width="166px" height="138px" viewBox="0 0 166 138" enable-background="new 0 0 166 138" xml:space="preserve">
<g>
	<path fill="#EF4625" d="M33.598,56.98c-2.889,3.019-6.775,4.832-10.943,5.103c-1.399,0.091-2.461,1.3-2.37,2.7
		c0.088,1.343,1.205,2.375,2.532,2.375c0.056,0,0.112-0.002,0.169-0.006c5.442-0.354,10.515-2.719,14.283-6.663
		c0.969-1.015,0.934-2.621-0.081-3.591C36.176,55.93,34.567,55.961,33.598,56.98z"/>
	<path fill="#EF4625" d="M14.772,79.918c-0.969,1.014-0.931,2.623,0.083,3.592c3.021,2.885,4.833,6.771,5.103,10.939
		c0.088,1.344,1.204,2.377,2.532,2.377c0.056,0,0.111-0.002,0.167-0.006c1.401-0.092,2.462-1.301,2.371-2.699
		c-0.352-5.445-2.718-10.518-6.664-14.287C17.349,78.867,15.743,78.9,14.772,79.918z"/>
	<path fill="#EF4625" d="M97.279,124.045c0.668,0,1.338-0.262,1.834-0.785c2.89-3.018,6.775-4.832,10.945-5.102
		c1.398-0.092,2.461-1.301,2.369-2.701c-0.091-1.398-1.252-2.451-2.699-2.369c-5.441,0.354-10.518,2.719-14.285,6.664
		c-0.969,1.014-0.935,2.621,0.082,3.59C96.016,123.812,96.646,124.045,97.279,124.045z"/>
	<path fill="#EF4625" d="M164.514,74.693L76.689,1c-1.252-1.048-3.121-0.885-4.174,0.365l-34.202,40.76
		c-1.052,1.253-0.888,3.124,0.365,4.175l4.805,4.032l-20.881-7.6c-1.531-0.562-3.238,0.23-3.798,1.771l-18.199,50
		C0.047,96.04,0.839,97.741,2.377,98.3l63.092,22.966c0.004,0,0.008,0.002,0.012,0.004l44.629,16.244
		c0.334,0.12,0.677,0.178,1.015,0.178c1.21,0,2.347-0.744,2.785-1.949l7.338-20.158l5.258,4.412
		c0.556,0.465,1.231,0.691,1.903,0.691c0.845,0,1.685-0.359,2.271-1.058l34.2-40.76C165.932,77.615,165.768,75.746,164.514,74.693z
		 M109.822,36.54l13.941,11.698c3.164,8.221,1.055,18.441-5.496,26.248c-6.553,7.81-16.254,11.664-24.896,9.97L79.428,72.757
		c-3.164-8.221-1.053-18.442,5.497-26.249C91.477,38.7,101.186,34.846,109.822,36.54z M75.15,7.447l27.371,22.967
		c-8.17,0.925-16.252,5.271-22.135,12.285c-5.884,7.012-8.763,15.728-8.257,23.933L44.76,43.665L75.15,7.447z M7.189,93.744
		l16.172-44.43l33.398,12.156l0.119,0.1c-7.332,3.672-13.419,10.504-16.541,19.08c-3.13,8.603-2.852,17.777,0.43,25.314
		L7.189,93.744z M49.722,109.225c-5.787-6.641-7.301-16.971-3.816-26.547c2.95-8.102,8.992-14.297,16.053-16.844l8.184,6.868
		c-0.164,0.207-0.306,0.437-0.4,0.694l-0.836,2.302c-4.832-0.818-9.258,1.139-10.674,5.018c-2.115,5.82,4.325,9.976,6.749,11.539
		c3.623,2.343,5.213,4.205,4.729,5.539c-0.572,1.563-3.434,2.5-6.631,1.336c-2.844-1.037-4.357-3.155-4.337-4.623
		c0.018-1.401-1.103-2.555-2.505-2.575c-0.012,0-0.023,0-0.035,0c-1.387,0-2.52,1.114-2.54,2.506
		c-0.045,3.266,2.057,6.397,5.383,8.354l-0.844,2.319c-0.48,1.318,0.2,2.775,1.518,3.255c0.286,0.104,0.58,0.153,0.868,0.153
		c1.037,0,2.012-0.641,2.387-1.672l0.834-2.297c0.728,0.123,1.445,0.189,2.146,0.188c3.95,0,7.329-1.912,8.53-5.209
		c2.115-5.818-4.323-9.979-6.748-11.544c-3.623-2.34-5.213-4.2-4.729-5.534c0.572-1.565,3.432-2.5,6.631-1.336
		c2.818,1.024,4.338,3.133,4.338,4.592c0,1.401,1.137,2.541,2.539,2.541s2.541-1.14,2.541-2.541c0-3.226-2.1-6.317-5.384-8.254
		l0.499-1.373L88.624,88.21c-0.104,3.099-0.69,6.265-1.815,9.354c-3.485,9.576-11.283,16.517-19.986,17.886L49.722,109.225z
		 M109.354,130.93l-33.578-12.221c7.359-3.664,13.471-10.514,16.602-19.115c0.814-2.238,1.367-4.514,1.721-6.791l22.316,18.727
		L109.354,130.93z M128.043,113.549l-27.357-22.957c8.164-0.928,16.242-5.287,22.123-12.295c5.883-7.014,8.762-15.73,8.254-23.936
		l27.371,22.967L128.043,113.549z"/>
	<path fill="#EF4625" d="M88.805,71.791c-0.902,1.074-0.762,2.676,0.313,3.578c0.475,0.398,1.055,0.594,1.63,0.594
		c0.727,0,1.445-0.309,1.947-0.908l1.591-1.893c1.59,0.895,3.296,1.459,4.987,1.574c0.226,0.016,0.445,0.022,0.666,0.022
		c2.461,0,4.646-0.944,6.074-2.645c3.979-4.744-0.65-10.851-2.394-13.152c-2.604-3.438-3.466-5.731-2.552-6.819
		c1.072-1.274,4.078-1.177,6.688,1.013c2.297,1.928,3.006,4.427,2.508,5.797c-0.48,1.319,0.197,2.774,1.516,3.256
		c1.318,0.478,2.775-0.196,3.257-1.517c1.103-3.029,0.188-6.653-2.233-9.598l1.586-1.889c0.902-1.075,0.762-2.678-0.312-3.578
		c-1.075-0.902-2.677-0.759-3.578,0.311l-1.583,1.886c-4.26-2.415-9.084-2.103-11.736,1.055c-3.979,4.744,0.651,10.854,2.394,13.154
		c2.604,3.436,3.462,5.729,2.551,6.817c-0.685,0.814-1.867,0.861-2.503,0.818c-1.387-0.094-2.91-0.76-4.186-1.83
		c-2.318-1.945-3.018-4.453-2.494-5.826c0.498-1.311-0.159-2.777-1.473-3.275c-1.308-0.491-2.777,0.158-3.277,1.472
		c-1.159,3.054-0.258,6.717,2.199,9.694L88.805,71.791z"/>
	<path fill="#EF4625" d="M84.398,22.703c1.258-0.622,1.772-2.145,1.15-3.403c-0.622-1.257-2.146-1.774-3.402-1.151
		c-3.744,1.852-8.017,2.222-12.027,1.055c-1.338-0.392-2.756,0.377-3.148,1.726c-0.394,1.346,0.379,2.756,1.727,3.148
		c2.001,0.585,4.051,0.875,6.093,0.875C78.094,24.953,81.378,24.196,84.398,22.703z"/>
	<path fill="#EF4625" d="M56.614,33.266c-1.257,0.623-1.773,2.146-1.151,3.403c1.85,3.744,2.226,8.017,1.055,12.028
		c-0.394,1.346,0.379,2.756,1.726,3.147c0.236,0.069,0.477,0.104,0.713,0.104c1.1,0,2.113-0.72,2.436-1.829
		c1.53-5.237,1.041-10.812-1.375-15.702C59.395,33.16,57.871,32.645,56.614,33.266z"/>
	<path fill="#EF4625" d="M145.454,87.99c0.379,0,0.762-0.084,1.123-0.264c1.258-0.623,1.774-2.146,1.153-3.4
		c-1.852-3.748-2.226-8.02-1.055-12.029c0.395-1.346-0.379-2.756-1.725-3.15c-1.346-0.392-2.758,0.379-3.15,1.727
		c-1.529,5.234-1.042,10.812,1.374,15.701C143.618,87.471,144.518,87.99,145.454,87.99z"/>
	<path fill="#EF4625" d="M118.795,98.289c-1.257,0.621-1.773,2.145-1.15,3.402c0.442,0.895,1.342,1.414,2.278,1.414
		c0.379,0,0.763-0.084,1.124-0.265c3.744-1.848,8.014-2.228,12.025-1.053c1.345,0.394,2.757-0.379,3.15-1.726
		c0.395-1.346-0.38-2.756-1.726-3.149C129.262,95.385,123.688,95.871,118.795,98.289z"/>
</g>
</svg>
