<?xml version="1.0" encoding="utf-8"?>
<!-- Generator: Adobe Illustrator 15.0.0, SVG Export Plug-In . SVG Version: 6.00 Build 0)  -->
<!DOCTYPE svg PUBLIC "-//W3C//DTD SVG 1.1//EN" "http://www.w3.org/Graphics/SVG/1.1/DTD/svg11.dtd">
<svg version="1.1" id="Layer_1" xmlns="http://www.w3.org/2000/svg" xmlns:xlink="http://www.w3.org/1999/xlink" x="0px" y="0px"
	 width="133px" height="130px" viewBox="0 0 133 130" enable-background="new 0 0 133 130" xml:space="preserve">
<g>
	<path fill="#EF4625" d="M100.486,92.109c-1.637,0-2.963,1.326-2.963,2.965v6.771c0,1.637,1.326,2.963,2.963,2.963
		c1.638,0,2.964-1.326,2.964-2.963v-6.771C103.45,93.438,102.124,92.109,100.486,92.109z"/>
	<path fill="#EF4625" d="M103.45,57.823c0-1.637-1.326-2.963-2.964-2.963c-1.637,0-2.963,1.326-2.963,2.963v6.773
		c0,1.636,1.326,2.962,2.963,2.962c1.638,0,2.964-1.326,2.964-2.962V57.823z"/>
	<path fill="#EF4625" d="M103.45,76.449c0-1.639-1.326-2.965-2.964-2.965c-1.637,0-2.963,1.326-2.963,2.965v6.771
		c0,1.637,1.326,2.963,2.963,2.963c1.638,0,2.964-1.326,2.964-2.963V76.449z"/>
	<path fill="#EF4625" d="M71.061,92.109c-1.637,0-2.963,1.326-2.963,2.965v6.771c0,1.637,1.326,2.963,2.963,2.963
		c1.639,0,2.963-1.326,2.963-2.963v-6.771C74.023,93.438,72.698,92.109,71.061,92.109z"/>
	<path fill="#EF4625" d="M74.023,57.823c0-1.637-1.325-2.963-2.963-2.963s-2.963,1.326-2.963,2.963v6.773
		c0,1.636,1.325,2.962,2.963,2.962s2.963-1.326,2.963-2.962V57.823z"/>
	<path fill="#EF4625" d="M74.023,76.449c0-1.639-1.325-2.965-2.963-2.965s-2.963,1.326-2.963,2.965v6.771
		c0,1.637,1.325,2.963,2.963,2.963s2.963-1.326,2.963-2.963V76.449z"/>
	<path fill="#EF4625" d="M41.633,92.109c-1.638,0-2.964,1.326-2.964,2.965v6.771c0,1.637,1.326,2.963,2.964,2.963
		c1.637,0,2.963-1.326,2.963-2.963v-6.771C44.598,93.438,43.27,92.109,41.633,92.109z"/>
	<path fill="#EF4625" d="M129.915,112.029c-1.638,0-2.963,1.326-2.963,2.965v3.051H103.45v-4.346c0-1.639-1.326-2.965-2.964-2.965
		c-1.637,0-2.963,1.326-2.963,2.965v4.346h-23.5v-4.346c0-1.639-1.325-2.965-2.963-2.965s-2.963,1.326-2.963,2.965v4.346h-23.5
		v-4.346c0-1.639-1.326-2.965-2.964-2.965c-1.637,0-2.963,1.326-2.963,2.965v4.346H12.065V75.74l26.605,5.355v2.123
		c0,1.637,1.326,2.963,2.963,2.963s2.963-1.326,2.963-2.963v-3.631l23.502-34.242v0.622c0,1.638,1.325,2.964,2.963,2.964
		s2.963-1.326,2.963-2.964v-6.772c0-0.199-0.021-0.396-0.06-0.586l24.192-1.226c-0.391,0.502-0.633,1.125-0.633,1.812v6.772
		c0,1.638,1.326,2.964,2.963,2.964s2.963-1.326,2.963-2.964v-6.772c0-1.019-0.514-1.915-1.295-2.449
		c0.152-0.104,0.297-0.221,0.428-0.354l21.59-21.588v8.243c0,1.637,1.326,2.963,2.963,2.963s2.963-1.326,2.963-2.963V7.686
		c0-0.005-0.002-0.01-0.002-0.015c0.004-0.764-0.283-1.528-0.867-2.111c-0.662-0.663-1.559-0.933-2.422-0.837H111.77
		c-1.637,0-2.963,1.326-2.963,2.963s1.326,2.963,2.963,2.963h8.182L99.2,31.399l-28.289,1.434c-0.925,0.049-1.771,0.521-2.293,1.283
		L41.596,73.488l-1.298,1.891l-1.301-0.262l-26.933-5.422V5.938h3.054c1.637,0,2.963-1.326,2.963-2.963
		c0-1.637-1.326-2.963-2.963-2.963H3.085c-1.637,0-2.963,1.326-2.963,2.963c0,1.637,1.326,2.963,2.963,2.963h3.053v66.188
		c0,0,0,0.01,0,0.016v48.867c0,1.637,1.326,2.963,2.963,2.963h117.851v3.051c0,1.639,1.325,2.963,2.963,2.963
		c1.637,0,2.963-1.324,2.963-2.963v-12.029C132.878,113.355,131.552,112.029,129.915,112.029z"/>
</g>
</svg>
