<?xml version="1.0" encoding="utf-8"?>
<!-- Generator: Adobe Illustrator 15.0.0, SVG Export Plug-In . SVG Version: 6.00 Build 0)  -->
<!DOCTYPE svg PUBLIC "-//W3C//DTD SVG 1.1//EN" "http://www.w3.org/Graphics/SVG/1.1/DTD/svg11.dtd">
<svg version="1.1" id="Layer_1" xmlns="http://www.w3.org/2000/svg" xmlns:xlink="http://www.w3.org/1999/xlink" x="0px" y="0px"
	 width="135px" height="140px" viewBox="0 0 135 140" enable-background="new 0 0 135 140" xml:space="preserve">
<g>
	<path fill="#EF4625" d="M31.413,64.391c0.496,0.496,1.146,0.744,1.796,0.744s1.3-0.248,1.796-0.744l3.51-3.508l3.508,3.508
		c0.496,0.496,1.146,0.744,1.797,0.744s1.3-0.248,1.796-0.744c0.991-0.991,0.991-2.598,0-3.592l-3.509-3.509l3.509-3.51
		c0.991-0.991,0.991-2.599,0-3.592c-0.992-0.992-2.599-0.992-3.593,0l-3.508,3.51l-3.51-3.51c-0.992-0.992-2.599-0.992-3.592,0
		c-0.992,0.992-0.992,2.6,0,3.592l3.509,3.51l-3.509,3.509C30.421,61.792,30.421,63.399,31.413,64.391z"/>
	<path fill="#EF4625" d="M104.329,51.987c0-0.328-0.066-0.639-0.18-0.927c-0.006-0.013-0.008-0.026-0.012-0.038
		c-0.26-0.625-0.759-1.125-1.384-1.383c-0.013-0.005-0.024-0.007-0.039-0.012c-0.286-0.113-0.598-0.18-0.926-0.18H86.786
		c-1.4,0-2.54,1.138-2.54,2.539c0,1.402,1.14,2.541,2.54,2.541h8.871L41.96,108.226c-1.045-0.514-2.205-0.83-3.447-0.83
		c-4.339,0-7.867,3.529-7.867,7.869c0,4.338,3.528,7.867,7.867,7.867c4.34,0,7.868-3.529,7.868-7.867
		c0-1.242-0.315-2.402-0.829-3.447L99.249,58.12v8.871c0,1.401,1.139,2.539,2.54,2.539s2.54-1.138,2.54-2.539V51.987L104.329,51.987
		z M38.515,118.05c-1.539,0-2.789-1.25-2.789-2.787c0-1.539,1.25-2.789,2.789-2.789c1.537,0,2.787,1.25,2.787,2.789
		C41.302,116.8,40.052,118.05,38.515,118.05z"/>
	<path fill="#EF4625" d="M31.413,93.378c0.496,0.494,1.146,0.742,1.796,0.742s1.3-0.248,1.796-0.742l3.51-3.51l3.508,3.51
		c0.496,0.494,1.146,0.742,1.797,0.742s1.3-0.248,1.796-0.742c0.991-0.992,0.991-2.6,0-3.594l-3.509-3.508l3.509-3.511
		c0.991-0.991,0.991-2.598,0-3.592c-0.992-0.992-2.599-0.992-3.593,0l-3.508,3.51l-3.51-3.51c-0.992-0.992-2.599-0.992-3.592,0
		c-0.992,0.992-0.992,2.601,0,3.592l3.509,3.511l-3.509,3.508C30.421,90.778,30.421,92.386,31.413,93.378z"/>
	<path fill="#EF4625" d="M103.585,79.177c-0.992-0.992-2.6-0.992-3.592,0l-3.51,3.508l-3.508-3.508
		c-0.992-0.992-2.601-0.992-3.594,0c-0.99,0.992-0.99,2.598,0,3.592l3.51,3.508l-3.51,3.51c-0.99,0.992-0.99,2.601,0,3.593
		c0.496,0.496,1.146,0.744,1.797,0.744c0.649,0,1.301-0.248,1.797-0.744l3.508-3.511l3.51,3.511
		c0.496,0.496,1.146,0.744,1.796,0.744s1.3-0.248,1.796-0.744c0.992-0.992,0.992-2.601,0-3.593l-3.509-3.51l3.509-3.508
		C104.577,81.776,104.577,80.169,103.585,79.177z"/>
	<path fill="#EF4625" d="M103.585,108.161c-0.992-0.992-2.6-0.992-3.592,0l-3.51,3.51l-3.508-3.51c-0.992-0.992-2.601-0.992-3.594,0
		c-0.99,0.992-0.99,2.6,0,3.592l3.51,3.51l-3.51,3.508c-0.99,0.992-0.99,2.6,0,3.592c0.496,0.496,1.146,0.744,1.797,0.744
		c0.649,0,1.301-0.248,1.797-0.744l3.508-3.508l3.51,3.508c0.496,0.496,1.146,0.744,1.796,0.744s1.3-0.248,1.796-0.744
		c0.992-0.992,0.992-2.598,0-3.592l-3.509-3.508l3.509-3.51C104.577,110.761,104.577,109.153,103.585,108.161z"/>
	<path fill="#EF4625" d="M59.632,115.263c0,4.338,3.529,7.867,7.868,7.867s7.868-3.529,7.868-7.867c0-4.34-3.529-7.869-7.868-7.869
		C63.16,107.394,59.632,110.923,59.632,115.263z M70.287,115.263c0,1.537-1.25,2.787-2.788,2.787s-2.788-1.25-2.788-2.787
		c0-1.539,1.25-2.789,2.788-2.789S70.287,113.724,70.287,115.263z"/>
	<path fill="#EF4625" d="M75.367,56.83c0-4.337-3.529-7.866-7.868-7.866s-7.868,3.529-7.868,7.866c0,4.339,3.529,7.868,7.868,7.868
		S75.367,61.169,75.367,56.83z M64.711,56.83c0-1.536,1.25-2.786,2.788-2.786s2.788,1.25,2.788,2.786
		c0,1.538-1.25,2.788-2.788,2.788S64.711,58.368,64.711,56.83z"/>
	<path fill="#EF4625" d="M126.306,21.75H70.463v-4.78c3.369-1.221,5.798-4.423,5.798-8.209c0-4.83-3.932-8.761-8.762-8.761
		s-8.762,3.931-8.762,8.761c0,3.785,2.429,6.988,5.798,8.209v4.78H8.694c-4.766,0-8.642,3.721-8.642,8.294
		c0,3.495,2.271,6.477,5.467,7.695v98.98c0,1.637,1.326,2.963,2.963,2.963h118.035c1.637,0,2.963-1.326,2.963-2.963V57.948
		c0-1.638-1.326-2.963-2.963-2.963s-2.963,1.325-2.963,2.963v75.809H11.445V38.336h112.109v8.147c0,1.637,1.325,2.963,2.963,2.963
		c1.637,0,2.963-1.326,2.963-2.963v-8.744c3.194-1.219,5.468-4.201,5.468-7.695C134.946,25.47,131.069,21.75,126.306,21.75z
		 M67.499,5.927c1.562,0,2.834,1.272,2.834,2.834c0,1.563-1.271,2.834-2.834,2.834s-2.834-1.272-2.834-2.834
		C64.665,7.198,65.937,5.927,67.499,5.927z M126.306,32.409H8.694c-1.496,0-2.715-1.062-2.715-2.365
		c0-1.306,1.219-2.368,2.715-2.368h117.612c1.495,0,2.715,1.062,2.715,2.368C129.021,31.349,127.801,32.409,126.306,32.409z"/>
</g>
</svg>
