<?xml version="1.0" encoding="utf-8"?>
<!-- Generator: Adobe Illustrator 15.0.0, SVG Export Plug-In . SVG Version: 6.00 Build 0)  -->
<!DOCTYPE svg PUBLIC "-//W3C//DTD SVG 1.1//EN" "http://www.w3.org/Graphics/SVG/1.1/DTD/svg11.dtd">
<svg version="1.1" id="Layer_1" xmlns="http://www.w3.org/2000/svg" xmlns:xlink="http://www.w3.org/1999/xlink" x="0px" y="0px"
	 width="147px" height="164px" viewBox="0 0 147 164" enable-background="new 0 0 147 164" xml:space="preserve">
<g>
	<path fill="#EF4625" d="M127.436,129.875c-1.637,0-2.963,1.326-2.963,2.963v25.152H79.145c-1.637,0-2.963,1.324-2.963,2.963
		c0,1.637,1.326,2.963,2.963,2.963h48.291c1.639,0,2.963-1.326,2.963-2.963v-28.116C130.4,131.201,129.074,129.875,127.436,129.875z
		"/>
	<path fill="#EF4625" d="M34.246,49.313c0.354,8.492,11.066,14.41,20.458,14.41c5.803,0,10.013,4.512,10.013,10.729v7.202
		c0,1.637,1.325,2.963,2.963,2.963c1.637,0,2.963-1.326,2.963-2.963v-8.733c2.742-3.925,9.778-12.019,16.411-12.019
		c0.025,0,0.049,0,0.072,0c5.381,0.048,9.309,0.442,11.748,0.789c-0.945,2.697-2.84,6.613-6.26,8.545
		c-2.91,1.64-6.607,1.609-10.988-0.103c-1.523-0.592-3.242,0.16-3.838,1.685c-0.594,1.525,0.16,3.244,1.684,3.839
		c2.953,1.151,5.738,1.726,8.342,1.726c2.789,0,5.367-0.662,7.713-1.986c7.996-4.514,9.912-15.094,9.99-15.541
		c0.264-1.523-0.688-2.994-2.184-3.377c-0.227-0.058-5.617-1.41-16.152-1.503c-6.533-0.09-12.477,4.507-16.537,8.71v-2.08
		c0-3.715,1.025-6.604,6.13-9.528c9.188-5.267,15.57-12.225,17.072-18.614c1.77-7.532-3.234-28.719-3.812-31.11
		c-0.24-0.997-0.98-1.799-1.955-2.12c-0.971-0.322-2.043-0.112-2.83,0.546c-0.291,0.243-7.193,6.085-12.544,14.637
		c-7.401,11.83-8.192,23.064-2.287,32.489c0.197,0.313,0.445,0.579,0.724,0.79c-5.481,4.134-6.379,8.804-6.422,12.605
		c-2.699-2.214-6.155-3.506-10.015-3.506c-6.379,0-14.34-4.028-14.537-8.729c-0.137-3.332-0.066-8.05,0.002-12.613
		c0.046-3.023,0.089-5.938,0.076-8.44c5.219,3.709,15.404,13.662,17.287,20.025c0.319,1.08,0.243,1.673,0.112,1.809
		c-1.133,1.182-1.091,3.057,0.089,4.19c1.184,1.131,3.057,1.091,4.19-0.089c2.723-2.842,2.317-7.176-1.209-12.88
		c-4.278-6.922-18.394-21.93-23.955-20.218c-1.616,0.501-2.604,1.988-2.518,3.787c0.136,2.846,0.069,7.16,0.002,11.728
		C34.173,41.01,34.101,45.812,34.246,49.313z M85.416,8.83c1.797,8.504,3.559,19.464,2.662,23.279
		c-1,4.253-5.717,9.452-12.25,13.617c-0.068-0.334-0.197-0.661-0.389-0.967C66.855,31.059,78.934,15.614,85.416,8.83z"/>
	<path fill="#EF4625" d="M146.166,119.902L130.01,91.646c-0.018-0.031-0.043-0.058-0.062-0.088c-0.057-0.088-0.117-0.17-0.18-0.25
		c-0.059-0.074-0.115-0.148-0.178-0.217c-0.066-0.07-0.139-0.132-0.211-0.195c-0.07-0.062-0.141-0.125-0.217-0.181
		c-0.082-0.059-0.166-0.104-0.254-0.155c-0.076-0.045-0.152-0.09-0.234-0.127c-0.094-0.043-0.189-0.076-0.289-0.109
		c-0.084-0.028-0.166-0.059-0.252-0.078c-0.096-0.023-0.193-0.037-0.293-0.051c-0.098-0.014-0.195-0.027-0.293-0.031
		c-0.037,0-0.074-0.01-0.111-0.01H19.563c-0.035,0-0.068,0.008-0.103,0.01c-0.108,0.004-0.214,0.018-0.32,0.031
		c-0.089,0.014-0.177,0.025-0.264,0.045c-0.098,0.023-0.191,0.057-0.286,0.09c-0.086,0.029-0.172,0.059-0.255,0.096
		c-0.092,0.042-0.179,0.094-0.267,0.145c-0.075,0.046-0.151,0.089-0.222,0.138c-0.084,0.062-0.162,0.129-0.24,0.199
		c-0.066,0.058-0.131,0.114-0.192,0.178c-0.067,0.072-0.127,0.149-0.188,0.228c-0.061,0.08-0.12,0.158-0.173,0.244
		c-0.019,0.03-0.045,0.057-0.063,0.088L0.833,119.9c-0.524,0.918-0.521,2.047,0.01,2.959c0.531,0.914,1.506,1.477,2.563,1.477H16.6
		v36.617c0,1.638,1.326,2.963,2.963,2.963H67.68c1.637,0,2.963-1.325,2.963-2.963c0-0.391,0-1.811,0-2.201v-54.48l10.619,18.572
		c0.527,0.924,1.51,1.492,2.574,1.492h59.758c1.057,0,2.031-0.562,2.562-1.477C146.688,121.947,146.689,120.82,146.166,119.902z
		 M21.284,96.082h41.289l-12.769,22.33H8.514L21.284,96.082z M22.527,124.338h28.997c1.063,0,2.045-0.568,2.573-1.492l10.621-18.574
		v53.72H22.527V124.338z M85.555,118.41L72.788,96.08h52.929l12.77,22.33H85.555z"/>
</g>
</svg>
