<?xml version="1.0" encoding="utf-8"?>
<!-- Generator: Adobe Illustrator 17.0.0, SVG Export Plug-In . SVG Version: 6.00 Build 0)  -->
<!DOCTYPE svg PUBLIC "-//W3C//DTD SVG 1.1//EN" "http://www.w3.org/Graphics/SVG/1.1/DTD/svg11.dtd">
<svg version="1.1" id="Layer_1" xmlns="http://www.w3.org/2000/svg" xmlns:xlink="http://www.w3.org/1999/xlink" x="0px" y="0px"
	 width="1260px" height="1260px" viewBox="0 0 1260 1260" enable-background="new 0 0 1260 1260" xml:space="preserve">
<path opacity="0.2" fill="#8BB8E3" d="M478.181,270.552c10.512-4.446,21.175-8.384,31.958-11.869
	c19.359-6.257,39.126-10.969,59.223-14.102c19.935-3.108,40.188-4.691,60.681-4.691h0.001c52.662,0,103.755,10.316,151.862,30.662
	c8.273,3.499,16.391,7.277,24.356,11.31c35.638,18.041,68.138,41.375,96.914,69.602l43.81-43.81
	c-33.654-33.102-71.589-60.3-112.543-81.101c-62.571-31.78-132.188-48.62-204.399-48.62h-0.001c-23.795,0-47.302,1.855-70.376,5.441
	c-23.413,3.638-46.372,9.08-68.71,16.273c-66.184,21.31-126.922,57.902-177.858,108.003l43.815,43.815
	C392.12,316.93,432.895,289.708,478.181,270.552z"/>
<path opacity="0.2" fill="#FFCF2B" d="M989.519,478.165c0.078,0.183,0.148,0.368,0.226,0.552
	c6.631,15.746,12.172,31.816,16.646,48.151c8.948,32.669,13.565,66.414,13.764,100.842c0.004,0.774,0.028,1.544,0.028,2.318
	c0,33.713-4.25,66.779-12.631,98.835c-4.303,16.456-9.707,32.641-16.188,48.511c-0.615,1.506-1.21,3.017-1.844,4.516
	c-19.153,45.283-46.375,86.058-80.913,121.267l43.81,43.809c41.903-42.602,74.37-92.054,96.339-145.82
	c7.468-18.277,13.702-37.058,18.704-56.231c9.665-37.052,14.679-75.582,14.679-114.887c0-0.774-0.024-1.544-0.028-2.318
	c-0.2-40.032-5.56-79.253-15.784-116.902c-5.174-19.055-11.605-37.699-19.226-55.849c-21.935-52.246-53.822-100.332-94.705-141.892
	l-43.81,43.81C943.133,392.09,970.362,432.874,989.519,478.165z"/>
<path opacity="0.2" fill="#DDA651" d="M270.569,781.89c-0.635-1.5-1.229-3.011-1.844-4.517
	c-6.481-15.87-11.885-32.055-16.188-48.511c-8.381-32.056-12.631-65.121-12.631-98.834c0-0.774,0.024-1.544,0.028-2.318
	c0.198-34.428,4.815-68.173,13.764-100.842h0c4.526-16.526,10.137-32.782,16.871-48.704c19.159-45.295,46.387-86.077,80.934-121.288
	l-43.815-43.815c-55.086,55.999-93.856,123.839-113.926,197.747h0c-10.224,37.648-15.584,76.869-15.784,116.901
	c-0.004,0.774-0.028,1.544-0.028,2.318c0,39.305,5.014,77.834,14.679,114.886c5.002,19.173,11.236,37.954,18.703,56.231
	c21.969,53.767,54.436,103.219,96.339,145.822l43.81-43.81C316.943,867.948,289.723,827.173,270.569,781.89z"/>
<path opacity="0.2" fill="#9FD9DB" d="M781.906,989.503c-10.069,4.259-20.277,8.052-30.595,11.429
	c-19.563,6.403-39.548,11.219-59.87,14.426c-20.166,3.182-40.656,4.807-61.397,4.807h-0.001
	c-52.666,0-103.759-10.316-151.863-30.662c-8.923-3.774-17.665-7.871-26.231-12.266c-34.912-17.91-66.783-40.924-95.06-68.666
	l-43.81,43.81c33.146,32.604,70.447,59.475,110.694,80.155c10.958,5.631,22.124,10.823,33.496,15.523
	c0.395,0.162,0.787,0.328,1.182,0.489c2.661,1.091,5.337,2.144,8.018,3.184c1.353,0.522,2.71,1.038,4.07,1.548
	c1.163,0.438,2.331,0.863,3.498,1.291c3.208,1.173,6.428,2.318,9.669,3.421c0.179,0.061,0.357,0.122,0.536,0.183
	c45.766,15.498,94.801,23.905,145.801,23.905c24.186,0,47.923-1.909,71.086-5.548c23.782-3.737,46.943-9.331,69.349-16.606
	c12.012-3.9,23.799-8.297,35.349-13.146c1.493-0.63,2.987-1.258,4.474-1.904c0.969-0.419,1.937-0.84,2.903-1.266
	c49.124-21.776,94.393-52.464,133.8-91.229l-43.81-43.811C867.98,943.118,827.197,970.348,781.906,989.503z"/>
<g>
	<path fill="#454333" d="M954.264,358.626c2.505-2.063,5.673-1.777,7.867,0.889c0.776,0.942,1.1,1.715,1.19,2.432l-1.724,1.419
		c-0.087-0.99-0.363-1.782-1.027-2.588c-1.277-1.55-3.105-1.523-4.704-0.206c-1.712,1.41-2.018,3.159-0.753,4.697
		c0.674,0.819,1.481,1.32,2.28,1.558l-1.625,1.336c-0.871-0.302-1.643-0.936-2.338-1.779
		C951.308,363.804,951.684,360.749,954.264,358.626z"/>
	<path fill="#454333" d="M969.014,368.359l1.495,1.912l-5.204,4.07c-2.151,1.683-4.42,1.417-6.094-0.722
		c-1.673-2.139-1.423-4.375,0.679-6.02l5.292-4.139l1.495,1.91l-5.329,4.169c-1.076,0.843-1.287,1.904-0.553,2.842
		c0.732,0.936,1.813,0.988,2.903,0.136L969.014,368.359z"/>
	<path fill="#454333" d="M973.699,378.983c-0.126-0.949-0.38-1.803-0.994-2.628c-0.576-0.773-1.132-0.9-1.596-0.555
		c-0.438,0.326-0.523,0.831-0.127,2.359c0.48,1.828,0.51,3.188-0.985,4.302c-1.547,1.151-3.549,0.698-4.97-1.211
		c-0.815-1.096-1.147-2.052-1.269-2.943l1.818-1.353c0.022,1.187,0.353,2.142,0.978,2.981c0.576,0.773,1.28,0.991,1.821,0.587
		c0.541-0.402,0.607-1.013,0.179-2.638c-0.466-1.756-0.342-3.072,0.946-4.032c1.393-1.036,3.378-0.631,4.846,1.342
		c0.692,0.928,0.937,1.526,1.133,2.462L973.699,378.983z"/>
	<path fill="#454333" d="M979.892,386.617l-1.622-2.28l-7.154,5.088l-1.407-1.979l7.154-5.088l-1.631-2.293l1.677-1.193l4.659,6.552
		L979.892,386.617z"/>
	<path fill="#454333" d="M975.905,396.571c-1.785-2.635-1.123-5.356,1.78-7.322c2.861-1.939,5.621-1.534,7.405,1.102
		s1.136,5.347-1.727,7.286C980.463,399.603,977.69,399.208,975.905,396.571z M983.427,391.478c-0.892-1.318-2.502-1.374-4.326-0.139
		c-1.851,1.254-2.425,2.788-1.532,4.106c0.892,1.317,2.529,1.354,4.38,0.102C983.774,394.312,984.32,392.797,983.427,391.478z"/>
	<path fill="#454333" d="M989.439,397.081l1.625,2.568l-2.662,3.434c-1.446,1.867-1.955,2.265-2.529,2.742
		c0.659-0.341,1.269-0.611,3.544-1.136l4.226-0.961l1.513,2.393l-8.603,6.677l-1.324-2.094l3.375-2.514
		c1.582-1.172,2.066-1.611,2.931-2.196c-0.934,0.477-1.765,0.698-3.619,1.108l-3.902,0.87l-1.006-1.591l2.441-3.181
		c0.978-1.284,1.739-2.126,2.544-2.807c-0.865,0.586-1.834,1.16-3.163,1.828l-3.771,1.891l-1.323-2.094L989.439,397.081z"/>
	<path fill="#454333" d="M992.889,419.49l-1.77,1.049l-3.435-5.792l9.32-5.526l3.402,5.739l-1.77,1.049l-2.165-3.65l-1.854,1.099
		l1.936,3.263l-1.77,1.049l-1.936-3.263l-2.157,1.28L992.889,419.49z"/>
	<path fill="#454333" d="M994.848,427.126l2.211-3.876l-0.087-0.154l-0.253-0.448l-3.335,1.873l-1.188-2.117l9.446-5.305
		l1.589,2.831c1.386,2.466,1.105,4.559-0.773,5.615c-1.289,0.724-2.591,0.607-3.771-0.315l-2.39,4.477L994.848,427.126z
		 M998.513,421.64l0.465,0.827c0.574,1.022,1.411,1.363,2.253,0.891c0.743-0.417,0.845-1.286,0.269-2.308l-0.463-0.827
		L998.513,421.64z"/>
	<path fill="#454333" d="M1007.214,432.81c0.019-0.957-0.103-1.837-0.586-2.745c-0.453-0.851-0.982-1.06-1.493-0.788
		c-0.481,0.256-0.641,0.741-0.48,2.311c0.199,1.878,0.024,3.224-1.62,4.1c-1.701,0.904-3.61,0.155-4.727-1.942
		c-0.641-1.206-0.824-2.199-0.812-3.097l2-1.064c-0.157,1.175,0.025,2.169,0.516,3.09c0.453,0.851,1.115,1.172,1.71,0.855
		c0.596-0.317,0.753-0.91,0.574-2.579c-0.196-1.806,0.124-3.085,1.541-3.84c1.531-0.815,3.431-0.115,4.586,2.054
		c0.543,1.021,0.695,1.649,0.747,2.603L1007.214,432.81z"/>
</g>
<g>
	<path fill="#454333" d="M1037.344,497.742c1.129,3.504-0.223,5.964-3.405,6.99c-3.259,1.049-5.881-0.486-6.915-3.7l-1.135-3.517
		l10.311-3.323L1037.344,497.742z M1028.972,500.371c0.601,1.867,2.169,2.594,4.188,1.943c1.99-0.641,2.807-2.136,2.202-4.018
		l-0.375-1.163l-6.395,2.06L1028.972,500.371z"/>
	<path fill="#454333" d="M1039.769,505.474l0.698,2.324l-10.374,3.117l-0.698-2.324L1039.769,505.474z"/>
	<path fill="#454333" d="M1040.374,517.097c0.221-0.93,0.288-1.818,0.009-2.807c-0.263-0.927-0.735-1.244-1.293-1.087
		c-0.526,0.148-0.785,0.589-0.96,2.157c-0.205,1.878-0.661,3.159-2.454,3.665c-1.855,0.525-3.562-0.613-4.208-2.901
		c-0.372-1.314-0.339-2.324-0.136-3.2l2.179-0.616c-0.402,1.115-0.435,2.127-0.151,3.132c0.263,0.927,0.842,1.381,1.49,1.199
		c0.65-0.184,0.93-0.731,1.109-2.401c0.191-1.807,0.774-2.991,2.322-3.428c1.67-0.471,3.378,0.616,4.047,2.981
		c0.315,1.114,0.33,1.761,0.179,2.704L1040.374,517.097z"/>
	<path fill="#454333" d="M1043.428,526.386l-0.703-2.706l-8.494,2.206l-0.61-2.35l8.494-2.206l-0.707-2.722l1.991-0.517l2.02,7.778
		L1043.428,526.386z"/>
	<path fill="#454333" d="M1036.625,535.685l3.197-3.115l-0.042-0.173l-0.117-0.501l-3.725,0.879l-0.558-2.363l10.548-2.487
		l0.746,3.162c0.649,2.753-0.2,4.689-2.296,5.183c-1.44,0.341-2.658-0.133-3.54-1.345l-3.535,3.641L1036.625,535.685z
		 M1041.667,531.423l0.217,0.924c0.269,1.142,0.979,1.701,1.919,1.48c0.828-0.194,1.167-1.002,0.898-2.144l-0.218-0.924
		L1041.667,531.423z"/>
	<path fill="#454333" d="M1048.281,538.141l0.513,2.374l-10.595,2.283l-0.511-2.374L1048.281,538.141z"/>
	<path fill="#454333" d="M1050.097,546.916c0.498,2.523-0.296,4.235-2.141,4.598c-1.024,0.202-1.934-0.257-2.495-1.194
		c-0.016,1.329-0.795,2.286-2.055,2.534c-1.94,0.383-3.377-1.005-3.907-3.701l-0.727-3.689l10.625-2.094L1050.097,546.916z
		 M1041.536,548.849c0.211,1.072,0.764,1.635,1.489,1.492c0.756-0.149,1.106-0.873,0.894-1.945l-0.28-1.419l-2.38,0.469
		L1041.536,548.849z M1047.849,546.147l-2.254,0.444l0.236,1.199c0.187,0.945,0.737,1.41,1.414,1.277
		c0.71-0.139,1.027-0.776,0.846-1.689L1047.849,546.147z"/>
	<path fill="#454333" d="M1052.403,559.605l0.408,2.39l-6.509,1.114c-2.692,0.46-4.562-0.849-5.02-3.525
		c-0.459-2.677,0.822-4.526,3.452-4.975l6.619-1.133l0.41,2.392l-6.667,1.141c-1.347,0.23-2.034,1.064-1.834,2.236
		c0.2,1.172,1.127,1.731,2.489,1.498L1052.403,559.605z"/>
	<path fill="#454333" d="M1052.245,572.271l-0.402-2.768l-8.685,1.263l-0.348-2.402l8.683-1.263l-0.404-2.783l2.036-0.296
		l1.156,7.954L1052.245,572.271z"/>
	<path fill="#454333" d="M1054.55,574.032l0.311,2.408l-10.752,1.386l-0.311-2.41L1054.55,574.032z"/>
	<path fill="#454333" d="M1044.828,585.11c-0.342-3.163,1.516-5.256,4.999-5.633c3.435-0.372,5.682,1.277,6.024,4.44
		c0.342,3.163-1.501,5.254-4.934,5.625C1047.433,589.919,1045.17,588.273,1044.828,585.11z M1053.853,584.133
		c-0.17-1.582-1.567-2.384-3.755-2.147c-2.221,0.241-3.446,1.326-3.274,2.907c0.17,1.582,1.598,2.381,3.819,2.141
		C1052.832,586.798,1054.025,585.716,1053.853,584.133z"/>
	<path fill="#454333" d="M1056.496,591.556l0.226,2.869l-4.286,2.707c-1.797,1.141-2.846,1.529-3.33,1.713
		c0.507-0.105,1.573-0.286,3.432-0.432l4.47-0.351l0.191,2.42l-10.8,0.849l-0.226-2.867l4.28-2.771
		c1.703-1.102,2.94-1.57,3.395-1.736c-0.46,0.102-1.728,0.378-3.49,0.517l-4.47,0.351l-0.191-2.419L1056.496,591.556z"/>
</g>
<g>
	<path fill="#454333" d="M1051.792,659.706c3.236,0.259,5.317,2.667,5.041,6.112c-0.097,1.217-0.402,2-0.836,2.577l-2.227-0.178
		c0.626-0.773,0.978-1.535,1.061-2.576c0.161-2.003-1.173-3.256-3.241-3.42c-2.211-0.178-3.649,0.867-3.809,2.855
		c-0.085,1.057,0.148,1.979,0.558,2.704l-2.099-0.167c-0.419-0.824-0.532-1.816-0.445-2.906
		C1046.062,661.374,1048.458,659.438,1051.792,659.706z"/>
	<path fill="#454333" d="M1044.923,673.965c0.333-3.165,2.592-4.816,6.074-4.45c3.435,0.362,5.284,2.447,4.951,5.61
		c-0.333,3.163-2.576,4.816-6.009,4.455C1046.455,679.213,1044.591,677.128,1044.923,673.965z M1053.95,674.914
		c0.166-1.582-1.028-2.661-3.217-2.891c-2.221-0.233-3.646,0.57-3.813,2.151c-0.166,1.582,1.061,2.664,3.281,2.897
		C1052.391,677.303,1053.785,676.495,1053.95,674.914z"/>
	<path fill="#454333" d="M1054.946,683.08l-0.41,3.011l-4.247,0.915c-2.307,0.496-2.952,0.472-3.698,0.468
		c0.725,0.164,1.365,0.348,3.443,1.411l3.851,1.985l-0.383,2.804l-10.878-0.429l0.335-2.453l4.2,0.248
		c1.964,0.121,2.616,0.097,3.656,0.206c-1.022-0.236-1.801-0.602-3.481-1.48l-3.546-1.848l0.254-1.863l3.915-0.863
		c1.573-0.353,2.697-0.508,3.752-0.51c-1.039-0.109-2.15-0.293-3.597-0.637l-4.1-0.981l0.335-2.453L1054.946,683.08z"/>
	<path fill="#454333" d="M1052.394,700.45c-0.465,2.791-2.058,4.238-4.278,3.867c-2.315-0.384-3.416-2.296-2.943-5.135l0.124-0.744
		l-3.458-0.576l0.399-2.395l10.688,1.779L1052.394,700.45z M1047.171,699.712c-0.193,1.157,0.309,1.958,1.356,2.132
		c0.952,0.158,1.623-0.447,1.816-1.604l0.156-0.936l-3.172-0.528L1047.171,699.712z"/>
	<path fill="#454333" d="M1041.359,712.137l-2.021-0.383l1.253-6.616l10.642,2.015l-1.241,6.553l-2.021-0.383l0.789-4.169
		l-2.115-0.401l-0.706,3.727l-2.021-0.383l0.706-3.727l-2.464-0.466L1041.359,712.137z"/>
	<path fill="#454333" d="M1045.999,722.698l0.58-2.736l-8.582-1.824l0.504-2.372l8.583,1.824l0.584-2.752l2.012,0.427l-1.67,7.86
		L1045.999,722.698z"/>
	<path fill="#454333" d="M1047.556,725.13l-0.543,2.366l-10.564-2.425l0.544-2.366L1047.556,725.13z"/>
	<path fill="#454333" d="M1042.614,736.828l0.674-2.715l-8.518-2.118l0.584-2.356l8.519,2.118l0.679-2.731l1.997,0.496l-1.939,7.802
		L1042.614,736.828z"/>
	<path fill="#454333" d="M1044.074,739.323l-0.625,2.345l-10.468-2.786l0.625-2.345L1044.074,739.323z"/>
	<path fill="#454333" d="M1030.884,745.91c0.883-3.057,3.396-4.287,6.763-3.316c3.319,0.96,4.773,3.338,3.89,6.393
		c-0.882,3.057-3.381,4.293-6.7,3.333C1031.47,751.349,1030,748.967,1030.884,745.91z M1039.606,748.43
		c0.442-1.528-0.546-2.8-2.661-3.411c-2.145-0.62-3.691-0.079-4.132,1.448c-0.441,1.529,0.577,2.81,2.722,3.431
		C1037.651,750.509,1039.165,749.959,1039.606,748.43z"/>
	<path fill="#454333" d="M1039.273,756.258l-0.875,2.743l-4.993,0.889c-2.094,0.38-3.214,0.344-3.733,0.33
		c0.51,0.094,1.565,0.329,3.342,0.895l4.275,1.362l-0.737,2.314l-10.328-3.29l0.875-2.743l5.012-0.951
		c1.993-0.378,3.316-0.345,3.798-0.326c-0.463-0.081-1.743-0.302-3.428-0.839l-4.275-1.363l0.737-2.312L1039.273,756.258z"/>
</g>
<g>
	<path fill="#454333" d="M998.567,848.159c-1.311,2.212-3.045,2.961-4.662,2.002c-0.898-0.532-1.271-1.481-1.063-2.555
		c-0.9,0.981-2.117,1.173-3.223,0.517c-1.701-1.008-1.846-3-0.445-5.365l1.919-3.235l9.319,5.525L998.567,848.159z M990.894,843.892
		c-0.558,0.94-0.52,1.728,0.117,2.105c0.664,0.395,1.407,0.087,1.964-0.854l0.737-1.244l-2.087-1.239L990.894,843.892z
		 M997.404,846.088l-1.978-1.172l-0.623,1.051c-0.492,0.83-0.392,1.543,0.203,1.895c0.622,0.369,1.283,0.106,1.758-0.697
		L997.404,846.088z"/>
	<path fill="#454333" d="M982.959,852.895l4.464,0.087l0.094-0.149l0.274-0.435l-3.241-2.034l1.29-2.057l9.178,5.763l-1.727,2.75
		c-1.505,2.396-3.479,3.151-5.304,2.005c-1.253-0.786-1.771-1.985-1.526-3.464l-5.075,0.04L982.959,852.895z M989.534,853.491
		l-0.505,0.803c-0.623,0.994-0.523,1.893,0.293,2.405c0.722,0.453,1.534,0.129,2.159-0.865l0.504-0.804L989.534,853.491z"/>
	<path fill="#454333" d="M978.709,863.39l2.118-3.185l-1.459-1.724l1.405-2.114l7.045,8.969l-1.736,2.609l-10.996-3.026l1.451-2.182
		L978.709,863.39z M980.686,863.99l0.454,0.129c3.362,1.039,3.818,1.226,4.218,1.377c-0.294-0.312-0.638-0.637-2.901-3.357
		l-0.303-0.356L980.686,863.99z"/>
	<path fill="#454333" d="M982.801,872.811l-1.659,2.348l-5.026-0.656c-2.111-0.272-3.166-0.644-3.656-0.813
		c0.457,0.245,1.392,0.786,2.915,1.863l3.662,2.588l-1.401,1.982l-8.846-6.25l1.659-2.35l5.063,0.605
		c2.014,0.241,3.263,0.671,3.718,0.836c-0.417-0.217-1.57-0.813-3.014-1.834l-3.662-2.586l1.401-1.982L982.801,872.811z"/>
	<path fill="#454333" d="M973.615,885.578c-2.203,2.946-4.993,3.269-7.669,1.268c-2.742-2.049-3.006-5.076-0.985-7.779l2.212-2.96
		l8.675,6.486L973.615,885.578z M966.627,880.273c-1.173,1.57-0.86,3.269,0.84,4.54c1.673,1.251,3.366,1.052,4.55-0.531l0.731-0.978
		l-5.38-4.023L966.627,880.273z"/>
</g>
<g>
	<path fill="#454333" d="M806.799,1010.566c-0.954-0.078-1.84-0.012-2.776,0.416c-0.877,0.401-1.12,0.915-0.88,1.441
		c0.227,0.499,0.701,0.688,2.278,0.622c1.887-0.081,3.221,0.176,3.994,1.872c0.798,1.755-0.067,3.615-2.23,4.598
		c-1.244,0.568-2.247,0.688-3.144,0.619l-0.939-2.06c1.164,0.23,2.168,0.108,3.118-0.326c0.878-0.398,1.238-1.04,0.958-1.653
		c-0.28-0.616-0.861-0.807-2.54-0.732c-1.815,0.084-3.072-0.314-3.739-1.776c-0.719-1.579,0.097-3.432,2.333-4.452
		c1.054-0.478,1.691-0.592,2.646-0.586L806.799,1010.566z"/>
	<path fill="#454333" d="M816.97,1012.357l-3.441,1.668l0.381,2.224l-2.284,1.106l-1.513-11.298l2.819-1.366l7.932,8.189
		l-2.356,1.142L816.97,1012.357z M815.572,1010.838l-0.326-0.341c-2.368-2.604-2.665-2.996-2.934-3.328
		c0.096,0.419,0.227,0.87,0.794,4.365l0.081,0.46L815.572,1010.838z"/>
	<path fill="#454333" d="M827.461,1007.19l0.939,1.83l-5.761,2.957l-4.943-9.636l2.159-1.106l4.005,7.803L827.461,1007.19z"/>
	<path fill="#454333" d="M835.041,1003.127l0.975,1.812l-5.931,3.19l-5.132-9.54l5.873-3.16l0.975,1.812l-3.736,2.009l1.019,1.898
		l3.341-1.797l0.975,1.812l-3.341,1.797l1.188,2.206L835.041,1003.127z"/>
	<path fill="#454333" d="M839.116,993.794c-0.958,0.006-1.836,0.152-2.731,0.661c-0.84,0.475-1.036,1.011-0.75,1.513
		c0.269,0.475,0.759,0.625,2.326,0.422c1.873-0.248,3.226-0.108,4.145,1.516c0.949,1.677,0.25,3.606-1.821,4.777
		c-1.19,0.673-2.18,0.882-3.078,0.894l-1.117-1.973c1.179,0.126,2.169-0.084,3.079-0.598c0.839-0.475,1.142-1.145,0.81-1.734
		c-0.333-0.586-0.93-0.729-2.597-0.505c-1.801,0.242-3.09-0.045-3.882-1.441c-0.855-1.513-0.205-3.432,1.936-4.643
		c1.008-0.571,1.632-0.738,2.586-0.816L839.116,993.794z"/>
</g>
<g>
	<path fill="#454333" d="M531.292,1037.181l-2.71-0.683l-2.142,8.506l-2.353-0.592l2.142-8.506l-2.727-0.688l0.502-1.994l7.79,1.963
		L531.292,1037.181z"/>
	<path fill="#454333" d="M538.014,1045.618l-0.46,2.006l-6.567-1.508l2.423-10.562l6.504,1.493l-0.46,2.006l-4.136-0.951l-0.483,2.1
		l3.698,0.849l-0.46,2.006l-3.698-0.849l-0.561,2.446L538.014,1045.618z"/>
	<path fill="#454333" d="M540.183,1042.628c0.656-3.181,3.302-4.949,6.686-4.251c1.196,0.247,1.934,0.646,2.455,1.147l-0.451,2.188
		c-0.689-0.716-1.402-1.158-2.425-1.369c-1.967-0.406-3.374,0.764-3.794,2.795c-0.447,2.172,0.413,3.728,2.365,4.13
		c1.039,0.215,1.982,0.097,2.753-0.22l-0.424,2.063c-0.869,0.312-1.869,0.303-2.939,0.082
		C541.134,1048.52,539.507,1045.902,540.183,1042.628z"/>
	<path fill="#454333" d="M560.055,1040.986l-1.919,10.658l-2.389-0.431l0.818-4.538l-4.015-0.724l-0.819,4.538l-2.387-0.431
		l1.921-10.658l2.387,0.43l-0.737,4.096l4.015,0.723l0.738-4.096L560.055,1040.986z"/>
	<path fill="#454333" d="M562.526,1041.398l2.843,0.433l1.656,4.789c0.701,2.009,0.84,3.118,0.907,3.632
		c0.015-0.517,0.082-1.596,0.363-3.438l0.679-4.432l2.398,0.368l-1.637,10.705l-2.843-0.435l-1.721-4.798
		c-0.683-1.909-0.857-3.218-0.913-3.698c-0.007,0.469-0.027,1.767-0.294,3.514l-0.677,4.431l-2.398-0.366L562.526,1041.398z"/>
	<path fill="#454333" d="M573.877,1043.068l2.405,0.318l-1.416,10.736l-2.407-0.318L573.877,1043.068z"/>
	<path fill="#454333" d="M577.753,1049.013c0.369-3.227,2.846-5.227,6.281-4.836c1.214,0.139,1.985,0.469,2.549,0.922l-0.253,2.221
		c-0.752-0.653-1.502-1.03-2.54-1.148c-1.997-0.227-3.293,1.064-3.529,3.126c-0.251,2.205,0.746,3.679,2.727,3.905
		c1.055,0.12,1.985-0.082,2.724-0.466l-0.238,2.093c-0.837,0.39-1.834,0.471-2.921,0.347
		C579.23,1054.796,577.375,1052.336,577.753,1049.013z"/>
	<path fill="#454333" d="M594.005,1053.991l-3.807-0.339l-0.818,2.105l-2.528-0.224l4.513-10.468l3.12,0.278l2.592,11.101
		l-2.608-0.233L594.005,1053.991z M593.588,1051.971l-0.105-0.462c-0.692-3.447-0.746-3.936-0.804-4.36
		c-0.133,0.407-0.254,0.864-1.564,4.15l-0.167,0.437L593.588,1051.971z"/>
	<path fill="#454333" d="M605.694,1054.94l-0.135,2.054l-6.467-0.423l0.709-10.815l2.423,0.158l-0.574,8.761L605.694,1054.94z"/>
</g>
<g>
	<path fill="#454333" d="M354.685,954.423l-2.901-2.49l-1.888,1.238l-1.927-1.653l9.76-5.893l2.378,2.039l-4.347,10.542
		l-1.987-1.707L354.685,954.423z M355.522,952.536l0.182-0.436c1.443-3.208,1.683-3.635,1.882-4.015
		c-0.345,0.254-0.71,0.553-3.686,2.466l-0.39,0.26L355.522,952.536z"/>
	<path fill="#454333" d="M367.078,953.466c2.857,2.32,3.066,5.121,0.957,7.716c-2.159,2.655-5.195,2.798-7.814,0.67l-2.869-2.332
		l6.831-8.407L367.078,953.466z M361.494,960.235c1.522,1.238,3.233,0.993,4.571-0.655c1.317-1.62,1.187-3.322-0.347-4.568
		l-0.948-0.771l-4.238,5.214L361.494,960.235z"/>
	<path fill="#454333" d="M370.472,969.948l-2.481-1.91l3.785-10.76l2.075,1.599l-1.698,4.493c-1.271,3.283-1.489,3.722-1.667,4.114
		c0.332-0.272,0.68-0.592,3.552-2.661l3.861-2.825l2.012,1.549L370.472,969.948z"/>
	<path fill="#454333" d="M381.384,964.615l1.951,1.447l-6.455,8.706l-1.951-1.447L381.384,964.615z"/>
	<path fill="#454333" d="M388.759,973.243c-0.41-0.867-0.912-1.602-1.749-2.203c-0.785-0.562-1.353-0.511-1.689-0.042
		c-0.318,0.445-0.247,0.951,0.596,2.287c1.014,1.596,1.457,2.885,0.371,4.401c-1.124,1.57-3.169,1.749-5.105,0.362
		c-1.112-0.795-1.719-1.608-2.108-2.419l1.321-1.845c0.381,1.124,0.988,1.934,1.839,2.544c0.785,0.562,1.522,0.556,1.915,0.006
		c0.393-0.55,0.271-1.151-0.632-2.571c-0.981-1.534-1.263-2.822-0.326-4.132c1.01-1.411,3.027-1.629,5.029-0.197
		c0.942,0.676,1.359,1.169,1.83,2.003L388.759,973.243z"/>
	<path fill="#454333" d="M389.821,984.077c-2.631-1.788-3.02-4.562-1.049-7.459c1.943-2.855,4.655-3.501,7.286-1.71
		c2.632,1.791,3.03,4.547,1.087,7.405C395.174,985.21,392.452,985.868,389.821,984.077z M394.927,976.57
		c-1.315-0.897-2.831-0.353-4.069,1.468c-1.257,1.848-1.223,3.483,0.093,4.38c1.315,0.894,2.849,0.323,4.106-1.525
		C396.295,979.073,396.244,977.464,394.927,976.57z"/>
	<path fill="#454333" d="M400.537,990.983l0.133-4.464l-0.148-0.096l-0.434-0.278l-2.067,3.22l-2.042-1.312l5.855-9.115l2.733,1.755
		c2.38,1.531,3.114,3.51,1.949,5.325c-0.8,1.244-2.003,1.749-3.48,1.489l-0.012,5.073L400.537,990.983z M401.201,984.415
		l0.798,0.514c0.987,0.634,1.886,0.544,2.408-0.269c0.46-0.715,0.143-1.531-0.845-2.165l-0.798-0.514L401.201,984.415z"/>
	<path fill="#454333" d="M410.384,992.589l-2.003,3.277l-2.112-1.292l1.972-3.223l0.595-7.905l2.399,1.468l-0.149,1.755
		c-0.184,2.147-0.341,2.897-0.495,3.426c0.387-0.386,1.022-0.9,2.743-2.051l1.44-0.969l2.33,1.426L410.384,992.589z"/>
</g>
<g>
	<path fill="#454333" d="M258.757,434.757l1.83,0.942l-2.966,5.761l-9.634-4.96l1.111-2.157l7.805,4.017L258.757,434.757z"/>
	<path fill="#454333" d="M262.879,427.126l1.809,0.981l-3.211,5.921l-9.524-5.163l3.18-5.864l1.809,0.981l-2.023,3.73l1.894,1.027
		l1.807-3.335l1.809,0.981l-1.807,3.335l2.203,1.196L262.879,427.126z"/>
	<path fill="#454333" d="M269.274,418.022c0.067,1.112-0.135,2.498-0.997,4.003c-1.694,2.957-4.686,3.686-7.586,2.025
		c-2.816-1.614-3.673-4.679-1.955-7.676c0.647-1.13,1.324-1.761,1.963-2.099l1.937,1.109c-0.895,0.432-1.613,1.039-2.165,2.002
		c-0.999,1.743-0.324,3.444,1.474,4.474c1.924,1.103,3.671,0.77,4.661-0.96c0.248-0.432,0.425-0.868,0.528-1.308l-1.547-0.888
		l-0.863,1.507l-1.785-1.022l2.069-3.612L269.274,418.022z"/>
	<path fill="#454333" d="M272.8,409.963l-1.996,3.263l1.525,1.667l-1.326,2.166l-7.379-8.695l1.635-2.674l11.102,2.608l-1.368,2.235
		L272.8,409.963z M270.803,409.439l-0.459-0.111c-3.399-0.912-3.861-1.081-4.268-1.217c0.306,0.3,0.662,0.613,3.027,3.245
		l0.317,0.345L270.803,409.439z"/>
	<path fill="#454333" d="M279.245,400.036l1.728,1.115l-3.511,5.441l-9.099-5.872l1.315-2.039l7.371,4.757L279.245,400.036z"/>
</g>
<g>
	<path fill="#454333" d="M208.257,703.929l-0.486-2.999l3.791-2.111c2.061-1.148,2.685-1.314,3.399-1.528
		c-0.74,0.055-1.405,0.066-3.701-0.344l-4.26-0.774l-0.451-2.792l10.522-2.762l0.395,2.443l-4.087,0.988
		c-1.912,0.456-2.529,0.67-3.555,0.869c1.046-0.072,1.897,0.051,3.76,0.401l3.927,0.731l0.3,1.855l-3.49,1.966
		c-1.401,0.795-2.429,1.272-3.438,1.582c1.027-0.199,2.142-0.347,3.623-0.441l4.206-0.257l0.396,2.443L208.257,703.929z"/>
	<path fill="#454333" d="M213.862,681.971l2.039-0.272l0.889,6.674l-10.736,1.432l-0.882-6.61l2.039-0.272l0.561,4.205l2.135-0.284
		l-0.501-3.76l2.039-0.272l0.501,3.759l2.486-0.332L213.862,681.971z"/>
	<path fill="#454333" d="M206.132,673.383l0.309,2.779l8.722-0.969l0.268,2.413l-8.722,0.969l0.311,2.797l-2.045,0.227l-0.888-7.988
		L206.132,673.383z"/>
	<path fill="#454333" d="M214.201,665.165l-3.609,2.622l0.016,0.176l0.045,0.511l3.807-0.333l0.212,2.416l-10.784,0.945
		l-0.284-3.232c-0.247-2.816,0.871-4.607,3.015-4.794c1.471-0.129,2.608,0.513,3.305,1.839l4.017-3.093L214.201,665.165z
		 M208.606,668.654l-0.084-0.943c-0.102-1.169-0.724-1.824-1.683-1.738c-0.848,0.073-1.299,0.822-1.196,1.99l0.082,0.945
		L208.606,668.654z"/>
	<path fill="#454333" d="M203.023,661.109l-0.169-2.42l10.8-0.755l0.169,2.419L203.023,661.109z"/>
	<path fill="#454333" d="M208.05,655.919c-3.241,0.166-5.616-1.949-5.792-5.399c-0.063-1.22,0.138-2.034,0.492-2.664l2.23-0.114
		c-0.52,0.848-0.768,1.649-0.716,2.691c0.103,2.006,1.589,3.073,3.659,2.967c2.214-0.112,3.502-1.336,3.401-3.326
		c-0.054-1.06-0.404-1.943-0.904-2.609l2.102-0.108c0.522,0.762,0.764,1.731,0.819,2.822
		C213.511,653.518,211.388,655.75,208.05,655.919z"/>
	<path fill="#454333" d="M204.637,639.4c-0.442,0.849-0.723,1.694-0.694,2.722c0.028,0.964,0.41,1.387,0.99,1.371
		c0.546-0.016,0.904-0.381,1.457-1.861c0.656-1.771,1.411-2.903,3.275-2.957c1.928-0.057,3.307,1.463,3.377,3.842
		c0.039,1.366-0.238,2.339-0.649,3.139l-2.266,0.066c0.662-0.984,0.94-1.957,0.91-3.002c-0.028-0.964-0.48-1.546-1.154-1.526
		c-0.676,0.019-1.081,0.481-1.662,2.058c-0.625,1.707-1.48,2.713-3.087,2.759c-1.736,0.051-3.13-1.422-3.202-3.879
		c-0.033-1.157,0.109-1.789,0.486-2.668L204.637,639.4z"/>
	<path fill="#454333" d="M212.735,625.649l-0.725,0.738c0.544,0.852,0.846,1.898,0.843,3.055c-0.007,2.667-1.25,4.206-3.097,4.201
		c-1.238-0.003-2.136-0.697-2.806-2.064c-0.644,0.577-1.417,1.024-2.302,1.021c-1.75-0.005-2.888-1.422-2.882-3.464
		c0.006-2.2,1.247-3.307,2.71-3.302c1.333,0.004,2.15,0.874,2.949,2.29l1.773-1.794c-0.465-0.227-1.011-0.357-1.622-0.359
		l0.006-2.105c1.141,0.003,2.2,0.377,3.066,1.021l2.096-2.115L212.735,625.649z M204.623,630.221c0.58,0.001,1.078-0.35,1.562-0.815
		c-0.48-0.885-1.025-1.32-1.604-1.323c-0.593-0.001-0.964,0.399-0.967,1.058C203.612,629.721,203.917,630.22,204.623,630.221z
		 M208.642,629.816c-0.129,0.143-0.29,0.303-0.435,0.48c0.351,0.709,0.8,0.951,1.378,0.952c0.836,0.003,1.417-0.719,1.42-2.005
		c0.001-0.531-0.126-1.045-0.348-1.48L208.642,629.816z"/>
	<path fill="#454333" d="M202.066,616.934l0.129-3.033l4.138-1.303c2.248-0.709,2.893-0.746,3.635-0.812
		c-0.735-0.094-1.39-0.218-3.556-1.082l-4.014-1.616l0.118-2.824l10.86-0.586l-0.105,2.471l-4.202,0.143
		c-1.963,0.061-2.61,0.147-3.655,0.135c1.039,0.141,1.848,0.432,3.601,1.149l3.698,1.507l-0.079,1.878l-3.813,1.221
		c-1.532,0.498-2.637,0.756-3.685,0.857c1.043,0.012,2.166,0.091,3.635,0.299l4.171,0.593l-0.105,2.471L202.066,616.934z"/>
	<path fill="#454333" d="M214.004,599.042c-0.236,3.172-2.443,4.893-5.936,4.634c-3.444-0.257-5.356-2.284-5.12-5.456
		c0.235-3.174,2.426-4.896,5.87-4.638C212.312,593.84,214.239,595.869,214.004,599.042z M204.951,598.368
		c-0.118,1.588,1.109,2.628,3.304,2.792c2.227,0.164,3.628-0.682,3.746-2.268c0.118-1.586-1.142-2.631-3.369-2.795
		C206.437,595.933,205.068,596.782,204.951,598.368z"/>
	<path fill="#454333" d="M204.05,586.925c0.374-3.664,2.603-5.377,5.93-5.036c3.408,0.348,5.193,2.81,4.851,6.171l-0.377,3.679
		l-10.784-1.102L204.05,586.925z M212.778,587.882c0.2-1.952-0.945-3.25-3.057-3.465c-2.079-0.212-3.431,0.83-3.632,2.797
		l-0.124,1.217l6.688,0.683L212.778,587.882z"/>
	<path fill="#454333" d="M214.493,573.255l2.042,0.26l-0.852,6.685l-10.752-1.371l0.843-6.619l2.042,0.26l-0.537,4.211l2.138,0.272
		l0.48-3.764l2.042,0.26l-0.48,3.764l2.489,0.317L214.493,573.255z"/>
	<path fill="#454333" d="M215.756,564.616l2.036,0.302l-0.951,6.41l-10.719-1.591l0.356-2.401l8.685,1.287L215.756,564.616z"/>
	<path fill="#454333" d="M211.019,555.807c-0.599,0.747-1.04,1.52-1.212,2.535c-0.161,0.952,0.132,1.441,0.703,1.538
		c0.538,0.091,0.963-0.196,1.794-1.54c0.991-1.61,1.952-2.573,3.792-2.262c1.903,0.323,2.958,2.084,2.562,4.431
		c-0.229,1.348-0.692,2.25-1.251,2.954l-2.236-0.378c0.843-0.837,1.305-1.737,1.48-2.768c0.161-0.951-0.167-1.61-0.834-1.724
		c-0.665-0.112-1.153,0.262-2.031,1.695c-0.949,1.553-1.985,2.372-3.571,2.103c-1.713-0.29-2.792-2.006-2.381-4.432
		c0.193-1.142,0.457-1.734,0.999-2.523L211.019,555.807z"/>
</g>
<g>
	<path fill="#454333" d="M312.826,917.599c-1.898-2.096-2.043-4.242-0.375-5.754c1.738-1.576,3.919-1.251,5.851,0.88l0.507,0.561
		l2.598-2.353l1.629,1.798l-8.029,7.274L312.826,917.599z M316.647,913.965c-0.788-0.87-1.727-0.973-2.513-0.262
		c-0.715,0.647-0.656,1.55,0.132,2.419l0.637,0.703l2.381-2.157L316.647,913.965z"/>
	<path fill="#454333" d="M312.953,901.375l-1.393,4.242l0.115,0.133l0.336,0.39l2.897-2.502l1.587,1.837l-8.202,7.086l-2.123-2.459
		c-1.851-2.142-1.993-4.25-0.362-5.658c1.12-0.967,2.419-1.112,3.76-0.444l1.45-4.864L312.953,901.375z M310.454,907.486
		l-0.619-0.719c-0.768-0.888-1.656-1.055-2.386-0.424c-0.646,0.558-0.573,1.429,0.194,2.317l0.62,0.718L310.454,907.486z"/>
	<path fill="#454333" d="M307.198,894.324c2.021,2.461,1.613,5.23-1.096,7.456c-2.671,2.194-5.456,2.046-7.477-0.414
		c-2.021-2.461-1.625-5.22,1.046-7.414C302.38,891.726,305.177,891.864,307.198,894.324z M300.178,900.091
		c1.011,1.23,2.619,1.136,4.322-0.262c1.727-1.419,2.156-3,1.145-4.23c-1.01-1.23-2.643-1.115-4.371,0.303
		C299.571,897.301,299.168,898.861,300.178,900.091z"/>
	<path fill="#454333" d="M298.513,892.475c-2.561,1.996-5.722,1.625-7.846-1.102c-0.752-0.963-1.055-1.746-1.127-2.465l1.764-1.374
		c0.06,0.993,0.315,1.792,0.958,2.617c1.235,1.584,3.064,1.605,4.701,0.332c1.75-1.363,2.103-3.106,0.879-4.679
		c-0.652-0.837-1.447-1.36-2.239-1.619l1.661-1.295c0.866,0.324,1.62,0.981,2.292,1.843
		C301.61,887.372,301.152,890.42,298.513,892.475z"/>
	<path fill="#454333" d="M290.718,876.611l1.653-1.226l4.014,5.411l-8.706,6.455l-3.975-5.36l1.653-1.226l2.528,3.41l1.731-1.283
		l-2.26-3.049l1.653-1.226l2.26,3.049l2.015-1.495L290.718,876.611z"/>
	<path fill="#454333" d="M280.967,873.471c0.103,0.951,0.338,1.809,0.933,2.647c0.558,0.786,1.109,0.927,1.582,0.592
		c0.445-0.315,0.543-0.818,0.181-2.354c-0.436-1.837-0.436-3.197,1.084-4.275c1.573-1.115,3.562-0.616,4.937,1.323
		c0.791,1.114,1.099,2.076,1.2,2.97l-1.848,1.31c0.006-1.185-0.302-2.148-0.907-3c-0.558-0.786-1.256-1.019-1.806-0.629
		c-0.55,0.39-0.631,0.999-0.239,2.632c0.426,1.767,0.272,3.078-1.039,4.006c-1.414,1.005-3.389,0.553-4.812-1.451
		c-0.67-0.943-0.9-1.547-1.075-2.487L280.967,873.471z"/>
	<path fill="#454333" d="M276.01,866.241c0.084,0.952,0.302,1.816,0.88,2.667c0.543,0.797,1.091,0.948,1.57,0.622
		c0.453-0.306,0.559-0.807,0.229-2.351c-0.401-1.846-0.374-3.206,1.169-4.254c1.595-1.085,3.574-0.546,4.912,1.422
		c0.768,1.129,1.058,2.099,1.142,2.994l-1.873,1.274c0.028-1.185-0.262-2.156-0.849-3.018c-0.543-0.798-1.236-1.046-1.794-0.667
		c-0.558,0.38-0.65,0.988-0.292,2.629c0.39,1.774,0.211,3.082-1.118,3.987c-1.435,0.976-3.401,0.486-4.785-1.547
		c-0.65-0.957-0.87-1.567-1.025-2.51L276.01,866.241z"/>
	<path fill="#454333" d="M275.43,850.251l-0.215,1.012c0.918,0.427,1.734,1.148,2.353,2.127c1.428,2.256,1.206,4.223-0.357,5.211
		c-1.046,0.662-2.178,0.559-3.48-0.235c-0.233,0.833-0.646,1.626-1.393,2.099c-1.481,0.937-3.203,0.351-4.295-1.375
		c-1.178-1.863-0.723-3.462,0.513-4.245c1.129-0.713,2.286-0.417,3.722,0.35l0.532-2.468c-0.514,0.058-1.045,0.242-1.562,0.568
		l-1.126-1.78c0.966-0.61,2.06-0.864,3.138-0.785l0.632-2.912L275.43,850.251z M271.038,858.469c0.489-0.308,0.722-0.875,0.88-1.526
		c-0.88-0.49-1.576-0.565-2.064-0.256c-0.504,0.318-0.601,0.857-0.248,1.413C269.915,858.59,270.44,858.849,271.038,858.469z
		 M274.213,855.968c-0.031,0.19-0.082,0.413-0.109,0.64c0.677,0.408,1.187,0.372,1.676,0.063c0.707-0.447,0.809-1.369,0.121-2.456
		c-0.283-0.448-0.667-0.815-1.09-1.061L274.213,855.968z"/>
	<path fill="#454333" d="M260.41,846.325c-1.431-2.443-1.132-4.573,0.81-5.712c2.026-1.185,4.094-0.423,5.549,2.061l0.383,0.652
		l3.024-1.773l1.227,2.096l-9.35,5.479L260.41,846.325z M264.896,843.548c-0.593-1.012-1.492-1.307-2.408-0.77
		c-0.833,0.489-0.96,1.383-0.366,2.396l0.48,0.818l2.774-1.625L264.896,843.548z"/>
	<path fill="#454333" d="M263.879,830.475l-2.233,3.861l0.085,0.155l0.248,0.45l3.347-1.852l1.175,2.124l-9.477,5.241l-1.571-2.84
		c-1.369-2.474-1.075-4.565,0.809-5.607c1.295-0.716,2.594-0.59,3.768,0.339l2.419-4.459L263.879,830.475z M260.18,835.938
		l-0.459-0.83c-0.567-1.027-1.402-1.374-2.245-0.907c-0.744,0.413-0.854,1.28-0.286,2.307l0.459,0.83L260.18,835.938z"/>
	<path fill="#454333" d="M259.721,822.396c1.466,2.827,0.492,5.452-2.619,7.065c-3.069,1.592-5.761,0.87-7.228-1.955
		c-1.466-2.825-0.505-5.443,2.562-7.035C255.547,818.856,258.256,819.571,259.721,822.396z M251.658,826.58
		c0.734,1.413,2.326,1.655,4.281,0.641c1.984-1.03,2.731-2.486,1.999-3.898c-0.732-1.414-2.354-1.641-4.338-0.611
		C251.644,823.725,250.925,825.167,251.658,826.58z"/>
	<path fill="#454333" d="M244.904,817.334c-1.604-3.311-0.61-5.936,2.398-7.393c3.079-1.492,5.89-0.336,7.361,2.7l1.611,3.326
		l-9.743,4.722L244.904,817.334z M252.826,813.566c-0.855-1.764-2.508-2.265-4.417-1.341c-1.879,0.912-2.481,2.507-1.619,4.284
		l0.532,1.1l6.044-2.93L252.826,813.566z"/>
	<path fill="#454333" d="M238.86,804.376l-0.999-2.211l6.02-2.718c2.489-1.123,4.63-0.326,5.746,2.148
		c1.118,2.475,0.344,4.588-2.088,5.685l-6.121,2.764l-0.997-2.212l6.165-2.782c1.245-0.562,1.701-1.544,1.212-2.628
		c-0.489-1.084-1.528-1.39-2.786-0.822L238.86,804.376z"/>
	<path fill="#454333" d="M241.847,797.819c-2.991,1.26-5.946,0.081-7.287-3.102c-0.474-1.126-0.564-1.96-0.444-2.673l2.057-0.867
		c-0.199,0.975-0.16,1.812,0.245,2.774c0.779,1.851,2.54,2.347,4.45,1.543c2.043-0.861,2.839-2.45,2.066-4.287
		c-0.413-0.976-1.043-1.688-1.74-2.144l1.939-0.816c0.75,0.538,1.308,1.366,1.733,2.374
		C246.163,793.701,244.928,796.523,241.847,797.819z"/>
	<path fill="#454333" d="M232.047,782.557l1.024,2.601l8.162-3.214l0.888,2.257l-8.162,3.214l1.03,2.616l-1.913,0.753l-2.942-7.474
		L232.047,782.557z"/>
	<path fill="#454333" d="M229.393,781.345l-0.851-2.275l10.154-3.794l0.851,2.275L229.393,781.345z"/>
	<path fill="#454333" d="M235.758,767.088l1.037,2.957l-9.035,6.954l-0.867-2.471l3.872-2.842c2.854-2.058,3.275-2.31,3.638-2.538
		c-0.426,0.048-0.892,0.126-4.426,0.294l-4.777,0.265l-0.842-2.395L235.758,767.088z"/>
	<path fill="#454333" d="M228.697,758.03l3.656-1.178l0.758,2.357l-3.595,1.157l-5.607,5.606l-0.863-2.677l1.259-1.232
		c1.54-1.51,2.15-1.976,2.61-2.277c-0.544,0.04-1.363,0.016-3.419-0.233l-1.721-0.205l-0.839-2.601L228.697,758.03z"/>
</g>
<g>
	<g>
		<g>
			<path fill="#454333" d="M741.848,216.674c3.552,0.973,4.873,3.453,3.988,6.679c-0.906,3.304-3.628,4.658-6.885,3.765
				l-3.567-0.978l2.866-10.453L741.848,216.674z M739.466,225.124c1.891,0.519,3.359-0.396,3.921-2.443
				c0.552-2.017-0.253-3.52-2.16-4.044l-1.179-0.323l-1.776,6.482L739.466,225.124z"/>
			<path fill="#454333" d="M753.566,229.214l-0.592,1.97l-6.45-1.937l3.117-10.374l6.389,1.919l-0.592,1.97l-4.064-1.221
				l-0.619,2.063l3.632,1.091l-0.592,1.97l-3.632-1.091l-0.722,2.401L753.566,229.214z"/>
			<path fill="#454333" d="M760.737,233.7l-2.979-0.979l-0.006-11.41l2.489,0.819l-0.106,4.804c-0.108,3.52-0.167,4.008-0.206,4.435
				c0.223-0.366,0.444-0.785,2.466-3.691l2.704-3.952l2.414,0.794L760.737,233.7z"/>
			<path fill="#454333" d="M773.074,235.815l-0.691,1.937l-6.343-2.26l3.637-10.201l6.281,2.239l-0.691,1.937l-3.996-1.425
				l-0.723,2.027l3.573,1.274l-0.691,1.937l-3.573-1.274l-0.842,2.362L773.074,235.815z"/>
			<path fill="#454333" d="M781.21,238.887l-0.729,1.922l-6.051-2.298l3.84-10.122l2.268,0.86l-3.111,8.201L781.21,238.887z"/>
			<path fill="#454333" d="M785.838,243.101c-2.946-1.197-3.906-3.824-2.588-7.068c1.3-3.199,3.815-4.396,6.761-3.197
				c2.946,1.197,3.912,3.809,2.612,7.008C791.305,243.087,788.783,244.3,785.838,243.101z M789.256,234.695
				c-1.472-0.599-2.84,0.25-3.67,2.287c-0.84,2.069-0.465,3.659,1.009,4.259c1.472,0.599,2.852-0.28,3.694-2.347
				C791.117,236.856,790.729,235.293,789.256,234.695z"/>
			<path fill="#454333" d="M799.953,237.166c2.591,1.135,3.601,3.032,2.698,5.093c-0.942,2.148-3.061,2.745-5.697,1.59l-0.691-0.303
				l-1.405,3.208l-2.223-0.973l4.345-9.918L799.953,237.166z M797.957,242.044c1.073,0.471,1.973,0.181,2.398-0.791
				c0.387-0.883-0.034-1.682-1.109-2.153l-0.869-0.38l-1.289,2.942L797.957,242.044z"/>
			<path fill="#454333" d="M806.418,240.013l2.746,1.299l-0.408,4.322c-0.221,2.348-0.438,2.957-0.667,3.665
				c0.374-0.64,0.743-1.194,2.381-2.855l3.051-3.072l2.558,1.208l-3.685,10.238l-2.236-1.057l1.501-3.93
				c0.707-1.834,0.88-2.463,1.297-3.42c-0.534,0.903-1.117,1.534-2.459,2.872l-2.828,2.822l-1.7-0.803l0.357-3.991
				c0.138-1.605,0.329-2.724,0.644-3.73c-0.417,0.958-0.927,1.961-1.689,3.236l-2.171,3.613l-2.238-1.058L806.418,240.013z"/>
			<path fill="#454333" d="M821.345,257.072l-0.933,1.836l-6.008-3.054l4.911-9.666l5.952,3.024l-0.933,1.836l-3.786-1.924
				l-0.976,1.922l3.384,1.719l-0.933,1.836l-3.384-1.719l-1.138,2.236L821.345,257.072z"/>
			<path fill="#454333" d="M827.469,250.354l2.534,1.368l-0.051,5.07c-0.016,2.13-0.259,3.224-0.368,3.731
				c0.187-0.483,0.614-1.477,1.501-3.12l2.13-3.949l2.138,1.154l-5.148,9.54l-2.534-1.368l-0.006-5.102
				c-0.002-2.03,0.277-3.323,0.384-3.795c-0.164,0.441-0.62,1.658-1.46,3.215l-2.13,3.948l-2.138-1.153L827.469,250.354z"/>
			<path fill="#454333" d="M843.152,261.435l-2.426-1.39l-4.36,7.613l-2.106-1.206l4.362-7.613l-2.441-1.398l1.022-1.785
				l6.972,3.994L843.152,261.435z"/>
		</g>
	</g>
	<g>
		<g>
			<path fill="#454333" d="M407.454,264.739l2.604-1.561l3.368,2.739c1.83,1.489,2.217,2.006,2.679,2.591
				c-0.324-0.667-0.581-1.281-1.052-3.565l-0.86-4.245l2.425-1.456l6.47,8.751l-2.123,1.274l-2.434-3.432
				c-1.133-1.605-1.561-2.099-2.126-2.978c0.456,0.945,0.656,1.779,1.022,3.64l0.777,3.919l-1.611,0.967l-3.12-2.514
				c-1.26-1.005-2.084-1.785-2.746-2.607c0.565,0.879,1.117,1.861,1.753,3.203l1.8,3.812l-2.123,1.272L407.454,264.739z"/>
			<path fill="#454333" d="M429.441,261.958l-3.341,1.861l0.51,2.2l-2.218,1.236l-2.157-11.199l2.737-1.525l8.391,7.724
				l-2.289,1.275L429.441,261.958z M427.96,260.52l-0.345-0.323c-2.514-2.463-2.833-2.837-3.12-3.154
				c0.118,0.411,0.275,0.858,1.042,4.313l0.108,0.456L427.96,260.52z"/>
			<path fill="#454333" d="M430.115,251.71l2.55-1.329l4.166,2.884c1.752,1.206,2.52,2.02,2.879,2.395
				c-0.294-0.428-0.877-1.336-1.738-2.99l-2.073-3.975l2.153-1.123l5.006,9.603l-2.552,1.33l-4.223-2.854
				c-1.679-1.135-2.594-2.091-2.924-2.444c0.274,0.383,1.024,1.441,1.842,3.009l2.072,3.975l-2.151,1.121L430.115,251.71z"/>
			<path fill="#454333" d="M446.319,243.502l2.184-1.063l2.89,5.943c1.194,2.458,0.459,4.621-1.984,5.809
				c-2.444,1.188-4.579,0.475-5.746-1.925l-2.939-6.044l2.184-1.061l2.96,6.085c0.598,1.229,1.592,1.658,2.662,1.138
				c1.069-0.52,1.347-1.567,0.743-2.81L446.319,243.502z"/>
			<path fill="#454333" d="M454.214,242.074l0.963,2.105l3.45-1.576l0.855,1.872l-3.45,1.576l1.83,4.006l-2.208,1.009l-4.502-9.855
				l6.069-2.771l0.855,1.872L454.214,242.074z"/>
			<path fill="#454333" d="M467.566,243.398l-3.513,1.511l0.281,2.241l-2.332,1.005l-1.005-11.361l2.878-1.238l7.559,8.538
				l-2.405,1.034L467.566,243.398z M466.238,241.817l-0.311-0.356c-2.25-2.706-2.529-3.111-2.782-3.456
				c0.076,0.422,0.187,0.882,0.596,4.396l0.06,0.465L466.238,241.817z"/>
			<path fill="#454333" d="M470.095,238.767c-1.208-3.014,0.024-5.949,3.233-7.235c1.133-0.454,1.97-0.529,2.68-0.399l0.831,2.075
				c-0.97-0.217-1.809-0.193-2.779,0.196c-1.867,0.747-2.393,2.499-1.622,4.425c0.825,2.06,2.401,2.884,4.253,2.142
				c0.985-0.395,1.707-1.013,2.175-1.703l0.783,1.955c-0.552,0.74-1.39,1.284-2.405,1.691
				C474.14,243.158,471.339,241.872,470.095,238.767z"/>
			<path fill="#454333" d="M485.527,229.224l-2.617,0.981l3.073,8.213l-2.272,0.849l-3.073-8.213l-2.632,0.985l-0.721-1.925
				l7.522-2.815L485.527,229.224z"/>
			<path fill="#454333" d="M492.603,224.563l2.292-0.795l2.16,6.241c0.894,2.582-0.094,4.64-2.659,5.528
				c-2.567,0.888-4.6-0.073-5.471-2.594l-2.197-6.347l2.293-0.794l2.212,6.392c0.447,1.29,1.383,1.834,2.505,1.446
				c1.124-0.389,1.525-1.396,1.072-2.701L492.603,224.563z"/>
			<path fill="#454333" d="M506.158,231.519l-3.347-2.952l-0.169,0.054l-0.49,0.155l1.157,3.647l-2.314,0.732l-3.274-10.326
				l3.094-0.981c2.697-0.855,4.689-0.155,5.341,1.898c0.447,1.408,0.067,2.658-1.076,3.628l3.897,3.25L506.158,231.519z
				 M501.53,226.815l0.904-0.287c1.118-0.354,1.623-1.103,1.332-2.024c-0.259-0.812-1.088-1.088-2.206-0.732l-0.904,0.286
				L501.53,226.815z"/>
			<path fill="#454333" d="M507.67,219.714l2.327-0.691l3.085,10.389l-2.327,0.692L507.67,219.714z"/>
			<path fill="#454333" d="M512.861,218.179l2.771-0.765l3.469,3.692c1.461,1.547,2.04,2.504,2.313,2.945
				c-0.199-0.478-0.579-1.49-1.073-3.287l-1.193-4.32l2.338-0.646l2.881,10.437L521.595,227l-3.531-3.674
				c-1.404-1.462-2.097-2.589-2.345-3.003c0.185,0.432,0.698,1.625,1.169,3.327l1.191,4.322l-2.338,0.644L512.861,218.179z"/>
			<path fill="#454333" d="M535.513,222.445c-0.759,0.815-1.901,1.625-3.586,2.037c-3.308,0.813-5.9-0.849-6.697-4.096
				c-0.773-3.151,0.855-5.884,4.209-6.707c1.265-0.309,2.187-0.256,2.872-0.025l0.534,2.168c-0.93-0.35-1.866-0.451-2.942-0.188
				c-1.951,0.478-2.718,2.141-2.223,4.153c0.529,2.153,1.973,3.187,3.909,2.713c0.483-0.118,0.921-0.292,1.311-0.522l-0.426-1.731
				l-1.685,0.414l-0.49-1.997l4.042-0.991L535.513,222.445z"/>
		</g>
	</g>
</g>
</svg>
