<?xml version="1.0" encoding="utf-8"?>
<!-- Generator: Adobe Illustrator 17.0.0, SVG Export Plug-In . SVG Version: 6.00 Build 0)  -->
<!DOCTYPE svg PUBLIC "-//W3C//DTD SVG 1.1//EN" "http://www.w3.org/Graphics/SVG/1.1/DTD/svg11.dtd">
<svg version="1.1" xmlns="http://www.w3.org/2000/svg" xmlns:xlink="http://www.w3.org/1999/xlink" x="0px" y="0px" width="21px"
	 height="21px" viewBox="0 0 21 21" enable-background="new 0 0 21 21" xml:space="preserve">
<g id="Layer_1" display="none">
	<rect x="-82.188" y="-54.731" display="inline" fill="#6D6E70" width="20" height="20"/>
	<rect x="-54.625" y="-54.731" display="inline" fill="#6D6E70" width="20" height="20"/>
	<rect x="-27.042" y="-54.731" display="inline" fill="#6D6E70" width="20" height="20"/>
	<rect x="0.5" y="-54.731" display="inline" fill="#6D6E70" width="20" height="20"/>
	<rect x="-82.188" y="-27.106" display="inline" fill="#6D6E70" width="20" height="20"/>
	<rect x="-54.625" y="-27.106" display="inline" fill="#6D6E70" width="20" height="20"/>
	<rect x="-27.042" y="-27.106" display="inline" fill="#6D6E70" width="20" height="20"/>
	<rect x="0.5" y="-27.106" display="inline" fill="#6D6E70" width="20" height="20"/>
	<rect x="-82.188" y="0.5" display="inline" fill="#6D6E70" width="20" height="20"/>
	<rect x="-54.625" y="0.5" display="inline" fill="#6D6E70" width="20" height="20"/>
	<rect x="-27.042" y="0.5" display="inline" fill="#6D6E70" width="20" height="20"/>
	<rect x="0.5" y="0.5" display="inline" fill="#6D6E70" width="20" height="20"/>
	<rect x="-82.188" y="28.136" display="inline" fill="#6D6E70" width="20" height="20"/>
	<rect x="-54.625" y="28.136" display="inline" fill="#6D6E70" width="20" height="20"/>
	<rect x="-27.042" y="28.136" display="inline" fill="#6D6E70" width="20" height="20"/>
	<rect x="-82.188" y="55.761" display="inline" fill="#6D6E70" width="20" height="20"/>
	<rect x="-54.625" y="55.761" display="inline" fill="#6D6E70" width="20" height="20"/>
	<rect x="-27.042" y="55.761" display="inline" fill="#6D6E70" width="20" height="20"/>
</g>
<g id="Layer_2">
	<path d="M-41.876-44.37c-0.199-0.199-0.199-0.524,0-0.722l7.107-7.107c0.199-0.199,0.199-0.524,0-0.722l-1.661-1.661
		c-0.199-0.199-0.524-0.199-0.722,0l-7.474,7.474l-7.474-7.474c-0.199-0.199-0.524-0.199-0.722,0l-1.661,1.661
		c-0.199,0.199-0.199,0.524,0,0.722l7.107,7.107c0.199,0.199,0.199,0.524,0,0.722l-7.107,7.107c-0.199,0.199-0.199,0.524,0,0.722
		l1.661,1.661c0.199,0.199,0.524,0.199,0.722,0l7.474-7.474l7.474,7.474c0.199,0.199,0.524,0.199,0.722,0l1.661-1.661
		c0.199-0.199,0.199-0.524,0-0.722L-41.876-44.37z"/>
	<path d="M-62.385-50.091l-2.229-2.229c-0.264-0.264-0.692-0.264-0.955,0l-9.286,9.286l-3.949-3.949
		c-0.264-0.264-0.692-0.264-0.955,0l-2.229,2.229c-0.264,0.264-0.264,0.692,0,0.955l6.656,6.656
		c0.132,0.132,0.305,0.198,0.478,0.198s0.346-0.066,0.478-0.198l11.993-11.993c0.127-0.127,0.198-0.299,0.198-0.478
		S-62.259-49.964-62.385-50.091L-62.385-50.091z M-62.385-50.091"/>
	<path d="M-14.597-51.384l4.082,4.082l-10.334,10.334l-4.08-4.082L-14.597-51.384z M-7.416-52.369l-1.821-1.821
		c-0.704-0.704-1.846-0.704-2.552,0l-1.744,1.744l4.082,4.082l2.034-2.034C-6.871-50.943-6.871-51.823-7.416-52.369L-7.416-52.369z
		 M-27.065-35.312c-0.074,0.334,0.228,0.634,0.562,0.553l4.549-1.103l-4.08-4.082L-27.065-35.312z M-27.065-35.312"/>
	<g>
		<path d="M7.02-54.378c-0.194-0.194-0.513-0.194-0.707,0l-1.626,1.626c-0.194,0.194-0.194,0.513,0,0.707l6.96,6.96
			c0.194,0.194,0.194,0.513,0,0.707l-6.96,6.96c-0.194,0.194-0.194,0.513,0,0.707l1.626,1.626c0.194,0.194,0.513,0.194,0.707,0
			l9.293-9.293c0.194-0.194,0.194-0.513,0-0.707L7.02-54.378z"/>
	</g>
	<g>
		<path d="M-72.321-27.106c-5.522,0.074-9.939,4.611-9.866,10.134c0.074,5.52,4.611,9.938,10.133,9.865
			c5.521-0.074,9.939-4.612,9.865-10.134C-62.262-22.762-66.799-27.179-72.321-27.106z M-72.351-11.019l-0.055-0.001
			c-0.85-0.025-1.45-0.652-1.426-1.49c0.024-0.823,0.638-1.421,1.46-1.421l0.049,0.001c0.874,0.026,1.467,0.646,1.442,1.508
			C-70.904-11.596-71.509-11.019-72.351-11.019z M-68.773-18.119c-0.2,0.284-0.64,0.637-1.194,1.069l-0.61,0.421
			c-0.335,0.26-0.537,0.505-0.613,0.747c-0.06,0.19-0.089,0.24-0.094,0.626l-0.001,0.098h-2.33l0.007-0.197
			c0.028-0.81,0.048-1.287,0.384-1.681c0.527-0.619,1.689-1.367,1.739-1.399c0.167-0.125,0.307-0.268,0.412-0.421
			c0.245-0.337,0.353-0.603,0.353-0.863c0-0.362-0.107-0.697-0.32-0.995c-0.204-0.288-0.592-0.433-1.153-0.433
			c-0.556,0-0.937,0.177-1.165,0.539c-0.234,0.372-0.353,0.763-0.353,1.163v0.099h-2.402l0.004-0.104
			c0.062-1.472,0.587-2.531,1.56-3.149c0.612-0.394,1.372-0.593,2.26-0.593c1.162,0,2.143,0.282,2.916,0.839
			c0.783,0.564,1.18,1.41,1.18,2.512C-68.194-19.225-68.389-18.646-68.773-18.119z"/>
	</g>
	<g>
		<path d="M-35.495-20.129l-5.508-0.521c-0.347-0.032-0.647-0.253-0.789-0.584l-1.973-4.782c-0.316-0.789-1.436-0.789-1.752,0
			l-1.957,4.782c-0.126,0.331-0.442,0.552-0.789,0.584l-5.508,0.521c-0.821,0.079-1.152,1.105-0.537,1.657l4.151,3.646
			c0.268,0.237,0.379,0.584,0.3,0.931l-1.247,5.113c-0.189,0.805,0.679,1.468,1.405,1.042l4.592-2.699
			c0.3-0.174,0.663-0.174,0.963,0l4.593,2.699c0.726,0.426,1.594-0.221,1.404-1.042l-1.231-5.113
			c-0.079-0.347,0.032-0.694,0.3-0.931l4.151-3.646C-34.327-19.024-34.675-20.05-35.495-20.129z"/>
	</g>
	<g>
		<path d="M-17.054-23.543l1.237,2.998c0.394,0.921,1.252,1.548,2.233,1.637l3.688,0.349l-2.756,2.42
			c-0.743,0.656-1.068,1.664-0.843,2.653l0.79,3.282l-2.978-1.75c-0.413-0.239-0.883-0.366-1.358-0.366s-0.945,0.126-1.368,0.371
			l-2.962,1.74l0.804-3.3c0.22-0.967-0.105-1.975-0.851-2.634l-2.756-2.42l3.653-0.345c1.018-0.093,1.907-0.761,2.25-1.664
			L-17.054-23.543 M-17.057-26.607c-0.359,0-0.718,0.197-0.876,0.592l-1.957,4.782c-0.126,0.331-0.442,0.552-0.789,0.584
			l-5.508,0.521c-0.821,0.079-1.152,1.105-0.537,1.657l4.151,3.646c0.268,0.237,0.379,0.584,0.3,0.931l-1.247,5.113
			c-0.148,0.631,0.353,1.175,0.927,1.175c0.158,0,0.321-0.041,0.478-0.133l4.592-2.699c0.15-0.087,0.316-0.13,0.481-0.13
			s0.331,0.043,0.481,0.13l4.593,2.699c0.159,0.093,0.324,0.135,0.484,0.135c0.571,0,1.069-0.535,0.921-1.177l-1.231-5.113
			c-0.079-0.347,0.032-0.694,0.3-0.931l4.151-3.646c0.6-0.552,0.253-1.578-0.568-1.657l-5.508-0.521
			c-0.347-0.032-0.647-0.253-0.789-0.584l-1.973-4.782C-16.339-26.41-16.698-26.607-17.057-26.607L-17.057-26.607z"/>
	</g>
	<g>
		<path d="M20.22,45.321l-4.788-4.947c-0.343-0.355-0.773-0.497-0.958-0.316c-0.187,0.18-0.616,0.038-0.959-0.316l-0.068-0.071
			c2.143-2.819,1.935-6.854-0.638-9.428c-2.809-2.809-7.363-2.809-10.171,0c-2.809,2.809-2.809,7.362,0,10.171
			c2.617,2.618,6.749,2.793,9.573,0.532l0.03,0.031c0.343,0.355,0.47,0.789,0.283,0.969c-0.186,0.181-0.06,0.614,0.284,0.969
			l4.786,4.949c0.343,0.354,0.909,0.364,1.264,0.021l1.343-1.3C20.553,46.243,20.563,45.677,20.22,45.321z M11.226,38.834
			c-1.933,1.933-5.078,1.933-7.011,0.001c-1.933-1.933-1.933-5.079,0-7.011c1.933-1.933,5.078-1.933,7.01,0
			C13.159,33.756,13.159,36.901,11.226,38.834z"/>
	</g>
	<g>
		<g id="Bulb_2">
			<path d="M15.475-24.511c-1.134-1.626-2.992-2.596-4.975-2.596s-3.841,0.969-4.975,2.596c-1.134,1.626-1.402,3.704-0.717,5.565
				c0.651,1.769,2.493,2.765,3.021,4.822c0.056,0.218,0.278,0.35,0.497,0.294c0.218-0.056,0.35-0.278,0.294-0.497
				c-0.029-0.112-0.061-0.222-0.097-0.331c-0.035-0.107-0.073-0.212-0.115-0.316c-0.041-0.101-0.084-0.202-0.131-0.301
				c-0.045-0.096-0.093-0.192-0.144-0.285c-0.049-0.092-0.101-0.182-0.155-0.271c-0.033-0.054-0.066-0.108-0.1-0.161
				c-0.054-0.085-0.11-0.168-0.168-0.25c-0.056-0.081-0.114-0.16-0.172-0.239c-0.057-0.077-0.115-0.152-0.174-0.227
				c-0.058-0.073-0.116-0.146-0.175-0.219c-0.058-0.071-0.116-0.141-0.174-0.211c-0.065-0.078-0.131-0.156-0.197-0.234
				c-0.063-0.074-0.125-0.149-0.187-0.223c-0.054-0.064-0.107-0.129-0.16-0.194c-0.052-0.063-0.103-0.127-0.153-0.192
				c-0.049-0.062-0.097-0.126-0.144-0.189c-0.028-0.038-0.057-0.077-0.084-0.116c-0.044-0.061-0.086-0.124-0.127-0.187
				c-0.04-0.061-0.079-0.123-0.116-0.187c-0.036-0.061-0.071-0.124-0.104-0.187c-0.032-0.062-0.063-0.125-0.091-0.189
				c-0.028-0.063-0.054-0.127-0.078-0.192c-0.593-1.61-0.361-3.409,0.62-4.816c0.982-1.408,2.589-2.246,4.305-2.246
				s3.324,0.839,4.305,2.246c0.982,1.407,1.213,3.206,0.62,4.816c-0.034,0.092-0.072,0.182-0.114,0.271
				c-0.043,0.09-0.09,0.179-0.14,0.265c-0.052,0.09-0.107,0.178-0.164,0.264c-0.06,0.09-0.122,0.178-0.187,0.265
				c-0.067,0.091-0.136,0.18-0.207,0.268c-0.073,0.092-0.148,0.183-0.223,0.273c-0.039,0.047-0.078,0.093-0.117,0.139
				c-0.076,0.09-0.152,0.18-0.227,0.27c-0.083,0.099-0.165,0.198-0.247,0.298c-0.084,0.103-0.167,0.208-0.249,0.314
				c-0.084,0.109-0.166,0.22-0.245,0.332c-0.082,0.116-0.16,0.234-0.235,0.355c-0.078,0.125-0.151,0.252-0.22,0.381
				c-0.071,0.134-0.138,0.271-0.198,0.41c-0.063,0.144-0.119,0.292-0.169,0.441c-0.052,0.155-0.096,0.313-0.133,0.473
				c-0.039,0.167-0.069,0.335-0.092,0.505c-0.014,0.107,0.005,0.191,0.065,0.28c-1.652,0.413-3.304,0.826-4.956,1.239
				c-0.219,0.055-0.352,0.276-0.297,0.495c0.055,0.219,0.276,0.352,0.495,0.297c2.022-0.505,4.043-1.011,6.065-1.516
				c0.219-0.055,0.352-0.276,0.297-0.495c-0.055-0.219-0.276-0.352-0.495-0.297c-0.121,0.03-0.242,0.061-0.363,0.091
				c0.326-2.418,2.418-3.426,3.122-5.336C16.877-20.806,16.609-22.884,15.475-24.511z"/>
			<path d="M13.434-10.726C11.412-10.22,9.39-9.715,7.368-9.209C7.15-9.155,7.017-8.933,7.071-8.714
				c0.055,0.219,0.276,0.352,0.495,0.297c2.022-0.505,4.043-1.011,6.065-1.516c0.219-0.055,0.352-0.276,0.297-0.495
				C13.874-10.647,13.652-10.78,13.434-10.726z"/>
			<path d="M11.415-8.325c-0.492,0.536-1.337,0.536-1.829,0C9.433-8.491,9.175-8.502,9.009-8.35C8.843-8.198,8.831-7.94,8.984-7.773
				c0.39,0.425,0.94,0.667,1.516,0.667c0.577,0,1.127-0.242,1.516-0.667c0.152-0.166,0.141-0.424-0.025-0.577
				C11.825-8.502,11.567-8.491,11.415-8.325z"/>
			<path d="M13.434-12.213c-2.022,0.505-4.043,1.011-6.065,1.516c-0.219,0.055-0.352,0.276-0.297,0.495
				C7.126-9.983,7.348-9.85,7.566-9.905c2.022-0.505,4.043-1.011,6.065-1.516c0.219-0.055,0.352-0.276,0.297-0.495
				C13.874-12.135,13.652-12.268,13.434-12.213z"/>
			<path d="M11.376-18.62c-0.026,0.051-0.05,0.102-0.073,0.154c-0.024,0.054-0.046,0.109-0.068,0.164
				c-0.022,0.058-0.043,0.116-0.063,0.174c-0.021,0.061-0.041,0.122-0.059,0.184c-0.02,0.064-0.038,0.129-0.055,0.194
				c-0.018,0.068-0.035,0.136-0.052,0.205c-0.017,0.072-0.033,0.143-0.048,0.215c-0.016,0.075-0.031,0.15-0.045,0.226
				c-0.015,0.079-0.028,0.158-0.041,0.237c-0.013,0.082-0.026,0.165-0.038,0.248c-0.008,0.057-0.016,0.114-0.024,0.171
				c-0.012,0.088-0.022,0.177-0.033,0.266c-0.011,0.092-0.02,0.184-0.029,0.277c-0.009,0.096-0.018,0.192-0.026,0.288
				c-0.017,0.203-0.031,0.406-0.043,0.609c-0.013,0.225,0.158,0.418,0.383,0.431c0.225,0.013,0.418-0.158,0.431-0.383
				c0.009-0.149,0.019-0.297,0.03-0.446c0.011-0.14,0.023-0.279,0.037-0.419c0.013-0.131,0.027-0.261,0.043-0.392
				c0.012-0.095,0.024-0.191,0.038-0.286c0.017-0.115,0.035-0.229,0.054-0.343c0.018-0.105,0.038-0.211,0.06-0.315
				c0.01-0.049,0.021-0.098,0.032-0.147c0.011-0.047,0.022-0.093,0.034-0.14c0.011-0.044,0.023-0.089,0.035-0.133
				c0.012-0.042,0.024-0.084,0.036-0.126c0.012-0.04,0.024-0.079,0.038-0.118c0.012-0.037,0.025-0.074,0.039-0.111
				c0.013-0.035,0.026-0.069,0.04-0.104c0.013-0.032,0.026-0.064,0.04-0.096c0.013-0.03,0.027-0.059,0.041-0.089
				c0.012-0.024,0.024-0.049,0.037-0.072c0.013-0.025,0.027-0.05,0.042-0.074c0.013-0.023,0.027-0.045,0.042-0.067
				c0.013-0.02,0.027-0.04,0.041-0.059c0.013-0.018,0.027-0.035,0.041-0.052c0.013-0.015,0.026-0.03,0.04-0.045
				c0.012-0.013,0.025-0.026,0.039-0.038c0.012-0.011,0.024-0.021,0.037-0.031c0.263-0.204,0.184-0.62-0.135-0.714
				c-0.146-0.043-0.293-0.081-0.442-0.114c-0.147-0.032-0.295-0.06-0.443-0.081c-0.147-0.022-0.296-0.038-0.444-0.049
				c-0.148-0.011-0.296-0.016-0.445-0.016c-0.148,0-0.297,0.005-0.445,0.016c-0.149,0.011-0.297,0.027-0.444,0.049
				c-0.149,0.022-0.297,0.049-0.443,0.081c-0.149,0.033-0.296,0.071-0.442,0.114c-0.319,0.094-0.398,0.51-0.135,0.714
				c0.013,0.01,0.025,0.02,0.037,0.031c0.013,0.012,0.026,0.025,0.039,0.038c0.014,0.014,0.027,0.029,0.04,0.045
				c0.014,0.017,0.028,0.034,0.041,0.052c0.014,0.019,0.028,0.039,0.041,0.059c0.014,0.022,0.028,0.044,0.042,0.067
				c0.014,0.024,0.028,0.049,0.042,0.074c0.013,0.024,0.025,0.048,0.037,0.072c0.014,0.029,0.028,0.059,0.041,0.089
				c0.014,0.032,0.028,0.064,0.04,0.096c0.014,0.034,0.027,0.069,0.04,0.104c0.013,0.037,0.026,0.074,0.039,0.111
				c0.013,0.039,0.026,0.079,0.038,0.118c0.026,0.086,0.05,0.172,0.071,0.259c0.024,0.095,0.046,0.191,0.066,0.287
				c0.022,0.105,0.042,0.21,0.06,0.315c0.02,0.114,0.038,0.228,0.054,0.343c0.014,0.095,0.026,0.19,0.038,0.286
				c0.016,0.13,0.03,0.261,0.043,0.392c0.014,0.14,0.026,0.279,0.037,0.419c0.012,0.149,0.022,0.297,0.03,0.446
				c0.013,0.225,0.206,0.397,0.431,0.383c0.225-0.013,0.397-0.206,0.383-0.431c-0.012-0.203-0.026-0.406-0.043-0.609
				c-0.016-0.188-0.034-0.377-0.056-0.565c-0.017-0.146-0.035-0.292-0.056-0.437c-0.012-0.083-0.025-0.165-0.038-0.248
				c-0.013-0.079-0.027-0.158-0.041-0.237c-0.014-0.075-0.029-0.151-0.045-0.226c-0.015-0.072-0.031-0.144-0.048-0.215
				c-0.016-0.068-0.033-0.137-0.052-0.205c-0.017-0.065-0.036-0.13-0.055-0.194c-0.019-0.062-0.038-0.123-0.059-0.184
				c-0.02-0.058-0.041-0.116-0.063-0.174c-0.021-0.055-0.044-0.11-0.068-0.164c-0.023-0.052-0.047-0.103-0.073-0.154
				c-0.011-0.022-0.023-0.044-0.034-0.066c-0.009-0.017-0.018-0.034-0.028-0.05c0.056-0.01,0.112-0.019,0.168-0.027
				c0.128-0.019,0.256-0.033,0.385-0.042c0.128-0.009,0.256-0.014,0.385-0.014s0.257,0.005,0.385,0.014
				c0.129,0.009,0.257,0.024,0.385,0.042c0.056,0.008,0.112,0.017,0.168,0.027c-0.009,0.017-0.019,0.034-0.028,0.05
				C11.399-18.664,11.387-18.642,11.376-18.62z"/>
		</g>
	</g>
	<path d="M-62.188,4c0,0.275-0.225,0.5-0.5,0.5h-19c-0.275,0-0.5-0.225-0.5-0.5V1c0-0.275,0.225-0.5,0.5-0.5h19
		c0.275,0,0.5,0.225,0.5,0.5V4z"/>
	<path d="M-62.188,20c0,0.275-0.225,0.5-0.5,0.5h-19c-0.275,0-0.5-0.225-0.5-0.5v-3c0-0.275,0.225-0.5,0.5-0.5h19
		c0.275,0,0.5,0.225,0.5,0.5V20z"/>
	<path d="M-62.188,12c0,0.275-0.225,0.5-0.5,0.5h-19c-0.275,0-0.5-0.225-0.5-0.5V9c0-0.275,0.225-0.5,0.5-0.5h19
		c0.275,0,0.5,0.225,0.5,0.5V12z"/>
	<path d="M-51.621,2.27c0.636,0,1.154,0.518,1.154,1.154s-0.518,1.154-1.154,1.154s-1.154-0.518-1.154-1.154
		S-52.257,2.27-51.621,2.27 M-51.621,0.5c-1.615,0-2.924,1.309-2.924,2.924c0,1.615,1.309,2.924,2.924,2.924
		c1.615,0,2.924-1.309,2.924-2.924C-48.697,1.809-50.006,0.5-51.621,0.5L-51.621,0.5z"/>
	<path d="M-51.621,9.346c0.636,0,1.154,0.518,1.154,1.154s-0.518,1.154-1.154,1.154s-1.154-0.518-1.154-1.154
		S-52.257,9.346-51.621,9.346 M-51.621,7.576c-1.615,0-2.924,1.309-2.924,2.924s1.309,2.924,2.924,2.924
		c1.615,0,2.924-1.309,2.924-2.924S-50.006,7.576-51.621,7.576L-51.621,7.576z"/>
	<path d="M-51.621,16.422c0.636,0,1.154,0.518,1.154,1.154s-0.518,1.154-1.154,1.154s-1.154-0.518-1.154-1.154
		S-52.257,16.422-51.621,16.422 M-51.621,14.652c-1.615,0-2.924,1.309-2.924,2.924s1.309,2.924,2.924,2.924
		c1.615,0,2.924-1.309,2.924-2.924S-50.006,14.652-51.621,14.652L-51.621,14.652z"/>
	<path d="M-34.625,2.313c0,0.275-0.225,0.5-0.5,0.5h-11.349c-0.275,0-0.5-0.225-0.5-0.5V1.543c0-0.275,0.225-0.5,0.5-0.5h11.349
		c0.275,0,0.5,0.225,0.5,0.5V2.313z"/>
	<path d="M-38.225,5.306c0,0.275-0.225,0.5-0.5,0.5h-7.749c-0.275,0-0.5-0.225-0.5-0.5V4.535c0-0.275,0.225-0.5,0.5-0.5h7.749
		c0.275,0,0.5,0.225,0.5,0.5V5.306z"/>
	<path d="M-34.625,16.465c0,0.275-0.225,0.5-0.5,0.5h-11.349c-0.275,0-0.5-0.225-0.5-0.5v-0.771c0-0.275,0.225-0.5,0.5-0.5h11.349
		c0.275,0,0.5,0.225,0.5,0.5V16.465z"/>
	<path d="M-38.225,19.457c0,0.275-0.225,0.5-0.5,0.5h-7.749c-0.275,0-0.5-0.225-0.5-0.5v-0.771c0-0.275,0.225-0.5,0.5-0.5h7.749
		c0.275,0,0.5,0.225,0.5,0.5V19.457z"/>
	<path d="M-34.625,10.885c0,0.275-0.225,0.5-0.5,0.5h-11.349c-0.275,0-0.5-0.225-0.5-0.5v-0.771c0-0.275,0.225-0.5,0.5-0.5h11.349
		c0.275,0,0.5,0.225,0.5,0.5V10.885z"/>
	<path d="M-18.065,18.748c-0.135-0.017-0.268-0.038-0.401-0.061C-18.332,18.709-18.2,18.731-18.065,18.748z"/>
	<path d="M-18.756,20.358c-0.182-0.032-0.364-0.067-0.544-0.109C-19.12,20.291-18.939,20.326-18.756,20.358z"/>
	<path d="M-17.727,20.481c-0.181-0.012-0.362-0.026-0.545-0.049C-18.092,20.454-17.91,20.469-17.727,20.481z"/>
	<path d="M-17.432,20.508l0.088,0.003l0-0.01c-0.128-0.004-0.256-0.011-0.383-0.019C-17.629,20.487-17.529,20.504-17.432,20.508z"/>
	<path d="M-18.272,20.432c-0.163-0.02-0.323-0.046-0.484-0.074C-18.593,20.386-18.434,20.412-18.272,20.432z"/>
	<path d="M-19.53,20.204c0.076,0.019,0.153,0.028,0.23,0.046c-0.076-0.018-0.151-0.039-0.227-0.058L-19.53,20.204z"/>
	<path d="M-17.593,18.789c-0.158-0.01-0.315-0.022-0.472-0.042C-17.909,18.767-17.752,18.779-17.593,18.789z"/>
	<path d="M-18.466,18.686c-0.148-0.026-0.296-0.054-0.442-0.088C-18.762,18.632-18.614,18.661-18.466,18.686z"/>
	<g>
		<path d="M-17.339,4.983h-0.597c-0.274,0-0.498,0.224-0.498,0.498v5.194v0.498c0,0.318,0.189,0.606,0.481,0.732l0.457,0.197l0,0
			l2.68,1.158l2.68,1.158c0.252,0.109,0.546-0.008,0.655-0.26l0.237-0.549c0.109-0.251-0.008-0.546-0.26-0.655l0,0l-2.44-1.054
			l-2.44-1.054c-0.251-0.109-0.457-0.422-0.457-0.696v-4.67C-16.841,5.207-17.065,4.983-17.339,4.983z"/>
		<path d="M-18.062,18.725c-0.134-0.016-0.267-0.038-0.4-0.061c-0.148-0.026-0.295-0.054-0.441-0.088
			c-3.68-0.848-6.434-4.143-6.434-8.077c0-4.574,3.721-8.295,8.295-8.295c1.131,0,2.21,0.229,3.193,0.641
			c0.097,0.041,0.189,0.089,0.284,0.133c0.401,0.185,0.789,0.396,1.154,0.642l-0.624,0.902c-0.174,0.252-0.067,0.435,0.238,0.408
			l2.718-0.243C-9.772,4.66-9.59,4.397-9.672,4.102l-0.73-2.63c-0.082-0.295-0.291-0.33-0.465-0.079l-0.579,0.837
			c-0.005-0.003-0.009-0.007-0.014-0.01c-0.009-0.006-0.019-0.011-0.028-0.017c-0.411-0.276-0.847-0.513-1.298-0.726
			c-0.14-0.066-0.277-0.137-0.419-0.197c-0.032-0.013-0.066-0.023-0.098-0.036c-1.156-0.469-2.416-0.733-3.739-0.733
			c-5.508,0-9.989,4.481-9.989,9.989c0,4.651,3.2,8.558,7.511,9.665c0.075,0.019,0.15,0.041,0.226,0.058
			c0.18,0.042,0.361,0.077,0.543,0.108c0.16,0.028,0.32,0.054,0.482,0.074c0.183,0.022,0.363,0.037,0.544,0.049
			c0.127,0.009,0.254,0.016,0.382,0.019l0.012-1.683c-0.087-0.003-0.173-0.017-0.26-0.023
			C-17.75,18.757-17.907,18.745-18.062,18.725z"/>
		<path d="M-9.698,6.664l0.34,0.735c0.101,0.255,0.397,0.392,0.656,0.305l0.661-0.221c0.26-0.087,0.39-0.366,0.289-0.621
			L-8.247,5.79c-0.128-0.242-0.425-0.324-0.66-0.183l-0.597,0.36C-9.739,6.108-9.826,6.422-9.698,6.664z"/>
		<path d="M-11.264,17.129c-0.18-0.206-0.504-0.237-0.72-0.069l-0.665,0.463c-0.233,0.144-0.316,0.459-0.185,0.699l0.334,0.613
			c0.131,0.24,0.429,0.319,0.662,0.175l0.966-0.674c0.216-0.169,0.245-0.476,0.065-0.682L-11.264,17.129z"/>
		<path d="M-8.734,15.093l-0.61-0.338c-0.24-0.133-0.555-0.052-0.701,0.18l-0.468,0.663c-0.17,0.215-0.141,0.539,0.065,0.72
			l0.523,0.462c0.205,0.181,0.512,0.154,0.682-0.061l0.68-0.962C-8.418,15.525-8.494,15.226-8.734,15.093z"/>
		<path d="M-7.664,11.975l-0.69-0.108c-0.271-0.042-0.539,0.142-0.596,0.41l-0.212,0.782c-0.086,0.26,0.052,0.555,0.307,0.655
			l0.649,0.255c0.255,0.1,0.534-0.031,0.62-0.291l0.309-1.14C-7.219,12.271-7.394,12.017-7.664,11.975z"/>
		<path d="M-7.054,10.323c-0.002-0.118-0.006-0.234-0.013-0.351c-0.024-0.465-0.092-0.893-0.092-0.893
			C-7.201,8.809-7.456,8.63-7.725,8.682L-8.41,8.814c-0.269,0.052-0.462,0.267-0.429,0.477c0.033,0.21,0.083,0.836,0.086,0.917
			c0.003,0.081,0.006,0.201,0.006,0.266c0.001,0.065,0.222,0.24,0.496,0.247l0.697,0.019c0.274,0.007,0.5-0.115,0.503-0.272
			C-7.051,10.469-7.051,10.469-7.054,10.323z"/>
		<path d="M-13.876,18.706c-0.099-0.256-0.393-0.396-0.653-0.311l-0.782,0.207c-0.268,0.055-0.455,0.323-0.414,0.593l0.104,0.69
			c0.041,0.271,0.293,0.447,0.562,0.392l1.141-0.302c0.261-0.084,0.393-0.363,0.295-0.618L-13.876,18.706z"/>
	</g>
	<path d="M-17.042-1.94"/>
	<path d="M-66.188,30.636c0.813,0,1.5,0.687,1.5,1.5v12c0,0.813-0.687,1.5-1.5,1.5h-12c-0.813,0-1.5-0.687-1.5-1.5v-12
		c0-0.813,0.687-1.5,1.5-1.5H-66.188 M-66.188,28.136h-12c-2.2,0-4,1.8-4,4v12c0,2.2,1.8,4,4,4h12c2.2,0,4-1.8,4-4v-12
		C-62.188,29.936-63.988,28.136-66.188,28.136L-66.188,28.136z"/>
	<path d="M-38.625,30.636c0.813,0,1.5,0.687,1.5,1.5v12c0,0.813-0.687,1.5-1.5,1.5h-12c-0.813,0-1.5-0.687-1.5-1.5v-12
		c0-0.813,0.687-1.5,1.5-1.5H-38.625 M-38.625,28.136h-12c-2.2,0-4,1.8-4,4v12c0,2.2,1.8,4,4,4h12c2.2,0,4-1.8,4-4v-12
		C-34.625,29.936-36.425,28.136-38.625,28.136L-38.625,28.136z"/>
	<rect x="-47.625" y="35.136" opacity="0.3" width="6" height="6"/>
	<path d="M-11.042,30.636c0.813,0,1.5,0.687,1.5,1.5v12c0,0.813-0.687,1.5-1.5,1.5h-12c-0.813,0-1.5-0.687-1.5-1.5v-12
		c0-0.813,0.687-1.5,1.5-1.5H-11.042 M-11.042,28.136h-12c-2.2,0-4,1.8-4,4v12c0,2.2,1.8,4,4,4h12c2.2,0,4-1.8,4-4v-12
		C-7.042,29.936-8.842,28.136-11.042,28.136L-11.042,28.136z"/>
	<rect x="-20.042" y="35.136" width="6" height="6"/>
	<g>
		<path d="M-72.188,58.261c4.136,0,7.5,3.364,7.5,7.5s-3.364,7.5-7.5,7.5s-7.5-3.364-7.5-7.5S-76.323,58.261-72.188,58.261
			 M-72.188,55.761c-5.523,0-10,4.477-10,10c0,5.523,4.477,10,10,10c5.523,0,10-4.477,10-10
			C-62.188,60.239-66.665,55.761-72.188,55.761L-72.188,55.761z"/>
	</g>
	<g>
		<path d="M-44.625,58.261c4.136,0,7.5,3.364,7.5,7.5s-3.364,7.5-7.5,7.5s-7.5-3.364-7.5-7.5S-48.76,58.261-44.625,58.261
			 M-44.625,55.761c-5.523,0-10,4.477-10,10c0,5.523,4.477,10,10,10c5.523,0,10-4.477,10-10
			C-34.625,60.239-39.102,55.761-44.625,55.761L-44.625,55.761z"/>
	</g>
	<circle opacity="0.3" cx="-44.625" cy="65.761" r="3"/>
	<g>
		<path d="M-17.042,58.261c4.136,0,7.5,3.364,7.5,7.5s-3.364,7.5-7.5,7.5s-7.5-3.364-7.5-7.5S-21.177,58.261-17.042,58.261
			 M-17.042,55.761c-5.523,0-10,4.477-10,10c0,5.523,4.477,10,10,10c5.523,0,10-4.477,10-10
			C-7.042,60.239-11.519,55.761-17.042,55.761L-17.042,55.761z"/>
	</g>
	<circle cx="-17.042" cy="65.761" r="3"/>
	<g>
		<path d="M4.629,3.516l5.774,5.774c0.026,0.026,0.062,0.039,0.097,0.039c0.036,0,0.071-0.013,0.097-0.039l5.774-5.774l0.039-0.039
			c0.093-0.102,0.153-0.235,0.153-0.383c0-0.147-0.059-0.278-0.15-0.38c-0.027-0.024-0.055-0.047-0.083-0.07
			C14.694,1.263,12.646,0.5,10.5,0.5h0c0,0,0,0,0,0c-2.146,0-4.194,0.763-5.83,2.143C4.642,2.667,4.615,2.69,4.587,2.714
			c-0.091,0.102-0.15,0.233-0.15,0.38c0,0.149,0.06,0.281,0.153,0.383L4.629,3.516z M6.505,3.095
			C7.697,2.358,9.078,1.968,10.5,1.968c0,0,0,0,0,0l0,0c1.421,0,2.802,0.39,3.994,1.127c0.033,0.02,0.054,0.055,0.059,0.093
			c0.004,0.039-0.009,0.077-0.036,0.104l-3.928,3.928c-0.025,0.025-0.057,0.037-0.089,0.037c-0.033,0-0.065-0.012-0.089-0.037
			L6.482,3.293C6.455,3.266,6.442,3.227,6.446,3.188C6.451,3.15,6.473,3.116,6.505,3.095z"/>
		<path d="M9.329,10.5c0-0.036-0.013-0.071-0.039-0.097L3.516,4.629L3.477,4.59C3.375,4.497,3.242,4.437,3.094,4.437
			c-0.147,0-0.278,0.059-0.38,0.15C2.69,4.615,2.667,4.642,2.643,4.67C1.263,6.306,0.5,8.354,0.5,10.499v0v0
			c0,2.146,0.763,4.194,2.143,5.829c0.023,0.028,0.047,0.055,0.07,0.083c0.102,0.091,0.233,0.15,0.38,0.15
			c0.149,0,0.281-0.06,0.383-0.153l0.039-0.039l5.774-5.774C9.316,10.571,9.329,10.536,9.329,10.5z M7.221,10.59l-3.928,3.928
			c-0.027,0.027-0.066,0.041-0.104,0.036c-0.038-0.004-0.073-0.026-0.093-0.059c-0.737-1.192-1.127-2.573-1.127-3.994l0,0l0,0
			c0-1.421,0.39-2.802,1.127-3.994c0.02-0.033,0.055-0.054,0.093-0.059c0.039-0.004,0.077,0.009,0.104,0.036l3.928,3.928
			c0.025,0.025,0.037,0.057,0.037,0.089C7.258,10.533,7.245,10.565,7.221,10.59z"/>
		<path d="M16.371,17.484l-5.774-5.774c-0.026-0.026-0.062-0.039-0.097-0.039c-0.036,0-0.071,0.013-0.097,0.039l-5.774,5.774
			L4.59,17.523c-0.093,0.102-0.153,0.235-0.153,0.383c0,0.147,0.059,0.278,0.15,0.38c0.027,0.024,0.055,0.047,0.083,0.07
			C6.306,19.737,8.354,20.5,10.5,20.5c0,0,0,0,0,0h0c2.146,0,4.194-0.763,5.829-2.143c0.028-0.023,0.055-0.047,0.083-0.07
			c0.091-0.102,0.15-0.233,0.15-0.38c0-0.149-0.06-0.281-0.153-0.383L16.371,17.484z M14.495,17.905
			c-1.192,0.737-2.573,1.127-3.994,1.127l0,0c0,0,0,0,0,0c-1.421,0-2.802-0.39-3.994-1.127c-0.033-0.02-0.054-0.055-0.059-0.093
			c-0.004-0.039,0.009-0.077,0.036-0.104l3.928-3.928c0.025-0.025,0.057-0.037,0.089-0.037c0.033,0,0.065,0.012,0.089,0.037
			l3.928,3.928c0.027,0.027,0.041,0.066,0.036,0.104C14.549,17.85,14.527,17.884,14.495,17.905z"/>
		<path d="M18.357,4.67c-0.023-0.028-0.047-0.055-0.07-0.083c-0.102-0.091-0.233-0.15-0.38-0.15c-0.149,0-0.281,0.06-0.383,0.153
			l-0.039,0.039l-5.774,5.774c-0.026,0.026-0.039,0.062-0.039,0.097c0,0.036,0.013,0.071,0.039,0.097l5.774,5.774l0.039,0.039
			c0.102,0.093,0.235,0.153,0.383,0.153c0.147,0,0.278-0.059,0.38-0.15c0.024-0.027,0.047-0.055,0.07-0.083
			c1.38-1.636,2.143-3.684,2.143-5.829v0v0C20.5,8.354,19.737,6.306,18.357,4.67z M19.032,10.5c0,1.421-0.39,2.802-1.127,3.994
			c-0.02,0.033-0.055,0.054-0.093,0.059c-0.039,0.004-0.077-0.009-0.104-0.036l-3.928-3.928c-0.025-0.025-0.037-0.057-0.037-0.09
			c0-0.033,0.012-0.065,0.037-0.089l3.928-3.928c0.027-0.027,0.066-0.041,0.104-0.036c0.038,0.004,0.073,0.026,0.093,0.059
			C18.642,7.697,19.032,9.078,19.032,10.5L19.032,10.5L19.032,10.5z"/>
	</g>
</g>
</svg>
