<?xml version="1.0" encoding="utf-8"?>
<!-- Generator: Adobe Illustrator 17.0.0, SVG Export Plug-In . SVG Version: 6.00 Build 0)  -->
<!DOCTYPE svg PUBLIC "-//W3C//DTD SVG 1.1//EN" "http://www.w3.org/Graphics/SVG/1.1/DTD/svg11.dtd">
<svg version="1.1" id="Layer_1" xmlns="http://www.w3.org/2000/svg" xmlns:xlink="http://www.w3.org/1999/xlink" x="0px" y="0px"
	 width="23.354px" height="38.504px" viewBox="0 0 23.354 38.504" enable-background="new 0 0 23.354 38.504" xml:space="preserve">
<g>
	<g id="Bulb_2_5_">
		<path fill="#FFFFFF" d="M21.254,4.997C19.071,1.866,15.494,0,11.677,0S4.283,1.866,2.099,4.997
			c-2.184,3.131-2.699,7.132-1.38,10.714c1.254,3.406,4.8,5.322,5.817,9.284c0.108,0.42,0.536,0.674,0.956,0.566
			c0.42-0.108,0.674-0.536,0.566-0.956c-0.055-0.215-0.117-0.427-0.186-0.638c-0.067-0.205-0.141-0.408-0.222-0.609
			c-0.078-0.195-0.162-0.388-0.252-0.579c-0.087-0.186-0.18-0.369-0.277-0.549c-0.095-0.176-0.194-0.35-0.298-0.522
			c-0.063-0.104-0.127-0.208-0.193-0.31c-0.104-0.163-0.212-0.323-0.323-0.482c-0.108-0.155-0.219-0.308-0.332-0.46
			c-0.11-0.147-0.222-0.293-0.335-0.438c-0.111-0.141-0.224-0.282-0.337-0.421c-0.111-0.136-0.223-0.271-0.335-0.406
			c-0.126-0.151-0.252-0.301-0.378-0.451c-0.12-0.143-0.241-0.286-0.361-0.43c-0.103-0.124-0.206-0.248-0.308-0.373
			c-0.099-0.122-0.198-0.245-0.295-0.369c-0.094-0.12-0.187-0.242-0.278-0.365C3.294,17.13,3.24,17.056,3.187,16.98
			c-0.084-0.118-0.166-0.238-0.245-0.359c-0.077-0.118-0.151-0.238-0.223-0.359c-0.07-0.118-0.136-0.238-0.2-0.36
			c-0.062-0.12-0.121-0.241-0.175-0.364c-0.054-0.121-0.104-0.245-0.15-0.369c-1.141-3.1-0.695-6.562,1.194-9.272
			c1.89-2.71,4.985-4.325,8.288-4.325s6.399,1.615,8.288,4.324c1.89,2.71,2.336,6.172,1.194,9.272
			c-0.065,0.177-0.139,0.351-0.22,0.521c-0.083,0.174-0.173,0.344-0.269,0.511c-0.1,0.173-0.206,0.342-0.316,0.508
			c-0.115,0.173-0.236,0.343-0.36,0.509c-0.129,0.174-0.262,0.346-0.398,0.516c-0.141,0.177-0.285,0.352-0.43,0.526
			c-0.075,0.09-0.149,0.179-0.224,0.268c-0.146,0.174-0.292,0.347-0.438,0.52c-0.16,0.19-0.319,0.382-0.475,0.574
			c-0.162,0.199-0.322,0.4-0.479,0.604c-0.161,0.21-0.319,0.423-0.471,0.64c-0.157,0.224-0.309,0.451-0.453,0.683
			c-0.149,0.24-0.291,0.484-0.424,0.733c-0.137,0.258-0.265,0.521-0.381,0.789c-0.121,0.278-0.23,0.561-0.326,0.849
			c-0.1,0.299-0.186,0.603-0.257,0.911c-0.074,0.321-0.133,0.646-0.176,0.972c-0.027,0.206,0.01,0.367,0.126,0.54
			c-3.18,0.795-6.361,1.59-9.542,2.385c-0.421,0.105-0.677,0.532-0.572,0.953c0.105,0.421,0.532,0.677,0.953,0.572
			c3.892-0.973,7.785-1.946,11.677-2.919c0.421-0.105,0.677-0.532,0.572-0.953c-0.105-0.421-0.532-0.677-0.953-0.572
			c-0.233,0.058-0.466,0.117-0.7,0.175c0.628-4.654,4.656-6.596,6.01-10.273C23.954,12.129,23.438,8.128,21.254,4.997z"/>
		<path fill="#FFFFFF" d="M17.325,31.536c-3.892,0.973-7.785,1.946-11.677,2.919c-0.421,0.105-0.677,0.532-0.572,0.953
			s0.532,0.677,0.953,0.572c3.892-0.973,7.785-1.946,11.677-2.919c0.421-0.105,0.677-0.532,0.572-0.953
			C18.172,31.687,17.746,31.431,17.325,31.536z"/>
		<path fill="#FFFFFF" d="M13.438,36.158c-0.947,1.033-2.575,1.033-3.521,0c-0.293-0.32-0.79-0.341-1.11-0.048
			s-0.342,0.79-0.048,1.11c0.75,0.818,1.809,1.284,2.919,1.284s2.169-0.466,2.919-1.284c0.293-0.32,0.272-0.817-0.048-1.11
			C14.228,35.816,13.731,35.838,13.438,36.158z"/>
		<path fill="#FFFFFF" d="M17.325,28.673c-3.892,0.973-7.785,1.946-11.677,2.919c-0.421,0.105-0.677,0.532-0.572,0.953
			c0.105,0.421,0.532,0.677,0.953,0.572c3.892-0.973,7.785-1.946,11.677-2.919c0.421-0.105,0.677-0.532,0.572-0.953
			C18.172,28.824,17.746,28.568,17.325,28.673z"/>
		<path fill="#FFFFFF" d="M13.363,16.339c-0.049,0.098-0.096,0.197-0.14,0.297c-0.046,0.104-0.089,0.21-0.131,0.316
			c-0.043,0.111-0.084,0.223-0.122,0.335c-0.04,0.117-0.078,0.236-0.114,0.354c-0.038,0.124-0.073,0.249-0.107,0.374
			c-0.035,0.131-0.068,0.262-0.1,0.394c-0.033,0.138-0.064,0.276-0.093,0.414c-0.03,0.145-0.059,0.29-0.086,0.435
			c-0.028,0.152-0.055,0.304-0.08,0.456c-0.026,0.159-0.05,0.317-0.073,0.477c-0.016,0.11-0.031,0.219-0.045,0.329
			c-0.022,0.17-0.043,0.341-0.063,0.512c-0.02,0.177-0.039,0.355-0.057,0.533c-0.018,0.185-0.035,0.369-0.051,0.554
			c-0.033,0.391-0.06,0.782-0.083,1.173c-0.025,0.433,0.305,0.805,0.738,0.831s0.805-0.305,0.831-0.738
			c0.017-0.286,0.036-0.573,0.058-0.858c0.021-0.269,0.044-0.538,0.071-0.807c0.025-0.252,0.052-0.503,0.083-0.754
			c0.023-0.184,0.047-0.367,0.073-0.55c0.032-0.221,0.067-0.441,0.105-0.66c0.035-0.203,0.074-0.405,0.116-0.607
			c0.02-0.095,0.041-0.189,0.062-0.283c0.021-0.09,0.042-0.18,0.065-0.27c0.022-0.086,0.044-0.171,0.068-0.256
			c0.022-0.081,0.046-0.162,0.07-0.242c0.023-0.076,0.047-0.152,0.072-0.228c0.024-0.072,0.049-0.143,0.074-0.214
			c0.024-0.067,0.05-0.134,0.076-0.2c0.025-0.062,0.051-0.124,0.078-0.185c0.025-0.057,0.052-0.114,0.079-0.171
			c0.023-0.047,0.046-0.093,0.071-0.14c0.026-0.048,0.052-0.096,0.08-0.143c0.026-0.043,0.052-0.086,0.08-0.129
			c0.026-0.039,0.052-0.077,0.08-0.114c0.025-0.034,0.051-0.067,0.079-0.1c0.025-0.029,0.05-0.058,0.077-0.086
			c0.024-0.025,0.049-0.049,0.074-0.073c0.023-0.021,0.047-0.041,0.071-0.06c0.506-0.393,0.354-1.193-0.261-1.374
			c-0.281-0.083-0.565-0.156-0.851-0.219c-0.282-0.062-0.567-0.115-0.853-0.157c-0.284-0.042-0.569-0.073-0.855-0.094
			c-0.285-0.021-0.571-0.032-0.856-0.032s-0.571,0.011-0.856,0.032c-0.286,0.021-0.571,0.053-0.855,0.094
			c-0.286,0.042-0.571,0.095-0.853,0.157c-0.286,0.063-0.57,0.136-0.851,0.219c-0.614,0.181-0.766,0.981-0.261,1.374
			c0.025,0.019,0.048,0.039,0.071,0.06c0.026,0.023,0.05,0.048,0.074,0.073c0.027,0.028,0.052,0.056,0.077,0.086
			c0.027,0.032,0.053,0.066,0.079,0.1c0.028,0.037,0.054,0.075,0.08,0.114c0.028,0.042,0.055,0.085,0.08,0.129
			c0.028,0.047,0.055,0.095,0.08,0.143c0.025,0.046,0.048,0.093,0.071,0.14c0.027,0.056,0.054,0.113,0.079,0.171
			c0.027,0.061,0.053,0.123,0.078,0.185c0.026,0.066,0.052,0.133,0.076,0.2c0.026,0.071,0.051,0.142,0.074,0.214
			c0.025,0.076,0.049,0.152,0.072,0.228c0.05,0.165,0.095,0.331,0.138,0.498c0.046,0.183,0.088,0.368,0.127,0.553
			c0.042,0.202,0.081,0.404,0.116,0.607c0.038,0.22,0.073,0.44,0.105,0.66c0.026,0.183,0.051,0.367,0.073,0.55
			c0.031,0.251,0.058,0.503,0.083,0.754c0.027,0.269,0.05,0.537,0.071,0.807c0.022,0.286,0.041,0.572,0.058,0.858
			c0.025,0.433,0.397,0.764,0.831,0.738c0.433-0.025,0.764-0.397,0.738-0.831c-0.023-0.391-0.05-0.782-0.083-1.173
			c-0.031-0.363-0.066-0.725-0.107-1.087c-0.032-0.281-0.068-0.561-0.108-0.841c-0.023-0.159-0.047-0.318-0.073-0.477
			c-0.025-0.152-0.051-0.304-0.08-0.456c-0.027-0.145-0.056-0.29-0.086-0.435c-0.029-0.139-0.06-0.277-0.093-0.414
			c-0.031-0.132-0.064-0.263-0.1-0.394c-0.034-0.125-0.069-0.25-0.107-0.374c-0.036-0.119-0.074-0.237-0.114-0.354
			c-0.039-0.112-0.079-0.224-0.122-0.335c-0.041-0.106-0.085-0.212-0.131-0.316c-0.044-0.1-0.091-0.199-0.14-0.297
			c-0.022-0.043-0.044-0.086-0.066-0.128c-0.017-0.033-0.035-0.065-0.053-0.097c0.108-0.019,0.216-0.037,0.324-0.053
			c0.246-0.036,0.494-0.064,0.742-0.082c0.247-0.018,0.494-0.027,0.741-0.027s0.494,0.009,0.741,0.027
			c0.248,0.018,0.496,0.046,0.742,0.082c0.108,0.016,0.216,0.034,0.324,0.053c-0.018,0.032-0.036,0.065-0.053,0.097
			C13.407,16.253,13.385,16.296,13.363,16.339z"/>
	</g>
</g>
</svg>
