<?xml version="1.0" encoding="utf-8"?>
<!-- Generator: Adobe Illustrator 17.0.0, SVG Export Plug-In . SVG Version: 6.00 Build 0)  -->
<!DOCTYPE svg PUBLIC "-//W3C//DTD SVG 1.1//EN" "http://www.w3.org/Graphics/SVG/1.1/DTD/svg11.dtd">
<svg version="1.1" id="Capa_1" xmlns="http://www.w3.org/2000/svg" xmlns:xlink="http://www.w3.org/1999/xlink" x="0px" y="0px"
	 width="100px" height="100px" viewBox="184.767 129.744 100 100" enable-background="new 184.767 129.744 100 100"
	 xml:space="preserve">
<path fill="#ef4527" d="M242.701,92.407c-0.825,0.206-1.665,0.388-2.5,0.542c-2.181,0.406-3.624,2.504-3.22,4.687
	c0.199,1.074,0.809,1.969,1.638,2.553c0.854,0.601,1.94,0.872,3.047,0.666c0.994-0.184,1.995-0.401,2.978-0.647
	c2.154-0.536,3.466-2.718,2.929-4.871C247.037,93.182,244.857,91.871,242.701,92.407z"/>
<path fill="#ef4527" d="M272.43,38.523c0.282,0.849,0.819,1.542,1.498,2.02c1.007,0.709,2.324,0.948,3.582,0.532c2.108-0.7,3.25-2.973,2.553-5.08
	c-0.318-0.96-0.67-1.924-1.046-2.862c-0.825-2.061-3.163-3.065-5.225-2.241c-2.06,0.824-3.065,3.163-2.239,5.225
	C271.867,36.907,272.163,37.716,272.43,38.523z"/>
<path fill="#ef4527" d="M255.764,86.667c-0.709,0.468-1.441,0.921-2.178,1.346c-1.924,1.11-2.583,3.569-1.473,5.491
	c0.301,0.523,0.702,0.951,1.164,1.277c1.24,0.872,2.924,1.003,4.327,0.195c0.877-0.506,1.748-1.043,2.593-1.602
	c1.852-1.223,2.361-3.718,1.137-5.57C260.11,85.952,257.617,85.443,255.764,86.667z"/>
<path fill="#ef4527" d="M282.562,49.751c-0.087-2.219-1.956-3.946-4.176-3.859c-2.217,0.087-3.945,1.957-3.858,4.175
	c0.033,0.848,0.042,1.709,0.022,2.556c-0.031,1.391,0.649,2.632,1.707,3.377c0.63,0.444,1.395,0.712,2.224,0.731
	c2.219,0.049,4.058-1.711,4.107-3.931C282.61,51.788,282.602,50.763,282.562,49.751z"/>
<path fill="#ef4527" d="M271.774,76.092c-1.779-1.335-4.296-0.972-5.629,0.804c-0.51,0.68-1.048,1.352-1.598,1.999
	c-1.438,1.69-1.235,4.227,0.455,5.667c0.096,0.082,0.194,0.157,0.295,0.227c1.68,1.184,4.014,0.912,5.372-0.682
	c0.657-0.772,1.298-1.574,1.908-2.386C273.909,79.944,273.548,77.425,271.774,76.092z"/>
<path fill="#ef4527" d="M277.683,61.56c-2.118-0.664-4.374,0.515-5.038,2.633c-0.254,0.809-0.536,1.623-0.84,2.419
	c-0.667,1.753-0.028,3.682,1.438,4.716c0.269,0.189,0.565,0.349,0.887,0.471c2.074,0.792,4.397-0.249,5.187-2.324
	c0.361-0.947,0.696-1.914,0.999-2.877C280.979,64.479,279.801,62.224,277.683,61.56z"/>
<path fill="#ef4527" d="M225.162,92.985c-3.594-0.645-7.042-1.744-10.311-3.277c-0.039-0.02-0.073-0.043-0.114-0.062
	c-0.77-0.363-1.54-0.751-2.285-1.157c-0.003-0.003-0.007-0.005-0.011-0.007c-1.368-0.753-2.703-1.587-4-2.5
	c-18.911-13.321-23.457-39.544-10.135-58.454c2.897-4.11,6.402-7.54,10.311-10.258c0.048-0.034,0.096-0.067,0.144-0.101
	c13.772-9.489,32.472-10.129,47.096-0.378l-3.141,4.538c-0.873,1.263-0.336,2.184,1.193,2.046l13.643-1.221
	c1.531-0.138,2.446-1.461,2.034-2.94l-3.664-13.2c-0.41-1.48-1.46-1.657-2.334-0.394l-3.148,4.549
	c-10.732-7.204-23.603-9.951-36.379-7.736c-1.287,0.223-2.555,0.495-3.807,0.813c-0.01,0.002-0.017,0.003-0.025,0.005
	c-0.048,0.012-0.097,0.028-0.144,0.041c-11.017,2.829-20.629,9.255-27.488,18.422c-0.058,0.069-0.117,0.136-0.172,0.21
	c-0.228,0.307-0.454,0.621-0.676,0.936c-0.362,0.515-0.72,1.043-1.061,1.571c-0.043,0.064-0.075,0.128-0.113,0.193
	c-5.66,8.771-8.39,18.91-7.922,29.233c0.001,0.034-0.001,0.068,0,0.103c0.045,1.008,0.125,2.031,0.234,3.037
	c0.006,0.065,0.02,0.126,0.031,0.191c0.112,1.012,0.253,2.026,0.43,3.041c1.794,10.348,6.675,19.659,13.99,26.905
	c0.017,0.017,0.035,0.035,0.052,0.053c0.006,0.007,0.013,0.01,0.018,0.016c1.965,1.938,4.103,3.731,6.404,5.352
	c6.023,4.244,12.73,7.05,19.933,8.342c2.186,0.393,4.273-1.062,4.665-3.247C228.801,95.466,227.347,93.376,225.162,92.985z"/>
<g>
	<path fill="#ef4527" d="M263.648,139.772c-0.316-0.25-0.632-0.497-0.953-0.738c-8.255-6.188-18.09-9.29-27.929-9.29s-19.674,3.102-27.929,9.29
		c-0.32,0.24-0.637,0.488-0.953,0.738c-1.009,0.984-1.638,2.356-1.638,3.877c0,1.358,0.503,2.596,1.329,3.547l0.541,0.541
		l25.563,25.563l0.024,0.024c0.786,0.78,1.867,1.263,3.061,1.263s2.275-0.483,3.061-1.263l0.024-0.024l25.563-25.563l0.541-0.541
		c0.826-0.951,1.329-2.189,1.329-3.547C265.286,142.128,264.657,140.756,263.648,139.772z M254.67,145.169l-19.904,19.904
		l-19.904-19.904l-1.18-1.18c0.449-0.294,0.916-0.556,1.376-0.83c5.905-3.516,12.657-5.414,19.708-5.414s13.804,1.898,19.708,5.414
		c0.46,0.274,0.926,0.536,1.376,0.83L254.67,145.169z"/>
	<path fill="#ef4527" d="M265.286,215.84c0-1.358-0.503-2.596-1.329-3.547l-0.541-0.541l-25.563-25.563l-0.024-0.024
		c-0.786-0.78-1.867-1.263-3.061-1.263s-2.275,0.483-3.061,1.263l-0.024,0.024l-25.563,25.563l-0.541,0.541
		c-0.826,0.951-1.329,2.189-1.329,3.547c0,1.521,0.628,2.893,1.638,3.877c0.316,0.25,0.632,0.497,0.953,0.738
		c8.255,6.188,18.09,9.29,27.929,9.29s19.674-3.102,27.929-9.29c0.32-0.24,0.637-0.488,0.953-0.738
		C264.657,218.733,265.286,217.36,265.286,215.84z M255.851,215.5c-0.449,0.294-0.916,0.556-1.376,0.83
		c-5.905,3.516-12.657,5.414-19.708,5.414s-13.804-1.898-19.708-5.414c-0.46-0.274-0.926-0.536-1.376-0.83l1.18-1.18l19.904-19.904
		l19.904,19.904L255.851,215.5z"/>
	<path fill="#ef4527" d="M270.862,149.225c-1.358,0-2.596,0.503-3.547,1.329l-0.541,0.541l-25.563,25.563l-0.024,0.024
		c-0.78,0.786-1.263,1.867-1.263,3.061s0.483,2.275,1.263,3.061l0.024,0.024l25.563,25.563l0.541,0.541
		c0.951,0.826,2.189,1.329,3.547,1.329c1.521,0,2.893-0.628,3.877-1.638c0.25-0.316,0.497-0.632,0.738-0.953
		c6.188-8.255,9.29-18.09,9.29-27.929s-3.102-19.674-9.29-27.929c-0.24-0.32-0.488-0.637-0.738-0.953
		C273.755,149.854,272.383,149.225,270.862,149.225z M270.523,158.66c0.294,0.449,0.556,0.916,0.83,1.376
		c3.516,5.905,5.414,12.657,5.414,19.708s-1.898,13.804-5.414,19.708c-0.274,0.46-0.536,0.926-0.83,1.376l-1.18-1.18l-19.904-19.904
		l19.904-19.904L270.523,158.66z"/>
	<path fill="#ef4527" d="M194.794,150.863c-0.25,0.316-0.497,0.632-0.738,0.953c-6.188,8.255-9.29,18.09-9.29,27.929s3.102,19.674,9.29,27.929
		c0.24,0.32,0.488,0.637,0.738,0.953c0.984,1.009,2.356,1.638,3.877,1.638c1.358,0,2.596-0.503,3.547-1.329l0.541-0.541
		l25.563-25.563l0.024-0.024c0.78-0.786,1.263-1.867,1.263-3.061s-0.483-2.275-1.263-3.061l-0.024-0.024l-25.563-25.563
		l-0.541-0.541c-0.951-0.826-2.189-1.329-3.547-1.329C197.151,149.225,195.778,149.854,194.794,150.863z M200.191,159.84
		l19.904,19.904l-19.904,19.904l-1.18,1.18c-0.294-0.449-0.556-0.916-0.83-1.376c-3.516-5.905-5.414-12.657-5.414-19.708
		s1.898-13.804,5.414-19.708c0.274-0.46,0.536-0.926,0.83-1.376L200.191,159.84z"/>
</g>
<g>
	<path fill="#ef4527" d="M314.581,138.595c3.181,0,5.77,2.588,5.77,5.77s-2.588,5.77-5.77,5.77s-5.77-2.588-5.77-5.77
		S311.4,138.595,314.581,138.595 M314.581,129.744c-8.074,0-14.62,6.546-14.62,14.62c0,8.074,6.546,14.62,14.62,14.62
		c8.074,0,14.62-6.546,14.62-14.62C329.201,136.29,322.656,129.744,314.581,129.744L314.581,129.744z"/>
</g>
<g>
	<path fill="#ef4527" d="M314.581,173.974c3.181,0,5.77,2.588,5.77,5.77c0,3.181-2.588,5.77-5.77,5.77s-5.77-2.588-5.77-5.77
		C308.811,176.563,311.4,173.974,314.581,173.974 M314.581,165.124c-8.074,0-14.62,6.546-14.62,14.62s6.546,14.62,14.62,14.62
		c8.074,0,14.62-6.546,14.62-14.62S322.656,165.124,314.581,165.124L314.581,165.124z"/>
</g>
<g>
	<path fill="#ef4527" d="M314.581,209.354c3.181,0,5.77,2.588,5.77,5.77s-2.588,5.77-5.77,5.77s-5.77-2.588-5.77-5.77
		S311.4,209.354,314.581,209.354 M314.581,200.504c-8.074,0-14.62,6.546-14.62,14.62s6.546,14.62,14.62,14.62
		c8.074,0,14.62-6.546,14.62-14.62S322.656,200.504,314.581,200.504L314.581,200.504z"/>
</g>
<line fill="none" stroke="#ef4527" stroke-width="8.8503" stroke-linecap="round" stroke-linejoin="round" stroke-miterlimit="10" x1="342.243" y1="136.883" x2="396.41" y2="136.883"/>
<line fill="none" stroke="#ef4527" stroke-width="8.8503" stroke-linecap="round" stroke-linejoin="round" stroke-miterlimit="10" x1="342.243" y1="151.846" x2="388.1" y2="151.846"/>
<line fill="none" stroke="#ef4527" stroke-width="8.8503" stroke-linecap="round" stroke-linejoin="round" stroke-miterlimit="10" x1="342.243" y1="179.744" x2="396.41" y2="179.744"/>
<g>
	
		<line fill="none" stroke="#ef4527" stroke-width="8.8503" stroke-linecap="round" stroke-linejoin="round" stroke-miterlimit="10" x1="342.243" y1="207.643" x2="396.41" y2="207.643"/>
	
		<line fill="none" stroke="#ef4527" stroke-width="8.8503" stroke-linecap="round" stroke-linejoin="round" stroke-miterlimit="10" x1="342.243" y1="222.606" x2="388.1" y2="222.606"/>
</g>
<polyline fill="none" stroke="#ef4527" stroke-width="8" stroke-linecap="round" stroke-linejoin="round" stroke-miterlimit="10" points="
	229.61,27.634 229.61,54.701 257.433,66.719 "/>
</svg>
