<?xml version="1.0" encoding="utf-8"?>
<!-- Generator: Adobe Illustrator 17.0.0, SVG Export Plug-In . SVG Version: 6.00 Build 0)  -->
<!DOCTYPE svg PUBLIC "-//W3C//DTD SVG 1.1//EN" "http://www.w3.org/Graphics/SVG/1.1/DTD/svg11.dtd">
<svg version="1.1" id="Capa_1" xmlns="http://www.w3.org/2000/svg" xmlns:xlink="http://www.w3.org/1999/xlink" x="0px" y="0px"
	 width="1224px" height="792px" viewBox="0 0 1224 792" enable-background="new 0 0 1224 792" xml:space="preserve">
<g>
	<path fill="#fff" d="M996.919,680.512L807.296,484.616c-13.598-14.054-30.592-19.681-37.955-12.496
		c-7.388,7.134-24.395,1.521-37.992-12.533l-2.712-2.812c84.869-111.621,76.632-271.437-25.282-373.352
		c-111.23-111.23-291.575-111.23-402.791,0c-111.23,111.23-111.23,291.549,0,402.779c103.65,103.664,267.243,110.608,379.093,21.074
		l1.191,1.242c13.572,14.054,18.628,31.226,11.216,38.372c-7.377,7.148-2.358,24.332,11.254,38.36l189.521,195.972
		c13.598,14.017,36.002,14.434,50.071,0.825l53.188-51.464C1010.111,717.008,1010.491,694.617,996.919,680.512z M640.764,423.609
		c-76.544,76.555-201.103,76.555-277.635,0.026c-76.544-76.544-76.532-201.117,0-277.647C439.662,69.444,564.221,69.456,640.739,146
		C717.294,222.532,717.294,347.079,640.764,423.609z"/>
</g>
</svg>
