<?xml version="1.0" encoding="utf-8"?>
<!-- Generator: Adobe Illustrator 15.0.0, SVG Export Plug-In . SVG Version: 6.00 Build 0)  -->
<!DOCTYPE svg PUBLIC "-//W3C//DTD SVG 1.1//EN" "http://www.w3.org/Graphics/SVG/1.1/DTD/svg11.dtd">
<svg version="1.1" id="Layer_1" xmlns="http://www.w3.org/2000/svg" xmlns:xlink="http://www.w3.org/1999/xlink" x="0px" y="0px"
	 width="692.24px" height="688.289px" viewBox="1040 -832 692.24 688.289" enable-background="new 1040 -832 692.24 688.289"
	 xml:space="preserve">
<g id="ring">
</g>
<path opacity="0.2" fill="#FFCE29" enable-background="new    " d="M1620.99-585.246c0.051,0.119,0.098,0.24,0.148,0.36
	c4.332,10.287,7.95,20.785,10.873,31.457c5.846,21.343,8.862,43.388,8.991,65.879c0.003,0.507,0.021,1.009,0.021,1.515
	c0,22.024-2.777,43.627-8.252,64.568c-2.812,10.75-6.342,21.322-10.576,31.691c-0.401,0.982-0.79,1.971-1.205,2.949
	c-12.512,29.584-30.297,56.221-52.859,79.223l28.62,28.621c27.375-27.832,48.585-60.139,62.938-95.264
	c4.879-11.939,8.951-24.209,12.22-36.734c6.313-24.207,9.59-49.377,9.59-75.055c0-0.506-0.017-1.01-0.019-1.516
	c-0.131-26.152-3.633-51.775-10.312-76.37c-3.381-12.449-7.582-24.629-12.561-36.486c-14.33-34.132-35.16-65.546-61.869-92.697
	l-28.621,28.621C1590.688-641.478,1608.477-614.833,1620.99-585.246z"/>
<g>
	<path fill="#444232" d="M1597.959-663.34c1.637-1.348,3.706-1.161,5.141,0.581c0.506,0.615,0.719,1.12,0.776,1.589l-1.126,0.927
		c-0.057-0.646-0.236-1.164-0.671-1.69c-0.833-1.013-2.028-0.995-3.073-0.135c-1.117,0.921-1.318,2.063-0.492,3.068
		c0.44,0.535,0.969,0.862,1.49,1.018l-1.062,0.873c-0.568-0.197-1.072-0.611-1.526-1.162
		C1596.027-659.957,1596.273-661.953,1597.959-663.34z"/>
	<path fill="#444232" d="M1607.596-656.981l0.977,1.249l-3.399,2.659c-1.405,1.1-2.888,0.926-3.981-0.472
		c-1.092-1.397-0.93-2.858,0.443-3.933l3.457-2.704l0.978,1.248l-3.481,2.724c-0.703,0.551-0.84,1.244-0.361,1.856
		c0.479,0.611,1.186,0.646,1.896,0.089L1607.596-656.981z"/>
	<path fill="#444232" d="M1610.655-650.041c-0.082-0.62-0.248-1.178-0.649-1.717c-0.375-0.505-0.738-0.588-1.043-0.362
		c-0.285,0.213-0.342,0.543-0.082,1.541c0.312,1.194,0.332,2.083-0.645,2.811c-1.012,0.752-2.318,0.456-3.247-0.791
		c-0.532-0.716-0.749-1.341-0.829-1.923l1.188-0.884c0.016,0.775,0.23,1.399,0.64,1.947c0.376,0.505,0.836,0.646,1.188,0.384
		c0.354-0.263,0.396-0.662,0.117-1.724c-0.305-1.147-0.225-2.007,0.618-2.634c0.91-0.677,2.207-0.412,3.167,0.877
		c0.451,0.606,0.611,0.997,0.738,1.608L1610.655-650.041z"/>
	<path fill="#444232" d="M1614.701-645.054l-1.061-1.489l-4.674,3.324l-0.919-1.293l4.675-3.324l-1.065-1.498l1.097-0.779
		l3.043,4.28L1614.701-645.054z"/>
	<path fill="#444232" d="M1612.098-638.551c-1.166-1.722-0.733-3.499,1.162-4.783c1.869-1.267,3.672-1.002,4.838,0.72
		c1.166,1.722,0.742,3.493-1.127,4.76C1615.074-636.57,1613.264-636.828,1612.098-638.551z M1617.012-641.877
		c-0.584-0.861-1.636-0.897-2.826-0.091c-1.209,0.819-1.584,1.821-1.002,2.683c0.584,0.86,1.652,0.885,2.861,0.066
		C1617.237-640.026,1617.594-641.016,1617.012-641.877z"/>
	<path fill="#444232" d="M1620.938-638.218l1.062,1.678l-1.738,2.243c-0.945,1.22-1.277,1.479-1.652,1.791
		c0.431-0.223,0.828-0.399,2.314-0.742l2.762-0.628l0.987,1.563l-5.62,4.362l-0.865-1.368l2.205-1.643
		c1.033-0.766,1.351-1.053,1.916-1.435c-0.61,0.312-1.153,0.456-2.365,0.724l-2.549,0.568l-0.656-1.039l1.595-2.078
		c0.64-0.839,1.136-1.389,1.662-1.834c-0.565,0.383-1.197,0.758-2.065,1.194l-2.464,1.235l-0.864-1.368L1620.938-638.218z"/>
	<path fill="#444232" d="M1623.191-623.578l-1.155,0.686l-2.244-3.784l6.089-3.61l2.223,3.749l-1.155,0.686l-1.414-2.385
		l-1.211,0.718l1.266,2.132l-1.155,0.686l-1.267-2.132l-1.409,0.836L1623.191-623.578z"/>
	<path fill="#444232" d="M1624.473-618.59l1.443-2.532l-0.057-0.101l-0.166-0.293l-2.178,1.224l-0.776-1.383l6.171-3.466l1.038,1.85
		c0.905,1.611,0.722,2.979-0.505,3.668c-0.842,0.473-1.692,0.396-2.463-0.206l-1.562,2.925L1624.473-618.59z M1626.866-622.174
		l0.304,0.54c0.375,0.668,0.922,0.891,1.473,0.582c0.484-0.272,0.551-0.84,0.176-1.508l-0.303-0.54L1626.866-622.174z"/>
	<path fill="#444232" d="M1632.551-614.875c0.014-0.625-0.066-1.2-0.383-1.793c-0.296-0.556-0.641-0.692-0.977-0.515
		c-0.312,0.167-0.418,0.484-0.312,1.51c0.131,1.227,0.016,2.106-1.059,2.679c-1.111,0.591-2.357,0.102-3.088-1.269
		c-0.42-0.788-0.539-1.437-0.53-2.023l1.308-0.695c-0.104,0.768,0.016,1.417,0.336,2.02c0.297,0.556,0.729,0.766,1.117,0.559
		c0.391-0.207,0.492-0.595,0.375-1.685c-0.127-1.18,0.082-2.016,1.008-2.509c1-0.532,2.24-0.075,2.995,1.342
		c0.354,0.667,0.454,1.077,0.489,1.7L1632.551-614.875z"/>
</g>
<g>
	<path fill="#444232" d="M1652.234-572.457c0.736,2.289-0.146,3.896-2.225,4.566c-2.13,0.686-3.843-0.317-4.519-2.417l-0.741-2.298
		l6.736-2.171L1652.234-572.457z M1646.766-570.739c0.393,1.22,1.416,1.694,2.735,1.27c1.3-0.419,1.834-1.396,1.438-2.625
		l-0.246-0.76l-4.178,1.346L1646.766-570.739z"/>
	<path fill="#444232" d="M1653.818-567.405l0.455,1.519l-6.775,2.036l-0.457-1.519L1653.818-567.405z"/>
	<path fill="#444232" d="M1654.215-559.812c0.145-0.607,0.188-1.188,0.006-1.834c-0.173-0.605-0.48-0.812-0.846-0.71
		c-0.344,0.097-0.513,0.385-0.627,1.409c-0.134,1.228-0.432,2.063-1.604,2.396c-1.213,0.343-2.328-0.4-2.748-1.896
		c-0.244-0.858-0.224-1.519-0.09-2.091l1.424-0.402c-0.264,0.729-0.284,1.39-0.1,2.046c0.172,0.605,0.551,0.902,0.975,0.783
		c0.425-0.12,0.606-0.478,0.725-1.568c0.125-1.181,0.506-1.954,1.518-2.239c1.09-0.308,2.207,0.402,2.644,1.947
		c0.207,0.728,0.216,1.15,0.116,1.767L1654.215-559.812z"/>
	<path fill="#444232" d="M1656.209-553.744l-0.459-1.768l-5.549,1.441l-0.398-1.535l5.549-1.441l-0.461-1.778l1.301-0.338
		l1.318,5.081L1656.209-553.744z"/>
	<path fill="#444232" d="M1651.766-547.668l2.088-2.035l-0.026-0.113l-0.076-0.327l-2.435,0.574l-0.363-1.544l6.891-1.625
		l0.487,2.065c0.424,1.799-0.131,3.063-1.5,3.386c-0.94,0.223-1.735-0.087-2.312-0.879l-2.311,2.379L1651.766-547.668z
		 M1655.059-550.453l0.143,0.604c0.176,0.746,0.64,1.111,1.254,0.967c0.541-0.127,0.764-0.654,0.587-1.4l-0.144-0.604
		L1655.059-550.453z"/>
	<path fill="#444232" d="M1659.379-546.064l0.336,1.551l-6.923,1.491l-0.334-1.551L1659.379-546.064z"/>
	<path fill="#444232" d="M1660.564-540.332c0.326,1.648-0.192,2.767-1.397,3.004c-0.669,0.132-1.265-0.168-1.63-0.78
		c-0.01,0.868-0.52,1.493-1.344,1.655c-1.266,0.25-2.205-0.656-2.553-2.418l-0.475-2.41l6.941-1.368L1660.564-540.332z
		 M1654.973-539.069c0.139,0.7,0.5,1.068,0.974,0.975c0.493-0.098,0.723-0.57,0.584-1.271l-0.183-0.927l-1.556,0.307
		L1654.973-539.069z M1659.098-540.833l-1.474,0.29l0.153,0.783c0.123,0.617,0.482,0.921,0.925,0.834
		c0.464-0.091,0.671-0.507,0.553-1.104L1659.098-540.833z"/>
	<path fill="#444232" d="M1662.072-532.042l0.268,1.562l-4.252,0.729c-1.76,0.301-2.98-0.555-3.279-2.303
		c-0.301-1.749,0.537-2.957,2.254-3.25l4.324-0.74l0.269,1.562l-4.354,0.745c-0.88,0.15-1.33,0.695-1.199,1.461
		c0.131,0.767,0.737,1.131,1.627,0.979L1662.072-532.042z"/>
	<path fill="#444232" d="M1661.969-523.767l-0.263-1.809l-5.674,0.825l-0.228-1.569l5.672-0.825l-0.263-1.818l1.33-0.193
		l0.754,5.196L1661.969-523.767z"/>
	<path fill="#444232" d="M1663.475-522.617l0.203,1.573l-7.023,0.905l-0.203-1.574L1663.475-522.617z"/>
	<path fill="#444232" d="M1657.123-515.379c-0.225-2.066,0.99-3.434,3.266-3.68c2.244-0.243,3.713,0.834,3.937,2.9
		s-0.979,3.433-3.224,3.675C1658.825-512.238,1657.348-513.313,1657.123-515.379z M1663.02-516.018
		c-0.111-1.033-1.023-1.558-2.453-1.402c-1.451,0.157-2.252,0.866-2.139,1.899c0.11,1.033,1.043,1.556,2.494,1.398
		C1662.352-514.277,1663.132-514.984,1663.02-516.018z"/>
	<path fill="#444232" d="M1664.746-511.168l0.146,1.874l-2.799,1.769c-1.175,0.745-1.859,0.999-2.177,1.119
		c0.331-0.068,1.026-0.187,2.242-0.282l2.92-0.229l0.125,1.581l-7.056,0.555l-0.147-1.873l2.796-1.811
		c1.112-0.72,1.922-1.025,2.219-1.134c-0.302,0.066-1.129,0.247-2.281,0.338l-2.92,0.229l-0.125-1.58L1664.746-511.168z"/>
</g>
<g>
	<path fill="#444232" d="M1661.673-466.646c2.114,0.168,3.474,1.742,3.293,3.992c-0.063,0.795-0.263,1.307-0.546,1.684l-1.455-0.115
		c0.409-0.506,0.639-1.003,0.693-1.683c0.105-1.31-0.768-2.127-2.117-2.233c-1.443-0.117-2.384,0.565-2.488,1.864
		c-0.055,0.69,0.098,1.293,0.364,1.767l-1.37-0.109c-0.273-0.537-0.349-1.186-0.292-1.896
		C1657.93-465.557,1659.495-466.822,1661.673-466.646z"/>
	<path fill="#444232" d="M1657.186-457.332c0.217-2.066,1.692-3.146,3.967-2.906c2.244,0.236,3.453,1.598,3.234,3.664
		c-0.218,2.066-1.683,3.146-3.925,2.91C1658.186-453.902,1656.969-455.266,1657.186-457.332z M1663.083-456.711
		c0.108-1.033-0.672-1.738-2.103-1.891c-1.45-0.15-2.381,0.373-2.49,1.406c-0.108,1.033,0.693,1.74,2.145,1.893
		C1662.064-455.15,1662.975-455.68,1663.083-456.711z"/>
	<path fill="#444232" d="M1663.732-451.377l-0.268,1.967l-2.773,0.598c-1.508,0.324-1.928,0.311-2.416,0.307
		c0.474,0.107,0.892,0.229,2.248,0.922l2.517,1.297l-0.25,1.832l-7.106-0.279l0.219-1.604l2.744,0.162
		c1.283,0.078,1.709,0.062,2.39,0.135c-0.668-0.154-1.177-0.395-2.274-0.967l-2.314-1.207l0.164-1.217l2.559-0.562
		c1.027-0.23,1.762-0.332,2.451-0.334c-0.68-0.07-1.404-0.191-2.35-0.416l-2.68-0.641l0.221-1.604L1663.732-451.377z"/>
	<path fill="#444232" d="M1662.066-440.029c-0.303,1.824-1.346,2.77-2.795,2.527c-1.514-0.252-2.231-1.5-1.924-3.355l0.082-0.486
		l-2.259-0.375l0.261-1.564l6.981,1.162L1662.066-440.029z M1658.654-440.512c-0.125,0.756,0.201,1.279,0.886,1.393
		c0.622,0.104,1.062-0.291,1.187-1.047l0.103-0.611l-2.072-0.346L1658.654-440.512z"/>
	<path fill="#444232" d="M1654.857-432.395l-1.32-0.25l0.818-4.322l6.951,1.316l-0.81,4.281l-1.321-0.25l0.516-2.725l-1.381-0.262
		l-0.461,2.436l-1.32-0.25l0.461-2.436l-1.609-0.305L1654.857-432.395z"/>
	<path fill="#444232" d="M1657.889-425.494l0.379-1.787l-5.604-1.191l0.328-1.551l5.606,1.191l0.383-1.799l1.314,0.279l-1.092,5.135
		L1657.889-425.494z"/>
	<path fill="#444232" d="M1658.905-423.906l-0.354,1.547l-6.9-1.584l0.354-1.547L1658.905-423.906z"/>
	<path fill="#444232" d="M1655.678-416.264l0.439-1.771l-5.564-1.385l0.383-1.539l5.564,1.385l0.443-1.785l1.305,0.324l-1.268,5.098
		L1655.678-416.264z"/>
	<path fill="#444232" d="M1656.631-414.635l-0.408,1.533l-6.838-1.82l0.407-1.531L1656.631-414.635z"/>
	<path fill="#444232" d="M1648.014-410.33c0.577-1.998,2.219-2.803,4.418-2.166c2.168,0.627,3.118,2.18,2.541,4.176
		c-0.576,1.998-2.209,2.805-4.377,2.178C1648.396-406.777,1647.436-408.334,1648.014-410.33z M1653.713-408.684
		c0.288-0.998-0.357-1.83-1.738-2.229c-1.401-0.406-2.412-0.053-2.699,0.945c-0.288,0.998,0.377,1.836,1.777,2.24
		C1652.436-407.326,1653.424-407.686,1653.713-408.684z"/>
	<path fill="#444232" d="M1653.494-403.57l-0.571,1.793l-3.261,0.58c-1.369,0.248-2.102,0.225-2.439,0.217
		c0.334,0.062,1.023,0.215,2.185,0.584l2.793,0.891l-0.481,1.512l-6.746-2.148l0.57-1.793l3.273-0.621
		c1.303-0.246,2.166-0.225,2.481-0.213c-0.303-0.053-1.139-0.197-2.239-0.547l-2.793-0.891l0.481-1.512L1653.494-403.57z"/>
</g>
<g>
	<path fill="#444232" d="M1626.9-343.531c-0.855,1.443-1.988,1.934-3.045,1.307c-0.588-0.348-0.83-0.967-0.693-1.668
		c-0.589,0.641-1.384,0.768-2.105,0.338c-1.11-0.658-1.207-1.961-0.291-3.506l1.254-2.113l6.088,3.609L1626.9-343.531z
		 M1621.889-346.32c-0.363,0.615-0.34,1.129,0.076,1.375c0.434,0.258,0.92,0.057,1.283-0.557l0.48-0.812l-1.362-0.811
		L1621.889-346.32z M1626.143-344.887l-1.293-0.766l-0.406,0.688c-0.321,0.541-0.256,1.008,0.133,1.238
		c0.406,0.24,0.839,0.068,1.148-0.455L1626.143-344.887z"/>
	<path fill="#444232" d="M1616.705-340.438l2.916,0.057l0.062-0.098l0.178-0.285l-2.116-1.328l0.844-1.344l5.995,3.764l-1.128,1.799
		c-0.983,1.564-2.272,2.059-3.465,1.309c-0.818-0.514-1.157-1.297-0.996-2.262l-3.315,0.025L1616.705-340.438z M1621-340.049
		l-0.33,0.523c-0.406,0.65-0.342,1.236,0.191,1.572c0.472,0.295,1.002,0.084,1.41-0.566l0.328-0.523L1621-340.049z"/>
	<path fill="#444232" d="M1613.93-333.582l1.383-2.08l-0.953-1.127l0.918-1.381l4.604,5.859l-1.135,1.703l-7.185-1.977l0.949-1.426
		L1613.93-333.582z M1615.221-333.189l0.297,0.084c2.195,0.678,2.494,0.801,2.756,0.898c-0.192-0.203-0.418-0.416-1.896-2.193
		l-0.197-0.232L1615.221-333.189z"/>
	<path fill="#444232" d="M1616.602-327.428l-1.084,1.533l-3.283-0.428c-1.379-0.178-2.067-0.422-2.389-0.531
		c0.299,0.16,0.909,0.514,1.904,1.217l2.393,1.689l-0.914,1.295l-5.779-4.082l1.084-1.535l3.308,0.396
		c1.315,0.156,2.132,0.438,2.429,0.545c-0.271-0.143-1.023-0.531-1.969-1.197l-2.393-1.689l0.915-1.295L1616.602-327.428z"/>
	<path fill="#444232" d="M1610.602-319.086c-1.438,1.924-3.262,2.135-5.011,0.826c-1.791-1.338-1.964-3.314-0.644-5.082l1.445-1.934
		l5.668,4.238L1610.602-319.086z M1606.035-322.553c-0.768,1.025-0.562,2.137,0.549,2.965c1.094,0.818,2.199,0.689,2.973-0.346
		l0.479-0.639l-3.516-2.629L1606.035-322.553z"/>
</g>
<g>
	<path fill="#444232" d="M1726.113-539.98l0.793,6.376l-8.184,4.17c-4.445,2.266-5.777,2.568-7.307,2.964
		c1.568-0.058,2.979-0.027,7.801,1.017l8.947,1.971l0.738,5.938l-22.467,5.021l-0.646-5.195l8.722-1.77
		c4.078-0.815,5.398-1.22,7.584-1.561c-2.22,0.07-4.007-0.255-7.92-1.139l-8.246-1.853l-0.492-3.947l7.535-3.883
		c3.023-1.575,5.237-2.502,7.394-3.078c-2.185,0.34-4.554,0.566-7.694,0.647l-8.916,0.219l-0.646-5.196L1726.113-539.98z"/>
	<path fill="#444232" d="M1722.68-509.355c0.812,1.218,1.492,3.26,1.62,5.807c0.245,4.854-1.706,7.369-5.915,7.581l-11.203,0.564
		l-0.244-4.855l2.783-0.14c-1.69-0.46-3.154-1.814-3.277-4.26c-0.168-3.327,2.147-5.315,4.763-5.447
		c3.327-0.168,5.494,2.311,5.747,7.335l0.089,1.766l0.577-0.029c1.9-0.096,2.852-0.858,2.736-3.133
		c-0.096-1.901-0.938-3.731-1.885-4.977L1722.68-509.355z M1713.896-502.65c-0.08-1.562-0.938-2.37-1.99-2.317
		c-1.086,0.055-1.73,0.769-1.674,1.923c0.068,1.357,1.104,2.327,2.904,2.236l0.848-0.043L1713.896-502.65z"/>
	<path fill="#444232" d="M1721.655-486.336c2.077,0.945,3.102,2.473,3.108,4.24c0,0.51-0.066,0.85-0.201,1.189l-4.795,0.016
		c0.203-0.544,0.27-1.055,0.268-1.803c-0.006-2.176-1.475-3.633-4.533-3.623l-8.261,0.025l-0.017-4.964l17.271-0.055l0.017,4.964
		L1721.655-486.336z"/>
	<path fill="#444232" d="M1706.482-462.096l0.265-5.74l9.2-4.684l0.001-0.034l8.049,5.61l-0.241,5.265l-7.611-5.487
		L1706.482-462.096z M1731.24-477.197l-0.229,4.959l-24.014-1.101l0.227-4.959L1731.24-477.197z"/>
	<path fill="#444232" d="M1705.824-446.92c-0.581-1.018-0.871-2.891-0.646-5.123c0.6-5.953,4.312-8.896,9.657-8.357
		c5.379,0.541,8.628,4.25,8.159,8.92c-0.471,4.668-3.564,6.885-7.895,6.449c-1.252-0.125-2.32-0.369-3.015-0.609l0.963-9.574
		c-2.348,0.242-3.749,1.605-3.998,4.074c-0.184,1.826,0.097,3.461,0.8,4.625L1705.824-446.92z M1715.568-449.699
		c0.133,0.047,0.265,0.096,0.637,0.133c1.318,0.133,2.715-0.48,2.884-2.17c0.163-1.625-0.952-2.762-2.987-3.24L1715.568-449.699z"/>
	<path fill="#444232" d="M1716.936-434.879l-7.635-1.137c-1.445-0.215-2.34,0.479-2.5,1.555c-0.131,0.875-0.01,1.684,0.385,2.498
		l-3.936-0.586c-0.316-0.873-0.377-2.084-0.172-3.465c0.581-3.9,2.917-5.512,6.684-4.951l7.903,1.178l0.325-2.188l3.632,0.541
		l-0.325,2.186l3.768,0.561l-0.73,4.91l-3.768-0.561l-0.635,4.271l-3.633-0.541L1716.936-434.879z"/>
</g>
<g id="red">
</g>
</svg>
