<?xml version="1.0" encoding="utf-8"?>
<!-- Generator: Adobe Illustrator 15.0.0, SVG Export Plug-In . SVG Version: 6.00 Build 0)  -->
<!DOCTYPE svg PUBLIC "-//W3C//DTD SVG 1.1//EN" "http://www.w3.org/Graphics/SVG/1.1/DTD/svg11.dtd">
<svg version="1.1" id="Layer_1" xmlns="http://www.w3.org/2000/svg" xmlns:xlink="http://www.w3.org/1999/xlink" x="0px" y="0px"
	 width="692.24px" height="688.289px" viewBox="0 0 692.24 688.289" enable-background="new 0 0 692.24 688.289"
	 xml:space="preserve">
<g id="ring">
</g>
<g id="red">
</g>
<path fill="#EF4527" d="M110.307,442.359c-0.415-0.98-0.804-1.969-1.205-2.951c-4.234-10.367-7.765-20.939-10.575-31.69
	c-5.476-20.94-8.252-42.543-8.252-64.567c0-0.506,0.016-1.009,0.018-1.515c0.131-22.491,3.146-44.536,8.992-65.879l0,0
	c2.957-10.796,6.623-21.416,11.021-31.817c12.517-29.591,30.305-56.233,52.874-79.236l-28.624-28.624
	c-35.987,36.582-61.316,80.902-74.427,129.187l0,0c-6.679,24.595-10.181,50.218-10.312,76.37c-0.002,0.506-0.018,1.009-0.018,1.515
	c0,25.677,3.275,50.848,9.59,75.055c3.268,12.524,7.34,24.794,12.219,36.733c14.353,35.127,35.562,67.434,62.938,95.266
	l28.62-28.621C140.603,498.58,122.818,471.941,110.307,442.359z"/>
<g>
	<path fill="#FFFFFF" d="M102.588,215.58l1.195,0.615l-1.938,3.764l-6.294-3.24l0.726-1.409l5.1,2.624L102.588,215.58z"/>
	<path fill="#FFFFFF" d="M105.282,210.594l1.182,0.641l-2.098,3.868l-6.222-3.373l2.077-3.831l1.182,0.641l-1.321,2.438l1.237,0.671
		l1.181-2.179l1.182,0.641l-1.181,2.18l1.439,0.78L105.282,210.594z"/>
	<path fill="#FFFFFF" d="M109.459,204.647c0.044,0.727-0.088,1.632-0.65,2.615c-1.107,1.932-3.062,2.409-4.957,1.323
		c-1.84-1.055-2.399-3.057-1.277-5.015c0.423-0.738,0.865-1.149,1.282-1.371l1.266,0.725c-0.585,0.282-1.054,0.679-1.413,1.308
		c-0.653,1.14-0.213,2.25,0.963,2.923c1.256,0.721,2.397,0.503,3.044-0.627c0.163-0.282,0.278-0.567,0.345-0.854l-1.011-0.58
		l-0.562,0.984l-1.166-0.668l1.352-2.359L109.459,204.647z"/>
	<path fill="#FFFFFF" d="M111.764,199.382l-1.304,2.132l0.996,1.089l-0.865,1.415l-4.821-5.681l1.069-1.747l7.252,1.705l-0.894,1.46
		L111.764,199.382z M110.459,199.04l-0.301-0.072c-2.221-0.596-2.522-0.706-2.788-0.795c0.2,0.196,0.433,0.4,1.978,2.12l0.207,0.226
		L110.459,199.04z"/>
	<path fill="#FFFFFF" d="M115.974,192.897l1.129,0.729l-2.293,3.555l-5.945-3.836l0.859-1.332l4.815,3.106L115.974,192.897z"/>
</g>
<g>
	<path fill="#FFFFFF" d="M69.598,391.426l-0.317-1.959l2.477-1.379c1.347-0.75,1.754-0.857,2.221-0.998
		c-0.482,0.037-0.918,0.043-2.418-0.225l-2.783-0.506l-0.295-1.824l6.874-1.805l0.258,1.596l-2.669,0.646
		c-1.25,0.298-1.653,0.438-2.323,0.565c0.684-0.047,1.239,0.033,2.456,0.263l2.566,0.479l0.195,1.211l-2.279,1.285
		c-0.916,0.52-1.588,0.83-2.247,1.033c0.671-0.132,1.399-0.229,2.367-0.289l2.749-0.168l0.258,1.596L69.598,391.426z"/>
	<path fill="#FFFFFF" d="M73.261,377.083l1.332-0.179l0.58,4.359l-7.014,0.938l-0.576-4.317l1.332-0.179l0.366,2.746l1.396-0.186
		l-0.328-2.455l1.332-0.18l0.327,2.457l1.624-0.219L73.261,377.083z"/>
	<path fill="#FFFFFF" d="M68.209,371.473l0.202,1.812l5.698-0.633l0.175,1.576l-5.698,0.633l0.203,1.828l-1.336,0.147l-0.58-5.22
		L68.209,371.473z"/>
	<path fill="#FFFFFF" d="M73.48,366.104l-2.357,1.713l0.011,0.115l0.029,0.334l2.487-0.219l0.139,1.578l-7.045,0.615l-0.186-2.109
		c-0.161-1.84,0.57-3.01,1.97-3.133c0.961-0.084,1.704,0.336,2.159,1.201l2.624-2.021L73.48,366.104z M69.827,368.381l-0.056-0.615
		c-0.066-0.764-0.473-1.191-1.099-1.137c-0.555,0.049-0.85,0.537-0.782,1.301l0.054,0.617L69.827,368.381z"/>
	<path fill="#FFFFFF" d="M66.179,363.453l-0.11-1.579l7.056-0.494l0.11,1.58L66.179,363.453z"/>
	<path fill="#FFFFFF" d="M69.463,360.062c-2.118,0.107-3.67-1.272-3.785-3.527c-0.041-0.797,0.09-1.327,0.321-1.739l1.457-0.073
		c-0.34,0.555-0.502,1.077-0.468,1.758c0.067,1.312,1.039,2.008,2.391,1.938c1.447-0.073,2.288-0.873,2.222-2.174
		c-0.035-0.69-0.263-1.271-0.591-1.703l1.373-0.069c0.342,0.498,0.499,1.131,0.535,1.844
		C73.029,358.494,71.644,359.953,69.463,360.062z"/>
	<path fill="#FFFFFF" d="M67.232,349.271c-0.289,0.555-0.473,1.105-0.453,1.777c0.019,0.629,0.268,0.906,0.646,0.896
		c0.356-0.012,0.591-0.25,0.953-1.217c0.428-1.156,0.921-1.896,2.139-1.932c1.26-0.037,2.16,0.955,2.207,2.51
		c0.024,0.893-0.156,1.527-0.425,2.051l-1.48,0.043c0.433-0.643,0.614-1.276,0.595-1.961c-0.019-0.629-0.313-1.01-0.754-0.996
		c-0.441,0.013-0.706,0.312-1.086,1.344c-0.408,1.115-0.967,1.773-2.016,1.804c-1.135,0.032-2.046-0.929-2.093-2.532
		c-0.021-0.757,0.071-1.171,0.317-1.744L67.232,349.271z"/>
	<path fill="#FFFFFF" d="M72.522,340.288l-0.474,0.482c0.355,0.557,0.553,1.24,0.551,1.996c-0.005,1.742-0.816,2.748-2.023,2.744
		c-0.809-0.002-1.396-0.455-1.832-1.35c-0.422,0.377-0.927,0.668-1.505,0.667c-1.144-0.002-1.887-0.928-1.883-2.262
		c0.005-1.438,0.815-2.16,1.771-2.157c0.871,0.003,1.404,0.571,1.927,1.496l1.159-1.172c-0.305-0.148-0.661-0.233-1.061-0.234
		l0.004-1.375c0.745,0.002,1.438,0.246,2.004,0.667l1.368-1.382L72.522,340.288z M67.224,343.275
		c0.379,0.001,0.705-0.229,1.021-0.532c-0.314-0.578-0.671-0.861-1.049-0.863c-0.387-0.002-0.63,0.26-0.632,0.69
		C66.562,342.948,66.763,343.274,67.224,343.275z M69.85,343.01c-0.084,0.094-0.188,0.197-0.284,0.312
		c0.23,0.463,0.523,0.621,0.9,0.622c0.546,0.002,0.926-0.47,0.928-1.31c0.002-0.348-0.082-0.684-0.228-0.967L69.85,343.01z"/>
	<path fill="#FFFFFF" d="M65.554,334.594l0.084-1.981l2.703-0.852c1.469-0.463,1.89-0.487,2.375-0.53
		c-0.48-0.062-0.908-0.143-2.322-0.707l-2.623-1.056l0.077-1.845l7.095-0.383l-0.068,1.614l-2.744,0.094
		c-1.283,0.04-1.706,0.096-2.389,0.088c0.68,0.093,1.207,0.282,2.354,0.752l2.416,0.983l-0.053,1.227l-2.491,0.798
		c-1.001,0.325-1.722,0.494-2.407,0.56c0.682,0.008,1.416,0.06,2.375,0.195l2.725,0.388l-0.068,1.614L65.554,334.594z"/>
	<path fill="#FFFFFF" d="M73.353,322.906c-0.154,2.072-1.596,3.196-3.877,3.027c-2.25-0.168-3.5-1.492-3.346-3.564
		c0.153-2.072,1.586-3.198,3.836-3.03C72.247,319.507,73.506,320.833,73.353,322.906z M67.438,322.465
		c-0.077,1.037,0.725,1.717,2.158,1.825c1.455,0.106,2.37-0.446,2.447-1.48c0.077-1.036-0.746-1.719-2.201-1.826
		C68.409,320.875,67.515,321.429,67.438,322.465z"/>
	<path fill="#FFFFFF" d="M66.85,314.99c0.245-2.394,1.7-3.513,3.874-3.29c2.227,0.228,3.393,1.836,3.17,4.031l-0.247,2.403
		l-7.045-0.72L66.85,314.99z M72.552,315.615c0.131-1.275-0.617-2.123-1.997-2.264c-1.358-0.139-2.241,0.542-2.373,1.827
		l-0.081,0.795l4.369,0.446L72.552,315.615z"/>
	<path fill="#FFFFFF" d="M73.672,306.059l1.334,0.17l-0.558,4.367l-7.024-0.896l0.551-4.324l1.334,0.17l-0.35,2.75l1.396,0.178
		l0.313-2.459l1.334,0.17l-0.313,2.459l1.626,0.207L73.672,306.059z"/>
	<path fill="#FFFFFF" d="M74.497,300.416l1.33,0.197l-0.621,4.188l-7.003-1.039l0.232-1.568l5.675,0.841L74.497,300.416z"/>
	<path fill="#FFFFFF" d="M71.401,294.661c-0.392,0.488-0.68,0.993-0.792,1.656c-0.105,0.622,0.086,0.941,0.459,1.005
		c0.352,0.06,0.629-0.128,1.172-1.006c0.647-1.052,1.275-1.681,2.478-1.478c1.243,0.21,1.933,1.36,1.675,2.895
		c-0.15,0.881-0.453,1.47-0.818,1.93l-1.461-0.247c0.551-0.547,0.853-1.135,0.967-1.809c0.105-0.621-0.109-1.052-0.545-1.126
		c-0.435-0.073-0.753,0.171-1.326,1.107c-0.621,1.015-1.298,1.549-2.334,1.374c-1.119-0.189-1.824-1.312-1.556-2.896
		c0.126-0.746,0.299-1.133,0.652-1.647L71.401,294.661z"/>
</g>
<g>
	<path fill="#EF4527" d="M32.476,415.162c1.503,6.562-1.883,11.42-9.108,13.076c-7.124,1.635-12.257-1.271-13.761-7.834
		c-1.505-6.562,1.849-11.412,8.974-13.045C25.805,405.703,30.97,408.6,32.476,415.162z M13.749,419.456
		c0.752,3.28,3.885,4.62,8.426,3.579c4.606-1.057,6.909-3.643,6.156-6.924c-0.752-3.28-3.951-4.604-8.558-3.549
		C15.231,413.604,12.996,416.174,13.749,419.456z"/>
	<path fill="#EF4527" d="M13.615,398.496c-1.774-0.787-2.897-2.229-3.21-4.211c-0.646-4.096,2.149-7.323,7.59-8.184
		c5.373-0.848,9.355,1.484,9.98,5.447c0.307,1.948-0.188,3.609-1.497,4.918l8.665-1.365l0.772,4.902l-23.777,3.748l-0.773-4.902
		L13.615,398.496z M18.968,391.18c-3.123,0.492-4.597,2.066-4.289,4.016c0.302,1.914,2.127,2.797,5.217,2.312
		c3.09-0.487,4.584-1.929,4.277-3.875C23.871,391.715,22.022,390.699,18.968,391.18z"/>
	<path fill="#EF4527" d="M24.061,368.072c0.77,0.881,1.424,2.662,1.643,4.896c0.586,5.957-2.476,9.572-7.822,10.098
		c-5.382,0.529-9.299-2.469-9.758-7.141c-0.459-4.67,2.138-7.453,6.471-7.879c1.251-0.123,2.348-0.096,3.074,0.006l0.941,9.576
		c2.255-0.699,3.361-2.312,3.118-4.781c-0.179-1.828-0.775-3.375-1.694-4.379L24.061,368.072z M15.053,372.717
		c-0.139-0.021-0.276-0.041-0.649-0.006c-1.32,0.131-2.567,1.004-2.4,2.695c0.159,1.625,1.478,2.521,3.568,2.59L15.053,372.717z"/>
	<path fill="#EF4527" d="M10.027,359.297c-2.119-0.848-3.215-2.322-3.303-4.09c-0.027-0.51,0.023-0.852,0.143-1.197l4.787-0.24
		c-0.177,0.553-0.219,1.064-0.18,1.812c0.108,2.172,1.642,3.559,4.697,3.404l8.25-0.416l0.25,4.957l-17.247,0.867l-0.248-4.955
		L10.027,359.297z"/>
	<path fill="#EF4527" d="M7.896,350.564c-0.753-1.256-1.337-3.326-1.347-5.877c-0.018-4.861,2.047-7.283,6.263-7.297l11.219-0.041
		l0.019,4.862l-2.789,0.01c1.668,0.537,3.068,1.961,3.076,4.408c0.012,3.332-2.395,5.209-5.013,5.221
		c-3.331,0.012-5.38-2.564-5.399-7.598l-0.006-1.768l-0.578,0.002c-1.904,0.007-2.887,0.725-2.879,3.002
		c0.007,1.902,0.762,3.771,1.65,5.061L7.896,350.564z M16.984,344.276c0.005,1.564,0.824,2.412,1.878,2.408
		c1.088-0.006,1.767-0.689,1.763-1.844c-0.006-1.359-0.996-2.375-2.797-2.369l-0.851,0.003L16.984,344.276z"/>
	<path fill="#EF4527" d="M10.836,327.053l7.711,0.332c1.46,0.063,2.276-0.719,2.323-1.806c0.038-0.883-0.166-1.674-0.644-2.443
		l3.975,0.171c0.406,0.835,0.594,2.034,0.533,3.427c-0.17,3.939-2.326,5.786-6.13,5.622l-7.982-0.344l-0.095,2.208l-3.668-0.158
		l0.095-2.208l-3.805-0.164l0.214-4.959l3.805,0.164l0.186-4.314l3.669,0.158L10.836,327.053z"/>
	<path fill="#EF4527" d="M2.661,318.923c-1.593-0.126-2.779-1.515-2.653-3.107c0.125-1.593,1.515-2.779,3.107-2.654
		c1.593,0.126,2.78,1.516,2.653,3.108C5.644,317.863,4.253,319.048,2.661,318.923z M7.641,318.907l0.391-4.948l17.216,1.356
		l-0.39,4.948L7.641,318.907z"/>
	<path fill="#EF4527" d="M9.119,301.364c0.646-5.229,4.271-7.967,9.737-7.292c5.397,0.666,8.527,4.443,7.907,9.471
		c-0.65,5.263-4.242,8.005-9.673,7.334C11.659,310.206,8.495,306.424,9.119,301.364z M12.995,301.877
		c-0.25,2.024,1.422,3.464,4.525,3.847c3.104,0.384,5.113-0.636,5.367-2.693c0.25-2.024-1.426-3.431-4.496-3.81
		C15.253,298.834,13.249,299.819,12.995,301.877z"/>
	<path fill="#EF4527" d="M14.831,284.297c-1.82-1.551-2.509-3.615-2.099-5.822c0.604-3.243,3.048-5.036,7.128-4.276l11.1,2.066
		l-0.91,4.882l-10.029-1.868c-2.273-0.423-3.512,0.28-3.811,1.885c-0.342,1.839,1.062,3.588,4.138,4.16l8.625,1.606l-0.908,4.881
		l-16.984-3.162l0.909-4.881L14.831,284.297z"/>
	<path fill="#EF4527" d="M22.202,258.991c-0.844,0.88-1.628,2.229-2.006,3.781c-0.32,1.321-0.15,2.062,0.575,2.239
		c0.694,0.169,1.235-0.329,2.239-1.869c2.01-3.08,3.982-4.14,6.592-3.504c3.404,0.828,4.644,4.069,3.63,8.23
		c-0.418,1.718-1.411,3.786-2.246,4.772l-4.294-1.046c1.024-0.905,2.299-2.834,2.693-4.453c0.346-1.42,0.068-2.293-0.791-2.502
		c-0.727-0.177-1.383,0.363-2.372,1.838c-1.92,2.855-3.816,4.18-6.294,3.576c-3.369-0.82-4.472-4.343-3.611-7.878
		c0.435-1.783,1.012-3.147,1.755-4.191L22.202,258.991z"/>
</g>
<g>
	<g>
		<path fill="#FFFFFF" d="M141.37,533.604c-1.263-1.35-1.381-2.75-0.308-3.756c1.121-1.047,2.549-0.857,3.831,0.512l0.338,0.361
			l1.671-1.564l1.082,1.158l-5.166,4.838L141.37,533.604z M143.827,531.189c-0.525-0.561-1.14-0.619-1.646-0.145
			c-0.46,0.43-0.412,1.02,0.112,1.578l0.423,0.451l1.534-1.434L143.827,531.189z"/>
		<path fill="#FFFFFF" d="M141.278,523.006l-0.864,2.785l0.077,0.086l0.224,0.25l1.867-1.664l1.057,1.182l-5.282,4.717l-1.412-1.584
			c-1.232-1.377-1.348-2.752-0.297-3.689c0.721-0.645,1.569-0.754,2.451-0.33l0.895-3.195L141.278,523.006z M139.711,527.023
			l-0.412-0.463c-0.512-0.572-1.094-0.672-1.563-0.252c-0.415,0.371-0.357,0.941,0.152,1.514l0.413,0.461L139.711,527.023z"/>
		<path fill="#FFFFFF" d="M137.444,518.461c1.346,1.584,1.11,3.398-0.637,4.881c-1.721,1.463-3.541,1.396-4.888-0.191
			c-1.348-1.584-1.118-3.391,0.604-4.854C134.27,516.814,136.097,516.875,137.444,518.461z M132.92,522.303
			c0.673,0.795,1.723,0.715,2.819-0.217c1.113-0.945,1.376-1.982,0.703-2.775s-1.738-0.701-2.851,0.244
			C132.494,520.486,132.247,521.51,132.92,522.303z"/>
		<path fill="#FFFFFF" d="M131.75,517.346c-1.651,1.33-3.72,1.123-5.137-0.637c-0.502-0.621-0.707-1.131-0.762-1.598l1.137-0.916
			c0.05,0.648,0.225,1.168,0.654,1.701c0.823,1.021,2.019,1.016,3.072,0.168c1.131-0.912,1.342-2.053,0.523-3.068
			c-0.435-0.539-0.959-0.873-1.478-1.033l1.069-0.863c0.568,0.201,1.069,0.623,1.518,1.18
			C133.719,513.979,133.454,515.975,131.75,517.346z"/>
		<path fill="#FFFFFF" d="M126.491,507.066l1.066-0.818l2.679,3.492l-5.618,4.309l-2.654-3.459l1.066-0.818l1.688,2.199l1.117-0.855
			l-1.511-1.967l1.066-0.818l1.511,1.967l1.299-1L126.491,507.066z"/>
		<path fill="#FFFFFF" d="M120.087,505.119c0.076,0.621,0.241,1.178,0.636,1.719c0.373,0.51,0.736,0.594,1.039,0.371
			c0.288-0.211,0.345-0.539,0.094-1.539c-0.305-1.195-0.319-2.084,0.661-2.805c1.016-0.746,2.32-0.439,3.241,0.811
			c0.529,0.721,0.74,1.344,0.814,1.926l-1.193,0.875c-0.009-0.773-0.22-1.398-0.623-1.949c-0.374-0.51-0.832-0.652-1.188-0.393
			c-0.356,0.262-0.4,0.658-0.126,1.723c0.295,1.15,0.21,2.008-0.638,2.627c-0.913,0.672-2.209,0.396-3.16-0.895
			c-0.448-0.609-0.604-1.002-0.728-1.613L120.087,505.119z"/>
		<path fill="#FFFFFF" d="M116.771,500.449c0.065,0.621,0.217,1.186,0.604,1.732c0.362,0.516,0.724,0.607,1.032,0.389
			c0.291-0.205,0.356-0.533,0.123-1.537c-0.283-1.203-0.278-2.092,0.719-2.791c1.028-0.727,2.329-0.395,3.224,0.877
			c0.514,0.727,0.712,1.359,0.777,1.943l-1.211,0.852c0.007-0.773-0.194-1.404-0.588-1.963c-0.361-0.516-0.819-0.672-1.179-0.418
			s-0.415,0.654-0.161,1.721c0.274,1.156,0.173,2.012-0.687,2.615c-0.928,0.654-2.218,0.354-3.144-0.959
			c-0.434-0.619-0.583-1.014-0.696-1.629L116.771,500.449z"/>
		<path fill="#FFFFFF" d="M116.221,490.012l-0.131,0.662c0.605,0.268,1.146,0.73,1.56,1.365c0.959,1.459,0.832,2.746-0.177,3.406
			c-0.676,0.445-1.417,0.389-2.274-0.115c-0.143,0.547-0.404,1.068-0.888,1.387c-0.958,0.627-2.09,0.262-2.82-0.854
			c-0.791-1.203-0.511-2.254,0.29-2.775c0.729-0.479,1.487-0.297,2.435,0.188l0.322-1.615c-0.335,0.043-0.682,0.168-1.015,0.387
			l-0.753-1.15c0.625-0.408,1.339-0.586,2.041-0.547l0.384-1.908L116.221,490.012z M113.44,495.426
			c0.316-0.205,0.464-0.578,0.56-1.006c-0.581-0.311-1.034-0.352-1.353-0.145c-0.324,0.213-0.383,0.566-0.146,0.926
			C112.709,495.518,113.055,495.68,113.44,495.426z M115.488,493.76c-0.02,0.123-0.052,0.271-0.063,0.42
			c0.445,0.26,0.778,0.229,1.094,0.021c0.458-0.299,0.515-0.902,0.054-1.605c-0.189-0.289-0.444-0.523-0.724-0.68L115.488,493.76z"
			/>
		<path fill="#FFFFFF" d="M106.368,487.607c-0.96-1.58-0.785-2.973,0.469-3.738c1.311-0.795,2.671-0.32,3.646,1.287l0.257,0.422
			l1.958-1.188l0.824,1.354l-6.047,3.68L106.368,487.607z M109.27,485.746c-0.4-0.656-0.99-0.84-1.58-0.479
			c-0.54,0.326-0.613,0.912-0.215,1.568l0.322,0.529l1.794-1.092L109.27,485.746z"/>
		<path fill="#FFFFFF" d="M108.465,477.217l-1.417,2.545l0.057,0.102l0.167,0.291l2.167-1.244l0.791,1.375l-6.134,3.523
			l-1.056-1.836c-0.921-1.602-0.75-2.971,0.469-3.672c0.838-0.48,1.687-0.414,2.464,0.182l1.533-2.938L108.465,477.217z
			 M106.107,480.826l-0.31-0.537c-0.381-0.666-0.931-0.881-1.478-0.57c-0.479,0.279-0.543,0.846-0.162,1.51l0.309,0.537
			L106.107,480.826z"/>
		<path fill="#FFFFFF" d="M105.665,471.984c0.986,1.83,0.377,3.557-1.637,4.643c-1.988,1.072-3.754,0.629-4.743-1.199
			c-0.986-1.83-0.388-3.551,1.599-4.623C102.899,469.717,104.675,470.154,105.665,471.984z M100.441,474.803
			c0.495,0.916,1.538,1.057,2.804,0.373c1.283-0.693,1.756-1.652,1.264-2.568c-0.494-0.916-1.555-1.045-2.84-0.352
			C100.401,472.938,99.947,473.889,100.441,474.803z"/>
		<path fill="#FFFFFF" d="M95.93,468.836c-1.084-2.145-0.461-3.871,1.486-4.855c1.997-1.008,3.845-0.283,4.838,1.686l1.088,2.156
			l-6.312,3.188L95.93,468.836z M101.065,466.289c-0.577-1.143-1.662-1.451-2.9-0.828c-1.218,0.615-1.594,1.664-1.012,2.816
			l0.36,0.713l3.916-1.979L101.065,466.289z"/>
		<path fill="#FFFFFF" d="M91.843,460.436l-0.674-1.434l3.903-1.838c1.614-0.76,3.021-0.264,3.778,1.342
			c0.756,1.604,0.273,2.992-1.305,3.734l-3.968,1.871l-0.675-1.432l3.996-1.883c0.807-0.381,1.095-1.027,0.765-1.73
			c-0.331-0.703-1.013-0.893-1.828-0.508L91.843,460.436z"/>
		<path fill="#FFFFFF" d="M93.724,456.121c-1.939,0.855-3.884,0.117-4.792-1.947c-0.324-0.729-0.391-1.273-0.32-1.742l1.335-0.586
			c-0.118,0.639-0.084,1.186,0.189,1.809c0.53,1.201,1.686,1.506,2.924,0.961c1.325-0.584,1.827-1.631,1.305-2.822
			c-0.281-0.635-0.701-1.092-1.16-1.381l1.257-0.553c0.496,0.344,0.869,0.877,1.159,1.531
			C96.5,453.385,95.723,455.242,93.724,456.121z"/>
		<path fill="#FFFFFF" d="M87.161,446.258l0.697,1.688l5.296-2.188l0.604,1.465l-5.297,2.189l0.701,1.697l-1.242,0.512l-2.002-4.852
			L87.161,446.258z"/>
		<path fill="#FFFFFF" d="M85.415,445.494l-0.581-1.477l6.593-2.586l0.579,1.477L85.415,445.494z"/>
		<path fill="#FFFFFF" d="M80.795,432.949l-1.647-4.982l1.276-0.422L81,429.289l5.442-1.797l0.498,1.506l-5.441,1.795l0.572,1.734
			L80.795,432.949z"/>
		<path fill="#FFFFFF" d="M87.929,431.906l0.522,1.498l-6.685,2.338l-0.522-1.496L87.929,431.906z"/>
		<path fill="#FFFFFF" d="M89.418,436.113l0.711,1.92l-5.826,4.639l-0.593-1.604l2.498-1.896c1.84-1.375,2.115-1.543,2.35-1.697
			c-0.276,0.037-0.583,0.092-2.89,0.24l-3.118,0.225l-0.574-1.555L89.418,436.113z"/>
		<path fill="#FFFFFF" d="M82.302,422.465l2.407-0.707l0.453,1.553l-2.367,0.693l-3.76,3.562l-0.515-1.764l0.841-0.783
			c1.032-0.957,1.438-1.252,1.744-1.439c-0.354,0.016-0.892-0.012-2.228-0.211l-1.121-0.164l-0.503-1.713L82.302,422.465z"/>
	</g>
</g>
</svg>
