<?xml version="1.0" encoding="utf-8"?>
<!-- Generator: Adobe Illustrator 15.0.0, SVG Export Plug-In . SVG Version: 6.00 Build 0)  -->
<!DOCTYPE svg PUBLIC "-//W3C//DTD SVG 1.1//EN" "http://www.w3.org/Graphics/SVG/1.1/DTD/svg11.dtd">
<svg version="1.1" id="Layer_1" xmlns="http://www.w3.org/2000/svg" xmlns:xlink="http://www.w3.org/1999/xlink" x="0px" y="0px"
	 width="692.24px" height="688.289px" viewBox="0 0 692.24 688.289" enable-background="new 0 0 692.24 688.289"
	 xml:space="preserve">
<g id="ring">
</g>
<path opacity="0.2" fill="#DCA552" enable-background="new    " d="M110.307,442.359c-0.415-0.979-0.806-1.969-1.205-2.951
	c-4.234-10.367-7.767-20.939-10.575-31.69c-5.476-20.94-8.252-42.543-8.252-64.567c0-0.506,0.017-1.009,0.02-1.515
	c0.131-22.491,3.146-44.536,8.991-65.879l0,0c2.957-10.796,6.623-21.416,11.021-31.817c12.517-29.591,30.305-56.233,52.874-79.236
	l-28.624-28.624c-35.986,36.583-61.315,80.903-74.427,129.188l0,0c-6.681,24.595-10.183,50.218-10.312,76.37
	c-0.002,0.506-0.018,1.009-0.018,1.515c0,25.678,3.274,50.848,9.59,75.055c3.268,12.524,7.34,24.795,12.219,36.733
	c14.354,35.127,35.562,67.434,62.938,95.266l28.621-28.62C140.602,498.58,122.819,471.941,110.307,442.359z"/>
<g>
	<path fill="#444232" d="M102.588,215.58l1.195,0.615l-1.938,3.764l-6.293-3.24l0.726-1.409l5.1,2.624L102.588,215.58z"/>
	<path fill="#444232" d="M105.282,210.594l1.182,0.641l-2.098,3.868l-6.222-3.373l2.076-3.831l1.183,0.641l-1.32,2.438l1.236,0.671
		l1.182-2.179l1.183,0.641l-1.183,2.18l1.439,0.78L105.282,210.594z"/>
	<path fill="#444232" d="M109.459,204.647c0.045,0.727-0.088,1.632-0.648,2.615c-1.106,1.932-3.062,2.409-4.957,1.323
		c-1.841-1.055-2.399-3.057-1.276-5.015c0.422-0.738,0.864-1.149,1.281-1.371l1.266,0.725c-0.584,0.282-1.053,0.679-1.412,1.308
		c-0.652,1.14-0.213,2.25,0.963,2.923c1.256,0.721,2.396,0.503,3.044-0.627c0.163-0.282,0.278-0.567,0.346-0.854l-1.012-0.58
		l-0.562,0.984l-1.166-0.668l1.352-2.359L109.459,204.647z"/>
	<path fill="#444232" d="M111.763,199.382l-1.305,2.132l0.996,1.089l-0.865,1.415l-4.819-5.681l1.067-1.747l7.252,1.705l-0.893,1.46
		L111.763,199.382z M110.459,199.04l-0.301-0.072c-2.221-0.596-2.521-0.706-2.787-0.795c0.199,0.196,0.433,0.4,1.979,2.12
		l0.207,0.226L110.459,199.04z"/>
	<path fill="#444232" d="M115.974,192.897l1.129,0.729l-2.293,3.555l-5.944-3.836l0.858-1.332l4.814,3.106L115.974,192.897z"/>
</g>
<g>
	<path fill="#444232" d="M69.597,391.426l-0.315-1.959l2.477-1.379c1.348-0.75,1.755-0.857,2.222-0.998
		c-0.482,0.037-0.918,0.043-2.418-0.225l-2.783-0.506l-0.295-1.824l6.874-1.805l0.259,1.596l-2.67,0.646
		c-1.25,0.298-1.652,0.438-2.322,0.565c0.684-0.047,1.238,0.033,2.455,0.263l2.566,0.479l0.194,1.211l-2.278,1.285
		c-0.916,0.52-1.589,0.83-2.247,1.033c0.671-0.132,1.398-0.229,2.366-0.289l2.749-0.168l0.259,1.596L69.597,391.426z"/>
	<path fill="#444232" d="M73.261,377.083l1.332-0.178l0.579,4.358l-7.014,0.938l-0.576-4.317l1.332-0.179l0.367,2.746l1.396-0.186
		l-0.328-2.456l1.332-0.179l0.327,2.457l1.624-0.219L73.261,377.083z"/>
	<path fill="#444232" d="M68.209,371.472l0.203,1.814l5.697-0.633l0.176,1.576l-5.699,0.633l0.203,1.826l-1.336,0.148l-0.58-5.221
		L68.209,371.472z"/>
	<path fill="#444232" d="M73.481,366.103l-2.357,1.713l0.012,0.115l0.029,0.334l2.486-0.218l0.139,1.578l-7.045,0.616l-0.187-2.11
		c-0.16-1.84,0.57-3.011,1.972-3.134c0.961-0.084,1.703,0.337,2.157,1.201l2.625-2.021L73.481,366.103z M69.827,368.381
		l-0.056-0.614c-0.065-0.765-0.475-1.191-1.1-1.138c-0.555,0.049-0.85,0.537-0.781,1.302l0.054,0.616L69.827,368.381z"/>
	<path fill="#444232" d="M66.179,363.454l-0.11-1.58l7.057-0.494l0.109,1.58L66.179,363.454z"/>
	<path fill="#444232" d="M69.463,360.063c-2.116,0.106-3.67-1.273-3.784-3.527c-0.041-0.797,0.091-1.328,0.321-1.74l1.457-0.074
		c-0.34,0.555-0.502,1.078-0.469,1.76c0.067,1.312,1.039,2.008,2.391,1.938c1.447-0.074,2.289-0.873,2.224-2.174
		c-0.035-0.691-0.265-1.27-0.592-1.703l1.373-0.07c0.343,0.498,0.5,1.131,0.534,1.844C73.03,358.495,71.643,359.952,69.463,360.063z
		"/>
	<path fill="#444232" d="M67.233,349.271c-0.289,0.555-0.474,1.106-0.453,1.778c0.02,0.629,0.268,0.905,0.646,0.896
		c0.355-0.01,0.592-0.248,0.953-1.215c0.428-1.158,0.921-1.896,2.14-1.933c1.26-0.037,2.159,0.955,2.207,2.511
		c0.022,0.893-0.156,1.526-0.427,2.051l-1.479,0.043c0.432-0.644,0.613-1.277,0.594-1.961c-0.019-0.631-0.312-1.011-0.754-0.998
		c-0.439,0.014-0.705,0.313-1.086,1.346c-0.408,1.115-0.967,1.771-2.016,1.803c-1.136,0.033-2.047-0.93-2.095-2.533
		c-0.021-0.756,0.072-1.17,0.318-1.742L67.233,349.271z"/>
	<path fill="#444232" d="M72.523,340.288l-0.475,0.482c0.355,0.557,0.554,1.24,0.552,1.996c-0.005,1.742-0.816,2.749-2.023,2.744
		c-0.809-0.002-1.396-0.454-1.832-1.351c-0.422,0.377-0.926,0.67-1.504,0.668c-1.146-0.004-1.888-0.93-1.884-2.263
		c0.005-1.438,0.814-2.16,1.771-2.157c0.871,0.003,1.404,0.571,1.929,1.496l1.157-1.172c-0.305-0.148-0.66-0.233-1.061-0.234
		l0.004-1.375c0.746,0.002,1.438,0.246,2.004,0.667l1.369-1.382L72.523,340.288z M67.224,343.275
		c0.379,0.001,0.705-0.229,1.021-0.532c-0.312-0.578-0.67-0.861-1.049-0.863c-0.387-0.002-0.63,0.26-0.632,0.69
		C66.563,342.948,66.763,343.274,67.224,343.275z M69.85,343.01c-0.084,0.094-0.188,0.197-0.284,0.312
		c0.229,0.462,0.521,0.621,0.899,0.623c0.546,0.002,0.927-0.47,0.929-1.311c0.002-0.348-0.082-0.684-0.229-0.967L69.85,343.01z"/>
	<path fill="#444232" d="M65.554,334.594l0.084-1.981l2.701-0.852c1.471-0.463,1.892-0.487,2.375-0.53
		c-0.479-0.062-0.906-0.143-2.32-0.707l-2.623-1.056l0.076-1.845l7.096-0.383l-0.067,1.614l-2.744,0.094
		c-1.282,0.04-1.707,0.096-2.389,0.088c0.68,0.093,1.207,0.282,2.354,0.752l2.416,0.983l-0.053,1.227l-2.491,0.798
		c-1.001,0.325-1.722,0.494-2.406,0.56c0.682,0.008,1.416,0.06,2.375,0.195l2.725,0.388l-0.067,1.614L65.554,334.594z"/>
	<path fill="#444232" d="M73.352,322.906c-0.154,2.072-1.597,3.196-3.877,3.027c-2.25-0.168-3.5-1.492-3.347-3.564
		c0.152-2.072,1.586-3.198,3.836-3.03C72.247,319.507,73.506,320.833,73.352,322.906z M67.438,322.465
		c-0.077,1.037,0.725,1.717,2.157,1.825c1.455,0.106,2.369-0.446,2.447-1.48c0.076-1.036-0.746-1.719-2.201-1.826
		C68.409,320.875,67.515,321.429,67.438,322.465z"/>
	<path fill="#444232" d="M66.85,314.99c0.245-2.394,1.699-3.513,3.874-3.29c2.228,0.228,3.394,1.836,3.17,4.031l-0.247,2.403
		l-7.045-0.72L66.85,314.99z M72.552,315.615c0.132-1.275-0.616-2.123-1.996-2.264c-1.357-0.139-2.241,0.542-2.373,1.827
		l-0.081,0.795l4.368,0.446L72.552,315.615z"/>
	<path fill="#444232" d="M73.672,306.059l1.334,0.17l-0.557,4.367l-7.024-0.896l0.552-4.324l1.334,0.17l-0.352,2.75l1.396,0.178
		l0.312-2.459l1.334,0.17l-0.312,2.459l1.626,0.207L73.672,306.059z"/>
	<path fill="#444232" d="M74.497,300.416l1.33,0.197l-0.621,4.188l-7.002-1.039l0.231-1.568l5.675,0.841L74.497,300.416z"/>
	<path fill="#444232" d="M71.403,294.661c-0.394,0.488-0.681,0.993-0.793,1.656c-0.105,0.622,0.086,0.941,0.459,1.005
		c0.352,0.06,0.629-0.128,1.172-1.006c0.647-1.052,1.275-1.681,2.479-1.478c1.241,0.21,1.934,1.36,1.675,2.895
		c-0.149,0.881-0.453,1.47-0.817,1.93l-1.461-0.247c0.551-0.547,0.854-1.135,0.967-1.809c0.104-0.621-0.108-1.052-0.545-1.126
		c-0.436-0.073-0.754,0.171-1.326,1.107c-0.621,1.015-1.299,1.549-2.334,1.374c-1.119-0.189-1.824-1.312-1.557-2.896
		c0.127-0.746,0.299-1.133,0.652-1.647L71.403,294.661z"/>
</g>
<g>
	<path fill="#444232" d="M141.372,533.605c-1.263-1.349-1.381-2.75-0.308-3.755c1.121-1.048,2.549-0.858,3.831,0.511l0.338,0.361
		l1.671-1.564l1.082,1.158l-5.166,4.838L141.372,533.605z M143.829,531.191c-0.525-0.561-1.14-0.618-1.646-0.145
		c-0.46,0.431-0.412,1.02,0.112,1.578l0.423,0.452l1.534-1.435L143.829,531.191z"/>
	<path fill="#444232" d="M141.28,523.008l-0.864,2.785l0.077,0.086l0.224,0.251l1.867-1.665l1.057,1.182l-5.282,4.717l-1.412-1.584
		c-1.232-1.377-1.348-2.752-0.297-3.689c0.721-0.645,1.569-0.754,2.451-0.33l0.895-3.194L141.28,523.008z M139.713,527.025
		l-0.412-0.463c-0.512-0.572-1.094-0.672-1.563-0.252c-0.415,0.371-0.357,0.941,0.152,1.514l0.413,0.461L139.713,527.025z"/>
	<path fill="#444232" d="M137.446,518.463c1.346,1.584,1.11,3.398-0.637,4.882c-1.721,1.462-3.541,1.396-4.888-0.191
		c-1.348-1.585-1.118-3.392,0.604-4.854C134.272,516.816,136.099,516.877,137.446,518.463z M132.922,522.305
		c0.673,0.795,1.723,0.715,2.819-0.217c1.113-0.945,1.376-1.982,0.703-2.775s-1.738-0.701-2.851,0.244
		C132.496,520.488,132.249,521.512,132.922,522.305z"/>
	<path fill="#444232" d="M131.752,517.348c-1.651,1.331-3.72,1.123-5.137-0.637c-0.502-0.62-0.707-1.131-0.762-1.598l1.137-0.915
		c0.05,0.647,0.225,1.168,0.654,1.7c0.823,1.021,2.019,1.017,3.072,0.168c1.131-0.912,1.342-2.053,0.523-3.068
		c-0.435-0.539-0.959-0.873-1.478-1.033l1.069-0.863c0.568,0.202,1.069,0.623,1.518,1.18
		C133.721,513.98,133.456,515.977,131.752,517.348z"/>
	<path fill="#444232" d="M126.493,507.068l1.066-0.818l2.679,3.492l-5.618,4.309l-2.654-3.459l1.066-0.818l1.688,2.2l1.117-0.856
		l-1.511-1.967l1.066-0.818l1.511,1.967l1.299-0.999L126.493,507.068z"/>
	<path fill="#444232" d="M120.089,505.121c0.076,0.621,0.241,1.179,0.636,1.72c0.373,0.509,0.736,0.593,1.039,0.37
		c0.288-0.211,0.345-0.539,0.094-1.539c-0.305-1.195-0.319-2.084,0.661-2.805c1.016-0.746,2.32-0.439,3.241,0.811
		c0.529,0.721,0.74,1.344,0.814,1.927l-1.193,0.874c-0.009-0.773-0.22-1.398-0.623-1.949c-0.374-0.51-0.832-0.652-1.188-0.392
		s-0.4,0.657-0.126,1.722c0.295,1.15,0.21,2.008-0.638,2.628c-0.913,0.671-2.209,0.396-3.16-0.896
		c-0.448-0.609-0.604-1.002-0.728-1.613L120.089,505.121z"/>
	<path fill="#444232" d="M116.773,500.451c0.065,0.621,0.217,1.186,0.604,1.732c0.362,0.516,0.724,0.607,1.032,0.389
		c0.291-0.205,0.356-0.532,0.123-1.537c-0.283-1.202-0.278-2.092,0.719-2.791c1.028-0.727,2.329-0.395,3.224,0.877
		c0.514,0.728,0.712,1.359,0.777,1.943l-1.211,0.852c0.007-0.773-0.194-1.404-0.588-1.963c-0.361-0.516-0.819-0.672-1.179-0.417
		c-0.359,0.254-0.415,0.653-0.161,1.721c0.274,1.155,0.173,2.011-0.687,2.615c-0.928,0.653-2.218,0.353-3.144-0.96
		c-0.434-0.618-0.583-1.014-0.696-1.629L116.773,500.451z"/>
	<path fill="#444232" d="M116.223,490.014l-0.131,0.662c0.605,0.268,1.146,0.731,1.56,1.365c0.959,1.459,0.832,2.746-0.177,3.407
		c-0.676,0.444-1.417,0.388-2.274-0.116c-0.143,0.547-0.404,1.068-0.888,1.387c-0.958,0.627-2.09,0.263-2.82-0.853
		c-0.791-1.204-0.511-2.254,0.29-2.776c0.729-0.479,1.487-0.297,2.435,0.188l0.322-1.616c-0.335,0.043-0.682,0.168-1.015,0.388
		l-0.753-1.151c0.625-0.408,1.339-0.586,2.041-0.547l0.384-1.908L116.223,490.014z M113.442,495.428
		c0.316-0.205,0.464-0.578,0.56-1.006c-0.581-0.311-1.034-0.352-1.353-0.145c-0.324,0.213-0.383,0.566-0.146,0.926
		C112.711,495.52,113.057,495.682,113.442,495.428z M115.49,493.762c-0.02,0.124-0.052,0.271-0.063,0.42
		c0.445,0.26,0.778,0.229,1.094,0.021c0.458-0.299,0.515-0.902,0.054-1.604c-0.189-0.29-0.444-0.524-0.724-0.681L115.49,493.762z"/>
	<path fill="#444232" d="M106.37,487.609c-0.96-1.58-0.785-2.973,0.469-3.737c1.311-0.796,2.671-0.32,3.646,1.287l0.257,0.422
		l1.958-1.188l0.824,1.354l-6.047,3.68L106.37,487.609z M109.272,485.748c-0.4-0.655-0.99-0.84-1.58-0.479
		c-0.54,0.327-0.613,0.912-0.215,1.568l0.322,0.529l1.794-1.092L109.272,485.748z"/>
	<path fill="#444232" d="M108.467,477.219l-1.417,2.545l0.057,0.103l0.167,0.291l2.167-1.245l0.791,1.375l-6.134,3.523l-1.056-1.836
		c-0.921-1.602-0.75-2.971,0.469-3.671c0.838-0.481,1.687-0.414,2.464,0.181l1.533-2.938L108.467,477.219z M106.109,480.828
		l-0.31-0.537c-0.381-0.666-0.931-0.881-1.478-0.57c-0.479,0.279-0.543,0.846-0.162,1.51l0.309,0.537L106.109,480.828z"/>
	<path fill="#444232" d="M105.667,471.986c0.986,1.831,0.377,3.557-1.637,4.643c-1.988,1.072-3.754,0.629-4.743-1.199
		c-0.986-1.83-0.388-3.551,1.599-4.623C102.901,469.719,104.677,470.156,105.667,471.986z M100.443,474.805
		c0.495,0.916,1.538,1.057,2.804,0.373c1.283-0.693,1.756-1.652,1.264-2.567c-0.494-0.917-1.555-1.046-2.84-0.353
		C100.403,472.94,99.949,473.891,100.443,474.805z"/>
	<path fill="#444232" d="M95.932,468.838c-1.084-2.145-0.461-3.871,1.486-4.854c1.997-1.009,3.845-0.283,4.838,1.685l1.088,2.156
		l-6.312,3.188L95.932,468.838z M101.067,466.291c-0.577-1.143-1.662-1.451-2.9-0.828c-1.218,0.616-1.594,1.664-1.012,2.816
		l0.36,0.713l3.916-1.979L101.067,466.291z"/>
	<path fill="#444232" d="M91.845,460.438l-0.674-1.433l3.903-1.839c1.614-0.76,3.021-0.264,3.778,1.342
		c0.756,1.604,0.273,2.992-1.305,3.734l-3.968,1.872l-0.675-1.433l3.996-1.883c0.807-0.381,1.095-1.027,0.765-1.73
		c-0.331-0.703-1.013-0.892-1.828-0.508L91.845,460.438z"/>
	<path fill="#444232" d="M93.726,456.123c-1.939,0.855-3.884,0.117-4.792-1.947c-0.324-0.729-0.391-1.273-0.32-1.741l1.335-0.587
		c-0.118,0.639-0.084,1.186,0.189,1.809c0.53,1.201,1.686,1.506,2.924,0.961c1.325-0.584,1.827-1.631,1.305-2.822
		c-0.281-0.634-0.701-1.092-1.16-1.381l1.257-0.553c0.496,0.344,0.869,0.878,1.159,1.531
		C96.502,453.388,95.725,455.244,93.726,456.123z"/>
	<path fill="#444232" d="M87.163,446.26l0.697,1.688l5.296-2.187l0.604,1.465l-5.297,2.188l0.701,1.697l-1.242,0.513l-2.002-4.853
		L87.163,446.26z"/>
	<path fill="#444232" d="M85.417,445.496l-0.581-1.476l6.593-2.587l0.579,1.477L85.417,445.496z"/>
	<path fill="#444232" d="M80.797,432.951l-1.647-4.982l1.276-0.422l0.575,1.744l5.442-1.797L86.942,429l-5.441,1.795l0.572,1.734
		L80.797,432.951z"/>
	<path fill="#444232" d="M87.931,431.908l0.522,1.498l-6.685,2.338l-0.522-1.496L87.931,431.908z"/>
	<path fill="#444232" d="M89.42,436.115l0.711,1.92l-5.826,4.64l-0.593-1.604l2.498-1.897c1.84-1.375,2.115-1.543,2.35-1.696
		c-0.276,0.036-0.583,0.091-2.89,0.239l-3.118,0.225l-0.574-1.555L89.42,436.115z"/>
	<path fill="#444232" d="M82.304,422.467l2.407-0.707l0.453,1.553l-2.367,0.694l-3.76,3.562l-0.515-1.763l0.841-0.783
		c1.032-0.958,1.438-1.253,1.744-1.44c-0.354,0.016-0.892-0.012-2.228-0.211l-1.121-0.164l-0.503-1.713L82.304,422.467z"/>
</g>
<g>
	<path fill="#444232" d="M32.476,415.162c1.503,6.562-1.884,11.42-9.108,13.076c-7.123,1.635-12.256-1.271-13.761-7.834
		c-1.505-6.562,1.849-11.412,8.974-13.045C25.804,405.703,30.97,408.6,32.476,415.162z M13.749,419.456
		c0.752,3.28,3.886,4.62,8.427,3.579c4.606-1.057,6.909-3.643,6.155-6.924c-0.752-3.28-3.951-4.604-8.558-3.549
		C15.232,413.604,12.997,416.174,13.749,419.456z"/>
	<path fill="#444232" d="M13.616,398.496c-1.775-0.787-2.897-2.229-3.211-4.211c-0.646-4.096,2.149-7.323,7.59-8.184
		c5.373-0.848,9.354,1.484,9.979,5.447c0.308,1.948-0.188,3.609-1.496,4.918l8.665-1.365l0.771,4.902l-23.775,3.748l-0.772-4.902
		L13.616,398.496z M18.968,391.18c-3.123,0.492-4.597,2.066-4.288,4.016c0.302,1.914,2.127,2.797,5.217,2.312
		c3.09-0.487,4.584-1.929,4.276-3.875C23.872,391.715,22.023,390.699,18.968,391.18z"/>
	<path fill="#444232" d="M24.061,368.073c0.77,0.881,1.424,2.662,1.643,4.896c0.586,5.957-2.476,9.572-7.822,10.098
		c-5.381,0.529-9.299-2.469-9.758-7.141c-0.459-4.67,2.139-7.452,6.472-7.879c1.251-0.123,2.35-0.095,3.073,0.006l0.941,9.576
		c2.256-0.698,3.36-2.312,3.118-4.78c-0.18-1.828-0.774-3.375-1.694-4.38L24.061,368.073z M15.054,372.717
		c-0.14-0.021-0.275-0.041-0.648-0.006c-1.32,0.131-2.568,1.004-2.4,2.696c0.158,1.625,1.479,2.521,3.568,2.589L15.054,372.717z"/>
	<path fill="#444232" d="M10.028,359.297c-2.119-0.849-3.215-2.323-3.303-4.09c-0.027-0.509,0.022-0.853,0.143-1.197l4.787-0.241
		c-0.177,0.555-0.219,1.065-0.181,1.813c0.107,2.172,1.644,3.56,4.697,3.403l8.25-0.414l0.25,4.955l-17.248,0.869l-0.248-4.957
		L10.028,359.297z"/>
	<path fill="#444232" d="M7.896,350.563c-0.753-1.254-1.337-3.326-1.348-5.875c-0.018-4.862,2.047-7.284,6.264-7.298l11.22-0.041
		l0.018,4.862l-2.788,0.01c1.668,0.537,3.067,1.961,3.075,4.408c0.013,3.332-2.395,5.209-5.012,5.22
		c-3.332,0.012-5.381-2.564-5.4-7.597l-0.006-1.768l-0.578,0.002c-1.902,0.007-2.887,0.725-2.879,3.001
		c0.008,1.903,0.763,3.771,1.65,5.062L7.896,350.563z M16.985,344.276c0.006,1.563,0.824,2.41,1.879,2.406
		c1.088-0.005,1.766-0.688,1.762-1.843c-0.006-1.359-0.996-2.375-2.797-2.369l-0.851,0.003L16.985,344.276z"/>
	<path fill="#444232" d="M10.836,327.053l7.711,0.332c1.462,0.063,2.277-0.719,2.324-1.806c0.037-0.883-0.166-1.674-0.645-2.443
		l3.975,0.171c0.406,0.835,0.594,2.034,0.533,3.427c-0.17,3.939-2.326,5.786-6.13,5.622l-7.981-0.344l-0.096,2.208l-3.668-0.158
		l0.096-2.208L3.15,331.69l0.214-4.959l3.805,0.164l0.188-4.314l3.669,0.158L10.836,327.053z"/>
	<path fill="#444232" d="M2.661,318.923c-1.593-0.126-2.779-1.515-2.651-3.107c0.125-1.593,1.515-2.779,3.106-2.654
		c1.592,0.126,2.779,1.516,2.652,3.108C5.643,317.863,4.254,319.048,2.661,318.923z M7.641,318.907l0.391-4.948l17.217,1.356
		l-0.391,4.948L7.641,318.907z"/>
	<path fill="#444232" d="M9.12,301.364c0.646-5.229,4.271-7.967,9.736-7.292c5.396,0.666,8.526,4.443,7.907,9.471
		c-0.649,5.263-4.242,8.005-9.674,7.334C11.659,310.206,8.495,306.424,9.12,301.364z M12.995,301.877
		c-0.25,2.024,1.422,3.464,4.525,3.847c3.104,0.384,5.112-0.636,5.366-2.693c0.25-2.024-1.426-3.431-4.495-3.81
		C15.254,298.834,13.249,299.819,12.995,301.877z"/>
	<path fill="#444232" d="M14.831,284.297c-1.819-1.551-2.508-3.615-2.099-5.822c0.604-3.243,3.048-5.036,7.128-4.276l11.1,2.066
		l-0.91,4.882l-10.027-1.868c-2.272-0.423-3.513,0.28-3.812,1.885c-0.342,1.839,1.062,3.588,4.14,4.16l8.625,1.606l-0.908,4.881
		l-16.984-3.162l0.91-4.881L14.831,284.297z"/>
	<path fill="#444232" d="M22.202,258.991c-0.844,0.88-1.627,2.229-2.006,3.781c-0.32,1.321-0.15,2.062,0.575,2.239
		c0.693,0.169,1.234-0.329,2.238-1.869c2.011-3.08,3.982-4.14,6.593-3.504c3.403,0.828,4.645,4.069,3.63,8.23
		c-0.418,1.718-1.411,3.786-2.245,4.772l-4.295-1.046c1.023-0.905,2.299-2.834,2.692-4.453c0.347-1.42,0.068-2.293-0.791-2.502
		c-0.727-0.177-1.383,0.363-2.371,1.838c-1.921,2.855-3.815,4.18-6.295,3.576c-3.368-0.82-4.473-4.343-3.61-7.878
		c0.436-1.783,1.012-3.147,1.756-4.191L22.202,258.991z"/>
</g>
<g id="red">
</g>
</svg>
