<?xml version="1.0" encoding="utf-8"?>
<!-- Generator: Adobe Illustrator 15.0.0, SVG Export Plug-In . SVG Version: 6.00 Build 0)  -->
<!DOCTYPE svg PUBLIC "-//W3C//DTD SVG 1.1//EN" "http://www.w3.org/Graphics/SVG/1.1/DTD/svg11.dtd">
<svg version="1.1" id="Layer_1" xmlns="http://www.w3.org/2000/svg" xmlns:xlink="http://www.w3.org/1999/xlink" x="0px" y="0px"
	 width="166px" height="138px" viewBox="0 0 166 138" enable-background="new 0 0 166 138" xml:space="preserve">
<g>
	<path fill="#FFFFFF" d="M33.598,56.979c-2.889,3.019-6.775,4.832-10.943,5.103c-1.399,0.091-2.461,1.3-2.37,2.701
		c0.088,1.342,1.205,2.375,2.532,2.375c0.056,0,0.112-0.002,0.169-0.007c5.442-0.354,10.515-2.719,14.283-6.663
		c0.969-1.015,0.934-2.621-0.081-3.591C36.176,55.929,34.567,55.96,33.598,56.979z"/>
	<path fill="#FFFFFF" d="M14.772,79.916c-0.969,1.017-0.931,2.623,0.083,3.594c3.021,2.886,4.833,6.771,5.103,10.939
		c0.088,1.344,1.204,2.375,2.532,2.375c0.056,0,0.111-0.002,0.167-0.005c1.401-0.092,2.462-1.301,2.371-2.698
		c-0.352-5.445-2.718-10.519-6.664-14.287C17.349,78.867,15.743,78.899,14.772,79.916z"/>
	<path fill="#FFFFFF" d="M97.279,124.045c0.668,0,1.338-0.264,1.834-0.785c2.889-3.02,6.775-4.831,10.945-5.104
		c1.397-0.091,2.461-1.3,2.368-2.699c-0.09-1.397-1.252-2.453-2.698-2.371c-5.441,0.354-10.519,2.722-14.285,6.664
		c-0.969,1.017-0.935,2.621,0.082,3.592C96.016,123.812,96.646,124.045,97.279,124.045z"/>
	<path fill="#FFFFFF" d="M164.514,74.692L76.689,0.999c-1.252-1.048-3.121-0.885-4.174,0.365l-34.202,40.76
		c-1.052,1.253-0.888,3.124,0.365,4.175l4.805,4.032l-20.881-7.6c-1.531-0.562-3.238,0.23-3.798,1.771L0.606,94.501
		C0.047,96.04,0.839,97.739,2.377,98.3l63.092,22.965c0.004,0,0.008,0.002,0.012,0.004l44.629,16.244
		c0.334,0.121,0.676,0.178,1.014,0.178c1.211,0,2.346-0.746,2.785-1.948l7.338-20.16l5.258,4.412
		c0.557,0.467,1.232,0.692,1.904,0.692c0.844,0,1.684-0.358,2.271-1.059l34.2-40.76C165.932,77.615,165.768,75.744,164.514,74.692z
		 M109.822,36.539l13.941,11.698c3.163,8.221,1.055,18.443-5.496,26.25c-6.554,7.809-16.254,11.664-24.896,9.969L79.43,72.755
		c-3.164-8.221-1.054-18.441,5.496-26.248C91.477,38.699,101.186,34.845,109.822,36.539z M75.15,7.446l27.371,22.967
		c-8.17,0.925-16.252,5.271-22.135,12.285c-5.884,7.012-8.763,15.728-8.257,23.933L44.76,43.664L75.15,7.446z M7.189,93.744
		l16.172-44.431L56.759,61.47l0.119,0.1c-7.332,3.67-13.419,10.504-16.541,19.08c-3.13,8.603-2.852,17.777,0.43,25.314L7.189,93.744
		z M49.722,109.226c-5.787-6.644-7.301-16.974-3.816-26.547c2.95-8.103,8.992-14.3,16.053-16.847l8.184,6.867
		c-0.164,0.207-0.306,0.438-0.4,0.696l-0.836,2.302c-4.832-0.818-9.258,1.137-10.674,5.016c-2.115,5.822,4.325,9.978,6.749,11.541
		c3.623,2.343,5.213,4.205,4.729,5.537c-0.572,1.565-3.434,2.5-6.631,1.336c-2.844-1.037-4.357-3.153-4.337-4.623
		c0.018-1.399-1.103-2.555-2.505-2.573c-0.012,0-0.023,0-0.035,0c-1.387,0-2.52,1.114-2.54,2.506
		c-0.045,3.266,2.057,6.396,5.383,8.354L58.2,105.11c-0.48,1.318,0.2,2.775,1.518,3.255c0.286,0.104,0.58,0.153,0.868,0.153
		c1.037,0,2.012-0.641,2.387-1.672l0.834-2.297c0.728,0.123,1.445,0.188,2.146,0.188c3.95,0,7.329-1.914,8.53-5.209
		c2.115-5.82-4.323-9.979-6.748-11.546c-3.623-2.338-5.213-4.198-4.729-5.532c0.572-1.565,3.432-2.5,6.631-1.336
		c2.818,1.024,4.338,3.131,4.338,4.592c0,1.401,1.137,2.539,2.539,2.539s2.541-1.138,2.541-2.539c0-3.226-2.1-6.317-5.384-8.254
		l0.499-1.373l14.453,12.127c-0.104,3.101-0.689,6.267-1.814,9.356c-3.485,9.576-11.283,16.515-19.986,17.884L49.722,109.226z
		 M109.354,130.931l-33.578-12.224c7.359-3.662,13.471-10.515,16.602-19.112c0.814-2.238,1.367-4.517,1.721-6.791l22.316,18.727
		L109.354,130.931z M128.043,113.547l-27.357-22.955c8.164-0.928,16.242-5.286,22.123-12.297c5.883-7.012,8.762-15.729,8.254-23.935
		l27.371,22.968L128.043,113.547z"/>
	<path fill="#FFFFFF" d="M88.803,71.791c-0.9,1.072-0.76,2.676,0.314,3.578c0.475,0.397,1.055,0.594,1.631,0.594
		c0.727,0,1.445-0.31,1.947-0.907l1.59-1.896c1.59,0.896,3.297,1.461,4.988,1.575c0.225,0.015,0.444,0.023,0.666,0.023
		c2.461,0,4.646-0.945,6.074-2.645c3.979-4.744-0.65-10.854-2.394-13.153c-2.604-3.438-3.466-5.731-2.552-6.819
		c1.072-1.274,4.078-1.177,6.687,1.013c2.297,1.928,3.006,4.427,2.509,5.797c-0.48,1.319,0.196,2.776,1.516,3.256
		c1.318,0.476,2.775-0.198,3.256-1.517c1.104-3.029,0.189-6.653-2.234-9.598l1.588-1.889c0.902-1.075,0.762-2.678-0.312-3.578
		c-1.074-0.902-2.677-0.759-3.578,0.311l-1.582,1.886c-4.26-2.415-9.084-2.103-11.737,1.055c-3.979,4.744,0.651,10.854,2.395,13.154
		c2.604,3.436,3.461,5.729,2.551,6.819c-0.684,0.812-1.867,0.86-2.504,0.817c-1.385-0.094-2.91-0.762-4.184-1.83
		c-2.32-1.946-3.019-4.453-2.494-5.825c0.498-1.312-0.16-2.779-1.473-3.277c-1.31-0.491-2.777,0.16-3.277,1.472
		c-1.16,3.053-0.258,6.717,2.199,9.694L88.803,71.791z"/>
	<path fill="#FFFFFF" d="M84.398,22.702c1.258-0.622,1.772-2.145,1.149-3.403c-0.621-1.257-2.147-1.774-3.401-1.151
		C78.402,20,74.13,20.37,70.118,19.203c-1.339-0.392-2.757,0.377-3.147,1.726c-0.395,1.346,0.379,2.756,1.725,3.148
		c2.002,0.585,4.052,0.875,6.094,0.875C78.094,24.952,81.377,24.195,84.398,22.702z"/>
	<path fill="#FFFFFF" d="M56.614,33.265c-1.257,0.623-1.773,2.146-1.151,3.403c1.85,3.744,2.226,8.017,1.055,12.028
		c-0.394,1.346,0.379,2.756,1.726,3.147c0.236,0.069,0.477,0.104,0.713,0.104c1.1,0,2.113-0.72,2.436-1.829
		c1.53-5.237,1.041-10.812-1.375-15.702C59.395,33.159,57.871,32.644,56.614,33.265z"/>
	<path fill="#FFFFFF" d="M145.453,87.988c0.379,0,0.762-0.085,1.123-0.263c1.258-0.623,1.775-2.146,1.154-3.401
		c-1.853-3.746-2.226-8.019-1.056-12.027c0.396-1.346-0.379-2.756-1.725-3.149c-1.345-0.394-2.757,0.379-3.15,1.725
		c-1.528,5.236-1.041,10.814,1.375,15.703C143.617,87.472,144.518,87.988,145.453,87.988z"/>
	<path fill="#FFFFFF" d="M118.795,98.287c-1.258,0.623-1.773,2.146-1.15,3.403c0.441,0.896,1.342,1.414,2.277,1.414
		c0.379,0,0.764-0.084,1.125-0.264c3.744-1.85,8.014-2.227,12.025-1.053c1.344,0.393,2.756-0.379,3.15-1.725
		c0.394-1.347-0.38-2.756-1.726-3.15C129.262,95.385,123.688,95.869,118.795,98.287z"/>
</g>
</svg>
