<?xml version="1.0" encoding="utf-8"?>
<!-- Generator: Adobe Illustrator 15.0.0, SVG Export Plug-In . SVG Version: 6.00 Build 0)  -->
<!DOCTYPE svg PUBLIC "-//W3C//DTD SVG 1.1//EN" "http://www.w3.org/Graphics/SVG/1.1/DTD/svg11.dtd">
<svg version="1.1" id="Layer_1" xmlns="http://www.w3.org/2000/svg" xmlns:xlink="http://www.w3.org/1999/xlink" x="0px" y="0px"
	 width="256px" height="43.125px" viewBox="0 0 256 43.125" enable-background="new 0 0 256 43.125" xml:space="preserve">
<g>
	<path fill="#FFFFFF" d="M68.302,21.947c-2.214-1.142-4.759-1.548-7.157-2.025c-0.959-0.224-2.804-0.48-2.804-1.809
		c0-1.33,1.476-1.626,2.509-1.626c1.955,0,3.356,0.665,4.095,2.547l6.418-1.956c-1.55-4.39-5.791-6.198-10.182-6.198
		c-2.509,0-5.202,0.481-7.267,1.919c-2.03,1.438-3.248,3.874-3.248,6.346c0,6.011,5.644,7.305,10.402,8.227
		c1.144,0.222,3.1,0.518,3.1,2.066c0,1.399-1.992,1.549-2.988,1.549c-2.25,0-3.947-0.816-4.612-3.065l-7.192,1.294
		c1.365,5.498,6.087,7.71,11.398,7.71c5.239,0,11.289-2.434,11.289-8.521C72.065,25.638,70.773,23.276,68.302,21.947"/>
	<path fill="#FFFFFF" d="M86.983,36.367v-5.274c-0.7,0.185-1.402,0.334-2.103,0.334c-1.735,0-1.586-1.068-1.586-2.435v-5.328h3.689
		v-5.961h-3.762l-0.001-6.237H76.85l-0.528,6.235h-3.062v5.961h2.73v5.952c0,2.03-0.037,3.841,1.402,5.389
		c1.254,1.364,2.841,1.993,4.538,1.993C82.961,36.996,85.213,36.81,86.983,36.367"/>
	<path fill="#FFFFFF" d="M108.671,36.555c-0.554-1.33-0.591-2.729-0.591-4.132v-6.604c0-2.693,0.295-5.128-2.177-6.861
		c-1.844-1.33-4.685-1.626-6.899-1.626c-4.244,0-8.707,1.219-9.812,5.903l6.714,0.625c0.221-1.584,1.438-2.101,2.876-2.101
		c1.77,0,2.213,0.661,2.213,2.359v0.148c-2.471,0.145-5.017,0.44-7.415,1.18c-2.619,0.812-4.943,2.806-4.943,5.792
		c0,3.763,3.063,5.681,6.568,5.681c2.582,0,4.684-0.81,6.159-2.987c0,0.887,0.074,1.771,0.261,2.621l0,0v0.001H108.671z
		 M101.076,28.108c0,2.062-0.036,4.387-2.802,4.387c-0.014,0-0.026-0.001-0.039-0.001c-0.015,0-0.028,0.001-0.042,0.001
		c-1.145,0-1.918-0.517-1.918-1.733c0-2.286,2.95-2.84,4.722-3.024v0.009c0.027-0.003,0.054-0.006,0.08-0.009V28.108z"/>
	<path fill="#FFFFFF" d="M117.752,28.364c0-1.107,0-2.323,0.518-3.247c0.588-1.07,1.806-1.457,2.987-1.457h1.404l-0.002-5.959
		h-0.995c-2.841-0.023-4.28,1.253-4.906,3.873h-0.074v-3.873h-6.234v18.852h7.303V28.364z"/>
	<path fill="#FFFFFF" d="M126.934,29.615c0,2.029-0.037,3.84,1.402,5.387c1.253,1.365,2.843,1.994,4.537,1.994
		c1.033,0,3.284-0.187,5.056-0.629v-5.274c-0.699,0.185-1.402,0.334-2.103,0.334c-1.732,0-1.586-1.068-1.586-2.435v-5.329h3.691
		v-5.96h-3.763v-0.002h-0.001v-6.235h-6.372l-0.528,6.235h-3.063v5.96h2.729V29.615z"/>
	<path fill="#FFFFFF" d="M145.72,36.92c2.433,0,4.941-1.031,5.717-3.466h0.073v3.097h6.896v-18.85h-7.301v10.845
		c0,0.701-0.038,1.363-0.369,1.991c-0.333,0.667-1.033,1.069-1.771,1.069c-1.659,0-1.623-1.291-1.623-2.509V17.701h-7.304v13.022
		c0,1.771,0.145,3.43,1.476,4.759C142.657,36.554,144.168,36.92,145.72,36.92"/>
	<rect x="151.509" y="36.551" fill="#FFFFFF" width="0.001" height="0.001"/>
	<rect x="167.557" y="17.703" fill="#FFFFFF" width="0.004" height="0.002"/>
	<path fill="#FFFFFF" d="M172.979,17.332c-2.509,0-4.574,0.775-5.347,3.062h-0.076v-2.688h-6.784v24.789h7.302v-7.969
		c1.144,1.659,2.915,2.397,4.869,2.397c2.621,0,4.578-1.402,5.792-3.653c0.999-1.843,1.33-4.244,1.33-6.346
		C180.065,22.499,178.293,17.332,172.979,17.332 M172.462,27.294c0,1.072-0.073,2.398-0.368,3.435
		c-0.296,0.993-0.956,1.547-1.992,1.547c-1.77,0-1.992-1.736-1.992-3.062l0,0v-4.497c0-0.739-0.035-1.331,0.444-1.918
		c0.405-0.481,0.995-0.777,1.622-0.777C172.5,22.021,172.462,25.747,172.462,27.294"/>
	<path fill="#FFFFFF" d="M198.116,37.048c4.422,0,7.941-1.351,9.824-2.415v-7.778h2.046v-3.683h-11.664v3.683h5.197v5.281
		c-1.638,0.532-3.355,0.9-5.157,0.9c-5.321,0-9.005-2.866-9.005-8.882c0-5.646,3.233-9.084,8.923-9.084
		c1.924,0,3.766,0.409,5.239,0.859v3.848h4.463v-6.426c-2.13-1.105-5.815-2.211-9.824-2.211c-8.678,0-13.59,5.197-13.59,13.095
		C184.568,32.503,189.972,37.047,198.116,37.048"/>
	<path fill="#FFFFFF" d="M224.227,27.837c7.369,0,10.191-4.091,10.191-8.104c0-4.01-2.824-8.102-10.191-8.102h-11.622v3.766h3.355
		v17.395h-3.355h-0.004v3.766h12.279v-3.766h-4.173v-4.954H224.227z M220.707,15.396h3.684c3.971,0,5.24,2.168,5.24,4.338
		c0,2.167-1.27,4.339-5.24,4.339h-3.684V15.396z"/>
	<path fill="#FFFFFF" d="M242.281,17.891c0-2.288,2.455-2.986,4.87-2.986c1.31,0,2.659,0.203,3.478,0.325v3.359h4.34V12.49
		c-2.047-0.695-5.116-1.351-7.939-1.351c-4.912,0-9.332,2.006-9.332,7.244c0,9.17,13.385,6.097,13.385,11.785
		c0,2.457-2.497,3.111-5.156,3.111c-1.882,0-3.395-0.327-4.298-0.531v-3.273h-4.255v6.22c2.373,0.614,5.566,1.352,8.835,1.351
		c4.995,0,9.456-1.763,9.456-7.203C255.664,20.347,242.281,23.212,242.281,17.891"/>
	<path fill="#FFFFFF" d="M9.217,33.692l-1.839,1.839c7.572,6.605,18.885,6.605,26.458,0l-1.839-1.839
		C25.446,39.29,15.769,39.29,9.217,33.692"/>
	<path fill="#FFFFFF" d="M7.241,8.937L5.402,7.098c-6.604,7.572-6.604,18.886,0,26.458l1.839-1.838
		C1.644,25.165,1.644,15.487,7.241,8.937"/>
	<path fill="#FFFFFF" d="M31.997,6.961l1.839-1.84c-7.573-6.604-18.886-6.604-26.458,0l1.839,1.84
		C15.768,1.363,25.445,1.363,31.997,6.961"/>
	<path fill="#FFFFFF" d="M16.899,26.01l-1.862,1.863c3.302,2.445,7.839,2.445,11.142,0l-1.863-1.863
		C22.069,27.479,19.146,27.479,16.899,26.01"/>
	<path fill="#FFFFFF" d="M24.314,14.644l1.863-1.863c-3.302-2.445-7.839-2.445-11.142,0l1.863,1.863
		C19.146,13.173,22.068,13.173,24.314,14.644"/>
	<path fill="#FFFFFF" d="M14.924,16.618l-1.863-1.862c-2.445,3.302-2.445,7.839,0,11.142l1.863-1.863
		C13.454,21.788,13.454,18.865,14.924,16.618"/>
	<path fill="#FFFFFF" d="M13.044,29.865L11.2,31.708c5.448,4.517,13.365,4.517,18.813,0l-1.844-1.843
		C23.75,33.379,17.464,33.379,13.044,29.865"/>
	<path fill="#FFFFFF" d="M28.17,10.789l1.844-1.845c-5.448-4.516-13.365-4.516-18.813,0l1.844,1.845
		C17.464,7.273,23.75,7.273,28.17,10.789"/>
	<path fill="#FFFFFF" d="M11.069,12.764L9.225,10.92c-4.516,5.448-4.516,13.365,0,18.813l1.844-1.845
		C7.555,23.47,7.555,17.184,11.069,12.764"/>
	<line fill="#FFFFFF" x1="19.619" y1="19.339" x2="19.619" y2="19.339"/>
	<path fill="#FFFFFF" d="M23.442,21.187l15.221,15.221c0.317,0.317,0.86,0.093,0.86-0.356V20.932c0-0.334-0.271-0.605-0.604-0.605
		h-15.12C23.35,20.326,23.125,20.869,23.442,21.187"/>
</g>
</svg>
