<?xml version="1.0" encoding="utf-8"?>
<!-- Generator: Adobe Illustrator 15.0.0, SVG Export Plug-In . SVG Version: 6.00 Build 0)  -->
<!DOCTYPE svg PUBLIC "-//W3C//DTD SVG 1.1//EN" "http://www.w3.org/Graphics/SVG/1.1/DTD/svg11.dtd">
<svg version="1.1" id="Layer_1" xmlns="http://www.w3.org/2000/svg" xmlns:xlink="http://www.w3.org/1999/xlink" x="0px" y="0px"
	 width="692.24px" height="688.289px" viewBox="0 -832 692.24 688.289" enable-background="new 0 -832 692.24 688.289"
	 xml:space="preserve">
<g id="ring">
</g>
<g>
	<path fill="#EF4527" d="M580.99-585.246c0.051,0.119,0.098,0.24,0.147,0.36c4.332,10.287,7.951,20.785,10.874,31.457
		c5.847,21.343,8.862,43.388,8.991,65.879c0.003,0.506,0.021,1.01,0.021,1.516c0,22.023-2.777,43.625-8.252,64.567
		c-2.812,10.75-6.343,21.323-10.576,31.69c-0.401,0.984-0.79,1.972-1.205,2.951c-12.512,29.582-30.296,56.221-52.859,79.223
		l28.62,28.619c27.375-27.832,48.585-60.137,62.938-95.264c4.879-11.938,8.951-24.209,12.22-36.734
		c6.312-24.205,9.59-49.377,9.59-75.055c0-0.506-0.017-1.009-0.019-1.515c-0.132-26.152-3.633-51.775-10.312-76.37
		c-3.381-12.449-7.582-24.629-12.561-36.486c-14.33-34.132-35.16-65.546-61.869-92.697l-28.621,28.621
		C550.688-641.478,568.476-614.833,580.99-585.246z"/>
	<g>
		<path fill="#FFFFFF" d="M557.959-663.34c1.637-1.348,3.706-1.161,5.14,0.581c0.508,0.615,0.72,1.12,0.777,1.589l-1.126,0.927
			c-0.057-0.646-0.237-1.164-0.671-1.69c-0.833-1.013-2.028-0.995-3.073-0.135c-1.118,0.921-1.318,2.063-0.492,3.068
			c0.44,0.535,0.969,0.862,1.49,1.018l-1.062,0.873c-0.569-0.197-1.073-0.611-1.527-1.162
			C556.027-659.957,556.273-661.953,557.959-663.34z"/>
		<path fill="#FFFFFF" d="M567.596-656.981l0.977,1.249l-3.399,2.659c-1.405,1.1-2.888,0.926-3.98-0.472
			c-1.094-1.397-0.931-2.858,0.442-3.933l3.457-2.704l0.978,1.248l-3.481,2.724c-0.703,0.551-0.84,1.244-0.361,1.856
			c0.479,0.611,1.186,0.646,1.896,0.089L567.596-656.981z"/>
		<path fill="#FFFFFF" d="M570.655-650.041c-0.082-0.62-0.248-1.178-0.649-1.717c-0.375-0.505-0.739-0.588-1.043-0.362
			c-0.286,0.213-0.342,0.543-0.082,1.541c0.312,1.194,0.332,2.083-0.645,2.811c-1.012,0.752-2.318,0.456-3.247-0.791
			c-0.532-0.716-0.749-1.341-0.829-1.923l1.188-0.884c0.016,0.775,0.23,1.399,0.64,1.947c0.376,0.505,0.836,0.646,1.188,0.384
			c0.354-0.263,0.396-0.662,0.117-1.724c-0.305-1.147-0.224-2.007,0.618-2.634c0.91-0.677,2.207-0.412,3.167,0.877
			c0.451,0.606,0.611,0.997,0.739,1.608L570.655-650.041z"/>
		<path fill="#FFFFFF" d="M574.701-645.054l-1.061-1.489l-4.674,3.324l-0.919-1.293l4.674-3.324l-1.064-1.498l1.097-0.779
			l3.043,4.28L574.701-645.054z"/>
		<path fill="#FFFFFF" d="M572.097-638.551c-1.165-1.722-0.732-3.499,1.163-4.783c1.869-1.267,3.672-1.002,4.838,0.72
			c1.166,1.722,0.742,3.493-1.128,4.76C575.074-636.57,573.264-636.828,572.097-638.551z M577.012-641.877
			c-0.584-0.861-1.636-0.897-2.827-0.091c-1.209,0.819-1.584,1.821-1.001,2.683c0.583,0.86,1.652,0.885,2.861,0.066
			C577.237-640.026,577.594-641.016,577.012-641.877z"/>
		<path fill="#FFFFFF" d="M580.938-638.218L582-636.54l-1.739,2.243c-0.943,1.22-1.276,1.479-1.651,1.791
			c0.431-0.223,0.828-0.399,2.314-0.742l2.761-0.628l0.988,1.563l-5.62,4.362l-0.865-1.368l2.205-1.643
			c1.033-0.766,1.351-1.053,1.915-1.435c-0.609,0.312-1.152,0.456-2.363,0.724l-2.55,0.568l-0.656-1.039l1.595-2.078
			c0.639-0.839,1.136-1.389,1.662-1.834c-0.565,0.383-1.197,0.758-2.066,1.194l-2.463,1.235l-0.865-1.368L580.938-638.218z"/>
		<path fill="#FFFFFF" d="M583.192-623.578l-1.156,0.686l-2.244-3.784l6.089-3.61l2.223,3.749l-1.155,0.686l-1.414-2.385
			l-1.211,0.718l1.266,2.132l-1.156,0.686l-1.266-2.132l-1.409,0.836L583.192-623.578z"/>
		<path fill="#FFFFFF" d="M584.472-618.59l1.444-2.532l-0.057-0.101l-0.165-0.293l-2.18,1.224l-0.775-1.383l6.171-3.466l1.038,1.85
			c0.905,1.611,0.722,2.979-0.505,3.668c-0.843,0.473-1.692,0.396-2.463-0.206l-1.562,2.925L584.472-618.59z M586.866-622.174
			l0.304,0.54c0.375,0.668,0.922,0.891,1.472,0.582c0.485-0.272,0.553-0.84,0.177-1.508l-0.304-0.54L586.866-622.174z"/>
		<path fill="#FFFFFF" d="M592.551-614.875c0.015-0.625-0.066-1.2-0.383-1.793c-0.296-0.556-0.641-0.692-0.976-0.515
			c-0.313,0.167-0.419,0.484-0.313,1.51c0.13,1.227,0.016,2.106-1.059,2.679c-1.111,0.591-2.357,0.102-3.088-1.269
			c-0.42-0.788-0.538-1.437-0.53-2.023l1.307-0.695c-0.103,0.768,0.018,1.417,0.337,2.02c0.296,0.556,0.729,0.766,1.117,0.559
			c0.39-0.207,0.492-0.595,0.375-1.685c-0.127-1.18,0.082-2.016,1.007-2.509c1-0.532,2.241-0.075,2.996,1.342
			c0.354,0.667,0.454,1.077,0.489,1.7L592.551-614.875z"/>
	</g>
	<g>
		<path fill="#FFFFFF" d="M612.234-572.457c0.736,2.289-0.146,3.896-2.226,4.566c-2.129,0.686-3.842-0.317-4.518-2.417l-0.741-2.298
			l6.736-2.171L612.234-572.457z M606.765-570.739c0.394,1.22,1.417,1.694,2.736,1.27c1.3-0.419,1.834-1.396,1.438-2.625
			l-0.245-0.76l-4.179,1.346L606.765-570.739z"/>
		<path fill="#FFFFFF" d="M613.818-567.405l0.456,1.519l-6.776,2.036l-0.457-1.519L613.818-567.405z"/>
		<path fill="#FFFFFF" d="M614.215-559.812c0.145-0.607,0.188-1.188,0.005-1.834c-0.172-0.605-0.479-0.812-0.845-0.71
			c-0.344,0.097-0.513,0.385-0.627,1.409c-0.134,1.228-0.432,2.063-1.604,2.396c-1.213,0.343-2.327-0.4-2.748-1.896
			c-0.244-0.858-0.224-1.519-0.091-2.091l1.425-0.402c-0.264,0.729-0.284,1.39-0.1,2.046c0.172,0.605,0.55,0.902,0.975,0.783
			c0.425-0.12,0.606-0.478,0.725-1.568c0.125-1.181,0.506-1.954,1.518-2.239c1.091-0.308,2.206,0.402,2.644,1.947
			c0.207,0.728,0.216,1.15,0.117,1.767L614.215-559.812z"/>
		<path fill="#FFFFFF" d="M616.209-553.744l-0.459-1.768l-5.549,1.441l-0.398-1.535l5.549-1.441l-0.462-1.778l1.302-0.338
			l1.318,5.081L616.209-553.744z"/>
		<path fill="#FFFFFF" d="M611.765-547.668l2.089-2.035l-0.026-0.113l-0.076-0.327l-2.434,0.574l-0.364-1.544l6.891-1.625
			l0.487,2.065c0.424,1.799-0.131,3.063-1.5,3.386c-0.94,0.223-1.736-0.087-2.312-0.879l-2.31,2.379L611.765-547.668z
			 M615.059-550.453l0.143,0.604c0.176,0.746,0.64,1.111,1.254,0.967c0.541-0.127,0.763-0.654,0.587-1.4l-0.143-0.604
			L615.059-550.453z"/>
		<path fill="#FFFFFF" d="M619.379-546.064l0.336,1.551l-6.923,1.491l-0.334-1.551L619.379-546.064z"/>
		<path fill="#FFFFFF" d="M620.565-540.332c0.324,1.648-0.193,2.767-1.398,3.004c-0.669,0.132-1.264-0.168-1.63-0.78
			c-0.01,0.868-0.521,1.493-1.343,1.655c-1.268,0.25-2.206-0.656-2.554-2.418l-0.475-2.41l6.941-1.368L620.565-540.332z
			 M614.973-539.069c0.139,0.7,0.499,1.068,0.974,0.975c0.494-0.098,0.723-0.57,0.584-1.271l-0.183-0.927l-1.556,0.307
			L614.973-539.069z M619.097-540.833l-1.473,0.29l0.154,0.783c0.122,0.617,0.48,0.921,0.924,0.834
			c0.464-0.091,0.671-0.507,0.553-1.104L619.097-540.833z"/>
		<path fill="#FFFFFF" d="M622.072-532.042l0.268,1.562l-4.252,0.729c-1.76,0.301-2.98-0.555-3.28-2.303
			c-0.3-1.749,0.537-2.957,2.255-3.25l4.324-0.74l0.269,1.562l-4.355,0.745c-0.879,0.15-1.329,0.695-1.198,1.461
			c0.132,0.767,0.737,1.131,1.626,0.979L622.072-532.042z"/>
		<path fill="#FFFFFF" d="M621.969-523.767l-0.263-1.809l-5.674,0.825l-0.229-1.569l5.673-0.825l-0.263-1.818l1.33-0.193
			l0.754,5.196L621.969-523.767z"/>
		<path fill="#FFFFFF" d="M623.475-522.617l0.203,1.573l-7.023,0.905l-0.203-1.574L623.475-522.617z"/>
		<path fill="#FFFFFF" d="M617.123-515.379c-0.224-2.066,0.99-3.434,3.266-3.68c2.244-0.243,3.712,0.834,3.937,2.9
			c0.224,2.066-0.98,3.433-3.225,3.675C618.825-512.238,617.348-513.313,617.123-515.379z M623.02-516.018
			c-0.11-1.033-1.022-1.558-2.452-1.402c-1.451,0.157-2.251,0.866-2.14,1.899c0.111,1.033,1.044,1.556,2.495,1.398
			C622.354-514.277,623.132-514.984,623.02-516.018z"/>
		<path fill="#FFFFFF" d="M624.746-511.168l0.146,1.874l-2.8,1.769c-1.174,0.745-1.858,0.999-2.176,1.119
			c0.331-0.068,1.027-0.187,2.242-0.282l2.92-0.229l0.125,1.581l-7.057,0.555l-0.146-1.873l2.796-1.811
			c1.112-0.72,1.921-1.025,2.218-1.134c-0.301,0.066-1.129,0.247-2.279,0.338l-2.921,0.229l-0.125-1.58L624.746-511.168z"/>
	</g>
	<g>
		<path fill="#FFFFFF" d="M621.673-466.647c2.114,0.17,3.474,1.742,3.293,3.994c-0.062,0.795-0.263,1.307-0.546,1.684l-1.455-0.115
			c0.409-0.506,0.639-1.004,0.693-1.684c0.104-1.309-0.768-2.127-2.117-2.234c-1.444-0.115-2.384,0.566-2.488,1.865
			c-0.055,0.689,0.098,1.293,0.364,1.768l-1.37-0.109c-0.273-0.538-0.349-1.188-0.292-1.898
			C617.93-465.557,619.495-466.821,621.673-466.647z"/>
		<path fill="#FFFFFF" d="M617.186-457.331c0.219-2.068,1.693-3.146,3.969-2.908c2.244,0.236,3.452,1.6,3.233,3.666
			c-0.218,2.066-1.683,3.146-3.925,2.91C618.188-453.903,616.969-455.265,617.186-457.331z M623.083-456.712
			c0.108-1.033-0.672-1.738-2.102-1.889c-1.451-0.152-2.383,0.371-2.491,1.404s0.692,1.74,2.144,1.894
			C622.064-455.151,622.975-455.679,623.083-456.712z"/>
		<path fill="#FFFFFF" d="M623.733-451.376l-0.269,1.967l-2.773,0.598c-1.508,0.324-1.929,0.309-2.416,0.307
			c0.474,0.106,0.892,0.227,2.249,0.922l2.516,1.297l-0.25,1.832l-7.106-0.281l0.22-1.602l2.743,0.161
			c1.283,0.079,1.709,0.063,2.39,0.136c-0.668-0.154-1.177-0.395-2.274-0.968l-2.314-1.207l0.165-1.217l2.558-0.563
			c1.027-0.229,1.762-0.332,2.451-0.332c-0.68-0.072-1.404-0.191-2.351-0.416l-2.679-0.642l0.22-1.603L623.733-451.376z"/>
		<path fill="#FFFFFF" d="M622.066-440.028c-0.304,1.822-1.346,2.769-2.795,2.525c-1.514-0.25-2.231-1.5-1.924-3.354l0.081-0.486
			l-2.258-0.376l0.26-1.563l6.982,1.162L622.066-440.028z M618.654-440.512c-0.125,0.756,0.202,1.278,0.886,1.394
			c0.622,0.104,1.061-0.293,1.187-1.049l0.103-0.611l-2.072-0.344L618.654-440.512z"/>
		<path fill="#FFFFFF" d="M614.857-432.394l-1.32-0.25l0.818-4.322l6.951,1.316l-0.81,4.281l-1.321-0.25l0.517-2.725l-1.383-0.262
			l-0.461,2.436l-1.319-0.25l0.461-2.436l-1.609-0.305L614.857-432.394z"/>
		<path fill="#FFFFFF" d="M617.889-425.495l0.379-1.787l-5.604-1.19l0.328-1.55l5.606,1.191l0.384-1.799l1.313,0.279l-1.092,5.135
			L617.889-425.495z"/>
		<path fill="#FFFFFF" d="M618.905-423.905l-0.354,1.545l-6.9-1.584l0.354-1.545L618.905-423.905z"/>
		<path fill="#FFFFFF" d="M615.677-416.263l0.44-1.773l-5.564-1.383l0.382-1.539l5.565,1.383l0.443-1.783l1.305,0.324l-1.268,5.097
			L615.677-416.263z"/>
		<path fill="#FFFFFF" d="M616.631-414.634l-0.408,1.532l-6.839-1.819l0.408-1.533L616.631-414.634z"/>
		<path fill="#FFFFFF" d="M608.014-410.331c0.577-1.996,2.22-2.801,4.418-2.166c2.168,0.627,3.118,2.182,2.541,4.178
			c-0.575,1.996-2.209,2.805-4.377,2.178C608.396-406.776,607.438-408.333,608.014-410.331z M613.713-408.684
			c0.288-0.998-0.356-1.829-1.739-2.229c-1.4-0.404-2.411-0.052-2.698,0.946c-0.288,0.999,0.377,1.837,1.777,2.241
			C612.435-407.325,613.424-407.685,613.713-408.684z"/>
		<path fill="#FFFFFF" d="M613.494-403.569l-0.571,1.791l-3.261,0.582c-1.369,0.248-2.102,0.225-2.439,0.215
			c0.333,0.062,1.023,0.216,2.185,0.586l2.793,0.89l-0.481,1.513l-6.747-2.15l0.571-1.791l3.274-0.621
			c1.302-0.247,2.166-0.227,2.48-0.213c-0.303-0.053-1.139-0.197-2.239-0.549l-2.793-0.891l0.481-1.511L613.494-403.569z"/>
	</g>
	<g>
		<path fill="#FFFFFF" d="M586.901-343.532c-0.856,1.445-1.989,1.936-3.046,1.309c-0.588-0.348-0.83-0.969-0.693-1.669
			c-0.589,0.642-1.384,0.767-2.106,0.338c-1.109-0.657-1.206-1.96-0.291-3.505l1.254-2.113l6.089,3.609L586.901-343.532z
			 M581.889-346.319c-0.363,0.613-0.34,1.129,0.076,1.375c0.435,0.258,0.919,0.057,1.283-0.559l0.48-0.812l-1.362-0.809
			L581.889-346.319z M586.142-344.886l-1.292-0.766l-0.406,0.687c-0.321,0.542-0.256,1.009,0.133,1.238
			c0.406,0.241,0.839,0.069,1.147-0.455L586.142-344.886z"/>
		<path fill="#FFFFFF" d="M576.705-340.438l2.916,0.058l0.062-0.099l0.18-0.283l-2.117-1.329l0.844-1.345l5.995,3.766l-1.128,1.797
			c-0.983,1.564-2.272,2.059-3.465,1.311c-0.818-0.514-1.157-1.297-0.996-2.264l-3.316,0.026L576.705-340.438z M581-340.049
			l-0.33,0.524c-0.406,0.648-0.342,1.236,0.191,1.57c0.472,0.297,1.002,0.084,1.409-0.564l0.329-0.525L581-340.049z"/>
		<path fill="#FFFFFF" d="M573.929-333.581l1.384-2.082l-0.952-1.125l0.918-1.381l4.604,5.858l-1.135,1.704l-7.185-1.977
			l0.949-1.427L573.929-333.581z M575.22-333.19l0.297,0.084c2.196,0.68,2.495,0.802,2.757,0.9
			c-0.192-0.205-0.418-0.416-1.896-2.193l-0.197-0.232L575.22-333.19z"/>
		<path fill="#FFFFFF" d="M576.602-327.428l-1.084,1.534l-3.282-0.43c-1.38-0.178-2.068-0.42-2.39-0.53
			c0.299,0.159,0.909,0.515,1.904,1.217l2.393,1.69l-0.914,1.295l-5.779-4.084l1.084-1.534l3.308,0.396
			c1.315,0.157,2.132,0.438,2.429,0.547c-0.271-0.143-1.023-0.531-1.969-1.199l-2.393-1.688l0.915-1.296L576.602-327.428z"/>
		<path fill="#FFFFFF" d="M570.601-319.087c-1.438,1.926-3.261,2.137-5.01,0.828c-1.791-1.339-1.964-3.316-0.644-5.082l1.444-1.934
			l5.669,4.236L570.601-319.087z M566.035-322.553c-0.768,1.024-0.562,2.136,0.549,2.966c1.093,0.816,2.199,0.688,2.973-0.348
			l0.479-0.639l-3.516-2.627L566.035-322.553z"/>
	</g>
	<g>
		<path fill="#EF4527" d="M686.113-539.98l0.793,6.376l-8.185,4.17c-4.444,2.266-5.776,2.568-7.306,2.964
			c1.569-0.058,2.978-0.027,7.801,1.017l8.947,1.971l0.738,5.938l-22.467,5.021l-0.646-5.195l8.722-1.77
			c4.078-0.815,5.398-1.22,7.583-1.561c-2.219,0.07-4.006-0.255-7.919-1.139l-8.247-1.853l-0.491-3.947l7.534-3.883
			c3.024-1.575,5.238-2.502,7.395-3.078c-2.186,0.34-4.555,0.566-7.694,0.647l-8.916,0.219l-0.646-5.196L686.113-539.98z"/>
		<path fill="#EF4527" d="M682.68-509.355c0.812,1.218,1.492,3.26,1.62,5.807c0.245,4.854-1.706,7.369-5.916,7.581l-11.203,0.564
			l-0.244-4.855l2.783-0.14c-1.689-0.46-3.153-1.814-3.276-4.26c-0.168-3.327,2.147-5.315,4.763-5.447
			c3.327-0.168,5.494,2.311,5.747,7.335l0.089,1.766l0.577-0.029c1.9-0.096,2.851-0.858,2.736-3.133
			c-0.097-1.901-0.938-3.731-1.886-4.977L682.68-509.355z M673.896-502.65c-0.08-1.562-0.938-2.37-1.99-2.317
			c-1.086,0.055-1.73,0.769-1.673,1.923c0.067,1.357,1.104,2.327,2.902,2.236l0.85-0.043L673.896-502.65z"/>
		<path fill="#EF4527" d="M681.655-486.335c2.077,0.944,3.102,2.471,3.107,4.239c0,0.511-0.065,0.851-0.2,1.19l-4.795,0.015
			c0.202-0.544,0.27-1.056,0.268-1.804c-0.006-2.176-1.475-3.633-4.533-3.623l-8.261,0.025l-0.017-4.963l17.271-0.055l0.017,4.964
			L681.655-486.335z"/>
		<path fill="#EF4527" d="M666.483-462.096l0.264-5.739l9.2-4.685l0.001-0.034l8.049,5.609l-0.241,5.266l-7.611-5.488
			L666.483-462.096z M691.24-477.198l-0.229,4.961l-24.014-1.102l0.227-4.959L691.24-477.198z"/>
		<path fill="#EF4527" d="M665.824-446.921c-0.581-1.016-0.871-2.89-0.646-5.121c0.601-5.955,4.312-8.896,9.657-8.357
			c5.379,0.541,8.628,4.25,8.159,8.918c-0.471,4.668-3.564,6.887-7.896,6.451c-1.251-0.127-2.319-0.371-3.014-0.61l0.963-9.574
			c-2.348,0.242-3.749,1.604-3.998,4.074c-0.184,1.827,0.097,3.461,0.8,4.626L665.824-446.921z M675.569-449.698
			c0.132,0.047,0.264,0.094,0.636,0.131c1.318,0.134,2.715-0.479,2.884-2.17c0.163-1.623-0.952-2.762-2.988-3.238L675.569-449.698z"
			/>
		<path fill="#EF4527" d="M676.935-434.878l-7.634-1.137c-1.445-0.215-2.34,0.477-2.5,1.553c-0.131,0.875-0.01,1.684,0.384,2.498
			l-3.935-0.584c-0.316-0.873-0.377-2.086-0.172-3.465c0.581-3.9,2.917-5.513,6.684-4.951l7.903,1.176l0.325-2.187l3.632,0.541
			l-0.325,2.187l3.769,0.561l-0.731,4.91l-3.767-0.561l-0.637,4.271l-3.632-0.541L676.935-434.878z"/>
	</g>
</g>
<g id="red">
</g>
</svg>
