<?xml version="1.0" encoding="utf-8"?>
<!-- Generator: Adobe Illustrator 15.0.0, SVG Export Plug-In . SVG Version: 6.00 Build 0)  -->
<!DOCTYPE svg PUBLIC "-//W3C//DTD SVG 1.1//EN" "http://www.w3.org/Graphics/SVG/1.1/DTD/svg11.dtd">
<svg version="1.1" id="Layer_1" xmlns="http://www.w3.org/2000/svg" xmlns:xlink="http://www.w3.org/1999/xlink" x="0px" y="0px"
	 width="692.24px" height="688.289px" viewBox="0 -2508 692.24 688.289" enable-background="new 0 -2508 692.24 688.289"
	 xml:space="preserve">
<g id="ring">
</g>
<path fill="#EF4527" d="M246.938-2397.162c6.868-2.905,13.834-5.479,20.879-7.754c12.646-4.088,25.561-7.166,38.689-9.213
	c13.023-2.03,26.254-3.064,39.644-3.064l0,0c34.403,0,67.782,6.739,99.21,20.031c5.404,2.286,10.708,4.754,15.912,7.389
	c23.281,11.786,44.515,27.029,63.312,45.47l28.62-28.62c-21.985-21.625-46.769-39.394-73.522-52.982
	c-40.877-20.762-86.356-31.763-133.532-31.763l0,0c-15.546,0-30.901,1.212-45.977,3.555c-15.296,2.377-30.294,5.932-44.888,10.631
	c-43.238,13.922-82.917,37.827-116.193,70.557l28.624,28.625C190.715-2366.864,217.354-2384.647,246.938-2397.162z"/>
<g>
	<g>
		<path fill="#FFFFFF" d="M419.189-2431.878c2.319,0.635,3.184,2.256,2.604,4.362c-0.592,2.158-2.37,3.043-4.498,2.459l-2.33-0.639
			l1.873-6.828L419.189-2431.878z M417.633-2426.358c1.235,0.34,2.195-0.258,2.562-1.596c0.359-1.316-0.165-2.299-1.411-2.642
			l-0.771-0.211l-1.159,4.234L417.633-2426.358z"/>
		<path fill="#FFFFFF" d="M426.845-2423.687l-0.387,1.287l-4.214-1.266l2.037-6.777l4.173,1.254l-0.387,1.287l-2.655-0.797
			l-0.404,1.348l2.373,0.713l-0.387,1.287l-2.373-0.713l-0.472,1.567L426.845-2423.687z"/>
		<path fill="#FFFFFF" d="M431.529-2420.755l-1.946-0.641l-0.004-7.453l1.626,0.535l-0.069,3.139
			c-0.069,2.299-0.107,2.617-0.135,2.896c0.146-0.238,0.29-0.512,1.612-2.41l1.766-2.582l1.577,0.518L431.529-2420.755z"/>
		<path fill="#FFFFFF" d="M439.59-2419.374l-0.452,1.266l-4.144-1.477l2.376-6.664l4.104,1.463l-0.45,1.266l-2.61-0.93l-0.473,1.324
			l2.334,0.832l-0.451,1.265l-2.334-0.831l-0.55,1.543L439.59-2419.374z"/>
		<path fill="#FFFFFF" d="M444.904-2417.366l-0.478,1.256l-3.953-1.502l2.51-6.611l1.48,0.562l-2.032,5.355L444.904-2417.366z"/>
		<path fill="#FFFFFF" d="M447.928-2414.614c-1.924-0.781-2.551-2.498-1.689-4.617c0.851-2.09,2.492-2.871,4.417-2.088
			c1.925,0.782,2.557,2.488,1.707,4.578C451.499-2414.622,449.852-2413.83,447.928-2414.614z M450.16-2420.104
			c-0.962-0.392-1.855,0.162-2.396,1.494c-0.549,1.352-0.305,2.391,0.658,2.781c0.962,0.393,1.863-0.183,2.413-1.533
			C451.377-2418.694,451.123-2419.713,450.16-2420.104z"/>
		<path fill="#FFFFFF" d="M457.148-2418.491c1.691,0.742,2.353,1.979,1.763,3.328c-0.614,1.401-2,1.792-3.722,1.038l-0.451-0.198
			l-0.918,2.096l-1.452-0.635l2.839-6.48L457.148-2418.491z M455.845-2415.304c0.702,0.309,1.289,0.117,1.566-0.518
			c0.253-0.576-0.022-1.099-0.726-1.406l-0.566-0.248l-0.842,1.922L455.845-2415.304z"/>
		<path fill="#FFFFFF" d="M461.372-2416.631l1.794,0.85l-0.267,2.822c-0.146,1.535-0.286,1.932-0.436,2.395
			c0.243-0.418,0.484-0.779,1.556-1.864l1.992-2.007l1.671,0.789l-2.405,6.688l-1.462-0.69l0.98-2.566
			c0.461-1.197,0.574-1.609,0.848-2.234c-0.35,0.59-0.729,1.002-1.606,1.877l-1.848,1.844l-1.11-0.525l0.233-2.607
			c0.09-1.048,0.215-1.779,0.421-2.436c-0.272,0.625-0.604,1.281-1.104,2.113l-1.418,2.361l-1.463-0.691L461.372-2416.631z"/>
		<path fill="#FFFFFF" d="M471.124-2405.487l-0.609,1.2l-3.925-1.995l3.209-6.314l3.889,1.977l-0.608,1.198l-2.476-1.257
			l-0.638,1.257l2.212,1.123l-0.609,1.198l-2.211-1.123l-0.743,1.461L471.124-2405.487z"/>
		<path fill="#FFFFFF" d="M475.125-2409.877l1.656,0.896l-0.034,3.312c-0.011,1.392-0.169,2.105-0.24,2.438
			c0.122-0.316,0.401-0.965,0.98-2.039l1.392-2.58l1.396,0.754l-3.363,6.232l-1.655-0.894l-0.003-3.334
			c-0.002-1.326,0.18-2.17,0.25-2.479c-0.106,0.287-0.405,1.082-0.954,2.1l-1.392,2.58l-1.396-0.754L475.125-2409.877z"/>
		<path fill="#FFFFFF" d="M485.37-2402.636l-1.585-0.908l-2.85,4.974l-1.376-0.787l2.851-4.976l-1.595-0.913l0.668-1.165
			l4.555,2.609L485.37-2402.636z"/>
	</g>
	<g>
		<path fill="#FFFFFF" d="M200.732-2400.478l1.701-1.02l2.2,1.789c1.196,0.973,1.448,1.311,1.75,1.69
			c-0.212-0.436-0.38-0.836-0.687-2.327l-0.562-2.773l1.584-0.951l4.227,5.717l-1.387,0.832l-1.59-2.242
			c-0.74-1.049-1.02-1.371-1.389-1.945c0.299,0.616,0.429,1.162,0.668,2.378l0.508,2.56l-1.053,0.633l-2.037-1.644
			c-0.824-0.656-1.362-1.166-1.795-1.702c0.369,0.573,0.729,1.215,1.146,2.092l1.177,2.49l-1.388,0.832L200.732-2400.478z"/>
		<path fill="#FFFFFF" d="M215.097-2402.295l-2.183,1.216l0.333,1.438l-1.448,0.81l-1.41-7.317l1.789-0.995l5.48,5.045l-1.495,0.834
			L215.097-2402.295z M214.129-2403.233l-0.226-0.211c-1.642-1.609-1.851-1.854-2.038-2.061c0.078,0.268,0.18,0.561,0.682,2.816
			l0.069,0.299L214.129-2403.233z"/>
		<path fill="#FFFFFF" d="M215.537-2408.989l1.666-0.869l2.722,1.885c1.145,0.787,1.646,1.318,1.881,1.564
			c-0.192-0.279-0.573-0.873-1.136-1.953l-1.354-2.598l1.405-0.732l3.271,6.273l-1.667,0.869l-2.759-1.865
			c-1.097-0.74-1.694-1.365-1.91-1.596c0.179,0.25,0.669,0.941,1.203,1.965l1.354,2.598l-1.405,0.731L215.537-2408.989z"/>
		<path fill="#FFFFFF" d="M226.123-2414.353l1.427-0.693l1.888,3.883c0.78,1.604,0.3,3.018-1.296,3.795
			c-1.597,0.774-2.991,0.31-3.754-1.258l-1.92-3.949l1.427-0.693l1.934,3.977c0.391,0.803,1.04,1.082,1.739,0.742
			c0.698-0.34,0.88-1.022,0.485-1.836L226.123-2414.353z"/>
		<path fill="#FFFFFF" d="M231.281-2415.284l0.629,1.375l2.253-1.029l0.559,1.222l-2.254,1.03l1.195,2.617l-1.442,0.658
			l-2.941-6.438l3.965-1.811l0.559,1.223L231.281-2415.284z"/>
		<path fill="#FFFFFF" d="M240.003-2414.42l-2.295,0.986l0.184,1.465l-1.523,0.656l-0.655-7.422l1.879-0.81l4.938,5.578
			l-1.571,0.677L240.003-2414.42z M239.136-2415.452l-0.203-0.232c-1.47-1.768-1.651-2.033-1.817-2.258
			c0.051,0.274,0.122,0.576,0.39,2.871l0.04,0.305L239.136-2415.452z"/>
		<path fill="#FFFFFF" d="M241.655-2417.444c-0.789-1.969,0.017-3.887,2.112-4.727c0.74-0.297,1.287-0.346,1.751-0.262l0.543,1.355
			c-0.634-0.142-1.181-0.125-1.815,0.129c-1.219,0.487-1.563,1.633-1.06,2.89c0.539,1.347,1.568,1.884,2.778,1.399
			c0.644-0.258,1.115-0.662,1.421-1.111l0.512,1.277c-0.36,0.482-0.908,0.838-1.571,1.104
			C244.299-2414.577,242.468-2415.418,241.655-2417.444z"/>
		<path fill="#FFFFFF" d="M251.737-2423.679l-1.71,0.642l2.008,5.365l-1.484,0.555l-2.008-5.365l-1.72,0.643l-0.471-1.258
			l4.914-1.838L251.737-2423.679z"/>
		<path fill="#FFFFFF" d="M256.359-2426.724l1.497-0.52l1.411,4.075c0.584,1.688-0.062,3.031-1.737,3.611
			c-1.677,0.58-3.005-0.047-3.574-1.693l-1.436-4.146l1.498-0.52l1.446,4.176c0.291,0.844,0.902,1.199,1.636,0.944
			c0.734-0.253,0.996-0.912,0.7-1.766L256.359-2426.724z"/>
		<path fill="#FFFFFF" d="M265.215-2422.181l-2.186-1.928l-0.111,0.035l-0.32,0.102l0.756,2.384l-1.512,0.479l-2.139-6.746
			l2.021-0.641c1.762-0.559,3.063-0.102,3.49,1.24c0.291,0.92,0.043,1.736-0.703,2.369l2.545,2.123L265.215-2422.181z
			 M262.191-2425.253l0.591-0.188c0.73-0.232,1.062-0.721,0.87-1.322c-0.169-0.531-0.711-0.711-1.441-0.479l-0.591,0.186
			L262.191-2425.253z"/>
		<path fill="#FFFFFF" d="M266.203-2429.892l1.521-0.451l2.016,6.788l-1.521,0.45L266.203-2429.892z"/>
		<path fill="#FFFFFF" d="M269.594-2430.896l1.811-0.5l2.268,2.412c0.953,1.013,1.332,1.637,1.51,1.924
			c-0.13-0.312-0.378-0.973-0.701-2.146l-0.779-2.823l1.527-0.421l1.883,6.818l-1.812,0.5l-2.306-2.399
			c-0.918-0.956-1.371-1.691-1.533-1.963c0.121,0.283,0.456,1.062,0.764,2.174l0.778,2.824l-1.527,0.419L269.594-2430.896z"/>
		<path fill="#FFFFFF" d="M284.393-2428.108c-0.496,0.533-1.242,1.062-2.343,1.332c-2.161,0.53-3.854-0.555-4.375-2.676
			c-0.505-2.06,0.559-3.844,2.75-4.383c0.826-0.201,1.429-0.167,1.876-0.016l0.349,1.416c-0.607-0.229-1.218-0.295-1.921-0.124
			c-1.275,0.312-1.776,1.399-1.453,2.714c0.346,1.406,1.289,2.082,2.555,1.771c0.314-0.076,0.602-0.189,0.855-0.34l-0.278-1.131
			l-1.101,0.271l-0.32-1.305l2.641-0.646L284.393-2428.108z"/>
	</g>
</g>
<g>
	<path fill="#EF4527" d="M291.295-2501.968c5.909-0.939,9.879,1.288,10.627,5.989c0.779,4.903-2.315,8.392-8.326,9.348l-1.58,0.25
		l1.165,7.321l-5.071,0.807l-3.6-22.636L291.295-2501.968z M293.313-2490.995c2.452-0.392,3.722-1.937,3.369-4.151
		c-0.32-2.016-1.985-2.956-4.437-2.565l-1.981,0.314l1.067,6.717L293.313-2490.995z"/>
	<path fill="#EF4527" d="M310.678-2495.968c0.724-2.163,2.136-3.342,3.893-3.531c0.507-0.055,0.853-0.023,1.205,0.075l0.514,4.766
		c-0.562-0.145-1.077-0.157-1.82-0.077c-2.163,0.233-3.46,1.845-3.132,4.887l0.887,8.212l-4.935,0.532l-1.853-17.17l4.935-0.532
		L310.678-2495.968z"/>
	<path fill="#EF4527" d="M326.791-2500.389c5.262-0.301,8.605,2.778,8.92,8.278c0.311,5.433-2.849,9.189-7.907,9.479
		c-5.296,0.303-8.638-2.742-8.948-8.208C318.542-2496.308,321.698-2500.098,326.791-2500.389z M326.98-2496.482
		c-2.038,0.116-3.155,2.021-2.978,5.143c0.178,3.124,1.541,4.919,3.611,4.801c2.037-0.116,3.121-2.018,2.944-5.106
		C330.379-2494.803,329.051-2496.601,326.98-2496.482z"/>
	<path fill="#EF4527" d="M355.422-2507.421l-0.107,24.035l-4.964-0.021l0.012-2.244c-1.062,1.627-2.664,2.504-4.67,2.495
		c-4.146-0.019-6.888-3.295-6.861-8.803c0.022-5.439,2.965-8.995,6.975-8.979c1.974,0.009,3.533,0.764,4.614,2.266l0.039-8.771
		L355.422-2507.421z M350.389-2492.009c0.015-3.127-1.168-4.833-3.14-4.842c-1.938-0.009-3.237,1.651-3.251,4.745
		c-0.015,3.162,1.304,4.867,3.275,4.876C349.211-2487.222,350.375-2488.881,350.389-2492.009z"/>
	<path fill="#EF4527" d="M376.085-2499.462l-1.132,17.231l-4.952-0.325l0.185-2.814c-1.286,1.959-3.188,2.891-5.356,2.748
		c-3.189-0.209-5.19-2.419-4.919-6.557l0.742-11.296l4.951,0.325l-0.671,10.21c-0.15,2.307,0.625,3.448,2.151,3.548
		c1.765,0.116,3.267-1.488,3.472-4.609l0.577-8.785L376.085-2499.462z"/>
	<path fill="#EF4527" d="M379.379-2490.255c0.658-5.434,4.367-8.615,10.375-7.887c1.855,0.226,3.127,0.755,4.074,1.418l-0.521,4.287
		c-0.997-0.807-2.189-1.431-3.944-1.643c-2.666-0.323-4.453,1.139-4.829,4.243c-0.377,3.105,1.039,4.989,3.807,5.325
		c1.52,0.185,2.952-0.054,4.088-0.67l-0.511,4.221c-1.021,0.525-2.414,0.699-4.136,0.491
		C381.943-2481.178,378.721-2484.821,379.379-2490.255z"/>
	<path fill="#EF4527" d="M403.463-2492.11l-1.278,7.608c-0.241,1.441,0.434,2.349,1.506,2.528c0.872,0.146,1.683,0.041,2.505-0.338
		l-0.659,3.923c-0.878,0.301-2.09,0.337-3.465,0.106c-3.89-0.653-5.456-3.019-4.824-6.772l1.321-7.878l-2.18-0.366l0.609-3.62
		l2.178,0.365l0.631-3.754l4.896,0.821l-0.631,3.755l4.258,0.715l-0.608,3.622L403.463-2492.11z"/>
</g>
<g id="red">
</g>
</svg>
