<?xml version="1.0" encoding="utf-8"?>
<!-- Generator: Adobe Illustrator 15.0.0, SVG Export Plug-In . SVG Version: 6.00 Build 0)  -->
<!DOCTYPE svg PUBLIC "-//W3C//DTD SVG 1.1//EN" "http://www.w3.org/Graphics/SVG/1.1/DTD/svg11.dtd">
<svg version="1.1" id="Layer_1" xmlns="http://www.w3.org/2000/svg" xmlns:xlink="http://www.w3.org/1999/xlink" x="0px" y="0px"
	 width="692.24px" height="688.289px" viewBox="1040 -2508 692.24 688.289" enable-background="new 1040 -2508 692.24 688.289"
	 xml:space="preserve">
<g id="ring">
</g>
<path opacity="0.2" fill="#89B9E9" enable-background="new    " d="M1286.938-2397.162c6.867-2.905,13.834-5.479,20.879-7.754
	c12.646-4.088,25.561-7.166,38.688-9.213c13.023-2.03,26.255-3.064,39.644-3.064l0,0c34.404,0,67.783,6.739,99.209,20.031
	c5.406,2.286,10.709,4.754,15.912,7.389c23.283,11.786,44.516,27.029,63.314,45.47l28.619-28.62
	c-21.984-21.625-46.768-39.394-73.521-52.982c-40.877-20.762-86.357-31.763-133.533-31.763l0,0c-15.545,0-30.901,1.212-45.977,3.555
	c-15.296,2.377-30.294,5.932-44.888,10.631c-43.238,13.922-82.917,37.827-116.193,70.557l28.624,28.625
	C1230.716-2366.864,1257.354-2384.647,1286.938-2397.162z"/>
<g>
	<g>
		<path fill="#444232" d="M1459.19-2431.878c2.32,0.635,3.184,2.256,2.605,4.362c-0.592,2.158-2.371,3.043-4.498,2.459l-2.33-0.639
			l1.873-6.828L1459.19-2431.878z M1457.634-2426.358c1.236,0.34,2.195-0.258,2.562-1.596c0.359-1.316-0.164-2.299-1.41-2.642
			l-0.771-0.211l-1.16,4.234L1457.634-2426.358z"/>
		<path fill="#444232" d="M1466.847-2423.687l-0.387,1.287l-4.215-1.266l2.037-6.777l4.174,1.254l-0.389,1.287l-2.654-0.797
			l-0.404,1.348l2.373,0.713l-0.387,1.287l-2.373-0.713l-0.473,1.567L1466.847-2423.687z"/>
		<path fill="#444232" d="M1471.53-2420.755l-1.945-0.641l-0.004-7.453l1.625,0.535l-0.068,3.139
			c-0.07,2.299-0.109,2.617-0.135,2.896c0.145-0.238,0.289-0.512,1.611-2.41l1.766-2.582l1.578,0.518L1471.53-2420.755z"/>
		<path fill="#444232" d="M1479.591-2419.374l-0.451,1.266l-4.145-1.477l2.377-6.664l4.104,1.463l-0.451,1.266l-2.609-0.93
			l-0.475,1.324l2.334,0.832l-0.449,1.265l-2.334-0.831l-0.551,1.543L1479.591-2419.374z"/>
		<path fill="#444232" d="M1484.905-2417.366l-0.477,1.256l-3.953-1.502l2.508-6.611l1.482,0.562l-2.033,5.355L1484.905-2417.366z"
			/>
		<path fill="#444232" d="M1487.929-2414.614c-1.924-0.781-2.551-2.498-1.689-4.617c0.852-2.09,2.492-2.871,4.418-2.088
			c1.924,0.782,2.557,2.488,1.705,4.578C1491.501-2414.622,1489.853-2413.83,1487.929-2414.614z M1490.161-2420.104
			c-0.961-0.392-1.855,0.162-2.396,1.494c-0.549,1.352-0.305,2.391,0.658,2.781c0.963,0.393,1.863-0.183,2.414-1.533
			C1491.378-2418.694,1491.124-2419.713,1490.161-2420.104z"/>
		<path fill="#444232" d="M1497.149-2418.491c1.691,0.742,2.354,1.979,1.764,3.328c-0.615,1.401-2,1.792-3.723,1.038l-0.451-0.198
			l-0.918,2.096l-1.451-0.635l2.838-6.48L1497.149-2418.491z M1495.847-2415.304c0.701,0.309,1.289,0.117,1.566-0.518
			c0.252-0.576-0.023-1.099-0.727-1.406l-0.566-0.248l-0.842,1.922L1495.847-2415.304z"/>
		<path fill="#444232" d="M1501.374-2416.631l1.793,0.85l-0.268,2.822c-0.145,1.535-0.285,1.932-0.434,2.395
			c0.242-0.418,0.484-0.779,1.555-1.864l1.992-2.007l1.672,0.789l-2.406,6.688l-1.463-0.69l0.982-2.566
			c0.461-1.197,0.574-1.609,0.848-2.234c-0.35,0.59-0.73,1.002-1.607,1.877l-1.848,1.844l-1.109-0.525l0.232-2.607
			c0.09-1.048,0.215-1.779,0.42-2.436c-0.271,0.625-0.604,1.281-1.102,2.113l-1.418,2.361l-1.463-0.691L1501.374-2416.631z"/>
		<path fill="#444232" d="M1511.126-2405.487l-0.609,1.2l-3.926-1.995l3.209-6.314l3.889,1.977l-0.607,1.198l-2.477-1.257
			l-0.637,1.257l2.211,1.123l-0.609,1.198l-2.211-1.123l-0.742,1.461L1511.126-2405.487z"/>
		<path fill="#444232" d="M1515.126-2409.877l1.656,0.896l-0.033,3.312c-0.012,1.392-0.17,2.105-0.24,2.438
			c0.121-0.316,0.4-0.965,0.98-2.039l1.391-2.58l1.396,0.754l-3.363,6.232l-1.654-0.894l-0.004-3.334
			c-0.002-1.326,0.18-2.17,0.25-2.479c-0.107,0.287-0.404,1.082-0.953,2.1l-1.393,2.58l-1.396-0.754L1515.126-2409.877z"/>
		<path fill="#444232" d="M1525.372-2402.636l-1.586-0.908l-2.85,4.974l-1.375-0.787l2.85-4.976l-1.596-0.913l0.668-1.165
			l4.557,2.609L1525.372-2402.636z"/>
	</g>
	<g>
		<path fill="#444232" d="M1240.733-2400.478l1.701-1.02l2.199,1.789c1.196,0.973,1.448,1.311,1.75,1.69
			c-0.212-0.436-0.38-0.836-0.687-2.327l-0.562-2.773l1.584-0.951l4.228,5.717l-1.387,0.832l-1.591-2.242
			c-0.739-1.049-1.021-1.371-1.389-1.945c0.299,0.616,0.429,1.162,0.668,2.378l0.508,2.56l-1.053,0.633l-2.037-1.644
			c-0.824-0.656-1.362-1.166-1.795-1.702c0.369,0.573,0.729,1.215,1.146,2.092l1.178,2.49l-1.389,0.832L1240.733-2400.478z"/>
		<path fill="#444232" d="M1255.099-2402.295l-2.184,1.216l0.333,1.438l-1.448,0.81l-1.41-7.317l1.789-0.995l5.48,5.045
			l-1.495,0.834L1255.099-2402.295z M1254.13-2403.233l-0.227-0.211c-1.642-1.609-1.851-1.854-2.037-2.061
			c0.078,0.268,0.18,0.561,0.682,2.816l0.069,0.299L1254.13-2403.233z"/>
		<path fill="#444232" d="M1255.538-2408.989l1.666-0.869l2.722,1.885c1.146,0.787,1.646,1.318,1.882,1.564
			c-0.192-0.279-0.574-0.873-1.137-1.953l-1.354-2.598l1.404-0.732l3.271,6.273l-1.667,0.869l-2.759-1.865
			c-1.098-0.74-1.694-1.365-1.91-1.596c0.179,0.25,0.669,0.941,1.203,1.965l1.354,2.598l-1.404,0.731L1255.538-2408.989z"/>
		<path fill="#444232" d="M1266.124-2414.353l1.427-0.693l1.888,3.883c0.781,1.604,0.301,3.018-1.295,3.795
			c-1.598,0.774-2.992,0.31-3.754-1.258l-1.921-3.949l1.427-0.693l1.935,3.977c0.392,0.803,1.04,1.082,1.739,0.742
			c0.697-0.34,0.88-1.022,0.484-1.836L1266.124-2414.353z"/>
		<path fill="#444232" d="M1271.282-2415.284l0.629,1.375l2.253-1.029l0.56,1.222l-2.254,1.03l1.194,2.617l-1.442,0.658l-2.94-6.438
			l3.965-1.811l0.56,1.223L1271.282-2415.284z"/>
		<path fill="#444232" d="M1280.004-2414.42l-2.295,0.986l0.185,1.465l-1.523,0.656l-0.655-7.422l1.88-0.81l4.938,5.578
			l-1.571,0.677L1280.004-2414.42z M1279.138-2415.452l-0.203-0.232c-1.471-1.768-1.651-2.033-1.817-2.258
			c0.051,0.274,0.122,0.576,0.39,2.871l0.04,0.305L1279.138-2415.452z"/>
		<path fill="#444232" d="M1281.656-2417.444c-0.789-1.969,0.017-3.887,2.112-4.727c0.739-0.297,1.287-0.346,1.75-0.262l0.543,1.355
			c-0.633-0.142-1.181-0.125-1.814,0.129c-1.219,0.487-1.562,1.633-1.061,2.89c0.539,1.347,1.568,1.884,2.778,1.399
			c0.644-0.258,1.115-0.662,1.421-1.111l0.512,1.277c-0.359,0.482-0.907,0.838-1.57,1.104
			C1284.3-2414.577,1282.47-2415.418,1281.656-2417.444z"/>
		<path fill="#444232" d="M1291.738-2423.679l-1.71,0.642l2.008,5.365l-1.484,0.555l-2.008-5.365l-1.72,0.643l-0.472-1.258
			l4.914-1.838L1291.738-2423.679z"/>
		<path fill="#444232" d="M1296.36-2426.724l1.496-0.52l1.412,4.075c0.584,1.688-0.062,3.031-1.737,3.611
			c-1.677,0.58-3.005-0.047-3.574-1.693l-1.437-4.146l1.498-0.52l1.446,4.176c0.291,0.844,0.902,1.199,1.636,0.944
			c0.734-0.253,0.996-0.912,0.701-1.766L1296.36-2426.724z"/>
		<path fill="#444232" d="M1305.216-2422.181l-2.186-1.928l-0.111,0.035l-0.32,0.102l0.756,2.384l-1.512,0.479l-2.139-6.746
			l2.021-0.641c1.762-0.559,3.062-0.102,3.489,1.24c0.291,0.92,0.043,1.736-0.703,2.369l2.546,2.123L1305.216-2422.181z
			 M1302.192-2425.253l0.591-0.188c0.729-0.232,1.062-0.721,0.87-1.322c-0.17-0.531-0.711-0.711-1.441-0.479l-0.591,0.186
			L1302.192-2425.253z"/>
		<path fill="#444232" d="M1306.204-2429.892l1.521-0.451l2.016,6.788l-1.521,0.45L1306.204-2429.892z"/>
		<path fill="#444232" d="M1309.595-2430.896l1.812-0.5l2.268,2.412c0.953,1.013,1.332,1.637,1.511,1.924
			c-0.131-0.312-0.379-0.973-0.701-2.146l-0.779-2.823l1.527-0.421l1.883,6.818l-1.812,0.5l-2.306-2.399
			c-0.918-0.956-1.371-1.691-1.533-1.963c0.121,0.283,0.456,1.062,0.765,2.174l0.777,2.824l-1.527,0.419L1309.595-2430.896z"/>
		<path fill="#444232" d="M1324.394-2428.108c-0.496,0.533-1.242,1.062-2.343,1.332c-2.161,0.53-3.854-0.555-4.375-2.676
			c-0.505-2.06,0.56-3.844,2.75-4.383c0.826-0.201,1.429-0.167,1.876-0.016l0.35,1.416c-0.607-0.229-1.219-0.295-1.922-0.124
			c-1.274,0.312-1.775,1.399-1.453,2.714c0.347,1.406,1.289,2.082,2.556,1.771c0.313-0.076,0.603-0.189,0.854-0.34l-0.277-1.131
			l-1.102,0.271l-0.32-1.305l2.642-0.646L1324.394-2428.108z"/>
	</g>
</g>
<g>
	<path fill="#444232" d="M1331.296-2501.968c5.909-0.939,9.879,1.288,10.627,5.989c0.779,4.903-2.314,8.392-8.326,9.348l-1.58,0.25
		l1.166,7.321l-5.072,0.807l-3.6-22.636L1331.296-2501.968z M1333.313-2490.995c2.453-0.392,3.723-1.937,3.369-4.151
		c-0.319-2.016-1.984-2.956-4.437-2.565l-1.981,0.314l1.067,6.717L1333.313-2490.995z"/>
	<path fill="#444232" d="M1350.679-2495.968c0.723-2.163,2.135-3.342,3.893-3.531c0.507-0.055,0.853-0.023,1.205,0.075l0.514,4.766
		c-0.562-0.145-1.077-0.157-1.82-0.077c-2.162,0.233-3.46,1.845-3.132,4.887l0.888,8.212l-4.936,0.532l-1.854-17.17l4.936-0.532
		L1350.679-2495.968z"/>
	<path fill="#444232" d="M1366.792-2500.389c5.262-0.301,8.605,2.778,8.92,8.278c0.311,5.433-2.848,9.189-7.906,9.479
		c-5.297,0.303-8.639-2.742-8.949-8.208C1358.543-2496.308,1361.699-2500.098,1366.792-2500.389z M1366.981-2496.482
		c-2.039,0.116-3.155,2.021-2.978,5.143c0.179,3.124,1.542,4.919,3.612,4.801c2.035-0.116,3.119-2.018,2.943-5.106
		C1370.38-2494.803,1369.052-2496.601,1366.981-2496.482z"/>
	<path fill="#444232" d="M1395.423-2507.421l-0.107,24.035l-4.963-0.021l0.01-2.244c-1.061,1.627-2.662,2.504-4.67,2.495
		c-4.145-0.019-6.887-3.295-6.859-8.803c0.021-5.439,2.965-8.995,6.975-8.979c1.973,0.009,3.533,0.764,4.613,2.266l0.039-8.771
		L1395.423-2507.421z M1390.39-2492.009c0.016-3.127-1.168-4.833-3.139-4.842c-1.939-0.009-3.238,1.651-3.252,4.745
		c-0.016,3.162,1.305,4.867,3.275,4.876C1389.212-2487.222,1390.376-2488.881,1390.39-2492.009z"/>
	<path fill="#444232" d="M1416.087-2499.462l-1.133,17.231l-4.951-0.325l0.184-2.814c-1.287,1.959-3.188,2.891-5.355,2.748
		c-3.189-0.209-5.191-2.419-4.92-6.557l0.742-11.296l4.951,0.325l-0.67,10.21c-0.15,2.307,0.625,3.448,2.15,3.548
		c1.766,0.116,3.268-1.488,3.473-4.609l0.576-8.785L1416.087-2499.462z"/>
	<path fill="#444232" d="M1419.38-2490.255c0.658-5.434,4.367-8.615,10.375-7.887c1.855,0.226,3.127,0.755,4.074,1.418l-0.52,4.287
		c-0.998-0.807-2.189-1.431-3.945-1.643c-2.666-0.323-4.453,1.139-4.828,4.243c-0.377,3.105,1.039,4.989,3.807,5.325
		c1.518,0.185,2.951-0.054,4.088-0.67l-0.512,4.221c-1.021,0.525-2.414,0.699-4.135,0.491
		C1421.944-2481.178,1418.722-2484.821,1419.38-2490.255z"/>
	<path fill="#444232" d="M1443.464-2492.11l-1.277,7.608c-0.242,1.441,0.434,2.349,1.504,2.528c0.873,0.146,1.684,0.041,2.506-0.338
		l-0.658,3.923c-0.879,0.301-2.09,0.337-3.465,0.106c-3.891-0.653-5.457-3.019-4.824-6.772l1.32-7.878l-2.18-0.366l0.609-3.62
		l2.178,0.365l0.631-3.754l4.896,0.821l-0.631,3.755l4.258,0.715l-0.609,3.622L1443.464-2492.11z"/>
</g>
<g id="red">
</g>
</svg>
