<?xml version="1.0" encoding="utf-8"?>
<!-- Generator: Adobe Illustrator 15.0.0, SVG Export Plug-In . SVG Version: 6.00 Build 0)  -->
<!DOCTYPE svg PUBLIC "-//W3C//DTD SVG 1.1//EN" "http://www.w3.org/Graphics/SVG/1.1/DTD/svg11.dtd">
<svg version="1.1" id="Layer_1" xmlns="http://www.w3.org/2000/svg" xmlns:xlink="http://www.w3.org/1999/xlink" x="0px" y="0px"
	 width="692.24px" height="688.289px" viewBox="0 0 692.24 688.289" enable-background="new 0 0 692.24 688.289"
	 xml:space="preserve">
<g id="ring">
</g>
<path fill="#EF4527" d="M445.358,581.349c-6.577,2.782-13.246,5.261-19.987,7.468c-12.78,4.183-25.836,7.328-39.112,9.424
	c-13.174,2.078-26.561,3.141-40.109,3.141l0,0c-34.406,0-67.784-6.739-99.211-20.031c-5.829-2.466-11.54-5.143-17.136-8.013
	c-22.808-11.701-43.629-26.735-62.102-44.858l-28.62,28.62c21.653,21.3,46.022,38.854,72.314,52.364
	c7.159,3.679,14.454,7.07,21.883,10.141c0.258,0.106,0.514,0.215,0.772,0.32c1.737,0.713,3.485,1.4,5.237,2.08
	c0.885,0.341,1.771,0.678,2.659,1.011c0.76,0.286,1.522,0.563,2.285,0.843c2.096,0.768,4.199,1.517,6.316,2.235
	c0.117,0.04,0.233,0.079,0.351,0.119c29.898,10.125,61.932,15.616,95.25,15.616c15.802,0,31.309-1.246,46.439-3.624
	c15.537-2.441,30.668-6.097,45.306-10.849c7.848-2.549,15.548-5.422,23.094-8.59c0.977-0.41,1.951-0.82,2.923-1.244
	c0.634-0.272,1.266-0.549,1.896-0.826c32.092-14.227,61.666-34.273,87.41-59.6l-28.621-28.621
	C501.59,551.046,474.947,568.834,445.358,581.349z"/>
<g>
	<path fill="#FFFFFF" d="M461.621,595.109c-0.623-0.052-1.201-0.009-1.813,0.271c-0.572,0.262-0.73,0.598-0.574,0.94
		c0.147,0.326,0.458,0.449,1.487,0.406c1.232-0.053,2.104,0.115,2.609,1.223c0.521,1.146-0.044,2.361-1.457,3.005
		c-0.812,0.37-1.468,0.448-2.054,0.403l-0.613-1.346c0.761,0.15,1.416,0.07,2.038-0.213c0.572-0.26,0.808-0.68,0.625-1.08
		c-0.184-0.402-0.562-0.527-1.658-0.479c-1.187,0.055-2.008-0.205-2.443-1.16c-0.469-1.031,0.063-2.242,1.524-2.908
		c0.688-0.312,1.104-0.387,1.729-0.383L461.621,595.109z"/>
	<path fill="#FFFFFF" d="M468.266,596.279l-2.248,1.09l0.249,1.453l-1.491,0.723l-0.988-7.381l1.843-0.894l5.183,5.351l-1.541,0.746
		L468.266,596.279z M467.354,595.285l-0.214-0.223c-1.546-1.701-1.74-1.957-1.917-2.174c0.062,0.273,0.148,0.568,0.52,2.852
		l0.054,0.302L467.354,595.285z"/>
	<path fill="#FFFFFF" d="M475.119,592.904l0.613,1.194l-3.765,1.933l-3.229-6.295l1.41-0.724l2.615,5.099L475.119,592.904z"/>
	<path fill="#FFFFFF" d="M480.071,590.249l0.637,1.184l-3.875,2.084l-3.353-6.231l3.837-2.064l0.637,1.184l-2.44,1.312l0.666,1.24
		l2.184-1.174l0.637,1.184l-2.183,1.174l0.776,1.441L480.071,590.249z"/>
	<path fill="#FFFFFF" d="M482.733,584.152c-0.626,0.004-1.199,0.1-1.784,0.432c-0.549,0.311-0.678,0.66-0.49,0.988
		c0.176,0.311,0.496,0.407,1.52,0.274c1.225-0.162,2.107-0.069,2.709,0.99c0.619,1.096,0.162,2.354-1.188,3.121
		c-0.778,0.438-1.425,0.575-2.012,0.584l-0.729-1.289c0.771,0.082,1.417-0.056,2.012-0.392c0.549-0.311,0.746-0.748,0.53-1.133
		c-0.219-0.383-0.607-0.477-1.696-0.33c-1.178,0.158-2.02-0.028-2.536-0.94c-0.56-0.988-0.135-2.242,1.265-3.033
		c0.658-0.373,1.066-0.481,1.689-0.533L482.733,584.152z"/>
</g>
<g>
	<path fill="#FFFFFF" d="M281.635,612.496l-1.77-0.446l-1.4,5.558l-1.537-0.388l1.4-5.557l-1.781-0.449l0.327-1.304l5.089,1.283
		L281.635,612.496z"/>
	<path fill="#FFFFFF" d="M286.027,618.008l-0.302,1.311l-4.29-0.984l1.583-6.9l4.249,0.977l-0.301,1.311l-2.702-0.621l-0.315,1.372
		l2.416,0.556l-0.301,1.311l-2.416-0.555l-0.366,1.598L286.027,618.008z"/>
	<path fill="#FFFFFF" d="M287.443,616.055c0.429-2.078,2.157-3.232,4.369-2.777c0.781,0.162,1.263,0.422,1.603,0.75l-0.295,1.43
		c-0.45-0.469-0.916-0.758-1.584-0.896c-1.285-0.266-2.204,0.499-2.479,1.826c-0.292,1.419,0.271,2.437,1.545,2.698
		c0.679,0.141,1.295,0.062,1.799-0.145l-0.277,1.349c-0.567,0.204-1.221,0.198-1.92,0.054
		C288.064,619.904,287.002,618.193,287.443,616.055z"/>
	<path fill="#FFFFFF" d="M300.426,614.982l-1.254,6.963l-1.561-0.281l0.534-2.965l-2.623-0.474l-0.535,2.966l-1.56-0.281
		l1.255-6.963l1.56,0.28l-0.48,2.677l2.622,0.473l0.482-2.676L300.426,614.982z"/>
	<path fill="#FFFFFF" d="M302.04,615.251l1.857,0.282l1.083,3.13c0.457,1.312,0.549,2.036,0.592,2.372
		c0.01-0.338,0.055-1.043,0.238-2.245l0.443-2.896l1.565,0.24l-1.069,6.993l-1.857-0.284l-1.124-3.135
		c-0.446-1.247-0.56-2.103-0.597-2.416c-0.005,0.307-0.018,1.153-0.191,2.296l-0.443,2.895l-1.566-0.238L302.04,615.251z"/>
	<path fill="#FFFFFF" d="M309.455,616.342l1.572,0.208l-0.927,7.014l-1.571-0.208L309.455,616.342z"/>
	<path fill="#FFFFFF" d="M311.987,620.226c0.24-2.108,1.859-3.415,4.104-3.159c0.793,0.092,1.297,0.308,1.665,0.604l-0.165,1.451
		c-0.491-0.428-0.98-0.674-1.659-0.75c-1.305-0.148-2.149,0.695-2.305,2.042c-0.164,1.439,0.486,2.403,1.78,2.551
		c0.688,0.078,1.297-0.054,1.778-0.306l-0.154,1.367c-0.547,0.256-1.198,0.309-1.908,0.228
		C312.952,624.004,311.74,622.396,311.987,620.226z"/>
	<path fill="#FFFFFF" d="M322.604,623.478l-2.486-0.222l-0.534,1.375l-1.651-0.146l2.949-6.839l2.037,0.183l1.693,7.252
		l-1.704-0.152L322.604,623.478z M322.332,622.158l-0.068-0.303c-0.451-2.252-0.485-2.57-0.524-2.849
		c-0.087,0.267-0.166,0.563-1.021,2.711l-0.108,0.285L322.332,622.158z"/>
	<path fill="#FFFFFF" d="M330.241,624.098l-0.088,1.342l-4.226-0.275l0.463-7.065l1.583,0.104l-0.375,5.724L330.241,624.098z"/>
</g>
<g>
	<path fill="#FFFFFF" d="M166.259,558.431l-1.896-1.627l-1.232,0.81l-1.26-1.08l6.376-3.851l1.554,1.332l-2.84,6.888l-1.298-1.115
		L166.259,558.431z M166.806,557.197l0.119-0.284c0.942-2.097,1.1-2.375,1.229-2.623c-0.226,0.166-0.464,0.36-2.408,1.61
		l-0.255,0.17L166.806,557.197z"/>
	<path fill="#FFFFFF" d="M174.355,557.806c1.866,1.517,2.003,3.347,0.625,5.041c-1.41,1.734-3.393,1.828-5.104,0.438l-1.875-1.523
		l4.463-5.492L174.355,557.806z M170.707,562.228c0.994,0.81,2.112,0.648,2.986-0.428c0.86-1.06,0.775-2.17-0.227-2.983
		l-0.619-0.505l-2.769,3.406L170.707,562.228z"/>
	<path fill="#FFFFFF" d="M176.572,568.572l-1.621-1.248l2.473-7.028l1.355,1.045l-1.109,2.937c-0.83,2.145-0.973,2.432-1.089,2.688
		c0.218-0.178,0.444-0.387,2.32-1.738l2.522-1.846l1.314,1.012L176.572,568.572z"/>
	<path fill="#FFFFFF" d="M183.701,565.089l1.274,0.944l-4.217,5.688l-1.274-0.944L183.701,565.089z"/>
	<path fill="#FFFFFF" d="M188.52,570.726c-0.268-0.565-0.596-1.047-1.143-1.438c-0.513-0.367-0.883-0.334-1.104-0.027
		c-0.208,0.291-0.161,0.621,0.39,1.494c0.662,1.043,0.952,1.885,0.242,2.875c-0.733,1.025-2.07,1.143-3.335,0.236
		c-0.727-0.521-1.123-1.052-1.377-1.58l0.863-1.205c0.249,0.734,0.646,1.264,1.201,1.662c0.513,0.367,0.994,0.362,1.251,0.004
		c0.257-0.359,0.177-0.752-0.413-1.68c-0.641-1.003-0.825-1.845-0.213-2.699c0.66-0.922,1.979-1.064,3.285-0.129
		c0.615,0.44,0.888,0.764,1.195,1.309L188.52,570.726z"/>
	<path fill="#FFFFFF" d="M189.213,577.804c-1.719-1.168-1.973-2.979-0.686-4.873c1.27-1.864,3.041-2.287,4.76-1.116
		c1.721,1.17,1.979,2.971,0.711,4.838C192.711,578.544,190.932,578.974,189.213,577.804z M192.549,572.9
		c-0.859-0.586-1.85-0.23-2.658,0.959c-0.821,1.207-0.799,2.274,0.061,2.86c0.859,0.584,1.861,0.211,2.683-0.996
		C193.443,574.533,193.41,573.484,192.549,572.9z"/>
	<path fill="#FFFFFF" d="M196.215,582.316l0.086-2.916l-0.097-0.062l-0.282-0.182l-1.352,2.104l-1.334-0.857l3.826-5.955
		l1.785,1.146c1.554,1,2.033,2.293,1.272,3.479c-0.522,0.812-1.308,1.144-2.272,0.974l-0.008,3.313L196.215,582.316z
		 M196.648,578.025l0.521,0.336c0.645,0.414,1.232,0.354,1.573-0.177c0.301-0.467,0.094-1-0.552-1.414l-0.521-0.336L196.648,578.025
		z"/>
	<path fill="#FFFFFF" d="M202.646,583.363l-1.309,2.142l-1.38-0.845l1.288-2.104l0.389-5.164l1.567,0.959l-0.098,1.146
		c-0.12,1.401-0.222,1.893-0.323,2.237c0.253-0.252,0.668-0.588,1.792-1.34l0.94-0.633l1.522,0.932L202.646,583.363z"/>
</g>
<g>
	<path fill="#EF4527" d="M323.075,668.121l-5.89-0.576l-1.808,18.479l-5.111-0.5l1.81-18.479l-5.923-0.579l0.425-4.332l16.921,1.655
		L323.075,668.121z"/>
	<path fill="#EF4527" d="M336.122,686.429c-0.984,0.633-2.841,1.019-5.084,0.908c-5.979-0.292-9.106-3.851-8.843-9.217
		c0.264-5.4,3.803-8.837,8.489-8.607c4.688,0.229,7.062,3.206,6.849,7.554c-0.062,1.258-0.25,2.338-0.455,3.043l-9.612-0.472
		c0.362,2.333,1.796,3.663,4.274,3.784c1.835,0.09,3.452-0.273,4.579-1.035L336.122,686.429z M332.848,676.837
		c0.039-0.134,0.08-0.269,0.099-0.642c0.065-1.326-0.617-2.688-2.314-2.771c-1.631-0.08-2.709,1.093-3.082,3.151L332.848,676.837z"
		/>
	<path fill="#EF4527" d="M341.627,671.24c1.254-0.754,3.324-1.344,5.874-1.356c4.861-0.026,7.286,2.035,7.31,6.25l0.062,11.22
		l-4.862,0.025l-0.015-2.787c-0.535,1.669-1.955,3.07-4.403,3.083c-3.332,0.019-5.214-2.386-5.229-5.003
		c-0.019-3.332,2.555-5.387,7.587-5.413l1.768-0.009l-0.004-0.578c-0.01-1.904-0.729-2.887-3.007-2.874
		c-1.904,0.011-3.77,0.769-5.057,1.659L341.627,671.24z M347.932,680.32c-1.563,0.008-2.41,0.828-2.403,1.883
		c0.006,1.088,0.688,1.764,1.846,1.758c1.359-0.008,2.374-0.999,2.364-2.801l-0.005-0.851L347.932,680.32z"/>
	<path fill="#EF4527" d="M364.135,672.511c0.963-2.087,2.681-3.243,4.747-3.403c2.306-0.181,4.123,0.838,5.013,3.053
		c1.009-2.362,2.918-3.672,5.121-3.844c3.083-0.24,5.312,1.666,5.635,5.801l0.876,11.252l-4.947,0.386l-0.792-10.167
		c-0.18-2.305-1.044-3.328-2.467-3.217c-1.661,0.129-2.852,1.927-2.606,5.044l0.681,8.743l-4.947,0.387l-0.792-10.167
		c-0.181-2.306-1.044-3.329-2.467-3.218c-1.661,0.129-2.852,1.927-2.608,5.045l0.682,8.742l-4.946,0.387l-1.343-17.217l4.948-0.385
		L364.135,672.511z"/>
</g>
<g id="red">
</g>
</svg>
